<svg width="35" height="36" viewBox="0 0 35 36" fill="none" xmlns="http://www.w3.org/2000/svg">
<path d="M19.8005 27.0847C19.8007 26.4319 19.9295 25.7855 20.1795 25.1825C20.4296 24.5795 20.796 24.0317 21.2578 23.5703C21.7196 23.1089 22.2677 22.743 22.871 22.4935C23.4742 22.244 24.1207 22.1158 24.7734 22.1161M19.7823 32.2188V14.0319M16.8875 22.0374C16.372 22.1832 15.8273 22.2605 15.2644 22.2605C11.97 22.2605 9.2998 19.5918 9.2998 16.3003C9.2998 13.0089 12.1341 10.3613 15.4285 10.3613C15.22 9.58693 15.1926 8.77501 15.3485 7.98841C15.5044 7.20181 15.8393 6.46168 16.3273 5.82538C16.8153 5.18908 17.4433 4.67372 18.1626 4.31923C18.8819 3.96474 19.6731 3.78066 20.475 3.78125C21.2389 3.78084 21.9936 3.94802 22.6859 4.271C23.3781 4.59398 23.9911 5.0649 24.4816 5.65055C24.972 6.2362 25.328 6.92232 25.5245 7.66053C25.7209 8.39874 25.7531 9.17106 25.6186 9.92302" stroke="black" stroke-linecap="round" stroke-linejoin="round"/>
</svg>
