<svg width="51" height="51" viewBox="0 0 51 51" fill="none" xmlns="http://www.w3.org/2000/svg">
<circle cx="25.5" cy="25.5" r="25.5" fill="#FF7A00" fill-opacity="0.3"/>
<path d="M24.5186 10.3508C24.7633 10.1281 25.0765 9.99527 25.4067 9.97407C25.7369 9.95287 26.0645 10.0446 26.3357 10.2342L26.4815 10.3508L41.5417 24.0417H37.1667V37.1667C37.1667 37.5239 37.0355 37.8686 36.7982 38.1355C36.5608 38.4025 36.2337 38.573 35.879 38.6148L35.7084 38.625H26.2292L29.875 32.7917L24.7709 28.4167L30.6042 24.0417L26.9584 21.125L27.6875 16.75L23.3125 21.125L26.9584 24.0417L19.6667 28.4167L25.1355 33.5208L20.3959 38.625H15.2917C14.9345 38.625 14.5898 38.4938 14.3228 38.2565C14.0559 38.0191 13.8854 37.692 13.8436 37.3373L13.8334 37.1667V24.0417H9.45837L24.5186 10.3508Z" fill="#E15201"/>
</svg>
