<svg width="51" height="51" viewBox="0 0 51 51" fill="none" xmlns="http://www.w3.org/2000/svg">
<circle cx="25.5" cy="25.5" r="25.5" fill="#F7B0F4" fill-opacity="0.3"/>
<path d="M20.9124 27.2014C20.642 27.2014 20.3776 27.1212 20.1528 26.971C19.928 26.8208 19.7527 26.6072 19.6492 26.3574C19.5458 26.1076 19.5187 25.8327 19.5714 25.5675C19.6242 25.3023 19.7544 25.0587 19.9456 24.8675C20.1368 24.6763 20.3804 24.5461 20.6456 24.4933C20.9108 24.4406 21.1857 24.4676 21.4356 24.5711C21.6854 24.6746 21.8989 24.8498 22.0491 25.0747C22.1994 25.2995 22.2795 25.5638 22.2795 25.8342C22.2795 26.1968 22.1355 26.5446 21.8791 26.801C21.6227 27.0574 21.275 27.2014 20.9124 27.2014ZM30.7561 24.467C30.4857 24.467 30.2214 24.5472 29.9965 24.6975C29.7717 24.8477 29.5965 25.0612 29.493 25.311C29.3895 25.5608 29.3624 25.8357 29.4152 26.101C29.4679 26.3662 29.5982 26.6098 29.7894 26.801C29.9806 26.9922 30.2242 27.1224 30.4894 27.1751C30.7546 27.2279 31.0295 27.2008 31.2793 27.0973C31.5291 26.9939 31.7427 26.8186 31.8929 26.5938C32.0431 26.369 32.1233 26.1046 32.1233 25.8342C32.1233 25.4716 31.9793 25.1239 31.7229 24.8675C31.4665 24.6111 31.1187 24.467 30.7561 24.467ZM29.2249 30.6084C28.207 31.2407 27.0325 31.5758 25.8342 31.5758C24.6359 31.5758 23.4615 31.2407 22.4436 30.6084C22.2594 30.4924 22.0367 30.4543 21.8244 30.5025C21.6121 30.5507 21.4276 30.6813 21.3116 30.8655C21.1955 31.0497 21.1574 31.2724 21.2056 31.4847C21.2538 31.697 21.3844 31.8815 21.5686 31.9975C22.8485 32.7949 24.3263 33.2176 25.8342 33.2176C27.3422 33.2176 28.82 32.7949 30.0999 31.9975C30.1911 31.9401 30.2701 31.8652 30.3323 31.7772C30.3946 31.6892 30.439 31.5898 30.4628 31.4847C30.4867 31.3796 30.4896 31.2708 30.4714 31.1646C30.4533 31.0583 30.4143 30.9567 30.3569 30.8655C30.2994 30.7743 30.2246 30.6953 30.1366 30.633C30.0486 30.5707 29.9492 30.5264 29.8441 30.5025C29.739 30.4786 29.6302 30.4757 29.5239 30.4939C29.4177 30.5121 29.3161 30.551 29.2249 30.6084ZM39.7795 25.8342C39.7795 28.5924 38.9617 31.2885 37.4293 33.5818C35.897 35.8751 33.719 37.6625 31.1709 38.718C28.6227 39.7735 25.8188 40.0497 23.1136 39.5116C20.4085 38.9735 17.9237 37.6453 15.9734 35.6951C14.0231 33.7448 12.695 31.26 12.1569 28.5548C11.6188 25.8497 11.895 23.0458 12.9504 20.4976C14.0059 17.9494 15.7933 15.7715 18.0866 14.2391C20.3799 12.7068 23.0761 11.8889 25.8342 11.8889C29.5314 11.8933 33.076 13.3639 35.6903 15.9782C38.3046 18.5925 39.7752 22.137 39.7795 25.8342ZM38.1389 25.8342C38.1351 22.6414 36.8918 19.5747 34.6711 17.2806C32.4505 14.9865 29.4259 13.6441 26.2348 13.5364C24.5081 15.8852 24.467 18.1575 24.467 18.178C24.467 18.5406 24.6111 18.8883 24.8675 19.1447C25.1239 19.4011 25.4716 19.5452 25.8342 19.5452C26.1968 19.5452 26.5446 19.4011 26.801 19.1447C27.0574 18.8883 27.2014 18.5406 27.2014 18.178C27.2014 17.9604 27.2878 17.7518 27.4417 17.5979C27.5955 17.4441 27.8042 17.3577 28.0217 17.3577C28.2393 17.3577 28.4479 17.4441 28.6018 17.5979C28.7556 17.7518 28.842 17.9604 28.842 18.178C28.842 18.9757 28.5252 19.7407 27.9611 20.3048C27.397 20.8689 26.632 21.1858 25.8342 21.1858C25.0365 21.1858 24.2715 20.8689 23.7074 20.3048C23.1433 19.7407 22.8264 18.9757 22.8264 18.178C22.8264 18.0754 22.8469 16.0151 24.2128 13.6362C21.869 13.9478 19.6646 14.928 17.8633 16.4597C16.0621 17.9913 14.7403 20.0095 14.0561 22.2727C13.3718 24.5359 13.3541 26.9484 14.0051 29.2214C14.6561 31.4944 15.9482 33.5317 17.7268 35.0896C19.5054 36.6475 21.6952 37.66 24.0341 38.0059C26.3731 38.3518 28.7622 38.0165 30.9155 37.0401C33.0689 36.0637 34.8954 34.4875 36.1764 32.5002C37.4575 30.5129 38.1388 28.1986 38.1389 25.8342Z" fill="#F18FED"/>
</svg>
