<svg width="40" height="40" viewBox="0 0 40 40" fill="none" xmlns="http://www.w3.org/2000/svg">
<circle cx="20" cy="20" r="20" fill="#1E6091"/>
<path d="M10.5 29.625H21.3225C21.9717 29.6254 22.6133 29.485 23.2031 29.2137C23.7929 28.9424 24.3169 28.5466 24.7391 28.0534L30.4789 21.3574C30.5991 21.2174 30.683 21.05 30.7232 20.87C30.7635 20.6899 30.7589 20.5028 30.7097 20.3249C30.6606 20.1471 30.5685 19.9841 30.4415 19.8502C30.3146 19.7164 30.1566 19.6158 29.9816 19.5574L27.7676 18.8194C27.2325 18.6455 26.6628 18.6061 26.1089 18.7048C25.5549 18.8035 25.0338 19.0372 24.5917 19.3853L21.0086 22.2506L20.3145 20.8613C19.9426 20.1123 19.3685 19.4825 18.6571 19.0431C17.9457 18.6037 17.1254 18.3722 16.2892 18.375H10.5C9.25912 18.375 8.25 19.3841 8.25 20.625V27.375C8.25 28.6159 9.25912 29.625 10.5 29.625ZM10.5 20.625H16.2892C17.1476 20.625 17.9183 21.1009 18.3019 21.8681L18.8048 22.875H13.875V25.125H20.6407C20.8138 25.1227 20.984 25.0804 21.138 25.0013L21.1414 25.0001L21.1459 24.9979H21.1493L21.1515 24.9968H21.156L21.1571 24.9956C21.1672 24.999 21.1605 24.9945 21.1605 24.9945C21.1718 24.9945 21.1627 24.9934 21.1627 24.9934H21.1639L21.1661 24.9923L21.1695 24.9911L21.1718 24.99L21.174 24.9889L21.1774 24.9878L21.1796 24.9866C21.183 24.9866 21.1807 24.9855 21.1819 24.9855L21.1853 24.9833L21.1875 24.9821L21.1897 24.981L21.1931 24.9799L21.1954 24.9788H21.1965L21.1988 24.9776L21.2021 24.9765L21.2044 24.9754C21.2145 24.9743 21.2077 24.9743 21.2077 24.9743L21.21 24.9731C21.2534 24.947 21.2947 24.9176 21.3337 24.8854L25.998 21.1538C26.2927 20.9198 26.6989 20.8466 27.0555 20.9659L27.6821 21.1751L23.0325 26.601C22.8186 26.8439 22.5556 27.0385 22.2607 27.1719C21.9659 27.3053 21.6461 27.3746 21.3225 27.375H10.5V20.625ZM24 8.25001H23.9809C23.7975 8.25226 22.8491 8.29389 21.75 9.04314C20.6801 8.31414 19.7542 8.25564 19.536 8.25114L19.5022 8.25001H19.4978C18.5966 8.25001 17.7484 8.60214 17.1139 9.23776C16.4771 9.87564 16.125 10.7228 16.125 11.625C16.125 12.5273 16.4771 13.3744 17.0936 13.992L20.9344 18.0263C21.04 18.136 21.1668 18.2232 21.307 18.2827C21.4472 18.3423 21.5979 18.3729 21.7502 18.3728C21.9026 18.3727 22.0533 18.3419 22.1934 18.2821C22.3335 18.2224 22.4601 18.135 22.5656 18.0251L26.3861 14.0111C27.024 13.3744 27.375 12.5273 27.375 11.625C27.375 10.7228 27.0229 9.87564 26.3872 9.23889C26.0749 8.9245 25.7032 8.67521 25.2938 8.50547C24.8844 8.33573 24.4454 8.2489 24.0023 8.25001H24ZM25.125 11.625C25.125 11.9254 25.008 12.2078 24.7751 12.4406L21.75 15.6188L18.7046 12.4204C18.492 12.2078 18.375 11.9254 18.375 11.625C18.375 11.3246 18.492 11.0423 18.7057 10.8285C18.9092 10.6216 19.1862 10.5035 19.4764 10.5C19.5045 10.5011 20.0411 10.536 20.6767 11.0456C20.7679 11.1188 20.8601 11.202 20.9546 11.2954L21.75 12.0908L22.5454 11.2954C22.6399 11.202 22.7321 11.1188 22.8233 11.0456C23.4184 10.5675 23.9213 10.5079 24.0068 10.5011C24.1534 10.5011 24.2986 10.5301 24.4339 10.5865C24.5693 10.6429 24.6921 10.7255 24.7954 10.8296C25.008 11.0423 25.125 11.3246 25.125 11.625Z" fill="white"/>
</svg>
