<svg width="24" height="25" viewBox="0 0 24 25" fill="none" xmlns="http://www.w3.org/2000/svg">
<path d="M12 18C14.33 18 16.3 16.54 17.11 14.5H6.89C7.69 16.54 9.67 18 12 18ZM8.5 11.5C8.89782 11.5 9.27936 11.342 9.56066 11.0607C9.84196 10.7794 10 10.3978 10 10C10 9.60218 9.84196 9.22064 9.56066 8.93934C9.27936 8.65804 8.89782 8.5 8.5 8.5C8.10218 8.5 7.72064 8.65804 7.43934 8.93934C7.15804 9.22064 7 9.60218 7 10C7 10.3978 7.15804 10.7794 7.43934 11.0607C7.72064 11.342 8.10218 11.5 8.5 11.5ZM15.5 11.5C15.8978 11.5 16.2794 11.342 16.5607 11.0607C16.842 10.7794 17 10.3978 17 10C17 9.60218 16.842 9.22064 16.5607 8.93934C16.2794 8.65804 15.8978 8.5 15.5 8.5C15.1022 8.5 14.7206 8.65804 14.4393 8.93934C14.158 9.22064 14 9.60218 14 10C14 10.3978 14.158 10.7794 14.4393 11.0607C14.7206 11.342 15.1022 11.5 15.5 11.5ZM12 20.5C9.87827 20.5 7.84344 19.6571 6.34315 18.1569C4.84285 16.6566 4 14.6217 4 12.5C4 10.3783 4.84285 8.34344 6.34315 6.84315C7.84344 5.34285 9.87827 4.5 12 4.5C14.1217 4.5 16.1566 5.34285 17.6569 6.84315C19.1571 8.34344 20 10.3783 20 12.5C20 14.6217 19.1571 16.6566 17.6569 18.1569C16.1566 19.6571 14.1217 20.5 12 20.5ZM12 2.5C6.47 2.5 2 7 2 12.5C2 15.1522 3.05357 17.6957 4.92893 19.5711C5.85752 20.4997 6.95991 21.2362 8.17317 21.7388C9.38642 22.2413 10.6868 22.5 12 22.5C14.6522 22.5 17.1957 21.4464 19.0711 19.5711C20.9464 17.6957 22 15.1522 22 12.5C22 11.1868 21.7413 9.88642 21.2388 8.67317C20.7362 7.45991 19.9997 6.35752 19.0711 5.42893C18.1425 4.50035 17.0401 3.76375 15.8268 3.2612C14.6136 2.75866 13.3132 2.5 12 2.5Z" fill="black"/>
</svg>
