<svg width="24" height="25" viewBox="0 0 24 25" fill="none" xmlns="http://www.w3.org/2000/svg">
<path d="M18 8.5C18 9.03043 17.7893 9.53914 17.4142 9.91421C17.0391 10.2893 16.5304 10.5 16 10.5C15.4696 10.5 14.9609 10.2893 14.5858 9.91421C14.2107 9.53914 14 9.03043 14 8.5C14 7.96957 14.2107 7.46086 14.5858 7.08579C14.9609 6.71071 15.4696 6.5 16 6.5C16.5304 6.5 17.0391 6.71071 17.4142 7.08579C17.7893 7.46086 18 7.96957 18 8.5Z" fill="black"/>
<path fill-rule="evenodd" clip-rule="evenodd" d="M11.943 1.75H12.057C14.366 1.75 16.175 1.75 17.587 1.94C19.031 2.134 20.171 2.54 21.066 3.434C21.961 4.329 22.366 5.469 22.56 6.914C22.75 8.325 22.75 10.134 22.75 12.443V12.531C22.75 14.44 22.75 16.002 22.646 17.274C22.542 18.554 22.329 19.621 21.851 20.509C21.641 20.9 21.381 21.251 21.066 21.566C20.171 22.461 19.031 22.866 17.586 23.06C16.175 23.25 14.366 23.25 12.057 23.25H11.943C9.634 23.25 7.825 23.25 6.413 23.06C4.969 22.866 3.829 22.46 2.934 21.566C2.141 20.773 1.731 19.786 1.514 18.56C1.299 17.357 1.26 15.86 1.252 14.002C1.25 13.529 1.25 13.029 1.25 12.501V12.443C1.25 10.134 1.25 8.325 1.44 6.913C1.634 5.469 2.04 4.329 2.934 3.434C3.829 2.539 4.969 2.134 6.414 1.94C7.825 1.75 9.634 1.75 11.943 1.75ZM6.613 3.426C5.335 3.598 4.564 3.926 3.995 4.495C3.425 5.065 3.098 5.835 2.926 7.114C2.752 8.414 2.75 10.122 2.75 12.5V13.344L3.751 12.468C4.19007 12.0837 4.75882 11.8806 5.34203 11.8999C5.92524 11.9192 6.47931 12.1594 6.892 12.572L11.182 16.862C11.5149 17.1948 11.9546 17.3996 12.4235 17.4402C12.8925 17.4808 13.3608 17.3547 13.746 17.084L14.044 16.874C14.5997 16.4835 15.2714 16.2932 15.9493 16.334C16.6273 16.3749 17.2713 16.6446 17.776 17.099L20.606 19.646C20.892 19.048 21.061 18.262 21.151 17.153C21.249 15.948 21.25 14.446 21.25 12.5C21.25 10.122 21.248 8.414 21.074 7.114C20.902 5.835 20.574 5.064 20.005 4.494C19.435 3.925 18.665 3.598 17.386 3.426C16.086 3.252 14.378 3.25 12 3.25C9.622 3.25 7.913 3.252 6.613 3.426Z" fill="black"/>
</svg>
