<svg width="51" height="51" viewBox="0 0 51 51" fill="none" xmlns="http://www.w3.org/2000/svg">
<circle cx="25.5" cy="25.5" r="25.5" fill="#FCEF80"/>
<path d="M34.1702 28.8206C33.6467 26.923 32.5151 25.2496 30.9491 24.057C29.383 22.8645 27.4689 22.2187 25.5005 22.2187C23.532 22.2187 21.6179 22.8645 20.0519 24.057C18.4858 25.2496 17.3542 26.923 16.8308 28.8206L15.5834 33.3426C15.3594 34.1545 15.326 35.0071 15.4857 35.8341C15.6455 36.661 15.9941 37.4399 16.5043 38.11C17.0146 38.7801 17.6727 39.3232 18.4274 39.6971C19.1821 40.071 20.0129 40.2656 20.8552 40.2656H30.1458C30.988 40.2656 31.8189 40.071 32.5735 39.6971C33.3282 39.3232 33.9864 38.7801 34.4966 38.11C35.0069 37.4399 35.3555 36.661 35.5152 35.8341C35.675 35.0071 35.6415 34.1545 35.4176 33.3426L34.1702 28.8206ZM32.7563 36.7845C32.4515 37.188 32.0569 37.515 31.6038 37.7395C31.1507 37.964 30.6515 38.08 30.1458 38.0781H20.8552C20.3498 38.0781 19.8513 37.9614 19.3985 37.737C18.9457 37.5127 18.5508 37.1868 18.2446 36.7847C17.9385 36.3827 17.7293 35.9153 17.6335 35.4192C17.5376 34.923 17.5577 34.4114 17.6921 33.9242L18.9395 29.4023C19.3356 27.9663 20.192 26.6999 21.3771 25.7974C22.5623 24.8949 24.0108 24.4062 25.5005 24.4062C26.9901 24.4062 28.4387 24.8949 29.6238 25.7974C30.809 26.6999 31.6653 27.9663 32.0615 29.4023L33.3089 33.9242C33.4452 34.4112 33.4663 34.9232 33.3704 35.4197C33.2744 35.9162 33.0642 36.3836 32.7563 36.7847V36.7845ZM17.9878 23.7438C18.1781 22.5544 17.9257 21.281 17.2768 20.1575C16.628 19.0339 15.6513 18.1787 14.5263 17.7488C13.3215 17.2886 12.0927 17.3619 11.065 17.955C9.02189 19.1346 8.48425 22.0419 9.86668 24.4358C10.5153 25.5594 11.4921 26.4148 12.6171 26.8445C13.1155 27.0387 13.6452 27.14 14.18 27.1433C14.8463 27.1457 15.5014 26.9714 16.0784 26.6382C17.1055 26.0451 17.7837 25.0171 17.9878 23.7438ZM15.8276 23.398C15.7299 24.0084 15.4304 24.4863 14.9845 24.7438C14.5386 25.0012 13.9751 25.0214 13.3974 24.801C12.7403 24.55 12.1591 24.0319 11.7608 23.3421C10.9952 22.0159 11.1772 20.4163 12.1587 19.8494C12.4054 19.7094 12.6849 19.6373 12.9686 19.6404C13.2347 19.6432 13.498 19.6945 13.7457 19.792C14.4028 20.043 14.984 20.5611 15.3823 21.2509C15.7805 21.9408 15.9386 22.7034 15.8276 23.398ZM18.2247 19.2121C19.0014 19.833 19.8884 20.1563 20.7853 20.1562C21.054 20.1562 21.3219 20.1273 21.5844 20.07C23.8896 19.5689 25.2874 16.9636 24.7002 14.2624C24.4247 12.9946 23.7549 11.8823 22.8143 11.1303C21.807 10.325 20.6139 10.0202 19.4546 10.2723C17.1494 10.7734 15.7517 13.3787 16.3388 16.0799C16.6144 17.3478 17.2842 18.46 18.2247 19.2121ZM19.9192 12.4099C20.0255 12.387 20.1339 12.3755 20.2427 12.3757C20.6493 12.3757 21.0675 12.5348 21.4483 12.8393C21.9977 13.2785 22.3935 13.949 22.5626 14.7274C22.888 16.2241 22.2272 17.692 21.1197 17.9328C20.6165 18.0422 20.0735 17.8899 19.5907 17.5038C19.0413 17.0646 18.6456 16.394 18.4765 15.6157C18.151 14.1185 18.8118 12.6507 19.9192 12.4099ZM39.936 17.955C38.9087 17.3619 37.6792 17.2886 36.4747 17.7488C35.3497 18.1785 34.3729 19.0339 33.7242 20.1575C33.0756 21.281 32.8231 22.5546 33.0133 23.7438C33.2172 25.0171 33.8951 26.0451 34.9226 26.6382C35.4997 26.9715 36.1547 27.1458 36.8211 27.1433C37.3559 27.14 37.8856 27.0387 38.384 26.8445C39.5089 26.4148 40.4857 25.5594 41.1344 24.4358C42.5167 22.0419 41.979 19.1346 39.936 17.955ZM39.2401 23.3421C38.8418 24.0319 38.2606 24.55 37.6035 24.801C37.0261 25.0217 36.4624 25.0013 36.0165 24.7438C35.5706 24.4862 35.2714 24.0084 35.1735 23.398C35.0623 22.7034 35.2204 21.941 35.6187 21.2516C36.017 20.5621 36.5981 20.0437 37.2553 19.7926C37.5029 19.695 37.7663 19.6436 38.0324 19.6407C38.3161 19.6376 38.5955 19.7098 38.8422 19.8498C39.8237 20.4161 40.0059 22.0155 39.2401 23.3421ZM29.4166 20.07C29.6791 20.1273 29.947 20.1562 30.2156 20.1562C31.1125 20.1562 31.9998 19.833 32.7762 19.2121C33.7168 18.4601 34.3866 17.3478 34.6621 16.08C35.2493 13.3788 33.8515 10.7734 31.5463 10.2724C30.3871 10.0204 29.1939 10.325 28.1867 11.1303C27.246 11.8823 26.5762 12.9946 26.3008 14.2624C25.7135 16.9636 27.1113 19.5689 29.4166 20.07ZM28.4384 14.7271C28.6075 13.9487 29.0032 13.2779 29.5526 12.8389C29.9335 12.5344 30.3517 12.3754 30.7583 12.3754C30.867 12.3752 30.9754 12.3866 31.0817 12.4096C32.1892 12.6503 32.8499 14.1185 32.5246 15.6149C32.3553 16.3933 31.9596 17.0641 31.4103 17.5031C30.9277 17.8891 30.385 18.0414 29.8813 17.9321C28.7737 17.6917 28.113 16.2236 28.4384 14.7271Z" fill="#D4C322"/>
</svg>
