<svg width="51" height="51" viewBox="0 0 51 51" fill="none" xmlns="http://www.w3.org/2000/svg">
<circle cx="25.5" cy="25.5" r="25.5" fill="#E4897B"/>
<path d="M25.5007 10.9166C26.2742 10.9166 27.0161 11.2239 27.563 11.7709C28.11 12.3179 28.4173 13.0597 28.4173 13.8333C28.4173 14.6068 28.11 15.3487 27.563 15.8957C27.0161 16.4427 26.2742 16.75 25.5007 16.75C24.7271 16.75 23.9852 16.4427 23.4383 15.8957C22.8913 15.3487 22.584 14.6068 22.584 13.8333C22.584 13.0597 22.8913 12.3179 23.4383 11.7709C23.9852 11.2239 24.7271 10.9166 25.5007 10.9166ZM23.3132 18.2083H27.6882C28.4617 18.2083 29.2036 18.5156 29.7505 19.0626C30.2975 19.6095 30.6048 20.3514 30.6048 21.125V29.1458H28.4173V40.0833H22.584V29.1458H20.3965V21.125C20.3965 20.3514 20.7038 19.6095 21.2508 19.0626C21.7977 18.5156 22.5396 18.2083 23.3132 18.2083Z" fill="#FF0000"/>
</svg>
