<svg width="51" height="51" viewBox="0 0 51 51" fill="none" xmlns="http://www.w3.org/2000/svg">
<circle cx="25.5" cy="25.5" r="25.5" fill="#4A9FEE" fill-opacity="0.3"/>
<path d="M25.5299 8.96992C16.4846 8.96992 9.13855 16.3158 9.13855 25.3611C9.13855 34.4064 16.4846 41.7525 25.5298 41.7525C34.5751 41.7525 41.9212 34.4066 41.9212 25.3613C41.9212 16.316 34.5751 8.96985 25.5298 8.96985L25.5299 8.96992ZM25.5299 10.194C33.9144 10.194 40.6971 16.9767 40.6971 25.3612C40.6971 25.6702 40.6876 25.9774 40.6693 26.2819C38.5539 26.839 36.0161 25.3095 34.831 23.2847C31.5798 27.7998 28.6967 28.2881 26.002 23.1779C23.4767 27.7955 18.8809 28.1788 16.6282 24.5494C14.3229 27.6928 12.7556 28.1079 10.4031 26.5019C10.3748 26.1223 10.3606 25.7418 10.3604 25.3612C10.3604 16.9766 17.1453 10.1939 25.5298 10.1939L25.5299 10.194ZM34.9977 26.957C36.3793 29.7069 39.0037 28.8394 40.601 27.0637C40.2776 29.9662 39.1384 32.6182 37.4158 34.7883C35.1092 36.0585 33.3916 35.2805 31.2934 31.6695C28.4303 36.7796 23.7867 36.2915 20.3324 31.7763C19.133 33.7053 16.0312 35.1836 13.6824 34.8374C12.1865 32.9692 11.1227 30.7397 10.6445 28.2985C12.2503 29.8095 15.012 30.293 16.4146 28.0507C18.6272 31.3768 23.278 31.5736 26.002 27.7046C27.6307 30.0321 31.8785 32.12 34.9977 26.9569V26.957ZM20.1551 35.4463C23.4692 40.6094 29.563 38.5236 31.2934 36.1962C32.469 37.5381 33.8603 37.6178 35.2369 37.0206C32.6077 39.2117 29.2243 40.5306 25.5299 40.5306C21.7912 40.5306 18.3717 39.18 15.7289 36.9417C17.3811 37.5028 19.1846 37.2643 20.1551 35.4463Z" fill="#0085FF"/>
</svg>
