<svg width="51" height="51" viewBox="0 0 51 51" fill="none" xmlns="http://www.w3.org/2000/svg">
<circle cx="25.5" cy="25.5" r="25.5" fill="#B1EF6A" fill-opacity="0.4"/>
<g opacity="0.2">
<path d="M25.0625 21.5625C25.0625 22.9549 24.5094 24.2902 23.5248 25.2748C22.5402 26.2594 21.2049 26.8125 19.8125 26.8125C18.4201 26.8125 17.0848 26.2594 16.1002 25.2748C15.1156 24.2902 14.5625 22.9549 14.5625 21.5625C14.5625 20.1701 15.1156 18.8348 16.1002 17.8502C17.0848 16.8656 18.4201 16.3125 19.8125 16.3125C21.2049 16.3125 22.5402 16.8656 23.5248 17.8502C24.5094 18.8348 25.0625 20.1701 25.0625 21.5625Z" fill="#258D00"/>
<path fill-rule="evenodd" clip-rule="evenodd" d="M19.8125 23.3125C20.2766 23.3125 20.7217 23.1281 21.0499 22.7999C21.3781 22.4717 21.5625 22.0266 21.5625 21.5625C21.5625 21.0984 21.3781 20.6533 21.0499 20.3251C20.7217 19.9969 20.2766 19.8125 19.8125 19.8125C19.3484 19.8125 18.9033 19.9969 18.5751 20.3251C18.2469 20.6533 18.0625 21.0984 18.0625 21.5625C18.0625 22.0266 18.2469 22.4717 18.5751 22.7999C18.9033 23.1281 19.3484 23.3125 19.8125 23.3125ZM19.8125 26.8125C20.5019 26.8125 21.1846 26.6767 21.8216 26.4129C22.4585 26.149 23.0373 25.7623 23.5248 25.2748C24.0123 24.7873 24.399 24.2085 24.6629 23.5716C24.9267 22.9346 25.0625 22.2519 25.0625 21.5625C25.0625 20.8731 24.9267 20.1904 24.6629 19.5534C24.399 18.9165 24.0123 18.3377 23.5248 17.8502C23.0373 17.3627 22.4585 16.976 21.8216 16.7121C21.1846 16.4483 20.5019 16.3125 19.8125 16.3125C18.4201 16.3125 17.0848 16.8656 16.1002 17.8502C15.1156 18.8348 14.5625 20.1701 14.5625 21.5625C14.5625 22.9549 15.1156 24.2902 16.1002 25.2748C17.0848 26.2594 18.4201 26.8125 19.8125 26.8125Z" fill="#258D00"/>
<path fill-rule="evenodd" clip-rule="evenodd" d="M19.8999 28.125C19.2037 28.125 18.536 28.4016 18.0437 28.8938C17.5515 29.3861 17.2749 30.0538 17.2749 30.75V33.375C17.2749 33.8391 17.0905 34.2842 16.7623 34.6124C16.4342 34.9406 15.989 35.125 15.5249 35.125C15.0608 35.125 14.6157 34.9406 14.2875 34.6124C13.9593 34.2842 13.7749 33.8391 13.7749 33.375V30.75C13.7749 29.1255 14.4202 27.5676 15.5689 26.419C16.7175 25.2703 18.2755 24.625 19.8999 24.625C21.5244 24.625 23.0823 25.2703 24.2309 26.419C25.3796 27.5676 26.0249 29.1255 26.0249 30.75V31.625C26.0249 32.0891 25.8405 32.5342 25.5123 32.8624C25.1842 33.1906 24.739 33.375 24.2749 33.375C23.8108 33.375 23.3657 33.1906 23.0375 32.8624C22.7093 32.5342 22.5249 32.0891 22.5249 31.625V30.75C22.5249 30.0538 22.2483 29.3861 21.7561 28.8938C21.2638 28.4016 20.5961 28.125 19.8999 28.125Z" fill="#258D00"/>
<path d="M30.3125 21.5625C30.3125 22.9549 30.8656 24.2902 31.8502 25.2748C32.8348 26.2594 34.1701 26.8125 35.5625 26.8125C36.9549 26.8125 38.2902 26.2594 39.2748 25.2748C40.2594 24.2902 40.8125 22.9549 40.8125 21.5625C40.8125 20.1701 40.2594 18.8348 39.2748 17.8502C38.2902 16.8656 36.9549 16.3125 35.5625 16.3125C34.1701 16.3125 32.8348 16.8656 31.8502 17.8502C30.8656 18.8348 30.3125 20.1701 30.3125 21.5625Z" fill="#258D00"/>
<path fill-rule="evenodd" clip-rule="evenodd" d="M35.5625 23.3125C35.0984 23.3125 34.6533 23.1281 34.3251 22.7999C33.9969 22.4717 33.8125 22.0266 33.8125 21.5625C33.8125 21.0984 33.9969 20.6533 34.3251 20.3251C34.6533 19.9969 35.0984 19.8125 35.5625 19.8125C36.0266 19.8125 36.4717 19.9969 36.7999 20.3251C37.1281 20.6533 37.3125 21.0984 37.3125 21.5625C37.3125 22.0266 37.1281 22.4717 36.7999 22.7999C36.4717 23.1281 36.0266 23.3125 35.5625 23.3125ZM35.5625 26.8125C34.8731 26.8125 34.1904 26.6767 33.5534 26.4129C32.9165 26.149 32.3377 25.7623 31.8502 25.2748C31.3627 24.7873 30.976 24.2085 30.7121 23.5716C30.4483 22.9346 30.3125 22.2519 30.3125 21.5625C30.3125 20.8731 30.4483 20.1904 30.7121 19.5534C30.976 18.9165 31.3627 18.3377 31.8502 17.8502C32.3377 17.3627 32.9165 16.976 33.5534 16.7121C34.1904 16.4483 34.8731 16.3125 35.5625 16.3125C36.9549 16.3125 38.2902 16.8656 39.2748 17.8502C40.2594 18.8348 40.8125 20.1701 40.8125 21.5625C40.8125 22.9549 40.2594 24.2902 39.2748 25.2748C38.2902 26.2594 36.9549 26.8125 35.5625 26.8125Z" fill="#258D00"/>
<path fill-rule="evenodd" clip-rule="evenodd" d="M35.4749 28.125C36.171 28.125 36.8387 28.4016 37.331 28.8938C37.8233 29.3861 38.0999 30.0538 38.0999 30.75V33.375C38.0999 33.8391 38.2842 34.2842 38.6124 34.6124C38.9406 34.9406 39.3857 35.125 39.8499 35.125C40.314 35.125 40.7591 34.9406 41.0873 34.6124C41.4155 34.2842 41.5999 33.8391 41.5999 33.375V30.75C41.5999 29.1255 40.9545 27.5676 39.8059 26.419C38.6572 25.2703 37.0993 24.625 35.4749 24.625C33.8504 24.625 32.2925 25.2703 31.1438 26.419C29.9952 27.5676 29.3499 29.1255 29.3499 30.75V31.625C29.3499 32.0891 29.5342 32.5342 29.8624 32.8624C30.1906 33.1906 30.6357 33.375 31.0999 33.375C31.564 33.375 32.0091 33.1906 32.3373 32.8624C32.6655 32.5342 32.8499 32.0891 32.8499 31.625V30.75C32.8499 30.0538 33.1264 29.3861 33.6187 28.8938C34.111 28.4016 34.7787 28.125 35.4749 28.125Z" fill="#258D00"/>
<path fill-rule="evenodd" clip-rule="evenodd" d="M27.7749 32.9375C27.0787 32.9375 26.411 33.2141 25.9187 33.7063C25.4265 34.1986 25.1499 34.8663 25.1499 35.5625V38.1875C25.1499 38.6516 24.9655 39.0967 24.6373 39.4249C24.3092 39.7531 23.864 39.9375 23.3999 39.9375C22.9358 39.9375 22.4907 39.7531 22.1625 39.4249C21.8343 39.0967 21.6499 38.6516 21.6499 38.1875V35.5625C21.6499 33.938 22.2952 32.3801 23.4439 31.2315C24.5925 30.0828 26.1505 29.4375 27.7749 29.4375C29.3994 29.4375 30.9573 30.0828 32.1059 31.2315C33.2546 32.3801 33.8999 33.938 33.8999 35.5625V38.1875C33.8999 38.6516 33.7155 39.0967 33.3873 39.4249C33.0592 39.7531 32.614 39.9375 32.1499 39.9375C31.6858 39.9375 31.2407 39.7531 30.9125 39.4249C30.5843 39.0967 30.3999 38.6516 30.3999 38.1875V35.5625C30.3999 34.8663 30.1233 34.1986 29.6311 33.7063C29.1388 33.2141 28.4711 32.9375 27.7749 32.9375Z" fill="#258D00"/>
<path d="M32.9375 26.375C32.9375 27.7674 32.3844 29.1027 31.3998 30.0873C30.4152 31.0719 29.0799 31.625 27.6875 31.625C26.2951 31.625 24.9598 31.0719 23.9752 30.0873C22.9906 29.1027 22.4375 27.7674 22.4375 26.375C22.4375 24.9826 22.9906 23.6473 23.9752 22.6627C24.9598 21.6781 26.2951 21.125 27.6875 21.125C29.0799 21.125 30.4152 21.6781 31.3998 22.6627C32.3844 23.6473 32.9375 24.9826 32.9375 26.375Z" fill="#258D00"/>
<path fill-rule="evenodd" clip-rule="evenodd" d="M27.6875 28.125C28.1516 28.125 28.5967 27.9406 28.9249 27.6124C29.2531 27.2842 29.4375 26.8391 29.4375 26.375C29.4375 25.9109 29.2531 25.4658 28.9249 25.1376C28.5967 24.8094 28.1516 24.625 27.6875 24.625C27.2234 24.625 26.7783 24.8094 26.4501 25.1376C26.1219 25.4658 25.9375 25.9109 25.9375 26.375C25.9375 26.8391 26.1219 27.2842 26.4501 27.6124C26.7783 27.9406 27.2234 28.125 27.6875 28.125ZM27.6875 31.625C29.0799 31.625 30.4152 31.0719 31.3998 30.0873C32.3844 29.1027 32.9375 27.7674 32.9375 26.375C32.9375 24.9826 32.3844 23.6473 31.3998 22.6627C30.4152 21.6781 29.0799 21.125 27.6875 21.125C26.2951 21.125 24.9598 21.6781 23.9752 22.6627C22.9906 23.6473 22.4375 24.9826 22.4375 26.375C22.4375 27.7674 22.9906 29.1027 23.9752 30.0873C24.9598 31.0719 26.2951 31.625 27.6875 31.625Z" fill="#258D00"/>
<path d="M15.4375 28.125H24.1875V35.125H15.4375V28.125ZM31.1875 28.125H39.9375V35.125H31.1875V28.125Z" fill="#258D00"/>
<path d="M24.1875 31.625H31.1875L32.0625 39.9375H23.3125L24.1875 31.625Z" fill="#258D00"/>
</g>
<path fill-rule="evenodd" clip-rule="evenodd" d="M16.75 23.75C17.6783 23.75 18.5685 23.3813 19.2249 22.7249C19.8813 22.0685 20.25 21.1783 20.25 20.25C20.25 19.3217 19.8813 18.4315 19.2249 17.7751C18.5685 17.1187 17.6783 16.75 16.75 16.75C15.8217 16.75 14.9315 17.1187 14.2751 17.7751C13.6187 18.4315 13.25 19.3217 13.25 20.25C13.25 21.1783 13.6187 22.0685 14.2751 22.7249C14.9315 23.3813 15.8217 23.75 16.75 23.75ZM16.75 25.5C17.4394 25.5 18.1221 25.3642 18.7591 25.1004C19.396 24.8365 19.9748 24.4498 20.4623 23.9623C20.9498 23.4748 21.3365 22.896 21.6004 22.2591C21.8642 21.6221 22 20.9394 22 20.25C22 19.5606 21.8642 18.8779 21.6004 18.2409C21.3365 17.604 20.9498 17.0252 20.4623 16.5377C19.9748 16.0502 19.396 15.6635 18.7591 15.3996C18.1221 15.1358 17.4394 15 16.75 15C15.3576 15 14.0223 15.5531 13.0377 16.5377C12.0531 17.5223 11.5 18.8576 11.5 20.25C11.5 21.6424 12.0531 22.9777 13.0377 23.9623C14.0223 24.9469 15.3576 25.5 16.75 25.5Z" fill="#258D00"/>
<path fill-rule="evenodd" clip-rule="evenodd" d="M14.7445 23.568C14.826 23.6493 14.8906 23.7459 14.9347 23.8522C14.9789 23.9585 15.0016 24.0724 15.0016 24.1875C15.0016 24.3026 14.9789 24.4166 14.9347 24.5229C14.8906 24.6292 14.826 24.7257 14.7445 24.807L14.153 25.3968C13.0147 26.5354 12.3751 28.0795 12.375 29.6895V32.9375C12.375 33.1696 12.2828 33.3921 12.1187 33.5562C11.9546 33.7203 11.7321 33.8125 11.5 33.8125C11.2679 33.8125 11.0454 33.7203 10.8813 33.5562C10.7172 33.3921 10.625 33.1696 10.625 32.9375V29.6895C10.6252 27.6154 11.4492 25.6263 12.9158 24.1595L13.5055 23.568C13.5868 23.4865 13.6833 23.4219 13.7896 23.3778C13.8959 23.3337 14.0099 23.3109 14.125 23.3109C14.2401 23.3109 14.3541 23.3337 14.4604 23.3778C14.5667 23.4219 14.6632 23.4865 14.7445 23.568ZM35.3805 23.043C35.299 23.1243 35.2344 23.2209 35.1903 23.3272C35.1461 23.4335 35.1234 23.5474 35.1234 23.6625C35.1234 23.7776 35.1461 23.8916 35.1903 23.9979C35.2344 24.1042 35.299 24.2007 35.3805 24.282L35.972 24.8718C36.5357 25.4355 36.9829 26.1048 37.2879 26.8413C37.593 27.5779 37.75 28.3673 37.75 29.1645V32.9375C37.75 33.1696 37.8422 33.3921 38.0063 33.5562C38.1704 33.7203 38.3929 33.8125 38.625 33.8125C38.8571 33.8125 39.0796 33.7203 39.2437 33.5562C39.4078 33.3921 39.5 33.1696 39.5 32.9375V29.1645C39.4998 27.0904 38.6758 25.1013 37.2092 23.6345L36.6195 23.043C36.5382 22.9615 36.4417 22.8969 36.3354 22.8528C36.2291 22.8087 36.1151 22.7859 36 22.7859C35.8849 22.7859 35.7709 22.8087 35.6646 22.8528C35.5583 22.8969 35.4618 22.9615 35.3805 23.043Z" fill="#258D00"/>
<path fill-rule="evenodd" clip-rule="evenodd" d="M32.5 23.75C31.5717 23.75 30.6815 23.3812 30.0251 22.7249C29.3687 22.0685 29 21.1783 29 20.25C29 19.3217 29.3687 18.4315 30.0251 17.7751C30.6815 17.1187 31.5717 16.75 32.5 16.75C33.4283 16.75 34.3185 17.1187 34.9749 17.7751C35.6313 18.4315 36 19.3217 36 20.25C36 21.1783 35.6313 22.0685 34.9749 22.7249C34.3185 23.3812 33.4283 23.75 32.5 23.75ZM32.5 25.5C31.8106 25.5 31.1279 25.3642 30.4909 25.1004C29.854 24.8365 29.2752 24.4498 28.7877 23.9623C28.3002 23.4748 27.9135 22.896 27.6496 22.2591C27.3858 21.6221 27.25 20.9394 27.25 20.25C27.25 19.5606 27.3858 18.8779 27.6496 18.2409C27.9135 17.604 28.3002 17.0252 28.7877 16.5377C29.2752 16.0502 29.854 15.6635 30.4909 15.3996C31.1279 15.1358 31.8106 15 32.5 15C33.8924 15 35.2277 15.5531 36.2123 16.5377C37.1969 17.5223 37.75 18.8576 37.75 20.25C37.75 21.6424 37.1969 22.9777 36.2123 23.9623C35.2277 24.9469 33.8924 25.5 32.5 25.5ZM24.625 31.1875C23.4647 31.1875 22.3519 31.6484 21.5314 32.4689C20.7109 33.2894 20.25 34.4022 20.25 35.5625V37.8375C20.25 38.0696 20.1578 38.2921 19.9937 38.4562C19.8296 38.6203 19.6071 38.7125 19.375 38.7125C19.1429 38.7125 18.9204 38.6203 18.7563 38.4562C18.5922 38.2921 18.5 38.0696 18.5 37.8375V35.5625C18.5 33.938 19.1453 32.3801 20.294 31.2315C21.4426 30.0828 23.0005 29.4375 24.625 29.4375C26.2495 29.4375 27.8074 30.0828 28.956 31.2315C30.1047 32.3801 30.75 33.938 30.75 35.5625V37.8375C30.75 38.0696 30.6578 38.2921 30.4937 38.4562C30.3296 38.6203 30.1071 38.7125 29.875 38.7125C29.6429 38.7125 29.4204 38.6203 29.2563 38.4562C29.0922 38.2921 29 38.0696 29 37.8375V35.5625C29 34.988 28.8868 34.4191 28.667 33.8883C28.4471 33.3575 28.1248 32.8752 27.7186 32.4689C27.3123 32.0627 26.83 31.7404 26.2992 31.5205C25.7684 31.3007 25.1995 31.1875 24.625 31.1875Z" fill="#258D00"/>
<path fill-rule="evenodd" clip-rule="evenodd" d="M24.625 28.5625C25.5533 28.5625 26.4435 28.1938 27.0999 27.5374C27.7563 26.881 28.125 25.9908 28.125 25.0625C28.125 24.1342 27.7563 23.244 27.0999 22.5876C26.4435 21.9312 25.5533 21.5625 24.625 21.5625C23.6967 21.5625 22.8065 21.9312 22.1501 22.5876C21.4937 23.244 21.125 24.1342 21.125 25.0625C21.125 25.9908 21.4937 26.881 22.1501 27.5374C22.8065 28.1938 23.6967 28.5625 24.625 28.5625ZM24.625 30.3125C26.0174 30.3125 27.3527 29.7594 28.3373 28.7748C29.3219 27.7902 29.875 26.4549 29.875 25.0625C29.875 23.6701 29.3219 22.3348 28.3373 21.3502C27.3527 20.3656 26.0174 19.8125 24.625 19.8125C23.2326 19.8125 21.8973 20.3656 20.9127 21.3502C19.9281 22.3348 19.375 23.6701 19.375 25.0625C19.375 26.4549 19.9281 27.7902 20.9127 28.7748C21.8973 29.7594 23.2326 30.3125 24.625 30.3125Z" fill="#258D00"/>
</svg>
