<svg width="40" height="40" viewBox="0 0 40 40" fill="none" xmlns="http://www.w3.org/2000/svg">
<circle cx="20" cy="20" r="20" fill="#AAB438"/>
<path d="M19.1647 29.4348C19.3117 29.4348 19.4624 29.4018 19.6169 29.3358C19.7714 29.269 19.8963 29.188 19.9916 29.0928L28.7621 20.3223C29.0448 20.0395 29.2627 19.7508 29.4157 19.456C29.5694 19.1598 29.6463 18.835 29.6463 18.4818C29.6463 18.124 29.5694 17.7768 29.4157 17.44C29.2627 17.1025 29.0448 16.795 28.7621 16.5175L24.5433 12.2988C24.2651 12.016 23.9789 11.8086 23.6849 11.6766C23.3917 11.5446 23.0662 11.4786 22.7084 11.4786C22.3552 11.4786 22.0271 11.5446 21.7241 11.6766C21.4211 11.8086 21.1353 12.016 20.8668 12.2988L19.8881 13.2775L21.9693 15.3666C22.1921 15.5856 22.3582 15.835 22.4677 16.1148C22.5772 16.3945 22.6323 16.6788 22.6331 16.9675C22.6331 17.5525 22.4418 18.0366 22.0593 18.4199C21.6753 18.8024 21.1908 18.9936 20.6058 18.9936C20.3171 18.9936 20.0354 18.9498 19.7609 18.862C19.4857 18.7743 19.2386 18.6205 19.0196 18.4008L16.8674 16.2565L12.0097 21.1131C11.8957 21.2271 11.8102 21.3565 11.7532 21.5013C11.6962 21.6468 11.6677 21.793 11.6677 21.94C11.6677 22.2055 11.7528 22.4245 11.9231 22.597C12.0933 22.7695 12.3112 22.8558 12.5767 22.8558C12.7237 22.8558 12.8744 22.822 13.0289 22.7545C13.1834 22.6885 13.3083 22.6079 13.4036 22.5126L16.9687 18.9475L17.7652 19.744L14.2057 23.3103C14.0917 23.4235 14.0062 23.5525 13.9492 23.6973C13.8922 23.8428 13.8637 23.989 13.8637 24.136C13.8637 24.3865 13.9526 24.6003 14.1303 24.7773C14.3073 24.955 14.5214 25.0439 14.7727 25.0439C14.9197 25.0439 15.0704 25.0109 15.2249 24.9449C15.3794 24.8789 15.5043 24.7983 15.5996 24.703L19.4246 20.8836L20.2199 21.6801L16.4017 25.5051C16.3019 25.6004 16.2202 25.7253 16.1564 25.8798C16.0919 26.0343 16.0597 26.185 16.0597 26.332C16.0597 26.5825 16.1486 26.7963 16.3263 26.9733C16.5033 27.151 16.7174 27.2399 16.9687 27.2399C17.1157 27.2399 17.2619 27.2114 17.4074 27.1544C17.5522 27.0974 17.6816 27.0123 17.7956 26.899L21.6206 23.0796L22.4159 23.8761L18.5909 27.7011C18.4769 27.8151 18.3914 27.9516 18.3344 28.1106C18.2774 28.2704 18.2489 28.4166 18.2489 28.5494C18.2489 28.8149 18.3427 29.029 18.5302 29.1918C18.7169 29.3545 18.9284 29.4359 19.1647 29.4359M19.1579 30.5609C18.5797 30.5609 18.0847 30.3494 17.6729 29.9264C17.2604 29.5026 17.0797 28.9803 17.1307 28.3593C16.4932 28.3668 15.9626 28.1763 15.5388 27.7878C15.1143 27.4 14.9129 26.8585 14.9347 26.1633C14.2394 26.1708 13.6919 25.972 13.2922 25.567C12.8917 25.162 12.7094 24.6288 12.7454 23.9673C12.1199 23.9748 11.5964 23.7985 11.1749 23.4385C10.7534 23.08 10.5427 22.5805 10.5427 21.94C10.5427 21.6513 10.5989 21.3625 10.7114 21.0738C10.8232 20.7843 10.9882 20.53 11.2064 20.311L16.8674 14.6568L19.7722 17.5615C19.8674 17.6613 19.9852 17.7434 20.1254 17.8079C20.2649 17.8716 20.4224 17.9035 20.5979 17.9035C20.8394 17.9035 21.0524 17.8195 21.2369 17.6515C21.4214 17.4835 21.5137 17.2649 21.5137 16.9956C21.5137 16.8194 21.4818 16.6611 21.4181 16.5209C21.3536 16.3814 21.2718 16.264 21.1728 16.1688L17.3028 12.2988C17.0238 12.016 16.7339 11.8086 16.4332 11.6766C16.1332 11.5446 15.8039 11.4786 15.4454 11.4786C15.0922 11.4786 14.7712 11.5446 14.4824 11.6766C14.1944 11.8086 13.9091 12.016 13.6263 12.2988L10.2018 15.73C9.96032 15.97 9.76532 16.2569 9.61682 16.5906C9.46832 16.9244 9.38957 17.2683 9.38057 17.6223C9.37307 17.8765 9.39482 18.1206 9.44582 18.3546C9.49832 18.5894 9.58082 18.8099 9.69332 19.0161L8.84057 19.8678C8.65157 19.567 8.50382 19.2201 8.39732 18.8271C8.29007 18.4334 8.24095 18.0321 8.24995 17.6234C8.25895 17.1126 8.36132 16.6233 8.55707 16.1553C8.75357 15.6865 9.03407 15.2699 9.39857 14.9054L12.8017 11.5023C13.1939 11.1145 13.6091 10.8258 14.0471 10.636C14.4851 10.4478 14.9583 10.3536 15.4668 10.3536C15.9768 10.3536 16.4467 10.4481 16.8764 10.6371C17.3069 10.8261 17.7164 11.1145 18.1049 11.5023L19.0837 12.4821L20.0647 11.5023C20.4569 11.1145 20.8683 10.8258 21.2988 10.636C21.7293 10.4478 22.1992 10.3536 22.7084 10.3536C23.2177 10.3536 23.6909 10.4481 24.1282 10.6371C24.5662 10.8261 24.9791 11.1145 25.3668 11.5023L29.5574 15.6929C29.9459 16.0806 30.2452 16.516 30.4552 16.999C30.6659 17.4828 30.7713 17.9793 30.7713 18.4885C30.7713 18.997 30.6663 19.4665 30.4563 19.897C30.2456 20.3275 29.9459 20.737 29.5574 21.1255L20.7869 29.8893C20.5537 30.1233 20.2994 30.2935 20.0242 30.4C19.7497 30.5065 19.4609 30.5598 19.1579 30.5598" fill="white"/>
</svg>
