<svg width="33" height="32" viewBox="0 0 33 32" fill="none" xmlns="http://www.w3.org/2000/svg">
<g clip-path="url(#clip0_503_755)">
<path d="M16.5 4C12.38 4 9.14 7.13 8.687 11.125C7.81565 11.2654 6.99846 11.6388 6.32195 12.2056C5.64544 12.7725 5.13477 13.5117 4.844 14.345C2.384 15.054 0.5 17.248 0.5 20C0.5 23.324 3.176 26 6.5 26H26.5C29.824 26 32.5 23.324 32.5 20C32.5 18.24 31.645 16.664 30.406 15.562C30.174 12.048 27.371 9.244 23.844 9.062C22.64 6.133 19.878 4 16.5 4ZM16.5 6C19.262 6 21.47 7.77 22.25 10.28L22.47 11H23.5C26.255 11 28.5 13.245 28.5 16V16.5L28.906 16.813C29.396 17.1885 29.7942 17.6706 30.0703 18.2228C30.3465 18.7749 30.4934 19.3827 30.5 20C30.5 22.276 28.776 24 26.5 24H6.5C4.224 24 2.5 22.276 2.5 20C2.5 17.98 3.95 16.412 5.78 16.094L6.437 15.969L6.562 15.311C6.862 13.964 8.056 13 9.5 13H10.5V12C10.5 8.63 13.13 6 16.5 6ZM16.5 11.594L15.78 12.281L11.78 16.281L13.22 17.721L15.5 15.437V22H17.5V15.437L19.78 17.719L21.22 16.279L17.22 12.279L16.5 11.594Z" fill="black"/>
</g>
<defs>
<clipPath id="clip0_503_755">
<rect width="32" height="32" fill="white" transform="translate(0.5)"/>
</clipPath>
</defs>
</svg>
