<svg width="40" height="40" viewBox="0 0 40 40" fill="none" xmlns="http://www.w3.org/2000/svg">
<circle cx="20" cy="20" r="20" fill="#258D00"/>
<path d="M24.3333 20C27.3233 20 29.75 17.5733 29.75 14.5833C29.75 11.5933 27.3233 9.16663 24.3333 9.16663C21.3433 9.16663 18.9167 11.5933 18.9167 14.5833C18.9167 17.5733 21.3433 20 24.3333 20ZM30.2375 26.0666C29.815 25.6333 29.2842 25.4166 28.6667 25.4166H21.0833L18.83 24.6258L19.1875 23.6075L21.0833 24.3333H24.1167C24.4958 24.3333 24.7992 24.1816 25.0483 23.9325C25.2975 23.6833 25.4167 23.38 25.4167 23.0441C25.4167 22.4591 25.135 22.0583 24.5717 21.8308L16.6958 18.9166H14.5833V28.6666L22.1667 30.8333L30.8658 27.5833C30.8767 27.0091 30.66 26.5 30.2375 26.0666ZM12.4167 18.9166H8.06601V30.8333H12.4167V18.9166Z" fill="#FFE600"/>
</svg>
