<svg width="40" height="40" viewBox="0 0 40 40" fill="none" xmlns="http://www.w3.org/2000/svg">
<circle cx="20" cy="20" r="20" fill="#258D00"/>
<g clip-path="url(#clip0_505_1018)">
<path d="M28.6667 25.4166C29.2878 25.4166 29.8114 25.6333 30.2375 26.0666C30.6636 26.5 30.8731 27.0055 30.8658 27.5833L22.1667 30.8333L14.5833 28.6666V18.9166H16.6958L24.5717 21.8308C25.135 22.0547 25.4167 22.4591 25.4167 23.0441C25.4167 23.3836 25.2939 23.6797 25.0483 23.9325C24.8028 24.1852 24.4922 24.3188 24.1167 24.3333H21.0833L19.1875 23.6075L18.83 24.6258L21.0833 25.4166H28.6667ZM24.3333 10.4991C25.0989 9.61079 26.0739 9.16663 27.2583 9.16663C28.2406 9.16663 29.0711 9.52774 29.75 10.25C30.4289 10.9722 30.79 11.8027 30.8333 12.7416C30.8333 13.4855 30.4722 14.3738 29.75 15.4066C29.0278 16.4394 28.3164 17.3025 27.6158 17.9958C26.9153 18.6891 25.8211 19.7183 24.3333 21.0833C22.8311 19.7183 21.7261 18.6891 21.0183 17.9958C20.3106 17.3025 19.5992 16.4394 18.8842 15.4066C18.1692 14.3738 17.8189 13.4855 17.8333 12.7416C17.8333 11.7594 18.1836 10.9288 18.8842 10.25C19.5847 9.57107 20.4297 9.20996 21.4192 9.16663C22.5747 9.16663 23.5461 9.61079 24.3333 10.4991ZM8.06601 18.9166H12.4167V30.8333H8.06601V18.9166Z" fill="#FA9BF1"/>
</g>
<defs>
<clipPath id="clip0_505_1018">
<rect width="26" height="26" fill="white" transform="translate(7 7)"/>
</clipPath>
</defs>
</svg>
