<svg width="239" height="88" viewBox="0 0 239 88" fill="none" xmlns="http://www.w3.org/2000/svg">
<path d="M0 72H70V79H0V72ZM7 44H14V68.5H7V44ZM24.5 44H31.5V68.5H24.5V44ZM38.5 44H45.5V68.5H38.5V44ZM56 44H63V68.5H56V44ZM0 26.5L35 9L70 26.5V40.5H0V26.5ZM7 30.826V33.5H63V30.826L35 16.826L7 30.826ZM35 30C34.0717 30 33.1815 29.6313 32.5251 28.9749C31.8687 28.3185 31.5 27.4283 31.5 26.5C31.5 25.5717 31.8687 24.6815 32.5251 24.0251C33.1815 23.3687 34.0717 23 35 23C35.9283 23 36.8185 23.3687 37.4749 24.0251C38.1312 24.6815 38.5 25.5717 38.5 26.5C38.5 27.4283 38.1312 28.3185 37.4749 28.9749C36.8185 29.6313 35.9283 30 35 30Z" fill="black"/>
<path d="M87.16 56V33.65H96.58C98.06 33.65 99.32 33.91 100.36 34.43C101.42 34.93 102.23 35.65 102.79 36.59C103.37 37.51 103.66 38.63 103.66 39.95C103.66 40.97 103.38 41.93 102.82 42.83C102.28 43.71 101.41 44.44 100.21 45.02V43.13C101.31 43.55 102.18 44.07 102.82 44.69C103.46 45.31 103.91 46 104.17 46.76C104.43 47.52 104.56 48.32 104.56 49.16C104.56 51.3 103.85 52.98 102.43 54.2C101.03 55.4 99.08 56 96.58 56H87.16ZM91.24 52.4H97C98.06 52.4 98.9 52.11 99.52 51.53C100.16 50.93 100.48 50.14 100.48 49.16C100.48 48.18 100.16 47.39 99.52 46.79C98.9 46.19 98.06 45.89 97 45.89H91.24V52.4ZM91.24 42.32H96.79C97.63 42.32 98.3 42.08 98.8 41.6C99.3 41.1 99.55 40.46 99.55 39.68C99.55 38.9 99.3 38.28 98.8 37.82C98.3 37.36 97.63 37.13 96.79 37.13H91.24V42.32ZM106.072 56L113.782 33.65H119.062L126.772 56H122.332L120.742 51.2H112.102L110.482 56H106.072ZM113.272 47.6H119.572L115.852 36.47H116.992L113.272 47.6ZM129.26 56V33.65H132.44L144.74 50.21L143.09 50.54V33.65H147.17V56H143.96L131.84 39.32L133.34 38.99V56H129.26ZM151.496 56V33.65H155.576V45.29L154.466 44.9L163.976 33.65H169.106L160.196 44.21L160.436 41.33L169.376 56H164.576L158.576 46.16L155.576 49.73V56H151.496ZM182.019 61.1C180.339 59.14 179.069 57.01 178.209 54.71C177.369 52.41 176.949 49.96 176.949 47.36C176.949 44.76 177.369 42.31 178.209 40.01C179.049 37.71 180.319 35.59 182.019 33.65H185.319C183.879 35.79 182.799 38.01 182.079 40.31C181.379 42.59 181.029 44.94 181.029 47.36C181.029 49.78 181.389 52.14 182.109 54.44C182.829 56.74 183.899 58.96 185.319 61.1H182.019ZM194.526 56L186.726 33.65H191.166L197.286 52.16H196.416L202.536 33.65H206.976L199.206 56H194.526ZM206.297 56L214.007 33.65H219.287L226.997 56H222.557L220.967 51.2H212.327L210.707 56H206.297ZM213.497 47.6H219.797L216.077 36.47H217.217L213.497 47.6ZM228.434 61.1C229.854 58.96 230.914 56.74 231.614 54.44C232.334 52.14 232.694 49.78 232.694 47.36C232.694 44.94 232.334 42.59 231.614 40.31C230.914 38.01 229.854 35.79 228.434 33.65H231.734C233.414 35.59 234.674 37.71 235.514 40.01C236.354 42.31 236.774 44.76 236.774 47.36C236.774 49.96 236.354 52.41 235.514 54.71C234.674 57.01 233.414 59.14 231.734 61.1H228.434Z" fill="black"/>
</svg>
