<svg width="127" height="92" viewBox="0 0 127 92" fill="none" xmlns="http://www.w3.org/2000/svg">
<path fill-rule="evenodd" clip-rule="evenodd" d="M74.1312 27.3955H80.5218L96.1026 48.5555V30.6053C96.1026 28.7857 93.6478 27.4568 93.6478 27.4568H101.641C101.641 27.4568 99.5515 28.6631 99.5515 30.5848V57.7964C99.5515 57.7964 95.8591 56.2835 93.0595 52.4604C90.2598 48.6373 79.7711 34.8168 79.7711 34.8168V53.0942C79.7711 54.4026 81.9622 56.0177 81.9622 56.0177H74.05C74.05 56.0177 76.2411 54.8115 76.2411 53.1964V30.8915C76.2614 28.4791 74.1312 27.3955 74.1312 27.3955ZM108.498 48.5555V30.5848C108.498 28.7653 106.023 27.416 106.023 27.416H115.437C115.437 27.416 113.327 28.6222 113.327 30.544V52.8897C113.327 54.6071 115.335 56.0177 115.335 56.0177H106.307C106.307 56.0177 108.519 54.648 108.519 53.2373V48.5555H108.498ZM54.8783 30.2986V38.9671H58.9561C60.8428 38.9671 63.5411 37.9653 63.5411 34.4284C63.5411 30.8915 59.5444 30.2986 58.1649 30.2986H54.8783ZM54.8783 41.7884V53.0737H60.2545C62.3441 53.0737 66.2393 51.2542 66.2393 47.7377C66.2393 44.2213 63.0542 41.7884 60.0516 41.7884H54.8783ZM47.8994 27.416H61.7152C64.7989 27.416 68.3289 30.0737 68.3289 33.7128C68.3289 38.6604 64.5757 39.3146 64.5757 39.3146C64.5757 39.3146 71.1489 40.9297 71.1489 47.2675C71.1489 53.6053 63.9671 56.0177 61.5732 56.0177L47.7168 55.9768C47.7168 55.9768 50.1107 54.7297 50.1107 52.6035V30.8506C50.1107 28.6426 47.8994 27.416 47.8994 27.416Z" fill="#006677"/>
<path fill-rule="evenodd" clip-rule="evenodd" d="M11.5645 56.0381H39.967V27.4159H11.5645V56.0381Z" fill="white"/>
<path fill-rule="evenodd" clip-rule="evenodd" d="M11.5645 27.4159H20.4301C20.4098 27.4772 20.349 27.6408 20.2678 27.9679C19.8823 29.4808 19.3143 33.8559 23.2095 40.255C24.163 41.8292 25.0962 43.0968 26.0498 44.3234L22.966 46.8177C17.8536 40.4799 11.5645 32.4248 11.5645 32.4248V27.4159ZM11.5645 38.3332V56.0381L20.1664 49.0461L14.2424 41.6043L11.5645 38.3332ZM39.967 36.5341C39.9061 36.4523 39.6424 36.0434 39.2569 35.655C38.0803 34.4283 35.524 32.4657 32.4606 34.1421C29.6204 35.6959 28.1597 39.2532 31.71 43.9554C34.6111 47.8194 37.2485 48.2079 38.7295 47.983C38.9932 47.9421 39.7641 47.7581 39.967 47.6354V36.5341ZM39.967 31.3617V27.4363H24.163C24.1427 27.4977 24.021 27.743 23.9804 28.1519C23.879 29.0514 23.8384 30.7892 24.4876 33.2221C25.36 36.575 27.7945 39.5803 27.7945 39.5803C27.7945 39.5803 27.551 36.2479 30.5942 33.1608C32.5215 31.2186 34.7125 30.6052 36.4978 30.6257C37.1268 30.6257 37.6948 30.7279 38.202 30.8301C38.4049 30.871 39.8047 31.2799 39.967 31.3617ZM39.967 49.0666C39.8859 49.1279 39.7236 49.2301 39.4395 49.4346C38.6686 49.9661 37.005 50.743 34.2459 50.3341C31.7506 49.9457 29.3769 48.2897 27.1859 45.6932L24.0616 48.2283C26.2729 50.9066 27.9771 53.0532 28.5451 53.4621C30.6956 55.0159 32.1766 54.423 32.1766 54.423L30.1884 56.0586H39.967V49.0666ZM25.2383 56.0381H14.4047L15.2974 55.3226L21.3025 50.4772C21.3025 50.4772 23.6761 53.5848 24.6296 54.7297C24.8122 54.9546 24.9339 55.159 25.0354 55.343C25.218 55.6497 25.1977 55.8746 25.2383 56.0381Z" fill="#E45300"/>
</svg>
