<svg width="123" height="74" viewBox="0 0 123 74" fill="none" xmlns="http://www.w3.org/2000/svg">
<g clip-path="url(#clip0_520_958)">
<mask id="mask0_520_958" style="mask-type:luminance" maskUnits="userSpaceOnUse" x="-169" y="-924" width="997" height="1427">
<path d="M-168.078 502.462H827.74V-923.049H-168.078V502.462Z" fill="white"/>
</mask>
<g mask="url(#mask0_520_958)">
<path d="M0.0136719 54.0013H9.1007C12.781 54.0013 15.5245 55.6336 15.5245 59.0725C15.5245 61.5937 14.2515 62.9974 12.0433 63.7424V63.8C14.6764 64.3452 16.0347 65.7777 16.0347 68.2125C16.0347 72.9976 11.8726 74 8.33452 74H0.0136719V54.0013ZM5.27819 61.9104H6.75031C8.47672 61.9104 10.2617 61.4803 10.2617 59.7887C10.2617 57.9567 8.56203 57.784 6.80552 57.784H5.27819V61.9104ZM5.27819 70.219H6.83563C8.7611 70.219 10.7702 69.9312 10.7702 67.8976C10.7702 65.7201 8.70423 65.5203 6.89084 65.5203H5.27819V70.219Z" fill="#00529C"/>
</g>
<path d="M22.9445 54.0013H29.3984L37.0133 74H31.2386L29.7665 69.7314H22.3506L20.7932 74H15.4434L22.9445 54.0013ZM26.1715 58.1277H26.1146L23.5668 65.9504H28.5218L26.1715 58.1277Z" fill="#00529C"/>
<path d="M37.7461 54.0013H44.4543L51.1357 67.5827H51.1909L51.1073 54.0013H55.9201V74H49.3792L42.4736 60.3323H42.4184L42.5857 74H37.7461V54.0013Z" fill="#00529C"/>
<path d="M57.707 54.0013H62.9715V62.1677H63.0284L68.9721 54.0013H75.3123L68.0102 63.3124L75.8794 74H69.1695L63.0284 64.9175H62.9715V74H57.707V54.0013Z" fill="#00529C"/>
<mask id="mask1_520_958" style="mask-type:luminance" maskUnits="userSpaceOnUse" x="-169" y="-924" width="997" height="1427">
<path d="M-168.078 502.462H827.74V-923.049H-168.078V502.462Z" fill="white"/>
</mask>
<g mask="url(#mask1_520_958)">
<path d="M82.4082 54.0013H91.4952C95.1739 54.0013 97.9207 55.6336 97.9207 59.0725C97.9207 61.5937 96.6477 62.9974 94.4395 63.7424V63.8C97.0726 64.3452 98.4293 65.7777 98.4293 68.2125C98.4293 72.9976 94.2688 74 90.7307 74H82.4082V54.0013ZM87.6727 61.9104H89.1448C90.8729 61.9104 92.6545 61.4803 92.6545 59.7887C92.6545 57.9567 90.9582 57.784 89.2017 57.784H87.6727V61.9104ZM87.6727 70.219H89.2302C91.154 70.219 93.1647 69.9312 93.1647 67.8976C93.1647 65.7201 91.0988 65.5203 89.287 65.5203H87.6727V70.219Z" fill="#00529C"/>
<path d="M99.5977 54.0013H108.996C112.506 54.0013 115.364 55.6065 115.364 59.0454C115.364 61.7089 114.12 63.4851 111.572 64.0862V64.1437C113.268 64.6026 113.382 66.1214 114.374 68.5563L116.298 74H110.808L109.675 70.3917C108.599 66.9528 107.919 66.0909 105.966 66.0909H104.862V74H99.5977V54.0013ZM104.862 62.31H106.249C107.949 62.31 110.1 62.2524 110.1 59.9885C110.1 58.1277 108.26 57.784 106.249 57.784H104.862V62.31Z" fill="#00529C"/>
</g>
<path d="M117.748 54.0007H123.013V73.9994H117.748V54.0007Z" fill="#00529C"/>
<path d="M76.5751 9.53674e-05H46.0088C42.2973 9.53674e-05 39.2891 3.13288 39.2891 6.99747V7.07103V37.7633C39.2891 41.5902 42.2416 44.7022 45.9049 44.7588H76.5584C80.2699 44.7588 83.28 41.6279 83.28 37.7633L83.293 6.99747C83.293 3.13288 80.2866 9.53674e-05 76.5751 9.53674e-05ZM49.6405 41.1733L47.974 41.1922C45.955 41.1922 44.3182 39.506 44.3182 37.4257L44.3089 37.1296V8.71758L44.32 7.18608C44.3961 5.17363 45.9012 3.55537 47.8701 3.55537H51.2606C54.3338 3.55537 56.8242 6.27133 56.8242 9.47202C56.8242 11.0563 56.2136 12.4935 55.2245 13.5384L46.5748 22.4596L54.6826 30.8508C55.7274 31.9466 56.3584 33.3838 56.3584 34.9587C56.3584 38.3914 53.3521 41.1733 49.6405 41.1733ZM74.5653 41.145L59.4501 41.1394C59.4501 41.1394 61.1964 37.3012 61.1964 34.9247C61.1964 32.0258 60.2444 29.4381 58.7523 27.7255L53.5822 22.3691L58.8581 16.8277C60.4299 15.3283 61.4729 12.6652 61.4729 9.63045C61.4729 7.22758 60.8197 5.10007 59.7674 3.55537H63.4289C66.502 3.55537 68.9943 6.27133 68.9943 9.47202C68.9943 11.0563 68.3838 12.4935 67.3946 13.5384L58.9101 22.3672L76.5324 40.6301C75.9738 40.9866 75.2705 41.145 74.5653 41.145ZM78.2564 35.4434L65.6279 22.3615L71.6425 16.1488C72.8654 14.5927 73.643 12.2502 73.643 9.63045C73.643 7.21249 72.9805 5.03028 71.919 3.48558L74.6098 3.56857C76.6289 3.56857 78.2657 5.25473 78.2657 7.33508L78.2564 35.4434Z" fill="#00529C"/>
</g>
<defs>
<clipPath id="clip0_520_958">
<rect width="123" height="74" fill="white"/>
</clipPath>
</defs>
</svg>
