<svg width="571" height="513" viewBox="0 0 571 513" fill="none" xmlns="http://www.w3.org/2000/svg">
<path d="M419.959 54.9647C410.968 50.064 406.843 54.1539 403.611 50.064C400.38 45.9741 412.602 35.3498 388.11 24.7256C388.11 24.7256 386.477 1.84364 352.959 1.02089C319.44 0.198143 328.443 23.9148 319.452 29.6383C310.462 35.3618 308.005 26.3711 299.015 32.0946C290.024 37.8181 294.09 49.2174 286.733 50.8867C279.376 52.5561 269.563 43.5296 260.572 49.2531C251.581 54.9766 251.581 59.8773 247.456 59.8773C243.33 59.8773 235.186 56.6102 230.285 59.8773C225.385 63.1445 219.661 67.2344 219.661 67.2344H426.505C426.505 67.2344 428.95 59.8773 419.959 54.9647Z" stroke="#263238" stroke-linecap="round" stroke-linejoin="round"/>
<path d="M297.631 51.6021C296.459 52.2633 295.239 52.8372 293.982 53.3192" stroke="#263238" stroke-linecap="round" stroke-linejoin="round"/>
<path d="M341.869 13.4456C339.841 14.3507 338.059 15.7278 336.671 17.4619C335.283 19.196 334.331 21.2368 333.892 23.414C332.39 30.9022 328.896 35.8864 324.913 36.3872C320.931 36.888 305.954 35.3856 303.45 40.8825C302.784 42.4892 302.316 44.1709 302.055 45.8906" stroke="#263238" stroke-linecap="round" stroke-linejoin="round"/>
<path d="M218.087 113.726C213.377 111.162 211.231 113.296 209.514 111.162C207.797 109.028 214.224 103.447 201.37 97.867C201.37 97.867 200.511 85.8715 182.947 85.4422C165.383 85.013 170.081 97.4377 165.371 100.49C160.661 103.543 159.409 98.7732 154.64 101.778C149.87 104.783 152.076 110.781 148.213 111.639C144.349 112.498 139.21 107.776 134.5 110.781C129.79 113.785 129.731 116.349 127.644 116.349C125.557 116.349 121.217 114.632 118.641 116.349C116.066 118.066 113.073 120.2 113.073 120.2H221.497C221.497 120.2 222.785 116.301 218.087 113.726Z" stroke="#263238" stroke-linecap="round" stroke-linejoin="round"/>
<path d="M153.948 111.973C153.328 112.311 152.687 112.61 152.028 112.867" stroke="#263238" stroke-linecap="round" stroke-linejoin="round"/>
<path d="M177.141 91.9527C176.077 92.4262 175.142 93.1473 174.414 94.0559C173.686 94.9645 173.186 96.0341 172.955 97.1753C172.168 101.098 170.344 103.722 168.186 103.984C166.027 104.246 158.253 103.459 156.941 106.369C156.596 107.212 156.348 108.092 156.202 108.992" stroke="#263238" stroke-linecap="round" stroke-linejoin="round"/>
<path d="M358.3 203.417C358.3 203.417 414.497 208.986 442.96 243.816C442.96 243.816 473.056 203.465 527.107 204.288C540.31 188.356 548.716 169.002 551.347 148.478C553.977 127.954 550.723 107.105 541.964 88.3584C533.205 69.6119 519.302 53.7391 501.872 42.588C484.442 31.4369 464.203 25.4663 443.511 25.3713C422.82 25.2764 402.527 31.0609 384.995 42.0515C367.464 53.0421 353.415 68.7865 344.484 87.4518C335.553 106.117 332.108 126.935 334.55 147.482C336.992 168.03 345.22 187.46 358.276 203.513L358.3 203.417Z" fill="#92E3A9"/>
<path opacity="0.5" d="M358.3 203.417C358.3 203.417 414.497 208.986 442.96 243.816C442.96 243.816 473.056 203.465 527.107 204.288C540.31 188.356 548.716 169.002 551.347 148.478C553.977 127.954 550.723 107.105 541.964 88.3584C533.205 69.6119 519.302 53.7391 501.872 42.588C484.442 31.4369 464.203 25.4663 443.511 25.3713C422.82 25.2764 402.527 31.0609 384.995 42.0515C367.464 53.0421 353.415 68.7865 344.484 87.4518C335.553 106.117 332.108 126.935 334.55 147.482C336.992 168.03 345.22 187.46 358.276 203.513L358.3 203.417Z" fill="white"/>
<path d="M441.124 33.0724L439.216 462.691H448.707L441.124 33.0724Z" fill="#263238"/>
<path d="M443.961 233.203C443.961 233.203 462.932 199.053 497.035 188.62C497.035 188.62 460.989 197.157 442.972 226.562L443.961 233.203Z" fill="#263238"/>
<path d="M443.961 136.453C443.961 136.453 462.932 102.315 497.035 91.8811C497.035 91.8811 460.989 100.419 442.972 129.811L443.961 136.453Z" fill="#263238"/>
<path d="M443.961 184.828C443.961 184.828 462.932 150.678 497.035 140.245C497.035 140.245 460.989 148.782 442.972 178.186L443.961 184.828Z" fill="#263238"/>
<path d="M441.148 161.111C441.148 161.111 422.845 126.973 389.875 116.54C389.875 116.54 424.657 125.077 442.042 154.482L441.148 161.111Z" fill="#263238"/>
<path d="M441.148 208.533C441.148 208.533 422.845 174.395 389.875 163.961C389.875 163.961 424.657 172.499 442.042 201.903L441.148 208.533Z" fill="#263238"/>
<path d="M182.434 247.953C182.434 247.953 228.938 252.568 252.559 281.412C252.559 281.412 277.48 248.025 322.242 248.681C333.181 235.486 340.147 219.455 342.328 202.454C344.509 185.454 341.816 168.184 334.562 152.655C327.308 137.126 315.792 123.977 301.355 114.739C286.917 105.502 270.153 100.555 253.013 100.476C235.874 100.397 219.064 105.189 204.543 114.293C190.021 123.398 178.384 136.44 170.988 151.901C163.591 167.363 160.739 184.608 162.763 201.627C164.788 218.647 171.605 234.742 182.422 248.037L182.434 247.953Z" fill="#92E3A9"/>
<path opacity="0.3" d="M182.434 247.953C182.434 247.953 228.938 252.568 252.559 281.412C252.559 281.412 277.48 248.025 322.242 248.681C333.181 235.486 340.147 219.455 342.328 202.454C344.509 185.454 341.816 168.184 334.562 152.655C327.308 137.126 315.792 123.977 301.355 114.739C286.917 105.502 270.153 100.555 253.013 100.476C235.874 100.397 219.064 105.189 204.543 114.293C190.021 123.398 178.384 136.44 170.988 151.901C163.591 167.363 160.739 184.608 162.763 201.627C164.788 218.647 171.605 234.742 182.422 248.037L182.434 247.953Z" fill="white"/>
<path d="M251.021 106.87L249.458 462.691H257.304L251.021 106.87Z" fill="#263238"/>
<path d="M253.382 272.624C253.382 272.624 269.085 244.34 297.369 235.66C297.369 235.66 267.559 242.731 252.595 267.079L253.382 272.624Z" fill="#263238"/>
<path d="M253.382 192.495C253.382 192.495 269.085 164.212 297.369 155.531C297.369 155.531 267.559 162.602 252.595 186.962L253.382 192.495Z" fill="#263238"/>
<path d="M253.382 232.56C253.382 232.56 269.085 204.276 297.369 195.595C297.369 195.595 267.559 202.666 252.595 227.027L253.382 232.56Z" fill="#263238"/>
<path d="M251.057 212.921C251.057 212.921 235.889 184.637 208.607 175.957C208.607 175.957 237.404 183.028 251.808 207.388L251.057 212.921Z" fill="#263238"/>
<path d="M251.057 252.198C251.057 252.198 235.889 223.915 208.607 215.234C208.607 215.234 237.404 222.305 251.808 246.666L251.057 252.198Z" fill="#263238"/>
<path d="M292.099 462.286C291.932 458.554 292.421 451.471 296.439 440.823C302.735 424.129 313.765 457.516 313.765 457.516C313.765 457.516 313.765 453.545 325.581 440.823C337.398 428.1 347.629 450.362 347.629 450.362C347.629 450.362 342.12 397.11 355.51 401.08C368.901 405.051 367.315 450.362 367.315 450.362C367.315 450.362 376.771 416.975 389.374 416.975C401.978 416.975 405.126 440.823 405.126 440.823C405.126 440.823 408.274 398.695 420.877 397.897C433.481 397.098 447.646 432.881 447.646 432.881C447.646 432.881 443.711 385.186 456.315 382.801C468.919 380.416 473.641 400.281 473.641 400.281C473.641 400.281 484.658 334.306 505.93 342.26C527.203 350.213 509.078 423.342 509.078 423.342C509.078 423.342 530.339 372.463 547.664 384.387C563.416 395.226 543.372 452.043 539.604 462.286H292.099Z" fill="#92E3A9"/>
<path d="M546.317 462.178C546.317 462.178 555.546 433.668 550.812 428.899C546.078 424.129 525.652 444.805 525.652 444.805C525.652 444.805 540.617 393.926 516.984 387.57C493.351 381.215 489.428 436.852 489.428 436.852C489.428 436.852 472.102 411.418 468.155 420.957C465.778 426.771 464.445 432.959 464.22 439.237C464.22 439.237 455.564 370.078 435.865 373.262C416.167 376.445 434.291 444.805 434.291 444.805C434.291 444.805 423.274 420.957 410.67 423.342C398.067 425.727 393.297 440.823 393.297 440.823C393.297 440.823 387.788 427.313 383.841 427.313C379.894 427.313 375.185 451.161 375.185 451.161C375.185 451.161 370.415 414.59 361.794 416.188C353.173 417.786 335.013 448.776 335.013 448.776C335.013 448.776 338.173 431.284 328.717 430.497C319.261 429.71 313.752 457.516 313.752 457.516C313.752 457.516 301.149 431.284 293.279 436.053C285.409 440.823 289.165 462.977 289.165 462.977" stroke="#263238" stroke-linecap="round" stroke-linejoin="round"/>
<path d="M503.796 461.785L510.652 428.112" stroke="#263238" stroke-linecap="round" stroke-linejoin="round"/>
<path d="M454.741 462.286L450.794 440.036" stroke="#263238" stroke-linecap="round" stroke-linejoin="round"/>
<path d="M355.141 462.178L360.232 444.006" stroke="#263238" stroke-linecap="round" stroke-linejoin="round"/>
<path d="M416.143 463.085L407.486 447.19" stroke="#263238" stroke-linecap="round" stroke-linejoin="round"/>
<path d="M505.143 448.776L498.835 436.053" stroke="#263238" stroke-linecap="round" stroke-linejoin="round"/>
<path d="M454.741 455.131L460.25 444.006" stroke="#263238" stroke-linecap="round" stroke-linejoin="round"/>
<path d="M412.208 454.344L416.143 447.19" stroke="#263238" stroke-linecap="round" stroke-linejoin="round"/>
<path d="M356.726 455.429L353.936 445.592" stroke="#263238" stroke-linecap="round" stroke-linejoin="round"/>
<path d="M256.172 462.465C256.303 459.567 255.933 454.118 252.988 445.771C248.374 432.81 240.277 458.732 240.277 458.732C240.277 458.732 240.277 455.644 231.621 445.771C222.964 435.898 215.452 453.176 215.452 453.176C215.452 453.176 219.494 411.836 209.669 414.924C199.843 418.012 201.012 453.176 201.012 453.176C201.012 453.176 194.168 427.301 184.867 427.301C175.566 427.301 173.313 445.807 173.313 445.807C173.313 445.807 171.011 413.1 161.77 412.491C152.529 411.883 142.132 439.63 142.132 439.63C142.132 439.63 145.017 402.666 135.776 400.758C126.535 398.85 123.065 414.34 123.065 414.34C123.065 414.34 114.981 363.126 99.3843 369.291C83.7878 375.456 97.0711 432.237 97.0711 432.237C97.0711 432.237 81.4746 392.745 68.7756 401.998C57.2213 410.417 71.9235 454.464 74.7376 462.465H256.172Z" fill="#92E3A9"/>
<path d="M69.7651 462.381C69.7651 462.381 63.0042 440.25 66.4622 436.554C69.9201 432.857 84.9442 448.895 84.9442 448.895C84.9442 448.895 73.9742 409.403 91.2997 404.467C108.625 399.53 111.57 442.719 111.57 442.719C111.57 442.719 124.281 422.973 127.167 430.377C128.914 434.913 129.889 439.709 130.052 444.567C130.052 444.567 136.408 390.909 150.848 393.354C165.288 395.798 152.04 448.895 152.04 448.895C152.04 448.895 160.125 430.377 169.366 432.202C178.607 434.026 182.076 445.771 182.076 445.771C182.076 445.771 186.119 435.278 189.004 435.278C191.89 435.278 195.36 453.796 195.36 453.796C195.36 453.796 198.83 425.405 205.185 426.645C211.54 427.885 224.824 451.936 224.824 451.936C224.824 451.936 222.51 438.366 229.438 437.746C236.366 437.126 240.408 458.732 240.408 458.732C240.408 458.732 249.649 438.366 255.432 442.039C261.216 445.711 258.366 462.977 258.366 462.977" stroke="#263238" stroke-linecap="round" stroke-linejoin="round"/>
<path d="M100.946 462.071L95.9143 435.934" stroke="#263238" stroke-linecap="round" stroke-linejoin="round"/>
<path d="M136.933 462.465L139.818 445.187" stroke="#263238" stroke-linecap="round" stroke-linejoin="round"/>
<path d="M209.978 462.381L206.234 448.275" stroke="#263238" stroke-linecap="round" stroke-linejoin="round"/>
<path d="M165.228 463.085L171.583 450.743" stroke="#263238" stroke-linecap="round" stroke-linejoin="round"/>
<path d="M99.9685 451.972L104.583 442.099" stroke="#263238" stroke-linecap="round" stroke-linejoin="round"/>
<path d="M136.933 456.908L132.89 448.275" stroke="#263238" stroke-linecap="round" stroke-linejoin="round"/>
<path d="M168.114 456.3L165.228 450.743" stroke="#263238" stroke-linecap="round" stroke-linejoin="round"/>
<path d="M208.81 457.135L210.861 449.503" stroke="#263238" stroke-linecap="round" stroke-linejoin="round"/>
<path d="M1 462.691H569.771" stroke="#263238" stroke-linecap="round" stroke-linejoin="round"/>
<path d="M435.364 363.508L429.545 372.248L381.73 393.032C381.73 393.032 375.077 394.284 375.077 396.358C375.077 398.433 373.825 404.264 375.077 405.099C376.329 405.933 384.616 403.012 384.616 403.012C384.616 403.012 382.124 405.921 384.616 406.756C387.108 407.591 389.6 403.847 389.6 403.847C392.042 402.309 394.402 400.645 396.671 398.862C397.843 397.323 398.82 395.645 399.581 393.866L443.699 382.646L452.845 368.921C452.845 368.921 434.124 366.835 435.364 363.508Z" fill="#B5B5B5" stroke="#263238" stroke-linecap="round" stroke-linejoin="round"/>
<path d="M438.691 343.905L433.278 361.672L447.432 370.102L453.143 356.246L438.691 343.905Z" fill="white" stroke="#263238" stroke-linecap="round" stroke-linejoin="round"/>
<path d="M433.838 355.948L451.009 366.191L447.992 371.604L431.74 363.174C431.852 360.632 432.572 358.155 433.838 355.948Z" fill="white" stroke="#263238" stroke-linecap="round" stroke-linejoin="round"/>
<path d="M399.855 449.861C399.855 449.861 387.812 455.883 384.497 458.589C381.183 461.296 380.586 460.974 381.481 463.108H420.031L419.124 449.253L399.855 449.861Z" fill="white" stroke="#263238" stroke-linecap="round" stroke-linejoin="round"/>
<path d="M419.887 461.034H381.48C380.956 461.594 381.015 462.047 381.48 463.144H420.03L419.887 461.034Z" fill="white" stroke="#263238" stroke-linecap="round" stroke-linejoin="round"/>
<path d="M451.641 378.234C451.641 378.234 436.891 372.212 424.848 371.008C412.805 369.804 387.812 370.4 386.608 375.778C385.403 381.155 404.374 440.167 404.374 440.167C404.374 440.167 401.06 442.277 400.797 443.744C400.535 445.211 399.903 449.706 399.903 449.706L419.172 452.711C419.172 452.711 419.768 446.689 419.768 440.978C419.768 435.266 413.15 400.019 413.15 400.019L451.987 412.372L437.535 443.076C437.535 443.076 433.028 452.115 438.143 456.634C443.258 461.153 451.688 460.211 451.688 460.211L520.346 461.117L519.154 449.968C519.154 449.968 509.221 448.466 507.409 448.466C505.597 448.466 470.969 439.738 470.969 439.738C470.969 439.738 498.681 410.822 501.685 406.005C503.474 403.338 504.691 400.33 505.261 397.17C505.832 394.01 505.743 390.766 505 387.642C503.188 380.416 501.984 378.902 501.984 378.902C501.984 378.902 480.854 389.049 470.016 386.664C463.377 385.146 457.122 382.276 451.641 378.234Z" fill="#263238" stroke="#263238" stroke-linecap="round" stroke-linejoin="round"/>
<path d="M402.562 285.788C402.562 285.788 404.672 292.716 404.672 293.622C404.672 294.528 403.158 299.035 404.374 300.538C405.591 302.04 409.144 302.35 409.144 302.35C409.144 302.35 414.557 308.67 416.966 311.079C419.375 313.487 422.081 314.393 425.098 312.891C428.115 311.389 430.822 307.466 430.822 307.466L436.545 313.189L449.793 297.831L445.023 291.809C445.023 291.809 446.215 284.882 441.708 275.855C437.201 266.829 421.533 264.408 411.29 266.221C401.048 268.033 398.651 274.043 398.651 275.247C398.651 276.451 402.562 285.788 402.562 285.788Z" fill="white" stroke="#263238" stroke-linecap="round" stroke-linejoin="round"/>
<path d="M407.987 258.387C407.987 258.387 401.656 253.617 397.447 255.68C393.238 257.743 395.062 259.591 394.43 263.204C393.798 266.817 383.293 267.115 383.293 273.137C383.293 279.158 390.817 281.269 392.319 281.567C393.822 281.865 392.629 288.495 397.089 288.495C401.548 288.495 402.514 285.788 402.514 285.788C402.514 285.788 399.2 276.153 402.812 274.651C406.425 273.149 414.558 270.132 413.353 275.843C412.149 281.555 416.37 283.367 418.779 282.771C421.187 282.175 424.192 282.461 424.741 283.665C425.289 284.87 428.318 286.98 428.318 283.975C428.318 280.971 429.82 278.252 432.527 278.252C435.234 278.252 437.296 282.771 437.046 286.384C436.843 288.56 436.015 290.63 434.661 292.346L444.904 291.738C444.904 291.738 447.611 278.192 445.202 268.558C442.793 258.923 431.454 253.569 424.538 252.663C417.622 251.757 408.882 255.68 407.987 258.387Z" fill="#263238" stroke="#263238" stroke-linecap="round" stroke-linejoin="round"/>
<path d="M410.575 291.166C411.326 292.358 411.505 293.55 410.992 293.848C410.479 294.147 409.43 293.55 408.691 292.406C407.952 291.261 407.749 290.021 408.273 289.723C408.798 289.425 409.824 290.08 410.575 291.166Z" fill="#263238"/>
<path d="M414.486 304.687C415.925 304.401 417.229 303.647 418.195 302.543C419.161 301.439 419.735 300.046 419.828 298.582" stroke="#263238" stroke-linecap="round" stroke-linejoin="round"/>
<path d="M405.316 288.65C405.316 288.65 405.817 285.848 409.132 287.123" stroke="#263238" stroke-linecap="round" stroke-linejoin="round"/>
<path d="M437.189 318.304C437.189 318.304 434.804 338.182 437.487 344.203C440.17 350.225 449.84 374.311 449.84 374.311C449.84 374.311 447.729 389.049 453.751 392.984C459.773 396.919 482.655 397.503 491.395 392.078C500.135 386.652 503.736 382.443 503.736 378.532C503.736 374.621 498.013 357.451 488.986 340.292C482.376 327.726 473.252 316.654 462.181 307.764C455.862 302.648 453.453 300.24 452.249 300.24C451.044 300.24 436.593 312.593 437.189 318.304Z" fill="white" stroke="#263238" stroke-linecap="round" stroke-linejoin="round"/>
<path d="M449.84 296.329L433.576 314.691L436.891 324.636L455.254 300.848L449.84 296.329Z" fill="white" stroke="#263238" stroke-linecap="round" stroke-linejoin="round"/>
<path d="M450.138 363.472C450.138 363.472 417.013 382.443 412.804 383.957C408.595 385.472 395.038 385.46 391.115 385.15C390.634 385.064 390.139 385.085 389.667 385.212C389.195 385.339 388.757 385.568 388.384 385.883C388.01 386.199 387.711 386.592 387.507 387.036C387.303 387.48 387.2 387.964 387.204 388.453L386.607 399.9C386.607 399.9 389.91 400.806 391.377 399.9C392.844 398.994 394.382 395.679 394.382 395.679C394.382 395.679 399.807 396.287 401.608 395.082C402.789 394.279 403.899 393.373 404.923 392.376C410.486 391.914 416.017 391.117 421.485 389.991C427.506 388.477 455.206 379.45 459.427 378.544C463.648 377.638 465.15 375.229 465.448 373.774C465.746 372.32 450.138 363.472 450.138 363.472Z" fill="white" stroke="#263238" stroke-linecap="round" stroke-linejoin="round"/>
<path d="M412.375 384.077C407.772 385.448 394.918 385.448 391.115 385.162C390.634 385.076 390.139 385.097 389.667 385.224C389.195 385.351 388.757 385.58 388.384 385.895C388.01 386.211 387.711 386.604 387.507 387.048C387.303 387.492 387.2 387.976 387.204 388.465L386.607 399.912C386.607 399.912 389.91 400.818 391.377 399.912C392.844 399.005 394.382 395.691 394.382 395.691C394.382 395.691 399.807 396.299 401.608 395.094C402.789 394.291 403.899 393.385 404.923 392.388C404.923 392.388 409.978 391.947 415.094 391.195L412.375 384.077Z" fill="#92E3A9" stroke="#263238" stroke-linecap="round" stroke-linejoin="round"/>
<path d="M452.547 318.614C452.547 318.614 447.432 324.326 448.028 328.547C448.624 332.768 450.138 363.472 450.138 363.472L467.297 370.4L472.066 346.016C472.066 346.016 475.989 339.684 475.381 333.662" fill="white"/>
<path d="M452.547 318.614C452.547 318.614 447.432 324.326 448.028 328.547C448.624 332.768 450.138 363.472 450.138 363.472L467.297 370.4L472.066 346.016C472.066 346.016 475.989 339.684 475.381 333.662" stroke="#263238" stroke-linecap="round" stroke-linejoin="round"/>
<path d="M448.636 364.987L466.093 375.515C466.093 375.515 468.477 375.515 468.811 371.604C469.145 367.693 470.91 367.085 469.407 364.987C467.905 362.888 451.939 356.246 450.436 356.246C448.934 356.246 447.432 359.859 448.636 364.987Z" fill="white" stroke="#263238" stroke-linecap="round" stroke-linejoin="round"/>
<path d="M519.094 450.195C519.094 450.195 528.121 442.373 529.635 442.671C531.149 442.969 543.181 454.416 543.181 454.416C543.181 454.416 554.318 460.437 554.318 461.344C554.318 462.25 552.517 462.536 552.517 462.536L520.322 461.344L519.094 450.195Z" fill="white" stroke="#263238" stroke-linecap="round" stroke-linejoin="round"/>
<path d="M554.27 461.344C554.27 460.437 543.133 454.416 543.133 454.416C543.133 454.416 531.09 442.969 529.588 442.671C529.051 442.564 527.549 443.494 525.855 444.734L540.426 455.012L551.039 462.488L552.47 462.548C552.47 462.548 554.27 462.238 554.27 461.344Z" fill="white" stroke="#263238" stroke-linecap="round" stroke-linejoin="round"/>
<path d="M451.939 412.563L448.934 399.912" stroke="#999999" stroke-linecap="round" stroke-linejoin="round"/>
<path d="M347.175 362.435C343.598 360.408 338.34 357.665 338.34 357.665C338.34 357.665 331.257 339.779 325.7 331.433C320.144 323.086 316.853 322.072 310.783 321.572C304.714 321.071 286.53 325.864 285.743 327.128C285.743 327.128 268.811 334.962 264.519 340.531C260.226 346.099 261.728 389.299 261.728 389.299C261.728 389.299 243.556 401.605 238.763 415.282C235.71 423.95 239.264 438.271 255.695 442.575C261.177 444.042 266.931 444.169 272.472 442.945C276.741 446.546 281.468 449.565 286.53 451.924C303.462 460.008 314.575 461.523 324.937 462.035C335.299 462.548 345.911 459.257 347.938 457.266C349.965 455.274 354.008 447.405 343.646 436.041C334.715 426.228 307.767 415.305 300.493 412.479C301.217 408.235 301.615 403.942 301.686 399.637C301.686 399.637 317.354 381.752 318.379 377.65C319.405 373.548 321.956 356.926 321.956 356.926C321.956 356.926 330.553 372.606 333.081 374.871C335.609 377.137 350.264 375.384 351.778 375.384C353.292 375.384 354.055 368.814 354.055 368.814C352.134 366.319 349.809 364.162 347.175 362.435Z" fill="white" stroke="#263238" stroke-linecap="round" stroke-linejoin="round"/>
<path d="M343.646 435.982C334.715 426.168 307.767 415.246 300.493 412.42C300.72 411.096 300.911 409.809 301.054 408.592C294.254 410.095 287.194 409.951 280.461 408.175C261.252 403.119 257.209 392.757 257.209 392.757H257.066C251.331 397.408 241.994 406.029 238.763 415.246C235.71 423.915 239.264 438.235 255.695 442.54C261.177 444.007 266.931 444.133 272.472 442.909C276.741 446.51 281.468 449.529 286.53 451.888C303.462 459.972 314.575 461.487 324.937 462C335.299 462.512 345.911 459.221 347.938 457.23C349.965 455.239 354.008 447.345 343.646 435.982Z" fill="#696969" stroke="#263238" stroke-linecap="round" stroke-linejoin="round"/>
<path d="M248.863 417.022C248.863 417.022 257.961 405.898 269.849 410.452C311.38 426.371 321.909 444.066 324.699 451.137C327.489 458.208 326.463 462.011 324.198 463.526C321.932 465.04 298.168 459.484 286.793 455.441C275.417 451.399 260.25 453.414 247.36 442.552C234.47 431.689 236.498 421.089 240.54 411.967" fill="#696969"/>
<path d="M248.863 417.022C248.863 417.022 257.961 405.898 269.849 410.452C311.38 426.371 321.909 444.066 324.699 451.137C327.489 458.208 326.463 462.011 324.198 463.526C321.932 465.04 298.168 459.484 286.793 455.441C275.417 451.399 260.25 453.414 247.36 442.552C234.47 431.689 236.498 421.089 240.54 411.967" stroke="#263238" stroke-linecap="round" stroke-linejoin="round"/>
<path d="M354.007 368.778C352.095 366.308 349.786 364.173 347.175 362.459C343.598 360.432 338.339 357.689 338.339 357.689C338.339 357.689 336.3 352.538 333.57 346.469C330.505 349.02 325.485 353.921 323.554 359.871C326.177 364.521 331.209 373.226 333.093 374.871C335.609 377.149 350.275 375.384 351.79 375.384C353.304 375.384 354.007 368.778 354.007 368.778Z" fill="white" stroke="#263238" stroke-linecap="round" stroke-linejoin="round"/>
<path d="M321.909 356.866L321.658 343.225" stroke="#263238" stroke-linecap="round" stroke-linejoin="round"/>
<path d="M362.211 391.183C359.372 392.201 356.647 393.512 354.079 395.094C351.694 396.895 351.373 398.409 351.373 401.116C351.373 403.823 345.947 407.436 348.666 407.436C351.384 407.436 353.435 406.529 355.892 402.022C358.348 397.515 361.305 396.18 361.305 396.18C361.492 398.359 361.892 400.516 362.498 402.618C363.339 404.414 363.451 406.466 362.808 408.342C362.199 410.727 365.192 410.154 366.11 403.572C366.596 399.372 365.976 395.118 364.31 391.231L362.211 391.183Z" fill="white" stroke="#263238" stroke-linecap="round" stroke-linejoin="round"/>
<path d="M361.615 383.934C361.615 383.934 362.509 389.013 362.211 390.17C361.913 391.326 357.692 394.558 356.19 397.324C355.589 398.45 355.226 399.687 355.124 400.959C355.021 402.23 355.181 403.51 355.594 404.717C356.19 406.565 357.978 412.563 358.896 410.953C359.815 409.344 360.089 407.483 360.089 404.025C360.089 400.568 359.493 397.551 361.281 396.168L363.094 394.784C363.968 396.801 364.674 398.887 365.204 401.021C366.397 405.409 364.298 409.105 364.894 409.797C365.49 410.488 367.911 410.023 368.209 408.175C368.507 406.327 369.711 404.252 369.711 400.556C369.693 398.301 369.017 396.101 367.768 394.224C367.205 392.667 366.751 391.074 366.409 389.454C365.872 386.664 364.024 381.394 361.615 383.934Z" fill="white" stroke="#263238" stroke-linecap="round" stroke-linejoin="round"/>
<path d="M370.94 375.825C372.248 378.036 373.442 380.313 374.517 382.646C375.268 384.673 375.781 386.95 374.517 387.415C373.253 387.88 372.239 384.387 371.476 382.872C370.713 381.358 368.161 374.812 370.94 375.825Z" fill="#92E3A9" stroke="#263238" stroke-linecap="round" stroke-linejoin="round"/>
<path d="M370.94 375.825C369.425 372.546 360.828 367.479 358.551 366.227C356.965 365.332 351.897 365.201 349.012 365.189C348.32 365.082 347.616 365.082 346.925 365.189C346.925 365.189 342.883 368.218 343.133 371.509C343.227 372.447 343.629 373.328 344.276 374.014C344.923 374.7 345.779 375.153 346.71 375.301H347.903C347.71 376.528 347.923 377.784 348.511 378.878C350.527 381.99 351.754 385.547 352.088 389.24C352.088 392.531 355.88 391.267 356.381 388.739C356.882 386.211 355.63 381.668 355.63 380.655C355.63 379.641 357.645 376.863 357.645 376.863C357.645 376.863 363.213 382.67 363.964 383.934C364.716 385.198 364.978 391.768 367.005 392.28C369.032 392.793 369.02 388.703 369.02 388.703C369.439 388.738 369.86 388.685 370.258 388.549C370.655 388.412 371.02 388.195 371.329 387.91C371.639 387.626 371.886 387.28 372.055 386.895C372.224 386.51 372.311 386.095 372.311 385.675C372.729 382.328 372.256 378.93 370.94 375.825Z" fill="#92E3A9" stroke="#263238" stroke-linecap="round" stroke-linejoin="round"/>
<path d="M365.383 376.589C365.383 376.589 369.163 378.854 369.163 381.132C369.163 383.409 368.912 388.715 368.912 388.715" stroke="#263238" stroke-linecap="round" stroke-linejoin="round"/>
<path d="M325.45 457.015C325.45 460.593 327.465 461.058 319.631 465.863C311.797 470.668 299.921 467.377 288.295 464.849C276.669 462.321 262.766 460.294 257.46 460.294C252.154 460.294 239.479 462.262 234.709 462.262C229.939 462.262 222.082 461.761 223.095 459.233C224.109 456.705 236.986 452.651 238 451.65C239.014 450.648 238.763 448.609 241.291 444.817C241.863 443.777 242.788 442.977 243.9 442.562C245.011 442.146 246.235 442.142 247.348 442.552C251.813 446.641 257.359 449.361 263.326 450.386C272.866 451.9 290.358 452.651 297.19 452.651C304.023 452.651 312.608 455.692 313.359 455.692" fill="#696969"/>
<path d="M325.45 457.015C325.45 460.593 327.465 461.058 319.631 465.863C311.797 470.668 299.921 467.377 288.295 464.849C276.669 462.321 262.766 460.294 257.46 460.294C252.154 460.294 239.479 462.262 234.709 462.262C229.939 462.262 222.082 461.761 223.095 459.233C224.109 456.705 236.986 452.651 238 451.65C239.014 450.648 238.763 448.609 241.291 444.817C241.863 443.777 242.788 442.977 243.9 442.562C245.011 442.146 246.235 442.142 247.348 442.552C251.813 446.641 257.359 449.361 263.326 450.386C272.866 451.9 290.358 452.651 297.19 452.651C304.023 452.651 312.608 455.692 313.359 455.692" stroke="#263238" stroke-linecap="round" stroke-linejoin="round"/>
<path d="M263.326 450.386C257.376 449.352 251.847 446.633 247.396 442.552C246.282 442.142 245.058 442.146 243.947 442.562C242.836 442.977 241.91 443.777 241.338 444.817C238.811 448.609 239.061 450.636 238.047 451.65C237.034 452.663 224.144 456.705 223.143 459.233C222.141 461.761 229.939 462.262 234.709 462.262C239.478 462.262 252.153 460.235 257.46 460.235C260.216 460.312 262.967 460.538 265.699 460.914C265.699 460.688 265.604 460.461 265.544 460.235C264.805 457.087 266.927 452.973 268.108 451.018C266.355 450.827 264.721 450.612 263.326 450.386Z" fill="white" stroke="#263238" stroke-linecap="round" stroke-linejoin="round"/>
<path d="M247.348 442.552C246.235 442.142 245.011 442.146 243.9 442.562C242.788 442.977 241.863 443.777 241.291 444.817C238.763 448.609 239.013 450.636 238 451.65C236.986 452.663 224.097 456.705 223.095 459.233C222.725 460.127 223.489 460.759 224.824 461.213C227.793 458.029 237.225 455.382 239.86 453.462C242.495 451.542 240.528 450.886 243.306 447.095C243.998 446.209 244.859 445.47 245.84 444.922C246.821 444.373 247.901 444.025 249.018 443.899C247.921 443.112 247.348 442.552 247.348 442.552Z" stroke="#263238" stroke-linecap="round" stroke-linejoin="round"/>
<path d="M270.6 335.391C270.6 335.391 260.238 339.434 258.223 347.768C256.208 356.103 259.988 407.925 259.988 409.188C259.988 410.452 266.808 411.716 277.432 412.766C288.057 413.815 307.755 414.03 307.755 414.03C307.755 414.03 316.352 417.809 318.117 417.809C319.881 417.809 323.673 415.544 323.673 415.544C323.673 415.544 323.172 417.809 325.188 417.309C327.203 416.808 334.035 411.239 334.035 410.238C334.035 409.236 329.492 404.419 326.714 403.918C323.936 403.417 311.547 408.211 310.283 408.211C309.019 408.211 287.031 403.441 282.989 401.641C279.774 400.337 276.481 399.238 273.128 398.35L274.904 354.637" fill="white"/>
<path d="M270.6 335.391C270.6 335.391 260.238 339.434 258.223 347.768C256.208 356.103 259.988 407.925 259.988 409.188C259.988 410.452 266.808 411.716 277.432 412.766C288.057 413.815 307.755 414.03 307.755 414.03C307.755 414.03 316.352 417.809 318.117 417.809C319.881 417.809 323.673 415.544 323.673 415.544C323.673 415.544 323.172 417.809 325.188 417.309C327.203 416.808 334.035 411.239 334.035 410.238C334.035 409.236 329.492 404.419 326.714 403.918C323.936 403.417 311.547 408.211 310.283 408.211C309.019 408.211 287.031 403.441 282.989 401.641C279.774 400.337 276.481 399.238 273.128 398.35L274.904 354.637" stroke="#263238" stroke-linecap="round" stroke-linejoin="round"/>
<path d="M326.714 403.882C323.924 403.37 311.547 408.175 310.283 408.175C309.019 408.175 287.031 403.405 282.989 401.605C279.775 400.301 276.481 399.202 273.128 398.314L274.094 374.359L258.008 373.739C258.688 390.301 259.988 408.449 259.988 409.189C259.988 410.452 266.808 411.716 277.432 412.766C288.057 413.815 307.755 414.03 307.755 414.03C307.755 414.03 316.352 417.809 318.117 417.809C319.882 417.809 323.673 415.544 323.673 415.544C323.673 415.544 323.173 417.81 325.188 417.309C327.203 416.808 334.035 411.239 334.035 410.238C334.035 409.236 329.492 404.383 326.714 403.882Z" fill="white" stroke="#263238" stroke-linecap="round" stroke-linejoin="round"/>
<path d="M334.035 410.202C334.035 409.188 329.492 404.383 326.714 403.882C323.936 403.382 311.547 408.175 310.283 408.175C309.889 408.175 307.481 407.71 304.225 406.983C303.033 408.175 301.9 410.226 302.282 413.851L307.755 413.958C307.755 413.958 316.352 417.738 318.117 417.738C319.882 417.738 323.673 415.472 323.673 415.472C323.673 415.472 323.173 417.738 325.188 417.237C327.203 416.736 334.035 411.204 334.035 410.202Z" fill="#92E3A9" stroke="#263238" stroke-linecap="round" stroke-linejoin="round"/>
<path d="M278.947 285.848C278.947 285.848 269.336 278.276 265.544 280.804C261.753 283.332 245.834 303.543 244.32 309.099C242.805 314.656 251.14 315.932 248.112 320.475C245.083 325.018 239.264 326.794 241.542 332.398C243.819 338.003 252.917 338.468 254.932 339.732C256.947 340.996 260.238 345.801 267.571 343.774C274.905 341.747 273.378 332.398 278.947 331.135C284.515 329.871 284.003 322.299 281.475 316.23C278.947 310.16 277.433 301.826 280.461 298.034C283.49 294.242 278.947 285.848 278.947 285.848Z" fill="#263238" stroke="#263238" stroke-linecap="round" stroke-linejoin="round"/>
<path d="M284.551 280.649C284.551 280.649 276.8 281.09 273.14 290.772C269.479 300.454 273.14 314.882 274.213 317.255C275.286 319.628 280.89 322.025 284.336 320.045C287.782 318.066 292.516 310.578 295.95 308.634C299.384 306.691 306.288 298.523 306.288 298.523L311.237 304.759C311.237 304.759 314.468 304.33 315.756 298.093C317.044 291.857 312.322 285.18 304.571 281.305C296.821 277.429 288.426 277.644 284.551 280.649Z" fill="#263238" stroke="#263238" stroke-linecap="round" stroke-linejoin="round"/>
<path d="M283.49 324.266C283.49 324.266 283.74 331.85 285.517 335.141C287.293 338.432 291.836 353.027 297.643 353.587C303.45 354.148 303.2 333.114 303.2 333.114C303.2 333.114 296.379 333.364 292.337 329.072C288.295 324.779 284.002 322.275 283.49 324.266Z" stroke="#263238" stroke-linecap="round" stroke-linejoin="round"/>
<path d="M307.147 292.274C307.147 292.274 298.108 302.827 291.002 307.346C283.895 311.865 280.675 312.509 280.675 312.509C280.675 312.509 283.466 312.08 281.534 314.024C279.602 315.967 279.149 316.408 278.088 314.668C277.027 312.927 272.71 311.222 271.84 315.526C271.47 317.323 271.745 319.193 272.618 320.807C273.49 322.42 274.904 323.675 276.609 324.35C278.446 325.123 280.486 325.274 282.416 324.779C282.416 324.779 283.06 332.1 291.669 336.405C300.278 340.709 308.255 334.688 310.616 330.169C312.977 325.65 312.131 305.2 311.69 301.754C311.248 298.308 307.147 292.274 307.147 292.274Z" fill="white" stroke="#263238" stroke-linecap="round" stroke-linejoin="round"/>
<path d="M304.976 312.641C304.976 312.641 304.464 316.683 305.227 316.933C305.99 317.184 308.804 318.197 307.755 319.723C306.705 321.25 305.227 322.251 303.462 321.488" stroke="#263238" stroke-linecap="round" stroke-linejoin="round"/>
<path d="M293.601 325.029C293.601 325.029 295.628 328.309 303.462 326.544" stroke="#263238" stroke-linecap="round" stroke-linejoin="round"/>
<path d="M298.156 314.286C298.156 315.478 297.583 316.432 296.892 316.432C296.2 316.432 295.628 315.466 295.628 314.286C295.628 313.106 296.188 312.14 296.892 312.14C297.595 312.14 298.156 313.094 298.156 314.286Z" fill="#263238"/>
<path d="M309.019 313.022C309.019 314.214 308.459 315.168 307.755 315.168C307.052 315.168 306.491 314.203 306.491 313.022C306.491 311.842 307.052 310.876 307.755 310.876C308.459 310.876 309.019 311.83 309.019 313.022Z" fill="#263238"/>
<path d="M293.136 310.351C293.826 309.504 294.723 308.85 295.741 308.453C296.759 308.056 297.862 307.929 298.943 308.086" stroke="#263238" stroke-linecap="round" stroke-linejoin="round"/>
<path d="M305.227 307.835C305.227 307.835 306.741 304.556 309.997 306.834" stroke="#263238" stroke-linecap="round" stroke-linejoin="round"/>
<path d="M389.314 396.597C389.314 396.597 364.918 404.431 358.312 406.84C351.706 409.248 330.005 409.546 328.502 411.955C327 414.363 316.197 427.981 314.086 435.803C311.976 443.625 314.778 464.814 316.793 466.137C324.889 471.491 346.185 469.845 355.2 469.5C371.691 468.892 387.657 474.842 396.934 458.053C399.938 452.627 395.598 433.633 395.002 427.313C394.406 420.993 392.283 410.452 391.985 408.938C391.687 407.424 393.833 397.801 389.314 396.597Z" fill="white" stroke="#263238" stroke-linecap="round" stroke-linejoin="round"/>
<path d="M358.801 427.206C371.703 422.651 382.709 409.32 386.131 407.078C389.553 404.836 391.425 399.924 391.425 399.924C386.021 403.565 380.154 406.469 373.98 408.557" stroke="#263238" stroke-linecap="round" stroke-linejoin="round"/>
<path d="M391.067 402.094C388.628 409.627 384.316 416.417 378.535 421.828" stroke="#263238" stroke-linecap="round" stroke-linejoin="round"/>
<path d="M333.367 412.718C333.367 412.718 337.159 414.614 350.061 414.614" stroke="#263238" stroke-linecap="round" stroke-linejoin="round"/>
<path d="M331.841 413.1C331.841 413.1 334.881 426.383 351.968 431.701" stroke="#263238" stroke-linecap="round" stroke-linejoin="round"/>
<path d="M328.812 417.666C331.404 422.236 334.887 426.238 339.055 429.435" stroke="#263238" stroke-linecap="round" stroke-linejoin="round"/>
<path d="M89.1653 354.195C89.1653 354.195 95.9023 373.405 95.9023 381.155C95.9023 388.906 101.292 431.367 101.96 436.089C102.407 439.021 103.321 441.863 104.666 444.507C109.269 448.761 114.497 452.284 120.168 454.952C129.933 459.722 129.599 458.327 127.918 460.342C126.237 462.357 110.724 462.727 103.653 462.035C96.582 461.344 89.4992 463.717 89.1653 460.688C88.8314 457.659 88.8195 445.521 88.8195 440.131C88.8195 434.741 74.6658 408.127 72.9846 399.685C71.3033 391.243 71.971 378.127 71.971 378.127L63.5527 357.856L89.1653 354.195Z" fill="white" stroke="#263238" stroke-linecap="round" stroke-linejoin="round"/>
<path d="M102.353 447.882V452.651L88.9031 450.064C88.9031 454.619 89.0223 459.066 89.2131 460.795C89.547 463.824 96.6178 461.463 103.701 462.143C110.783 462.822 126.273 462.477 127.966 460.449C129.659 458.422 129.981 459.782 120.215 455.06C114.547 452.386 109.32 448.864 104.714 444.615C104.714 444.615 102.353 444.841 102.353 447.882Z" fill="#263238" stroke="#263238" stroke-linecap="round" stroke-linejoin="round"/>
<path d="M61.5258 356.222C61.5258 356.222 62.5036 377.34 59.141 385.877C42.2925 429.006 41.6248 445.187 41.6248 445.187C41.6248 445.187 58.4971 457.981 62.2055 459.4C65.9138 460.819 67.9289 461.415 65.568 463.097C63.2071 464.778 41.9825 464.444 38.2741 464.444C34.5658 464.444 25.4679 461.749 24.4663 460.068C23.4646 458.387 26.851 444.901 26.851 444.901C26.851 444.901 28.5442 411.204 28.5442 403.453C28.5442 395.703 36.9625 380.547 36.9625 377.841C36.9625 375.134 35.2812 354.935 35.2812 354.935C35.2812 354.935 55.4684 359.931 61.5258 356.222Z" fill="white" stroke="#263238" stroke-linecap="round" stroke-linejoin="round"/>
<path d="M65.5679 463.037C67.9527 461.356 65.9137 460.652 62.2053 459.34C58.497 458.029 41.6485 445.187 41.6485 445.187C41.6485 445.187 39.9672 445.855 39.9672 448.549C40.0431 449.968 39.6899 451.377 38.9537 452.592C38.9537 452.592 33.5641 451.59 27.1609 450.207C26.6244 450.099 26.1355 449.992 25.6585 449.873C24.7881 453.891 23.8699 458.995 24.4661 459.984C25.4677 461.666 34.5657 464.36 38.274 464.36C41.9824 464.36 63.2189 464.73 65.5679 463.037Z" fill="#263238" stroke="#263238" stroke-linecap="round" stroke-linejoin="round"/>
<path d="M89.4993 254.786L101.96 272.982L153.519 265.577V275.343C153.519 275.343 102.353 289.496 100.279 287.815C98.2038 286.134 81.0691 278.037 81.0691 278.037L89.4993 254.786Z" fill="#B5B5B5" stroke="#263238" stroke-linecap="round" stroke-linejoin="round"/>
<path d="M43.3299 230.866C43.3299 230.866 39.6216 252.437 39.6216 261.189V292.191C39.6216 292.191 28.8901 309.385 27.1611 324.541C25.4321 339.696 25.134 356.556 25.134 356.556C25.134 356.556 41.3148 363.639 54.4549 362.626C62.2737 362.029 70.0425 360.898 77.7066 359.239L96.2364 354.863L82.4165 292.191C82.4165 292.191 89.1655 274.305 90.1671 273.327C91.1687 272.35 94.9366 260.211 93.5415 251.077C92.1464 241.944 87.1384 223.116 76.6931 218.06C66.2477 213.004 48.0518 219.074 43.3299 230.866Z" fill="#5E5E5E" stroke="#263238" stroke-linecap="round" stroke-linejoin="round"/>
<path d="M58.6879 292.465C57.9573 297.962 55.6458 303.127 52.0344 307.334C46.0724 314.214 41.1598 315.538 41.1598 315.538C41.1598 315.538 38.2742 343.547 39.3831 354.47" stroke="#263238" stroke-linecap="round" stroke-linejoin="round"/>
<path d="M61.812 293.395C61.2135 298.562 59.5487 303.548 56.9232 308.038C52.7021 314.918 43.8069 317.362 43.8069 317.362" stroke="#263238" stroke-linecap="round" stroke-linejoin="round"/>
<path d="M82.7624 228.505C80.9976 222.484 75.8823 218.513 73.3782 216.88C65.5919 214.96 55.3373 217.678 48.7553 223.462C48.6361 224.177 48.5526 224.821 48.3857 225.477C48.0518 226.824 42.9961 256.133 42.9961 256.133C42.9961 256.133 44.1885 256.372 46.0486 256.705C44.1885 266.185 46.2752 281.996 46.2752 281.996C46.2752 281.996 56.2316 285.204 63.9345 284.882C71.6373 284.56 80.628 280.112 80.628 280.112C80.628 277.405 82.8816 263.824 83.9428 257.576H84.4436C84.4436 257.576 85.1114 236.59 82.7624 228.505Z" fill="white" stroke="#263238" stroke-linecap="round" stroke-linejoin="round"/>
<path d="M68.7518 254.392C68.7518 254.392 56.8279 266.316 50.7705 268.188L68.7518 254.392Z" fill="white"/>
<path d="M68.7518 254.392C68.7518 254.392 56.8279 266.316 50.7705 268.188" stroke="#263238" stroke-linecap="round" stroke-linejoin="round"/>
<path d="M68.7519 260.485C68.7519 260.485 62.0029 266.59 56.5537 271.086L68.7519 260.485Z" fill="white"/>
<path d="M68.7519 260.485C68.7519 260.485 62.0029 266.59 56.5537 271.086" stroke="#263238" stroke-linecap="round" stroke-linejoin="round"/>
<path d="M94.722 347.995C88.7589 351.177 82.1047 352.844 75.3456 352.848C75.3456 352.848 65.2342 357.236 49.3992 356.556C40.9514 356.098 32.7258 353.681 25.3725 349.497C25.1936 353.79 25.134 356.556 25.134 356.556C25.134 356.556 41.3148 363.639 54.4549 362.626C62.2737 362.029 70.0425 360.898 77.7066 359.239L96.2364 354.863L94.722 347.995Z" fill="white" stroke="#263238" stroke-linecap="round" stroke-linejoin="round"/>
<path d="M75.6794 359.931L76.3591 323.193" stroke="#263238" stroke-linecap="round" stroke-linejoin="round"/>
<path d="M109.043 184.029V192.781C109.043 192.781 113.419 196.156 110.724 198.517C109.641 199.608 108.388 200.518 107.016 201.212C107.016 201.212 105.334 208.962 101.626 212.67C97.9176 216.379 95.9025 215.699 90.5129 211.991C85.1232 208.282 81.7488 205.933 81.7488 205.933C81.7488 205.933 85.1113 189.419 87.4723 184.029C89.8332 178.64 97.2499 177.96 100.958 178.628C104.667 179.295 109.043 184.029 109.043 184.029Z" fill="white" stroke="#263238" stroke-linecap="round" stroke-linejoin="round"/>
<path d="M105.358 192.125C105.358 193.139 104.905 193.962 104.357 193.962C103.808 193.962 103.355 193.139 103.355 192.125C103.355 191.112 103.796 190.277 104.357 190.277C104.917 190.277 105.358 191.112 105.358 192.125Z" fill="#263238"/>
<path d="M102.175 187.773C102.175 187.773 104.023 184.768 106.527 187.272" stroke="#263238" stroke-linecap="round" stroke-linejoin="round"/>
<path d="M99.6704 201.844C100.778 202.97 102.277 203.628 103.856 203.68" stroke="#263238" stroke-linecap="round" stroke-linejoin="round"/>
<path d="M94.0065 181.191C94.0065 181.191 86.9237 198.171 87.2814 206.315C87.6391 214.459 96.8205 237.818 92.9452 245.604C89.07 253.391 80.8902 259.078 74.9282 249.849C68.9662 240.62 66.7842 237.818 62.897 243.47C59.0098 249.122 54.4071 259.4 45.5596 259.4C36.712 259.4 26.0401 247.727 31.3463 235.338C36.6524 222.949 48.6956 217.643 56.1242 205.611C61.5784 197.062 65.4179 187.585 67.4519 177.65L94.6981 178.711L94.0065 181.191Z" fill="#263238" stroke="#263238" stroke-linecap="round" stroke-linejoin="round"/>
<path d="M66.7365 182.956H109.21C109.21 182.956 109.21 164.903 105.632 162.077C102.055 159.251 74.1413 159.955 70.9576 162.077C67.7739 164.2 65.3891 180.834 66.7365 182.956Z" fill="#92E3A9" stroke="#263238" stroke-linecap="round" stroke-linejoin="round"/>
<path d="M95.6401 182.765C95.6401 182.765 105.549 186.652 114.396 186.652C123.244 186.652 127.847 182.765 127.847 182.765H95.6401Z" fill="#92E3A9" stroke="#263238" stroke-linecap="round" stroke-linejoin="round"/>
<path d="M165.312 263.848C165.312 263.848 169.02 263.18 169.02 265.875C169.02 268.57 164.644 268.26 160.936 266.888C157.227 265.517 162.283 264.563 165.312 263.848Z" fill="#B5B5B5" stroke="#263238" stroke-linecap="round" stroke-linejoin="round"/>
<path d="M165.991 267.258C165.991 267.258 169.699 266.578 169.699 269.285C169.699 271.992 165.311 271.67 161.615 270.287C157.919 268.904 162.962 267.938 165.991 267.258Z" fill="#B5B5B5" stroke="#263238" stroke-linecap="round" stroke-linejoin="round"/>
<path d="M166.671 270.633C166.671 270.633 170.367 269.953 170.367 272.648C170.367 275.343 165.991 275.032 162.283 273.661C158.575 272.29 163.63 271.3 166.671 270.633Z" fill="#B5B5B5" stroke="#263238" stroke-linecap="round" stroke-linejoin="round"/>
<path d="M166.003 274.079C166.003 274.079 169.711 273.399 169.711 276.094C169.711 278.789 165.323 278.479 161.627 277.107C157.93 275.736 162.974 274.746 166.003 274.079Z" fill="#B5B5B5" stroke="#263238" stroke-linecap="round" stroke-linejoin="round"/>
<path d="M149.81 267.258C149.81 267.258 128.92 313.082 128.92 316.146C128.92 319.211 128.92 327.259 130.947 331.981C132.974 336.703 145.1 345.455 150.49 346.469C155.88 347.482 178.797 342.093 181.492 341.413C184.187 340.733 191.27 321.87 190.924 318.161C190.578 314.453 181.826 300.275 180.479 297.95C179.131 295.625 168.018 280.422 166.671 277.68C165.323 274.937 161.269 267.914 161.269 267.914L149.81 267.258Z" fill="white" stroke="#263238" stroke-linecap="round" stroke-linejoin="round"/>
<path d="M153.519 275.343L150.824 295.232" stroke="#263238" stroke-linecap="round" stroke-linejoin="round"/>
<path d="M158.241 272.982V299.274" stroke="#263238" stroke-linecap="round" stroke-linejoin="round"/>
<path d="M161.615 270.287L171.047 299.942" stroke="#263238" stroke-linecap="round" stroke-linejoin="round"/>
<path d="M95.1988 269.953C95.1988 269.953 78.6961 228.219 74.3081 226.144C69.9201 224.07 56.8157 224.499 58.1631 240C59.5105 255.501 85.457 287.851 88.8195 288.185C92.1821 288.518 145.1 271.002 145.1 271.002C145.1 271.002 162.986 273.387 164.31 271.336C165.633 269.285 165.991 261.904 165.991 261.904C165.991 261.904 168.376 256.849 165.991 255.167C163.606 253.486 152.875 254.488 151.17 254.488C149.465 254.488 141.392 262.572 141.392 262.572L95.1988 269.953Z" fill="white" stroke="#263238" stroke-linecap="round" stroke-linejoin="round"/>
<path d="M164.358 271.3C165.705 269.285 166.039 261.869 166.039 261.869C166.039 261.869 168.424 256.813 166.039 255.132C163.654 253.45 152.923 254.452 151.217 254.452C149.512 254.452 141.44 262.536 141.44 262.536L132.676 263.943L134.166 274.567C140.641 272.457 145.148 270.99 145.148 270.99C145.148 270.99 162.963 273.387 164.358 271.3Z" fill="#92E3A9" stroke="#263238" stroke-linecap="round" stroke-linejoin="round"/>
<path d="M170.367 250.41L189.577 260.521L185.868 267.258L170.367 250.41Z" fill="white" stroke="#263238" stroke-linecap="round" stroke-linejoin="round"/>
<path d="M154.532 253.784L157.227 246.701C157.227 246.701 159.254 245.688 166.671 247.715C174.087 249.742 188.563 270.287 188.563 270.287C188.563 270.287 178.118 277.703 176.436 278.037C174.755 278.371 168.686 260.151 168.018 258.494C167.484 257.294 166.803 256.164 165.991 255.131L154.532 253.784Z" fill="white" stroke="#263238" stroke-linecap="round" stroke-linejoin="round"/>
<path d="M165.991 255.131L160.029 251.256" stroke="#263238" stroke-linecap="round" stroke-linejoin="round"/>
<path d="M205.746 329.572H120.752V462.763H205.746V329.572Z" fill="#92E3A9" stroke="#263238" stroke-linecap="round" stroke-linejoin="round"/>
<path d="M205.543 374.74H120.955C120.354 374.74 119.778 374.502 119.353 374.077C118.928 373.652 118.689 373.076 118.689 372.475C118.689 371.874 118.928 371.298 119.353 370.873C119.778 370.448 120.354 370.209 120.955 370.209H205.543C206.144 370.209 206.72 370.448 207.145 370.873C207.57 371.298 207.809 371.874 207.809 372.475C207.809 373.076 207.57 373.652 207.145 374.077C206.72 374.502 206.144 374.74 205.543 374.74Z" fill="#92E3A9" stroke="#263238" stroke-linecap="round" stroke-linejoin="round"/>
<path d="M205.543 331.576H120.955C120.354 331.576 119.778 331.337 119.353 330.912C118.928 330.487 118.689 329.911 118.689 329.31C118.689 328.709 118.928 328.133 119.353 327.708C119.778 327.283 120.354 327.045 120.955 327.045H205.543C206.144 327.045 206.72 327.283 207.145 327.708C207.57 328.133 207.809 328.709 207.809 329.31C207.809 329.911 207.57 330.487 207.145 330.912C206.72 331.337 206.144 331.576 205.543 331.576Z" fill="#92E3A9" stroke="#263238" stroke-linecap="round" stroke-linejoin="round"/>
<path d="M205.543 419.86H120.955C120.354 419.86 119.778 419.622 119.353 419.197C118.928 418.772 118.689 418.196 118.689 417.595C118.689 416.994 118.928 416.418 119.353 415.993C119.778 415.568 120.354 415.329 120.955 415.329H205.543C206.144 415.329 206.72 415.568 207.145 415.993C207.57 416.418 207.809 416.994 207.809 417.595C207.809 418.196 207.57 418.772 207.145 419.197C206.72 419.622 206.144 419.86 205.543 419.86Z" fill="#92E3A9" stroke="#263238" stroke-linecap="round" stroke-linejoin="round"/>
</svg>
