<svg width="239" height="88" viewBox="0 0 239 88" fill="none" xmlns="http://www.w3.org/2000/svg">
<path d="M61.25 44V29.4167H14.5833C13.0362 29.4167 11.5525 28.8021 10.4585 27.7081C9.36458 26.6142 8.75 25.1304 8.75 23.5833C8.75 22.0362 9.36458 20.5525 10.4585 19.4585C11.5525 18.3646 13.0362 17.75 14.5833 17.75H55.4167V29.4167" stroke="black" stroke-width="2" stroke-linecap="round" stroke-linejoin="round"/>
<path d="M8.75 23.5834V64.4167C8.75 65.9638 9.36458 67.4475 10.4585 68.5415C11.5525 69.6355 13.0362 70.25 14.5833 70.25H61.25V55.6667" stroke="black" stroke-width="2" stroke-linecap="round" stroke-linejoin="round"/>
<path d="M52.4993 44C50.9523 44 49.4685 44.6146 48.3746 45.7085C47.2806 46.8025 46.666 48.2862 46.666 49.8333C46.666 51.3804 47.2806 52.8642 48.3746 53.9581C49.4685 55.0521 50.9523 55.6667 52.4993 55.6667H64.166V44H52.4993Z" stroke="black" stroke-width="2" stroke-linecap="round" stroke-linejoin="round"/>
<path d="M87.16 56V33.65H102.01V37.25H91.24V42.98H101.41V46.58H91.24V52.4H102.01V56H87.16ZM105.482 49.58V46.13H118.232V49.58H105.482ZM127.16 56L121.16 33.65H125.54L130.25 52.7H129.11L134.03 33.65H138.26L143.15 52.7H142.01L146.72 33.65H151.1L145.1 56H140.42L135.47 37.46H136.79L131.84 56H127.16ZM150.545 56L158.255 33.65H163.535L171.245 56H166.805L165.215 51.2H156.575L154.955 56H150.545ZM157.745 47.6H164.045L160.325 36.47H161.465L157.745 47.6ZM173.732 56V33.65H177.812V52.4H187.382V56H173.732ZM190.021 56V33.65H194.101V52.4H203.671V56H190.021ZM206.31 56V33.65H221.16V37.25H210.39V42.98H220.56V46.58H210.39V52.4H221.16V56H206.31ZM228.112 56V37.25H222.322V33.65H237.922V37.25H232.222V56H228.112Z" fill="black"/>
</svg>
