<svg width="569" height="509" viewBox="0 0 569 509" fill="none" xmlns="http://www.w3.org/2000/svg">
<path d="M539.4 255.643C539.4 255.643 539.4 248.519 529.427 238.645C519.453 228.772 513.128 223.044 513.128 223.044C513.128 223.044 508.169 239.344 517.402 249.274C524.179 256.249 531.528 262.644 539.371 268.394L539.4 255.643Z" fill="#92E3A9"/>
<path d="M525.01 299.895C525.01 299.895 525.01 292.772 515.036 282.898C505.063 273.025 498.766 267.297 498.766 267.297C498.766 267.297 493.793 283.596 503.04 293.527C509.818 300.501 517.166 306.897 525.01 312.647V299.895Z" fill="#92E3A9"/>
<path d="M538.773 267.71C538.773 267.71 539.528 260.672 550.442 251.853C561.355 243.034 568.294 238.075 568.294 238.075C568.294 238.075 571.499 254.802 561.298 263.721C553.822 269.942 545.84 275.527 537.434 280.419L538.773 267.71Z" fill="#92E3A9"/>
<path d="M521.391 319.97C521.391 319.97 522.816 313.046 534.655 305.423C546.495 297.801 553.847 293.598 553.847 293.598C553.847 293.598 555.271 310.581 544.201 318.346C536.112 323.749 527.586 328.467 518.712 332.451L521.391 319.97Z" fill="#92E3A9"/>
<path d="M524.654 376.96C524.654 376.96 524.654 369.836 534.627 359.948C544.6 350.061 550.912 344.362 550.912 344.362C550.912 344.362 555.884 360.661 546.638 370.577C539.863 377.559 532.514 383.959 524.668 389.711L524.654 376.96Z" fill="#92E3A9"/>
<path d="M524.497 390.866C524.497 390.866 525.494 383.856 517.088 372.629C508.682 361.402 503.168 354.876 503.168 354.876C503.168 354.876 495.945 370.306 503.653 381.434C509.366 389.303 515.729 396.681 522.673 403.489L524.497 390.866Z" fill="#92E3A9"/>
<path d="M514.709 432.083C514.709 432.083 514.709 424.96 524.682 415.086C534.655 405.213 540.981 399.485 540.981 399.485C540.981 399.485 545.939 415.784 536.707 425.715C529.928 432.692 522.579 439.092 514.737 444.849L514.709 432.083Z" fill="#92E3A9"/>
<path d="M521.334 469.455C521.334 469.455 519.539 462.602 526.62 450.491C533.701 438.381 538.445 431.286 538.445 431.286C538.445 431.286 547.364 445.79 540.967 457.729C536.181 466.193 530.696 474.243 524.568 481.793L521.334 469.455Z" fill="#92E3A9"/>
<path d="M540.297 253.833C539.798 261.21 538.895 268.554 537.59 275.831C533.658 296.091 523.855 309.17 519.937 327.464C516.019 345.758 527.275 369.338 524.212 392.846C521.148 416.354 512.059 429.419 514.666 445.106C517.273 460.792 531.008 503.278 531.008 503.278" stroke="#263238" stroke-linecap="round" stroke-linejoin="round"/>
<path d="M538.688 272.426L549.373 264.22" stroke="#263238" stroke-linecap="round" stroke-linejoin="round"/>
<path d="M539.186 262.98L534.698 255.016" stroke="#263238" stroke-linecap="round" stroke-linejoin="round"/>
<path d="M520.536 326.624C520.536 326.624 529.484 319.913 538.687 313.202" stroke="#263238" stroke-linecap="round" stroke-linejoin="round"/>
<path d="M525.01 312.647C525.01 312.647 517.544 298.029 509.095 288.341" stroke="#263238" stroke-linecap="round" stroke-linejoin="round"/>
<path d="M525.01 387.047C530.114 377.614 536.564 368.975 544.158 361.402" stroke="#263238" stroke-linecap="round" stroke-linejoin="round"/>
<path d="M523.272 396.992C520.557 390.596 517.311 384.439 513.569 378.584C508.355 370.876 507.6 369.879 507.6 369.879" stroke="#263238" stroke-linecap="round" stroke-linejoin="round"/>
<path d="M514.709 445.106C516.981 439.49 519.676 434.056 522.773 428.849C525.872 424.01 529.365 419.436 533.216 415.172" stroke="#263238" stroke-linecap="round" stroke-linejoin="round"/>
<path d="M524.568 481.793C524.049 476.424 524.973 471.013 527.246 466.121C530.979 458.911 535.197 449.465 536.935 445.733" stroke="#263238" stroke-linecap="round" stroke-linejoin="round"/>
<path d="M458.446 350.317C458.446 350.317 457.676 345.872 462.82 338.563C467.963 331.254 471.368 327.023 471.368 327.023C471.368 327.023 476.241 336.711 471.539 343.92C468.047 349.034 464.134 353.847 459.842 358.31L458.446 350.317Z" fill="#92E3A9"/>
<path d="M472.28 376.504C472.28 376.504 471.511 372.059 476.654 364.75C481.797 357.441 485.203 353.209 485.203 353.209C485.203 353.209 490.075 362.898 485.373 370.121C481.879 375.229 477.967 380.037 473.676 384.497L472.28 376.504Z" fill="#92E3A9"/>
<path d="M460.141 357.811C460.141 357.811 458.916 353.537 451.108 349.135C443.3 344.732 438.428 342.424 438.428 342.424C438.428 342.424 438.228 353.266 445.552 357.74C450.913 360.827 456.522 363.462 462.321 365.619L460.141 357.811Z" fill="#92E3A9"/>
<path d="M476.725 388.7C476.725 388.7 475.044 384.511 466.837 381.006C458.631 377.501 453.501 375.678 453.501 375.678C453.501 375.678 454.442 386.477 462.249 390.153C467.907 392.66 473.764 394.69 479.76 396.223L476.725 388.7Z" fill="#92E3A9"/>
<path d="M480.857 424.789C480.857 424.789 480.101 420.344 472.793 415.2C465.484 410.057 460.882 407.193 460.882 407.193C460.882 407.193 459.542 417.95 466.395 423.165C471.402 426.81 476.706 430.027 482.253 432.782L480.857 424.789Z" fill="#92E3A9"/>
<path d="M482.481 433.494C482.481 433.494 481.056 429.22 485.145 421.241C489.234 413.263 491.941 408.604 491.941 408.604C491.941 408.604 498.139 417.494 494.52 425.316C491.794 430.869 488.605 436.183 484.989 441.202L482.481 433.494Z" fill="#92E3A9"/>
<path d="M494.934 469.326C494.934 469.326 495.446 464.853 502.442 459.353C509.437 453.854 513.84 450.676 513.84 450.676C513.84 450.676 515.792 461.348 509.252 466.947C504.462 470.866 499.354 474.379 493.979 477.447L494.934 469.326Z" fill="#92E3A9"/>
<path d="M493.067 458.27C493.067 458.27 492.298 453.825 485.003 448.682C477.708 443.538 473.12 440.675 473.12 440.675C473.12 440.675 471.781 451.432 478.634 456.66C483.644 460.3 488.948 463.517 494.492 466.277L493.067 458.27Z" fill="#92E3A9"/>
<path d="M493.067 482.434C493.067 482.434 493.437 477.932 487.681 471.107C481.925 464.283 478.193 460.35 478.193 460.35C478.193 460.35 474.16 470.409 479.475 477.205C483.37 481.991 487.659 486.442 492.298 490.512L493.067 482.434Z" fill="#92E3A9"/>
<path d="M457.69 349.263C458.805 353.837 460.17 358.345 461.779 362.769C466.438 375.051 474.004 382.189 478.449 393.231C482.894 404.272 478.449 420.301 482.837 434.705C487.225 449.109 494.492 456.318 494.492 466.434C494.492 476.55 490.559 504.689 490.559 504.689" stroke="#263238" stroke-linecap="round" stroke-linejoin="round"/>
<path d="M460.725 360.746L453.131 356.771" stroke="#263238" stroke-linecap="round" stroke-linejoin="round"/>
<path d="M459.386 354.876L461.323 349.405" stroke="#263238" stroke-linecap="round" stroke-linejoin="round"/>
<path d="M477.979 392.775C477.979 392.775 471.639 389.54 465.156 386.32" stroke="#263238" stroke-linecap="round" stroke-linejoin="round"/>
<path d="M473.662 384.497C475.531 378.626 477.989 372.96 480.999 367.585" stroke="#263238" stroke-linecap="round" stroke-linejoin="round"/>
<path d="M481.74 431.143C477.512 425.793 472.531 421.085 466.951 417.166" stroke="#263238" stroke-linecap="round" stroke-linejoin="round"/>
<path d="M483.906 437.184C484.92 432.885 486.287 428.677 487.995 424.603C490.431 419.204 490.844 418.491 490.844 418.491" stroke="#263238" stroke-linecap="round" stroke-linejoin="round"/>
<path d="M494.15 474.114C496.621 471.052 499.357 468.215 502.328 465.636C504.218 464.245 505.99 462.701 507.628 461.02" stroke="#263238" stroke-linecap="round" stroke-linejoin="round"/>
<path d="M494.491 466.434C492.456 463.151 490.175 460.026 487.667 457.088C485.197 454.392 482.51 451.905 479.631 449.651" stroke="#263238" stroke-linecap="round" stroke-linejoin="round"/>
<path d="M492.298 490.512C492.043 487.086 490.877 483.791 488.921 480.967C485.801 476.849 482.125 471.378 480.629 469.227" stroke="#263238" stroke-linecap="round" stroke-linejoin="round"/>
<path d="M53.7741 288.255L47.5337 270.431L53.7741 277.997L48.873 251.254L56.4526 270.431L59.1311 232.975L63.5906 268.636L68.4917 261.513V270.431L74.2905 258.392L71.1703 279.336L76.5131 275.774L68.0501 287.358L53.7741 288.255Z" fill="#92E3A9"/>
<path d="M73.3931 283.796H50.2124L54.3869 330.599H69.2186L73.3931 283.796Z" fill="#263238" stroke="#263238" stroke-linecap="round" stroke-linejoin="round"/>
<path d="M116.876 330.071H37.9023V497.337H116.876V330.071Z" fill="white" stroke="#263238" stroke-linecap="round" stroke-linejoin="round"/>
<path d="M121.193 330.071H77.3823V497.337H121.193V330.071Z" fill="white" stroke="#263238" stroke-linecap="round" stroke-linejoin="round"/>
<path d="M116.264 330.071H77.3823V497.337H116.264V330.071Z" fill="#263238" stroke="#263238" stroke-linecap="round" stroke-linejoin="round"/>
<path d="M111.89 458.441H77.3823V492.692H111.89V458.441Z" fill="#92E3A9" stroke="#263238" stroke-linecap="round" stroke-linejoin="round"/>
<path d="M111.89 460.293H77.3823V464.682H111.89V460.293Z" fill="white" stroke="#263238" stroke-linecap="round" stroke-linejoin="round"/>
<path d="M111.89 485.511H77.3823V489.9H111.89V485.511Z" fill="white" stroke="#263238" stroke-linecap="round" stroke-linejoin="round"/>
<path d="M83.9219 459.154V502.466" stroke="#263238" stroke-linecap="round" stroke-linejoin="round"/>
<path d="M95.9609 459.154V502.466" stroke="#263238" stroke-linecap="round" stroke-linejoin="round"/>
<path d="M106.532 459.154V502.466" stroke="#263238" stroke-linecap="round" stroke-linejoin="round"/>
<path d="M111.89 336.283H77.3823V386.648H111.89V336.283Z" fill="#92E3A9" stroke="#263238" stroke-linecap="round" stroke-linejoin="round"/>
<path d="M111.89 338.392H77.3823V343.379H111.89V338.392Z" fill="white" stroke="#263238" stroke-linecap="round" stroke-linejoin="round"/>
<path d="M111.89 370.677H77.3823V375.663H111.89V370.677Z" fill="white" stroke="#263238" stroke-linecap="round" stroke-linejoin="round"/>
<path d="M83.9219 337.081V386.306" stroke="#263238" stroke-linecap="round" stroke-linejoin="round"/>
<path d="M95.9609 337.081V386.306" stroke="#263238" stroke-linecap="round" stroke-linejoin="round"/>
<path d="M106.532 337.081V386.306" stroke="#263238" stroke-linecap="round" stroke-linejoin="round"/>
<path d="M111.89 396.978H77.3823V447.342H111.89V396.978Z" fill="#92E3A9" stroke="#263238" stroke-linecap="round" stroke-linejoin="round"/>
<path d="M111.89 399.086H77.3823V404.073H111.89V399.086Z" fill="white" stroke="#263238" stroke-linecap="round" stroke-linejoin="round"/>
<path d="M111.89 431.371H77.3823V436.358H111.89V431.371Z" fill="white" stroke="#263238" stroke-linecap="round" stroke-linejoin="round"/>
<path d="M83.9219 397.79V447.001" stroke="#263238" stroke-linecap="round" stroke-linejoin="round"/>
<path d="M95.9609 397.79V447.001" stroke="#263238" stroke-linecap="round" stroke-linejoin="round"/>
<path d="M106.532 397.79V447.001" stroke="#263238" stroke-linecap="round" stroke-linejoin="round"/>
<path d="M116.862 385.95H77.3823V391.678H116.862V385.95Z" fill="white" stroke="#263238" stroke-linecap="round" stroke-linejoin="round"/>
<path d="M116.862 447.029H77.3823V452.757H116.862V447.029Z" fill="white" stroke="#263238" stroke-linecap="round" stroke-linejoin="round"/>
<path d="M116.862 330.071V497.323" stroke="#263238" stroke-linecap="round" stroke-linejoin="round"/>
<path d="M71.8115 330.071V497.323H77.3823V336.283H116.178V330L71.8115 330.071Z" fill="white" stroke="#263238" stroke-linecap="round" stroke-linejoin="round"/>
<path d="M77.3823 336.283V330.071" stroke="#263238" stroke-linecap="round" stroke-linejoin="round"/>
<path d="M116.562 253.235C112.416 245.242 110.678 239.514 110.678 238.189C110.678 235.568 116.377 234.001 116.377 234.001C125.268 229.299 167.084 236.095 185.905 239.229C196.441 241.066 207.099 242.114 217.791 242.364C217.791 242.364 220.398 240.284 223.49 237.662C226.582 235.041 241.256 217.801 247.012 216.291C252.768 214.781 257.983 218.385 257.983 218.385C257.983 218.385 267.401 224.084 265.819 225.181C264.238 226.279 241.256 246.083 235.5 249.744C229.744 253.406 217.734 251.839 207.276 253.933C198.272 255.728 161.798 257.951 153.435 258.635C147.154 260.124 140.562 259.575 134.614 257.067" fill="white"/>
<mask id="mask0_416_748" style="mask-type:luminance" maskUnits="userSpaceOnUse" x="110" y="215" width="156" height="45">
<path d="M116.562 253.235C112.416 245.242 110.678 239.514 110.678 238.189C110.678 235.568 116.377 234.001 116.377 234.001C125.268 229.299 167.084 236.095 185.905 239.229C196.441 241.066 207.099 242.114 217.791 242.364C217.791 242.364 220.398 240.284 223.49 237.662C226.582 235.041 241.256 217.801 247.012 216.291C252.768 214.781 257.983 218.385 257.983 218.385C257.983 218.385 267.401 224.084 265.819 225.181C264.238 226.279 241.256 246.083 235.5 249.744C229.744 253.406 217.734 251.839 207.276 253.933C198.272 255.728 161.798 257.951 153.435 258.635C147.154 260.124 140.562 259.575 134.614 257.067" fill="white"/>
</mask>
<g mask="url(#mask0_416_748)">
<path d="M258.083 218.328C258.083 218.328 252.854 214.667 247.112 216.234C241.37 217.801 226.724 235.055 223.589 237.605C220.455 240.156 217.89 242.307 217.89 242.307C207.199 242.057 196.54 241.009 186.005 239.172C167.184 236.038 125.367 229.199 116.477 233.944C116.477 233.944 110.778 235.511 110.778 238.132C110.976 239.598 111.354 241.034 111.903 242.407L112.687 242.692C112.687 242.692 123.13 241.595 145.67 242.136C168.209 242.677 220.341 245.769 223.689 246.98C225.114 247.522 235.215 245.242 246.414 241.281C254.962 234.314 265.007 225.609 266.018 224.996C267.5 224.07 258.083 218.328 258.083 218.328Z" fill="#92E3A9"/>
<path opacity="0.5" d="M258.083 218.328C258.083 218.328 252.854 214.667 247.112 216.234C241.37 217.801 226.724 235.055 223.589 237.605C220.455 240.156 217.89 242.307 217.89 242.307C207.199 242.057 196.54 241.009 186.005 239.172C167.184 236.038 125.367 229.199 116.477 233.944C116.477 233.944 110.778 235.511 110.778 238.132C110.976 239.598 111.354 241.034 111.903 242.407L112.687 242.692C112.687 242.692 123.13 241.595 145.67 242.136C168.209 242.677 220.341 245.769 223.689 246.98C225.114 247.522 235.215 245.242 246.414 241.281C254.962 234.314 265.007 225.609 266.018 224.996C267.5 224.07 258.083 218.328 258.083 218.328Z" fill="white"/>
</g>
<path d="M116.562 253.235C112.416 245.242 110.678 239.514 110.678 238.189C110.678 235.568 116.377 234.001 116.377 234.001C125.268 229.299 167.084 236.095 185.905 239.229C196.441 241.066 207.099 242.114 217.791 242.364C217.791 242.364 220.398 240.284 223.49 237.662C226.582 235.041 241.256 217.801 247.012 216.291C252.768 214.781 257.983 218.385 257.983 218.385C257.983 218.385 267.401 224.084 265.819 225.181C264.238 226.279 241.256 246.083 235.5 249.744C229.744 253.406 217.734 251.839 207.276 253.933C198.272 255.728 161.798 257.951 153.435 258.635C147.154 260.124 140.562 259.575 134.614 257.067" stroke="#263238" stroke-linecap="round" stroke-linejoin="round"/>
<path d="M323.023 299.71C323.968 297.915 325.387 296.413 327.124 295.366C328.862 294.318 330.853 293.766 332.882 293.769H427.913C427.913 293.769 434.78 293.769 432.728 306.82C430.677 319.87 402.495 399.557 395.685 423.649C388.874 447.742 387.435 498.52 387.435 498.52H273.456C273.456 498.52 282.488 377.088 323.023 299.71Z" fill="white"/>
<mask id="mask1_416_748" style="mask-type:luminance" maskUnits="userSpaceOnUse" x="273" y="293" width="161" height="206">
<path d="M323.023 299.71C323.968 297.915 325.387 296.413 327.124 295.366C328.862 294.318 330.853 293.766 332.882 293.769H427.913C427.913 293.769 434.78 293.769 432.728 306.82C430.677 319.87 402.495 399.557 395.685 423.649C388.874 447.742 387.435 498.52 387.435 498.52H273.456C273.456 498.52 282.488 377.088 323.023 299.71Z" fill="white"/>
</mask>
<g mask="url(#mask1_416_748)">
<path opacity="0.16" d="M365.822 293.769H332.882C330.853 293.766 328.862 294.318 327.124 295.366C325.387 296.413 323.968 297.915 323.023 299.71C282.489 377.088 273.356 498.477 273.356 498.477H324.476L337.085 450.591L389.658 461.433C390.029 457.415 390.456 453.326 390.955 449.294L389.801 436.472C389.801 436.472 379.03 425.145 375.639 422.31C372.248 419.474 374.499 414.36 373.929 392.262C373.359 370.164 353.527 354.278 346.146 340.672C338.766 327.065 350.121 318.56 360.323 304.953C363.956 300.038 365.437 296.419 365.822 293.769Z" fill="black"/>
</g>
<path d="M323.023 299.71C323.968 297.915 325.387 296.413 327.124 295.366C328.862 294.318 330.853 293.766 332.882 293.769H427.913C427.913 293.769 434.78 293.769 432.728 306.82C430.677 319.87 402.495 399.557 395.685 423.649C388.874 447.741 387.435 498.52 387.435 498.52H273.456C273.456 498.52 282.488 377.088 323.023 299.71Z" stroke="#263238" stroke-linecap="round" stroke-linejoin="round"/>
<path d="M411.428 316.437C401.825 338.848 381.509 427.567 378.203 498.477H387.379C387.379 498.477 388.803 447.642 395.628 423.606C402.452 399.571 430.662 319.87 432.671 306.777C434.68 293.683 427.856 293.726 427.856 293.726C427.856 293.726 419.136 298.471 411.428 316.437Z" fill="#263238" stroke="#263238" stroke-linecap="round" stroke-linejoin="round"/>
<path d="M244.491 271.643C244.491 271.643 229.331 262.752 223.59 247.08C217.848 231.408 268.54 206.304 290.553 204.736C312.565 203.169 318.777 208.911 331.871 231.393C344.964 253.876 353.826 284.707 347.03 299.867C340.234 315.026 328.736 318.688 337.057 331.211C345.377 343.735 368.943 379.297 367.375 396.023C365.808 412.75 349.609 427.368 326.058 428.963C302.507 430.559 271.162 416.411 245.032 393.345C218.902 370.278 225.684 336.355 235.059 325.384C244.434 314.413 258.581 310.225 259.622 299.254C260.662 288.284 244.491 271.643 244.491 271.643Z" fill="#263238" stroke="#263238" stroke-linecap="round" stroke-linejoin="round"/>
<path d="M309.103 246.838C317.153 261.826 327.226 281.901 330.375 294.025C335.874 315.254 307.579 328.618 315.429 338.834" stroke="white" stroke-linecap="round" stroke-linejoin="round"/>
<path d="M298.132 227.205C298.132 227.205 301.267 232.547 305.598 240.412" stroke="white" stroke-linecap="round" stroke-linejoin="round"/>
<path d="M340.362 264.918C341.29 267.727 341.893 270.633 342.157 273.58" stroke="white" stroke-linecap="round" stroke-linejoin="round"/>
<path d="M303.575 219.411C303.575 219.411 328.337 237.705 338.225 259.603" stroke="white" stroke-linecap="round" stroke-linejoin="round"/>
<path d="M269.21 233.132C251.529 238.09 226.097 246.14 228.163 250.784" stroke="white" stroke-linecap="round" stroke-linejoin="round"/>
<path d="M285.552 228.772C285.552 228.772 281.776 229.712 276.148 231.222" stroke="white" stroke-linecap="round" stroke-linejoin="round"/>
<path d="M263.682 219.539C273.81 216.348 284.417 214.949 295.026 215.408" stroke="white" stroke-linecap="round" stroke-linejoin="round"/>
<path d="M256.473 222.489C258.074 221.654 259.731 220.931 261.431 220.323" stroke="white" stroke-linecap="round" stroke-linejoin="round"/>
<path d="M116.562 253.235C114.163 248.841 112.252 244.197 110.863 239.386C112.245 244.199 114.156 248.844 116.562 253.235ZM110.707 238.574C110.707 238.66 110.707 238.759 110.707 238.888C110.735 238.759 110.721 238.66 110.707 238.574ZM116.562 253.221C121.891 263.313 128.52 272.663 136.281 281.032C155.102 301.42 209.47 354.748 214.642 358.41C219.814 362.071 218.304 372.515 214.642 382.972C210.98 393.43 197.388 408.618 197.916 425.316C198.443 442.014 203.615 467.659 203.144 472.888C202.674 478.117 189.595 495.898 189.595 495.898H324.462C324.462 495.898 307.65 474.527 307.65 467.218C307.65 459.909 330.731 366.26 331.771 359.464C332.811 352.668 328.636 347.966 320.273 347.439C311.91 346.912 280.024 340.116 278.457 334.887C276.889 329.658 286.82 309.797 286.82 309.797L255.475 311.365C255.475 311.365 253.908 324.957 251.814 327.578C249.719 330.2 246.585 324.957 239.262 321.309C231.939 317.662 217.89 314.513 212.605 310.324C207.319 306.136 157.196 259.034 157.196 259.034" fill="white"/>
<mask id="mask2_416_748" style="mask-type:luminance" maskUnits="userSpaceOnUse" x="110" y="238" width="222" height="258">
<path d="M116.562 253.235C114.163 248.841 112.252 244.197 110.863 239.386C112.245 244.199 114.156 248.844 116.562 253.235ZM110.707 238.574C110.707 238.66 110.707 238.759 110.707 238.888C110.735 238.759 110.721 238.66 110.707 238.574ZM116.562 253.221C121.891 263.313 128.52 272.663 136.281 281.032C155.102 301.42 209.47 354.748 214.642 358.41C219.814 362.071 218.304 372.515 214.642 382.972C210.98 393.43 197.388 408.618 197.916 425.316C198.443 442.014 203.615 467.659 203.144 472.888C202.674 478.117 189.595 495.898 189.595 495.898H324.462C324.462 495.898 307.65 474.527 307.65 467.218C307.65 459.909 330.731 366.26 331.771 359.464C332.811 352.668 328.636 347.966 320.273 347.439C311.91 346.912 280.024 340.116 278.457 334.887C276.889 329.658 286.82 309.797 286.82 309.797L255.475 311.365C255.475 311.365 253.908 324.957 251.814 327.578C249.719 330.2 246.585 324.957 239.262 321.309C231.939 317.662 217.89 314.513 212.605 310.324C207.319 306.136 157.196 259.034 157.196 259.034" fill="white"/>
</mask>
<g mask="url(#mask2_416_748)">
<path d="M220.612 314.357C223.219 318.916 225.826 323.033 225.826 323.033C225.826 323.033 234.617 327.977 236.811 327.977C239.005 327.977 252.198 335.101 252.198 335.101C252.198 335.101 263.198 332.351 259.322 323.005C258.1 320.612 256.556 318.397 254.735 316.422C254.079 320.568 253.025 325.997 251.785 327.55C249.691 330.157 246.556 324.928 239.233 321.281C234.489 318.916 226.809 316.75 220.612 314.357Z" fill="#92E3A9"/>
<path d="M193.77 293.199C177.627 278.253 157.196 259.091 157.196 259.091L145.314 257.381L143.889 258.179C143.889 258.179 177.428 287.856 184.566 291.162C187.453 292.489 190.591 293.184 193.77 293.199Z" fill="#92E3A9"/>
<path d="M210.681 308.672L209.399 307.532C210.054 308.615 210.425 309.299 210.425 309.299L210.681 308.672Z" fill="#92E3A9"/>
<g opacity="0.5">
<path d="M220.612 314.357C223.219 318.916 225.826 323.033 225.826 323.033C225.826 323.033 234.617 327.977 236.811 327.977C239.005 327.977 252.198 335.101 252.198 335.101C252.198 335.101 263.198 332.351 259.322 323.005C258.1 320.612 256.556 318.397 254.735 316.422C254.079 320.568 253.025 325.997 251.785 327.55C249.691 330.157 246.556 324.928 239.233 321.281C234.489 318.916 226.809 316.75 220.612 314.357Z" fill="white"/>
<path d="M193.77 293.199C177.627 278.253 157.196 259.091 157.196 259.091L145.314 257.381L143.889 258.179C143.889 258.179 177.428 287.856 184.566 291.162C187.453 292.489 190.591 293.184 193.77 293.199Z" fill="white"/>
<path d="M210.681 308.672L209.399 307.532C210.054 308.615 210.425 309.299 210.425 309.299L210.681 308.672Z" fill="white"/>
</g>
</g>
<path d="M110.678 238.189C110.672 238.289 110.672 238.389 110.678 238.489M110.863 239.386C112.252 244.197 114.163 248.841 116.562 253.235C114.156 248.844 112.245 244.199 110.863 239.386ZM110.863 239.386C110.824 239.251 110.796 239.113 110.778 238.973M116.562 253.221C121.891 263.313 128.52 272.663 136.281 281.032C155.102 301.42 209.47 354.748 214.642 358.41C219.814 362.071 218.304 372.515 214.642 382.972C210.98 393.43 197.388 408.618 197.916 425.316C198.443 442.014 203.615 467.659 203.144 472.888C202.674 478.117 189.595 495.898 189.595 495.898H324.462C324.462 495.898 307.65 474.527 307.65 467.218C307.65 459.909 330.731 366.26 331.771 359.464C332.811 352.668 328.636 347.966 320.273 347.439C311.91 346.912 280.024 340.116 278.457 334.887C276.889 329.658 286.82 309.797 286.82 309.797L255.475 311.365C255.475 311.365 253.908 324.957 251.814 327.578C249.719 330.2 246.585 324.957 239.262 321.309C231.939 317.662 217.89 314.513 212.605 310.324C207.319 306.136 157.196 259.034 157.196 259.034M110.707 238.574C110.707 238.66 110.707 238.759 110.707 238.888C110.735 238.759 110.721 238.66 110.707 238.574Z" stroke="#263238" stroke-linecap="round" stroke-linejoin="round"/>
<path d="M157.196 259.091C157.196 259.091 140.498 259.404 131.18 251.725" stroke="#263238" stroke-linecap="round" stroke-linejoin="round"/>
<path d="M278.471 334.887C276.904 329.673 286.834 309.797 286.834 309.797L255.49 311.365C255.49 311.365 253.922 324.957 251.828 327.578C249.734 330.2 246.599 324.957 239.276 321.309C238.72 321.024 238.108 320.754 237.481 320.483L235.586 350.274C235.586 350.274 238.336 379.126 271.304 373.64C284.654 371.418 298.902 359.507 311.197 346.114C298.546 343.792 279.668 338.891 278.471 334.887Z" fill="white"/>
<mask id="mask3_416_748" style="mask-type:luminance" maskUnits="userSpaceOnUse" x="235" y="309" width="77" height="66">
<path d="M278.471 334.887C276.904 329.673 286.834 309.797 286.834 309.797L255.49 311.365C255.49 311.365 253.922 324.957 251.828 327.578C249.734 330.2 246.599 324.957 239.276 321.309C238.72 321.024 238.108 320.754 237.481 320.483L235.586 350.274C235.586 350.274 238.336 379.126 271.304 373.64C284.654 371.418 298.902 359.507 311.197 346.114C298.546 343.792 279.668 338.891 278.471 334.887Z" fill="white"/>
</mask>
<g mask="url(#mask3_416_748)">
<path d="M277.587 313.744C277.587 313.744 275.693 324.372 274.168 336.127C272.644 347.881 271.518 356.629 271.518 356.629L278.471 334.887L286.307 311.849C286.307 311.849 278.727 311.849 277.587 313.744Z" fill="#92E3A9"/>
<path opacity="0.5" d="M277.587 313.744C277.587 313.744 275.693 324.372 274.168 336.127C272.644 347.881 271.518 356.629 271.518 356.629L278.471 334.887L286.307 311.849C286.307 311.849 278.727 311.849 277.587 313.744Z" fill="white"/>
</g>
<path d="M278.471 334.887C276.904 329.673 286.834 309.797 286.834 309.797L255.49 311.365C255.49 311.365 253.922 324.957 251.828 327.578C249.734 330.2 246.599 324.957 239.276 321.309C238.72 321.024 238.108 320.754 237.481 320.483L235.586 350.274C235.586 350.274 238.336 379.126 271.304 373.64C284.654 371.418 298.902 359.507 311.197 346.114C298.546 343.792 279.668 338.891 278.471 334.887Z" stroke="#263238" stroke-linecap="round" stroke-linejoin="round"/>
<path d="M251.814 327.578C249.719 330.185 246.585 324.957 239.262 321.309C234.646 318.987 227.294 316.878 221.21 314.599C219.486 310.51 217.207 305.181 215.739 301.961C213.132 296.262 208.943 299.867 208.943 299.867C206.758 297.381 204.992 294.557 203.714 291.504C201.107 285.805 196.918 286.275 191.176 285.235C185.435 284.195 173.396 273.21 173.396 273.21C173.396 273.21 167.768 268.935 165.445 266.813C162.738 272.141 156.256 281.516 142.236 287.372C164.591 310.723 209.94 355.09 214.699 358.424C219.928 362.071 218.361 372.529 214.699 382.987C211.037 393.444 197.445 408.632 197.973 425.33C198.5 442.028 203.671 467.674 203.201 472.903C202.731 477.561 192.302 492.165 190.037 495.3L195.351 495.898H223.02C222.863 481.878 222.877 424.661 232.466 401.865C243.45 375.663 251.814 327.578 251.814 327.578Z" fill="#92E3A9"/>
<mask id="mask4_416_748" style="mask-type:luminance" maskUnits="userSpaceOnUse" x="142" y="266" width="110" height="230">
<path d="M251.814 327.578C249.719 330.185 246.585 324.957 239.262 321.309C234.646 318.987 227.294 316.878 221.21 314.599C219.486 310.51 217.207 305.181 215.739 301.961C213.132 296.262 208.943 299.867 208.943 299.867C206.758 297.381 204.992 294.557 203.714 291.504C201.107 285.805 196.918 286.275 191.176 285.235C185.435 284.195 173.396 273.21 173.396 273.21C173.396 273.21 167.768 268.935 165.445 266.813C162.738 272.141 156.256 281.516 142.236 287.372C164.591 310.723 209.94 355.09 214.699 358.424C219.928 362.071 218.361 372.529 214.699 382.987C211.037 393.444 197.445 408.632 197.973 425.33C198.5 442.028 203.671 467.674 203.201 472.903C202.731 477.561 192.302 492.165 190.037 495.3L195.351 495.898H223.02C222.863 481.878 222.877 424.661 232.466 401.865C243.45 375.663 251.814 327.578 251.814 327.578Z" fill="white"/>
</mask>
<g mask="url(#mask4_416_748)">
<path opacity="0.16" d="M239.262 321.309C234.646 318.987 227.294 316.878 221.21 314.599C219.486 310.51 217.207 305.181 215.739 301.961C213.132 296.262 208.943 299.867 208.943 299.867C206.758 297.381 204.992 294.557 203.714 291.504C201.107 285.805 196.918 286.275 191.177 285.235C185.435 284.195 173.396 273.21 173.396 273.21C173.396 273.21 167.768 268.935 165.446 266.813C164.287 269.075 162.908 271.218 161.328 273.21C170.674 281.117 180.99 289.495 184.594 291.162C191.718 294.453 193.385 291.703 198.842 295.008C204.299 298.314 210.382 309.256 210.382 309.256C210.382 309.256 213.688 300.451 216.437 306.506C219.187 312.561 225.784 322.99 225.784 322.99C225.784 322.99 234.574 327.934 236.769 327.934C238.492 327.934 246.941 332.323 250.532 334.217C251.329 330.043 251.771 327.535 251.771 327.535C249.72 330.185 246.585 324.957 239.262 321.309Z" fill="black"/>
</g>
<path d="M251.814 327.578C249.719 330.185 246.585 324.957 239.262 321.309C234.646 318.987 227.294 316.878 221.21 314.599C219.486 310.51 217.207 305.181 215.739 301.961C213.132 296.262 208.943 299.867 208.943 299.867C206.758 297.381 204.992 294.557 203.714 291.504C201.107 285.805 196.918 286.275 191.176 285.235C185.435 284.195 173.396 273.21 173.396 273.21C173.396 273.21 167.768 268.935 165.445 266.813C162.738 272.141 156.256 281.516 142.236 287.372C164.591 310.723 209.94 355.09 214.699 358.424C219.928 362.071 218.361 372.529 214.699 382.987C211.037 393.444 197.445 408.632 197.973 425.33C198.5 442.028 203.671 467.674 203.201 472.903C202.731 477.561 192.302 492.165 190.037 495.3L195.351 495.898H223.02C222.863 481.878 222.877 424.661 232.466 401.865C243.45 375.663 251.814 327.578 251.814 327.578Z" stroke="#263238" stroke-linecap="round" stroke-linejoin="round"/>
<path d="M252.184 325.755C252.184 325.755 245.687 323.76 241.684 327.265C237.68 330.77 231.71 348.75 228.191 368.255C226.022 379.609 227.519 391.359 232.466 401.808C232.466 401.808 240.686 380.251 243.18 369.751C245.673 359.25 252.184 325.755 252.184 325.755Z" fill="#92E3A9"/>
<mask id="mask5_416_748" style="mask-type:luminance" maskUnits="userSpaceOnUse" x="227" y="325" width="26" height="77">
<path d="M252.184 325.755C252.184 325.755 245.687 323.76 241.684 327.265C237.68 330.77 231.71 348.75 228.191 368.255C226.022 379.609 227.519 391.359 232.466 401.808C232.466 401.808 240.686 380.251 243.18 369.751C245.673 359.25 252.184 325.755 252.184 325.755Z" fill="white"/>
</mask>
<g mask="url(#mask5_416_748)">
<path opacity="0.16" d="M239.718 328.932C239.718 328.932 244.419 327.792 246.357 328.447C247.989 329.147 249.514 330.073 250.888 331.197L252.184 325.754C250.24 324.761 248.034 324.397 245.873 324.714C242.639 325.37 239.718 328.932 239.718 328.932Z" fill="black"/>
</g>
<path d="M252.184 325.755C252.184 325.755 245.687 323.76 241.684 327.265C237.68 330.77 231.71 348.75 228.191 368.255C226.022 379.609 227.519 391.359 232.466 401.808C232.466 401.808 240.686 380.251 243.18 369.751C245.673 359.25 252.184 325.755 252.184 325.755Z" stroke="#263238" stroke-linecap="round" stroke-linejoin="round"/>
<path d="M208.43 327.464L216.794 361.444L197.973 318.574" stroke="#263238" stroke-linecap="round" stroke-linejoin="round"/>
<path d="M263.525 495.898H324.476C324.476 495.898 307.664 474.527 307.664 467.218C307.664 459.909 330.745 366.26 331.785 359.464C332.825 352.668 328.651 347.966 320.287 347.439C311.924 346.912 280.038 340.116 278.471 334.887C278.471 334.887 266.446 377.231 262.272 405.982C258.681 430.644 262.4 481.821 263.525 495.898Z" fill="#92E3A9"/>
<mask id="mask6_416_748" style="mask-type:luminance" maskUnits="userSpaceOnUse" x="260" y="334" width="72" height="162">
<path d="M263.525 495.898H324.476C324.476 495.898 307.664 474.527 307.664 467.218C307.664 459.909 330.745 366.26 331.785 359.464C332.825 352.668 328.651 347.966 320.287 347.439C311.924 346.912 280.038 340.116 278.471 334.887C278.471 334.887 266.446 377.231 262.272 405.982C258.681 430.644 262.4 481.821 263.525 495.898Z" fill="white"/>
</mask>
<g mask="url(#mask6_416_748)">
<path opacity="0.16" d="M320.287 347.439C313.434 347.012 290.795 342.367 281.976 337.836L285.181 345.245C290.989 348.326 297.236 350.498 303.703 351.685C314.317 353.58 324.191 353.209 330.645 362.698L330.958 363.168C331.357 361.345 331.628 360.062 331.714 359.464C332.839 352.668 328.65 347.966 320.287 347.439Z" fill="black"/>
</g>
<path d="M263.525 495.898H324.476C324.476 495.898 307.664 474.527 307.664 467.218C307.664 459.909 330.745 366.26 331.785 359.464C332.825 352.668 328.651 347.966 320.287 347.439C311.924 346.912 280.038 340.116 278.471 334.887C278.471 334.887 266.446 377.231 262.272 405.982C258.681 430.644 262.4 481.821 263.525 495.898Z" stroke="#263238" stroke-linecap="round" stroke-linejoin="round"/>
<path d="M278.471 334.887C278.471 334.887 262.343 386.178 262.271 405.982C262.271 405.982 285.181 378.242 288.173 358.752C291.165 339.261 278.471 334.887 278.471 334.887Z" fill="#92E3A9"/>
<mask id="mask7_416_748" style="mask-type:luminance" maskUnits="userSpaceOnUse" x="262" y="334" width="27" height="72">
<path d="M278.471 334.887C278.471 334.887 262.343 386.178 262.271 405.982C262.271 405.982 285.181 378.242 288.173 358.752C291.165 339.261 278.471 334.887 278.471 334.887Z" fill="white"/>
</mask>
<g mask="url(#mask7_416_748)">
<path opacity="0.16" d="M275.692 341.441C278.116 341.36 280.523 341.87 282.705 342.927C284.887 343.985 286.778 345.558 288.216 347.51C288.216 347.51 285.053 338.207 278.471 334.887L275.692 341.441Z" fill="black"/>
</g>
<path d="M278.471 334.887C278.471 334.887 262.343 386.178 262.271 405.982C262.271 405.982 285.181 378.242 288.173 358.752C291.165 339.261 278.471 334.887 278.471 334.887Z" stroke="#263238" stroke-linecap="round" stroke-linejoin="round"/>
<path d="M450.652 486.252C450.652 486.252 462.463 486.737 470.199 487.848C475.358 488.548 480.552 488.961 485.757 489.088C485.757 489.088 481.483 480.454 476.924 478.017C472.365 475.581 464.101 471.221 457.177 472.19C450.253 473.159 440.351 480.14 441.177 482.363C442.003 484.585 445.693 485.583 450.652 486.252Z" fill="white"/>
<mask id="mask8_416_748" style="mask-type:luminance" maskUnits="userSpaceOnUse" x="441" y="472" width="45" height="18">
<path d="M450.652 486.252C450.652 486.252 462.463 486.737 470.199 487.848C475.358 488.548 480.552 488.961 485.757 489.088C485.757 489.088 481.483 480.454 476.924 478.017C472.365 475.581 464.101 471.221 457.177 472.19C450.253 473.159 440.351 480.14 441.177 482.363C442.003 484.585 445.693 485.583 450.652 486.252Z" fill="white"/>
</mask>
<g mask="url(#mask8_416_748)">
<path d="M450.652 486.252C450.652 486.252 462.463 486.737 470.199 487.848C475.358 488.548 480.552 488.961 485.757 489.088C485.757 489.088 481.483 480.454 476.924 478.017C472.365 475.581 464.101 471.221 457.177 472.19C450.253 473.159 440.351 480.14 441.177 482.363C442.003 484.585 445.693 485.583 450.652 486.252Z" fill="#92E3A9"/>
<path opacity="0.5" d="M450.652 486.252C450.652 486.252 462.463 486.737 470.199 487.848C475.358 488.548 480.552 488.961 485.757 489.088C485.757 489.088 481.483 480.454 476.924 478.017C472.365 475.581 464.101 471.221 457.177 472.19C450.253 473.159 440.351 480.14 441.177 482.363C442.003 484.585 445.693 485.583 450.652 486.252Z" fill="white"/>
</g>
<path d="M450.652 486.252C450.652 486.252 462.463 486.737 470.199 487.848C475.358 488.548 480.552 488.961 485.757 489.088C485.757 489.088 481.483 480.454 476.924 478.017C472.365 475.581 464.101 471.221 457.177 472.19C450.253 473.159 440.351 480.14 441.177 482.363C442.003 484.585 445.693 485.583 450.652 486.252Z" stroke="#263238" stroke-linecap="round" stroke-linejoin="round"/>
<path d="M470.271 482.719C470.271 482.719 479.631 477.861 481.968 477.932C484.304 478.003 499.834 488.503 499.065 490.185C498.542 490.964 497.788 491.56 496.908 491.887C496.029 492.214 495.069 492.257 494.164 492.008C492.44 491.196 481.982 486.751 481.982 486.751L475.143 488.361L470.271 482.719Z" fill="white"/>
<mask id="mask9_416_748" style="mask-type:luminance" maskUnits="userSpaceOnUse" x="470" y="477" width="30" height="16">
<path d="M470.271 482.719C470.271 482.719 479.631 477.861 481.968 477.932C484.304 478.003 499.834 488.503 499.065 490.185C498.542 490.964 497.788 491.56 496.908 491.887C496.029 492.214 495.069 492.257 494.164 492.008C492.44 491.196 481.982 486.751 481.982 486.751L475.143 488.361L470.271 482.719Z" fill="white"/>
</mask>
<g mask="url(#mask9_416_748)">
<path d="M470.271 482.719C470.271 482.719 479.631 477.861 481.968 477.932C484.304 478.003 499.834 488.503 499.065 490.185C498.295 491.866 494.619 493.234 494.164 492.008C493.708 490.783 481.982 486.751 481.982 486.751L475.143 488.361L470.271 482.719Z" fill="#92E3A9"/>
<path opacity="0.5" d="M470.271 482.719C470.271 482.719 479.631 477.861 481.968 477.932C484.304 478.003 499.834 488.503 499.065 490.185C498.295 491.866 494.619 493.234 494.164 492.008C493.708 490.783 481.982 486.751 481.982 486.751L475.143 488.361L470.271 482.719Z" fill="white"/>
</g>
<path d="M470.271 482.719C470.271 482.719 479.631 477.861 481.968 477.932C484.304 478.003 499.834 488.503 499.065 490.185C498.542 490.964 497.788 491.56 496.908 491.887C496.029 492.214 495.069 492.257 494.164 492.008C492.44 491.196 481.982 486.751 481.982 486.751L475.143 488.361L470.271 482.719Z" stroke="#263238" stroke-linecap="round" stroke-linejoin="round"/>
<path d="M463.588 474.726C463.588 474.726 476.069 474.327 478.548 475.581C481.027 476.835 492.226 496.04 490.545 497.437C488.863 498.833 484.219 498.42 484.361 496.867C484.504 495.314 474.046 485.027 474.046 485.027L465.911 483.246L463.588 474.726Z" fill="white"/>
<mask id="mask10_416_748" style="mask-type:luminance" maskUnits="userSpaceOnUse" x="463" y="474" width="28" height="25">
<path d="M463.588 474.726C463.588 474.726 476.069 474.327 478.548 475.581C481.027 476.835 492.226 496.04 490.545 497.437C488.863 498.833 484.219 498.42 484.361 496.867C484.504 495.314 474.046 485.027 474.046 485.027L465.911 483.246L463.588 474.726Z" fill="white"/>
</mask>
<g mask="url(#mask10_416_748)">
<path d="M463.588 474.726C463.588 474.726 476.069 474.327 478.548 475.581C481.027 476.835 492.226 496.04 490.545 497.437C488.863 498.833 484.219 498.42 484.361 496.867C484.504 495.314 474.046 485.027 474.046 485.027L465.911 483.246L463.588 474.726Z" fill="#92E3A9"/>
<path opacity="0.5" d="M463.588 474.726C463.588 474.726 476.069 474.327 478.548 475.581C481.027 476.835 492.226 496.04 490.545 497.437C488.863 498.833 484.219 498.42 484.361 496.867C484.504 495.314 474.046 485.027 474.046 485.027L465.911 483.246L463.588 474.726Z" fill="white"/>
</g>
<path d="M463.588 474.726C463.588 474.726 476.069 474.327 478.548 475.581C481.027 476.835 492.226 496.04 490.545 497.437C488.863 498.833 484.219 498.42 484.361 496.867C484.504 495.314 474.046 485.027 474.046 485.027L465.911 483.246L463.588 474.726Z" stroke="#263238" stroke-linecap="round" stroke-linejoin="round"/>
<path d="M456.194 472.147C456.194 472.147 468.831 471.734 471.339 473.016C473.846 474.299 485.187 493.718 483.478 495.143C481.768 496.568 477.095 496.126 477.237 494.559C477.38 492.991 466.794 482.577 466.794 482.577L458.559 480.767L456.194 472.147Z" fill="white"/>
<mask id="mask11_416_748" style="mask-type:luminance" maskUnits="userSpaceOnUse" x="456" y="472" width="28" height="25">
<path d="M456.194 472.147C456.194 472.147 468.831 471.734 471.339 473.016C473.846 474.299 485.187 493.718 483.478 495.143C481.768 496.568 477.095 496.126 477.237 494.559C477.38 492.991 466.794 482.577 466.794 482.577L458.559 480.767L456.194 472.147Z" fill="white"/>
</mask>
<g mask="url(#mask11_416_748)">
<path d="M456.194 472.147C456.194 472.147 468.831 471.734 471.339 473.016C473.846 474.299 485.187 493.718 483.478 495.143C481.768 496.568 477.095 496.126 477.237 494.559C477.38 492.991 466.794 482.577 466.794 482.577L458.559 480.767L456.194 472.147Z" fill="#92E3A9"/>
<path opacity="0.5" d="M456.194 472.147C456.194 472.147 468.831 471.734 471.339 473.016C473.846 474.299 485.187 493.718 483.478 495.143C481.768 496.568 477.095 496.126 477.237 494.559C477.38 492.991 466.794 482.577 466.794 482.577L458.559 480.767L456.194 472.147Z" fill="white"/>
</g>
<path d="M456.194 472.147C456.194 472.147 468.831 471.734 471.339 473.016C473.846 474.299 485.187 493.718 483.478 495.143C481.768 496.568 477.095 496.126 477.237 494.559C477.38 492.991 466.794 482.577 466.794 482.577L458.559 480.767L456.194 472.147Z" stroke="#263238" stroke-linecap="round" stroke-linejoin="round"/>
<path d="M312.508 399.742C321.655 413.832 340.02 449.537 345.377 453.554C353.74 459.823 409.647 475.04 415.033 479.2C420.418 483.36 420.048 487.535 425.148 489.059C430.249 490.584 449.369 494.958 456.664 495.641C463.959 496.325 460.696 491.809 460.696 491.809L448.258 483.26L459.1 480.582C459.1 480.582 469.971 493.661 472.008 494.373C474.046 495.086 477.636 494.373 477.408 492.763C477.009 490.185 465.412 469.084 461.294 468.187C457.177 467.289 432.187 470.751 432.187 470.751C432.187 470.751 379.77 435.403 378.83 434.149C378.83 434.149 375.696 425.259 373.131 421.597C370.566 417.936 368.942 418.99 368.942 418.99C368.942 418.99 369.996 414.274 368.429 412.707L360.066 404.344L359.767 404.743C358.342 401.893 356.917 398.645 355.35 394.94C350.976 384.639 335.489 355.731 332.882 351.557C330.93 348.436 314.574 346.2 306.282 345.259" fill="#92E3A9"/>
<mask id="mask12_416_748" style="mask-type:luminance" maskUnits="userSpaceOnUse" x="306" y="345" width="172" height="151">
<path d="M312.508 399.742C321.655 413.832 340.02 449.537 345.377 453.554C353.74 459.823 409.647 475.04 415.033 479.2C420.418 483.36 420.048 487.535 425.148 489.059C430.249 490.584 449.369 494.958 456.664 495.641C463.959 496.325 460.696 491.809 460.696 491.809L448.258 483.26L459.1 480.582C459.1 480.582 469.971 493.661 472.008 494.373C474.046 495.086 477.636 494.373 477.408 492.763C477.009 490.185 465.412 469.084 461.294 468.187C457.177 467.289 432.187 470.751 432.187 470.751C432.187 470.751 379.77 435.403 378.83 434.149C378.83 434.149 375.696 425.259 373.131 421.597C370.566 417.936 368.942 418.99 368.942 418.99C368.942 418.99 369.996 414.274 368.429 412.707L360.066 404.344L359.767 404.743C358.342 401.893 356.917 398.645 355.35 394.94C350.976 384.639 335.489 355.731 332.882 351.557C330.93 348.436 314.574 346.2 306.282 345.259" fill="white"/>
</mask>
<g mask="url(#mask12_416_748)">
<path opacity="0.16" d="M348.925 400.639C355.764 406.709 353.484 406.709 351.959 412.037C350.435 417.366 353.099 410.142 359.553 410.527C366.007 410.912 364.113 419.246 363.343 420.771C362.574 422.295 371.322 424.19 369.797 427.595C368.273 431.001 359.553 435.945 354.624 440.888C349.694 445.832 367.518 432.91 373.587 432.539C375.439 432.411 376.964 432.653 378.246 432.625C376.901 428.813 375.173 425.147 373.088 421.683C370.467 418.021 368.9 419.076 368.9 419.076C368.9 419.076 369.954 414.36 368.387 412.792L360.024 404.429L359.724 404.828C358.3 401.979 356.875 398.73 355.308 395.026C350.934 384.725 335.447 355.817 332.839 351.642C330.887 348.522 314.531 346.285 306.239 345.345L306.994 351.941L307.18 352.084C307.18 352.084 317.424 353.979 320.843 354.363C324.262 354.748 328.437 357.769 328.052 360.062C327.667 362.356 317.808 372.586 320.843 373.355C323.878 374.125 327.297 365.761 330.716 366.901C334.136 368.041 342.043 394.57 348.925 400.639Z" fill="black"/>
</g>
<path d="M312.508 399.742C321.655 413.832 340.02 449.537 345.377 453.554C353.74 459.823 409.647 475.04 415.033 479.2C420.418 483.36 420.048 487.535 425.148 489.059C430.249 490.584 449.369 494.958 456.664 495.641C463.959 496.325 460.696 491.809 460.696 491.809L448.258 483.26L459.1 480.582C459.1 480.582 469.971 493.661 472.008 494.373C474.046 495.086 477.636 494.373 477.408 492.763C477.009 490.185 465.412 469.084 461.294 468.187C457.177 467.289 432.187 470.751 432.187 470.751C432.187 470.751 379.77 435.403 378.83 434.149C378.83 434.149 375.696 425.259 373.131 421.597C370.566 417.936 368.942 418.99 368.942 418.99C368.942 418.99 369.996 414.274 368.429 412.707L360.066 404.344L359.767 404.743C358.342 401.893 356.917 398.645 355.35 394.94C350.976 384.639 335.489 355.731 332.882 351.557C330.93 348.436 314.574 346.2 306.282 345.259" stroke="#263238" stroke-linecap="round" stroke-linejoin="round"/>
<path d="M312.65 380.408C312.266 381.69 311.938 382.972 311.682 384.283" stroke="#263238" stroke-linecap="round" stroke-linejoin="round"/>
<path d="M326.499 356.828C322.022 361.931 318.246 367.609 315.272 373.711" stroke="#263238" stroke-linecap="round" stroke-linejoin="round"/>
<path d="M347.429 437.725C351.276 432.026 357.402 424.803 364.155 422.737" stroke="#263238" stroke-linecap="round" stroke-linejoin="round"/>
<path d="M343.168 444.735C343.168 444.735 343.852 443.396 345.078 441.373" stroke="#263238" stroke-linecap="round" stroke-linejoin="round"/>
<path d="M343.168 435.731C343.168 435.731 350.164 418.235 357.159 413.733C364.155 409.231 360.151 418.235 360.151 418.235" stroke="#263238" stroke-linecap="round" stroke-linejoin="round"/>
<path d="M415.033 479.214C420.433 483.389 420.048 487.549 425.149 489.073C430.249 490.598 449.369 494.972 456.664 495.656C463.959 496.34 460.696 491.823 460.696 491.823L448.258 483.275L459.1 480.596C459.1 480.596 469.971 493.675 472.009 494.388C474.046 495.1 477.921 495.357 477.408 492.778C476.411 487.791 465.412 469.098 461.294 468.201C457.177 467.303 432.187 470.765 432.187 470.765C432.187 470.765 384.443 437.996 379.215 434.449C358.94 436.4 349.295 447.015 345.234 453.383L345.377 453.497C353.74 459.823 409.647 475.04 415.033 479.214Z" fill="white"/>
<mask id="mask13_416_748" style="mask-type:luminance" maskUnits="userSpaceOnUse" x="345" y="434" width="133" height="62">
<path d="M415.033 479.214C420.433 483.389 420.048 487.549 425.149 489.073C430.249 490.598 449.369 494.972 456.664 495.656C463.959 496.34 460.696 491.823 460.696 491.823L448.258 483.275L459.1 480.596C459.1 480.596 469.971 493.675 472.009 494.388C474.046 495.1 477.921 495.357 477.408 492.778C476.411 487.791 465.412 469.098 461.294 468.201C457.177 467.303 432.187 470.765 432.187 470.765C432.187 470.765 384.443 437.996 379.215 434.449C358.94 436.4 349.295 447.015 345.234 453.383L345.377 453.497C353.74 459.823 409.647 475.04 415.033 479.214Z" fill="white"/>
</mask>
<g mask="url(#mask13_416_748)">
<path d="M477.394 492.835C474.801 486.495 465.398 469.155 461.28 468.258C457.163 467.36 432.173 470.822 432.173 470.822C432.173 470.822 384.429 438.053 379.2 434.506C373.879 434.968 368.658 436.232 363.713 438.253C371.25 442.527 421.487 471.022 427.827 472.29C434.552 473.715 456.992 470.025 460.938 472.675C463.446 474.356 470.911 486.195 475.955 494.601C477.394 494.388 477.921 494.117 477.394 492.835Z" fill="#92E3A9"/>
<path opacity="0.5" d="M477.394 492.835C473.348 483.759 465.398 469.155 461.28 468.258C457.163 467.36 432.173 470.822 432.173 470.822C432.173 470.822 384.429 438.053 379.2 434.506C373.879 434.968 368.658 436.232 363.713 438.253C371.25 442.527 421.487 471.022 427.827 472.29C434.552 473.715 456.992 470.025 460.938 472.675C463.446 474.356 470.911 486.195 475.955 494.601C477.394 494.388 477.964 494.103 477.394 492.835Z" fill="white"/>
</g>
<path d="M415.033 479.214C420.433 483.389 420.048 487.549 425.149 489.073C430.249 490.598 449.369 494.972 456.664 495.656C463.959 496.34 460.696 491.823 460.696 491.823L448.258 483.275L459.1 480.596C459.1 480.596 469.971 493.675 472.009 494.388C474.046 495.1 477.921 495.357 477.408 492.778C476.411 487.791 465.412 469.098 461.294 468.201C457.177 467.303 432.187 470.765 432.187 470.765C432.187 470.765 384.443 437.996 379.215 434.449C358.94 436.4 349.295 447.015 345.234 453.383L345.377 453.497C353.74 459.823 409.647 475.04 415.033 479.214Z" stroke="#263238" stroke-linecap="round" stroke-linejoin="round"/>
<path d="M289.114 230.425L246.2 248.334C245.68 255.876 243.813 263.263 240.687 270.147C235.615 280.875 238.578 301.178 243.451 312.134C248.323 323.09 269.794 318.802 277.645 317.434C282.969 316.421 288.184 314.899 293.217 312.889C295.509 313.772 297.988 314.058 300.421 313.719C302.853 313.38 305.16 312.428 307.123 310.951C307.123 310.951 284.156 246.481 289.114 230.425Z" fill="white"/>
<mask id="mask14_416_748" style="mask-type:luminance" maskUnits="userSpaceOnUse" x="238" y="230" width="70" height="90">
<path d="M289.114 230.425L246.2 248.334C245.68 255.876 243.813 263.263 240.687 270.147C235.615 280.875 238.578 301.178 243.451 312.134C248.323 323.09 269.794 318.802 277.645 317.434C282.969 316.421 288.184 314.899 293.217 312.889C295.509 313.772 297.988 314.058 300.421 313.719C302.853 313.38 305.16 312.428 307.123 310.951C307.123 310.951 284.156 246.481 289.114 230.425Z" fill="white"/>
</mask>
<g mask="url(#mask14_416_748)">
<path d="M289.114 230.425L246.2 248.334C245.68 255.876 243.813 263.263 240.687 270.147C235.615 280.875 238.578 301.178 243.451 312.134C244.266 313.896 245.579 315.381 247.226 316.408V315.582C247.226 315.582 239.262 295.849 240.772 284.465C242.282 273.082 248.751 267.368 249.506 260.173C250.261 252.978 249.876 249.559 264.309 244.245C278.742 238.93 284.797 234.001 286.307 239.301C287.817 244.601 293.901 279.536 298.076 287.885C302.25 296.234 301.865 304.982 295.426 308.757C288.917 312.664 281.943 315.737 274.667 317.904L277.702 317.377C283.026 316.364 288.241 314.842 293.274 312.832C295.566 313.715 298.045 314.001 300.478 313.662C302.91 313.323 305.217 312.371 307.18 310.894C307.18 310.894 284.156 246.481 289.114 230.425Z" fill="#92E3A9"/>
<path opacity="0.5" d="M289.114 230.425L246.2 248.334C245.68 255.876 243.813 263.263 240.687 270.147C235.615 280.875 238.578 301.178 243.451 312.134C244.266 313.896 245.579 315.381 247.226 316.408V315.582C247.226 315.582 239.262 295.849 240.772 284.465C242.282 273.082 248.751 267.368 249.506 260.173C250.261 252.978 249.876 249.559 264.309 244.245C278.742 238.93 284.797 234.001 286.307 239.301C287.817 244.601 293.901 279.536 298.076 287.885C302.25 296.234 301.865 304.982 295.426 308.757C288.917 312.664 281.943 315.737 274.667 317.904L277.702 317.377C283.026 316.364 288.241 314.842 293.274 312.832C295.566 313.715 298.045 314.001 300.478 313.662C302.91 313.323 305.217 312.371 307.18 310.894C307.18 310.894 284.156 246.481 289.114 230.425Z" fill="white"/>
</g>
<path d="M289.114 230.425L246.2 248.334C245.68 255.876 243.813 263.263 240.687 270.147C235.615 280.875 238.578 301.178 243.451 312.134C248.323 323.09 269.794 318.802 277.645 317.434C282.969 316.421 288.184 314.899 293.217 312.889C295.509 313.772 297.988 314.058 300.421 313.719C302.853 313.38 305.16 312.428 307.123 310.951C307.123 310.951 284.156 246.481 289.114 230.425Z" stroke="#263238" stroke-linecap="round" stroke-linejoin="round"/>
<path d="M267.429 258.506C267.546 261.029 267.232 263.554 266.503 265.972C265.363 268.822 254.606 280.02 254.934 281.231C255.262 282.442 256.231 286.332 258.14 286.702" stroke="#263238" stroke-linecap="round" stroke-linejoin="round"/>
<path d="M279.354 268.522C280.85 265.53 285.765 268.451 285.694 275.19" stroke="#263238" stroke-linecap="round" stroke-linejoin="round"/>
<path d="M254.991 259.717C254.991 259.717 259.18 257.879 262.927 264.661" stroke="#263238" stroke-linecap="round" stroke-linejoin="round"/>
<path d="M273.399 278.396C278.239 278.639 282.841 280.57 286.407 283.853" stroke="#263238" stroke-width="0.5" stroke-linecap="round" stroke-linejoin="round"/>
<path d="M249.933 269.491C252.436 269.825 254.881 270.501 257.199 271.5" stroke="#263238" stroke-width="0.5" stroke-linecap="round" stroke-linejoin="round"/>
<path d="M266.959 252.18C265.853 251.596 264.626 251.276 263.374 251.246C262.123 251.216 260.883 251.478 259.75 252.01C255.917 253.847 253.566 255.871 253.823 253.52C254.079 251.169 258.581 248.576 259.935 248.234C261.288 247.892 267.344 246.952 266.959 252.18Z" fill="#263238"/>
<path d="M277.702 246.866C281.696 250.098 284.869 254.228 286.963 258.92C289.812 266.043 292.063 258.264 289.812 253.605C287.561 248.946 281.05 243.988 277.702 246.866Z" fill="#263238"/>
<path d="M307.749 323.133C307.749 326.453 305.869 329.145 303.561 329.145C301.253 329.145 299.386 326.453 299.386 323.133C299.386 319.813 301.253 311.365 303.561 311.365C305.869 311.365 307.749 319.813 307.749 323.133Z" fill="#92E3A9" stroke="#263238" stroke-linecap="round" stroke-linejoin="round"/>
<path d="M279.725 267.226C279.561 267.661 279.432 268.109 279.34 268.565C278.927 270.674 278.514 275.076 279.34 275.261C280.166 275.447 282.189 271.329 282.546 269.22C282.626 268.807 282.673 268.388 282.688 267.967C281.716 267.662 280.726 267.414 279.725 267.226Z" fill="#263238"/>
<path d="M255.419 259.304C255.292 259.677 255.192 260.057 255.119 260.444C254.692 262.553 254.706 267.183 255.604 267.354C256.501 267.525 257.969 263.194 258.382 261.085C258.485 260.574 258.542 260.054 258.553 259.532C257.533 259.252 256.468 259.174 255.419 259.304Z" fill="#263238"/>
<path d="M279.354 268.594L280.779 265.944C283.038 266.384 285.084 267.567 286.592 269.306" stroke="#263238" stroke-width="0.75" stroke-linecap="round" stroke-linejoin="round"/>
<path d="M255.418 259.304L256.843 257.637C256.843 257.637 257.456 257.338 260.818 258.863" stroke="#263238" stroke-width="0.75" stroke-linecap="round" stroke-linejoin="round"/>
<path d="M250.019 297.943C250.019 297.943 252.412 293.541 255.618 293.541C258.823 293.541 261.217 300.736 261.217 300.736" stroke="#263238" stroke-linecap="round" stroke-linejoin="round"/>
<path d="M146.853 487.805C143.755 487.651 140.712 486.927 137.877 485.668C137.482 485.522 137.12 485.297 136.815 485.007C136.509 484.716 136.266 484.367 136.1 483.98C135.934 483.592 135.848 483.175 135.848 482.754C135.848 482.332 135.934 481.915 136.101 481.528C136.267 481.141 136.511 480.792 136.817 480.502C137.122 480.212 137.484 479.987 137.879 479.841C138.275 479.695 138.696 479.631 139.117 479.653C139.538 479.675 139.95 479.783 140.328 479.969C143.177 481.18 146.867 481.935 147.85 481.508C149.66 479.485 152.438 467.261 148.848 461.362C148.035 460.051 147.28 459.809 146.782 459.752C144.744 459.467 141.724 461.562 140.655 462.602C140.358 462.882 140.008 463.102 139.626 463.247C139.243 463.392 138.836 463.461 138.427 463.449C138.019 463.437 137.616 463.345 137.243 463.178C136.87 463.01 136.533 462.771 136.253 462.473C135.972 462.176 135.753 461.826 135.607 461.444C135.462 461.062 135.393 460.654 135.405 460.246C135.417 459.837 135.509 459.434 135.677 459.061C135.844 458.688 136.084 458.352 136.381 458.071C136.937 457.53 142.08 452.899 147.565 453.64C148.926 453.839 150.222 454.348 151.354 455.129C152.486 455.91 153.422 456.941 154.091 458.142C159.376 466.762 155.758 483.161 151.697 486.409C150.286 487.407 148.579 487.9 146.853 487.805Z" fill="white"/>
<mask id="mask15_416_748" style="mask-type:luminance" maskUnits="userSpaceOnUse" x="135" y="453" width="22" height="35">
<path d="M146.853 487.805C143.755 487.651 140.712 486.927 137.877 485.668C137.482 485.522 137.12 485.297 136.815 485.007C136.509 484.716 136.266 484.367 136.1 483.98C135.934 483.592 135.848 483.175 135.848 482.754C135.848 482.332 135.934 481.915 136.101 481.528C136.267 481.141 136.511 480.792 136.817 480.502C137.122 480.212 137.484 479.987 137.879 479.841C138.275 479.695 138.696 479.631 139.117 479.653C139.538 479.675 139.95 479.783 140.328 479.969C143.177 481.18 146.867 481.935 147.85 481.508C149.66 479.485 152.438 467.261 148.848 461.362C148.035 460.051 147.28 459.809 146.782 459.752C144.744 459.467 141.724 461.562 140.655 462.602C140.358 462.882 140.008 463.102 139.626 463.247C139.243 463.392 138.836 463.461 138.427 463.449C138.019 463.437 137.616 463.345 137.243 463.178C136.87 463.01 136.533 462.771 136.253 462.473C135.972 462.176 135.753 461.826 135.607 461.444C135.462 461.062 135.393 460.654 135.405 460.246C135.417 459.837 135.509 459.434 135.677 459.061C135.844 458.688 136.084 458.352 136.381 458.071C136.937 457.53 142.08 452.899 147.565 453.64C148.926 453.839 150.222 454.348 151.354 455.129C152.486 455.91 153.422 456.941 154.091 458.142C159.376 466.762 155.758 483.161 151.697 486.409C150.286 487.407 148.579 487.9 146.853 487.805Z" fill="white"/>
</mask>
<g mask="url(#mask15_416_748)">
<path d="M151.027 460.422C150.654 459.537 150.069 458.757 149.323 458.151C148.578 457.545 147.696 457.131 146.753 456.945C143.191 456.375 139.843 459.951 139.473 460.35C139.132 460.761 138.922 461.263 138.868 461.794C138.815 462.324 138.921 462.858 139.173 463.328C139.734 463.216 140.252 462.949 140.669 462.559C141.738 461.561 144.758 459.467 146.796 459.709C147.295 459.709 148.05 460.009 148.862 461.319C152.452 467.161 149.674 479.442 147.864 481.465C146.881 481.893 143.205 481.138 140.342 479.926C139.989 479.778 139.613 479.696 139.23 479.684C139.256 480.075 139.38 480.453 139.588 480.784C139.797 481.114 140.086 481.388 140.427 481.579C142.229 482.541 144.216 483.105 146.254 483.232C147.418 483.288 148.557 482.889 149.432 482.121C152.11 479.656 154.475 467.047 151.027 460.422Z" fill="#92E3A9"/>
<path opacity="0.5" d="M151.027 460.422C150.654 459.537 150.069 458.757 149.323 458.151C148.578 457.545 147.696 457.131 146.753 456.945C143.191 456.375 139.843 459.951 139.473 460.35C139.132 460.761 138.922 461.263 138.868 461.794C138.815 462.324 138.921 462.858 139.173 463.328C139.734 463.216 140.252 462.949 140.669 462.559C141.738 461.561 144.758 459.467 146.796 459.709C147.295 459.709 148.05 460.009 148.862 461.319C152.452 467.161 149.674 479.442 147.864 481.465C146.881 481.893 143.205 481.138 140.342 479.926C139.989 479.778 139.613 479.696 139.23 479.684C139.256 480.075 139.38 480.453 139.588 480.784C139.797 481.114 140.086 481.388 140.427 481.579C142.229 482.541 144.216 483.105 146.254 483.232C147.418 483.288 148.557 482.889 149.432 482.121C152.11 479.656 154.475 467.047 151.027 460.422Z" fill="white"/>
</g>
<path d="M146.853 487.805C143.755 487.651 140.712 486.927 137.877 485.668C137.482 485.522 137.12 485.297 136.815 485.007C136.509 484.716 136.266 484.367 136.1 483.98C135.934 483.592 135.848 483.175 135.848 482.754C135.848 482.332 135.934 481.915 136.101 481.528C136.267 481.141 136.511 480.792 136.817 480.502C137.122 480.212 137.484 479.987 137.879 479.841C138.275 479.695 138.696 479.631 139.117 479.653C139.538 479.675 139.95 479.783 140.328 479.969C143.177 481.18 146.867 481.935 147.85 481.508C149.66 479.485 152.438 467.261 148.848 461.362C148.035 460.051 147.28 459.809 146.782 459.752C144.744 459.467 141.724 461.562 140.655 462.602C140.358 462.882 140.008 463.102 139.626 463.247C139.243 463.392 138.836 463.461 138.427 463.449C138.019 463.437 137.616 463.345 137.243 463.178C136.87 463.01 136.533 462.771 136.253 462.473C135.972 462.176 135.753 461.826 135.607 461.444C135.462 461.062 135.393 460.654 135.405 460.246C135.417 459.837 135.509 459.434 135.677 459.061C135.844 458.688 136.084 458.352 136.381 458.071C136.937 457.53 142.08 452.899 147.565 453.64C148.926 453.839 150.222 454.348 151.354 455.129C152.486 455.91 153.422 456.941 154.091 458.142C159.376 466.762 155.758 483.161 151.697 486.409C150.286 487.407 148.579 487.9 146.853 487.805Z" stroke="#263238" stroke-linecap="round" stroke-linejoin="round"/>
<path d="M141.41 451.047H107.145V496.525H141.41V451.047Z" fill="white"/>
<mask id="mask16_416_748" style="mask-type:luminance" maskUnits="userSpaceOnUse" x="107" y="451" width="35" height="46">
<path d="M141.41 451.047H107.145V496.525H141.41V451.047Z" fill="white"/>
</mask>
<g mask="url(#mask16_416_748)">
<path d="M121.179 451.047H107.145V496.525H121.179V451.047Z" fill="#92E3A9"/>
<path opacity="0.5" d="M121.179 451.047H107.145V496.525H121.179V451.047Z" fill="white"/>
</g>
<path d="M141.41 451.047H107.145V496.525H141.41V451.047Z" stroke="#263238" stroke-linecap="round" stroke-linejoin="round"/>
<path d="M329.705 495.898H183.327L178.554 415.428C178.422 414.648 178.461 413.848 178.668 413.085C178.875 412.321 179.245 411.611 179.753 411.004C180.261 410.398 180.894 409.908 181.61 409.57C182.325 409.232 183.105 409.053 183.896 409.045H329.078C329.874 409.045 330.661 409.217 331.383 409.552C332.106 409.887 332.746 410.375 333.26 410.983C333.775 411.591 334.15 412.303 334.36 413.071C334.571 413.839 334.611 414.643 334.478 415.428L329.705 495.898Z" fill="#263238" stroke="#263238" stroke-linecap="round" stroke-linejoin="round"/>
<path d="M190.536 410.969H328.024C328.801 410.961 329.57 411.123 330.277 411.443C330.985 411.764 331.614 412.235 332.12 412.824C332.626 413.413 332.997 414.106 333.208 414.853C333.418 415.601 333.463 416.385 333.338 417.152" stroke="white" stroke-linecap="round" stroke-linejoin="round"/>
<path d="M179.622 415.884C179.737 414.538 180.355 413.284 181.353 412.373C182.351 411.462 183.656 410.96 185.008 410.969" stroke="white" stroke-linecap="round" stroke-linejoin="round"/>
<path d="M330.318 488.062H182.714V495.898H330.318V488.062Z" fill="white" stroke="#263238" stroke-linecap="round" stroke-linejoin="round"/>
<path d="M255.989 459.054C261.765 459.054 266.447 456.247 266.447 452.785C266.447 449.323 261.765 446.516 255.989 446.516C250.213 446.516 245.531 449.323 245.531 452.785C245.531 456.247 250.213 459.054 255.989 459.054Z" fill="white" stroke="#263238" stroke-linecap="round" stroke-linejoin="round"/>
<path d="M552.949 494.972H3.19531V508.322H552.949V494.972Z" fill="#263238"/>
<path d="M410.403 0H145.927C137.011 0 129.784 7.2272 129.784 16.1424V167.892C129.784 176.808 137.011 184.035 145.927 184.035H410.403C419.318 184.035 426.545 176.808 426.545 167.892V16.1424C426.545 7.2272 419.318 0 410.403 0Z" fill="#92E3A9"/>
<path d="M285.143 105.759C309.134 101.904 325.457 79.33 321.601 55.3394C317.745 31.3488 295.172 15.0261 271.181 18.8817C247.19 22.7372 230.868 45.311 234.723 69.3016C238.579 93.2922 261.153 109.615 285.143 105.759Z" fill="#263238"/>
<path d="M277.83 70.4538L263.169 89.2747C262.671 90.0582 261.985 90.7054 261.174 91.1581C260.363 91.6107 259.453 91.8546 258.524 91.8678C257.251 91.8852 256.022 91.3987 255.105 90.5143C254.639 90.0868 254.27 89.5639 254.025 88.9813C253.779 88.3986 253.661 87.7698 253.68 87.1376C253.726 85.7219 254.226 84.3585 255.105 83.248L271.817 62.5749L256.145 41.8876C255.417 40.9168 255.017 39.7388 255.005 38.5252C255.002 37.8014 255.148 37.0847 255.435 36.4202C255.722 35.7557 256.143 35.1578 256.672 34.6641C257.169 34.1451 257.766 33.7323 258.428 33.4507C259.089 33.169 259.8 33.0245 260.519 33.0257C261.439 33.0406 262.341 33.2857 263.143 33.7386C263.944 34.1916 264.619 34.8379 265.107 35.6187L279.269 54.2687L293.516 35.9322C294.026 35.0767 294.738 34.36 295.59 33.8456C296.443 33.3312 297.409 33.0349 298.403 32.9829C299.02 32.9814 299.631 33.1071 300.197 33.3523C300.763 33.5974 301.273 33.9567 301.694 34.4077C302.143 34.8304 302.501 35.3404 302.746 35.9063C302.991 36.4722 303.118 37.0822 303.119 37.6988C303.104 38.8024 302.723 39.8697 302.036 40.7335L285.267 62.1903L301.466 83.5615C302.232 84.5168 302.658 85.6997 302.677 86.9239C302.682 87.6318 302.533 88.3322 302.24 88.9767C301.947 89.6212 301.518 90.1945 300.982 90.6568C299.936 91.662 298.543 92.2236 297.092 92.224C296.167 92.2125 295.26 91.9691 294.454 91.516C293.647 91.063 292.967 90.4149 292.476 89.6309L277.83 70.4538Z" fill="white"/>
<path d="M361.99 152.163H194.283C190.882 152.163 187.62 150.812 185.216 148.407C182.811 146.003 181.46 142.741 181.46 139.34C181.46 135.94 182.811 132.678 185.216 130.273C187.62 127.869 190.882 126.518 194.283 126.518H361.99C365.391 126.518 368.652 127.869 371.057 130.273C373.462 132.678 374.813 135.94 374.813 139.34C374.813 142.741 373.462 146.003 371.057 148.407C368.652 150.812 365.391 152.163 361.99 152.163Z" fill="white"/>
<path d="M217.263 143.472C217.152 143.472 217.041 143.449 216.938 143.405C216.835 143.361 216.742 143.297 216.665 143.216C216.581 143.132 216.515 143.032 216.47 142.922C216.426 142.811 216.405 142.693 216.409 142.575C216.408 142.374 216.463 142.177 216.565 142.005L217.848 140.01H215.226C215.105 140.016 214.984 139.997 214.871 139.952C214.758 139.908 214.655 139.84 214.571 139.754C214.424 139.583 214.344 139.366 214.344 139.141C214.344 138.916 214.424 138.699 214.571 138.528C214.655 138.441 214.758 138.374 214.871 138.329C214.984 138.285 215.105 138.266 215.226 138.272L217.805 138.343L216.665 136.491C216.551 136.301 216.487 136.085 216.48 135.864C216.477 135.745 216.498 135.627 216.542 135.517C216.586 135.407 216.652 135.307 216.736 135.223C216.816 135.141 216.912 135.077 217.017 135.033C217.122 134.989 217.235 134.966 217.349 134.966C217.509 134.964 217.665 135.009 217.799 135.095C217.934 135.181 218.04 135.305 218.104 135.451L219.358 137.688L220.555 135.551C220.63 135.384 220.75 135.242 220.9 135.139C221.051 135.036 221.227 134.976 221.41 134.966C221.521 134.966 221.632 134.989 221.735 135.033C221.838 135.077 221.931 135.142 222.008 135.223C222.091 135.301 222.157 135.396 222.202 135.502C222.246 135.607 222.267 135.721 222.264 135.835C222.262 136.038 222.203 136.235 222.093 136.405L220.84 138.414L223.447 138.343C223.568 138.336 223.69 138.355 223.803 138.399C223.916 138.444 224.018 138.512 224.102 138.6C224.249 138.77 224.329 138.987 224.329 139.212C224.329 139.437 224.249 139.654 224.102 139.825C224.018 139.912 223.916 139.981 223.803 140.025C223.69 140.069 223.568 140.088 223.447 140.081H220.811L221.979 141.905C222.111 142.125 222.185 142.375 222.193 142.632C222.197 142.747 222.178 142.862 222.136 142.97C222.095 143.078 222.032 143.176 221.951 143.258C221.876 143.338 221.785 143.402 221.685 143.446C221.585 143.491 221.476 143.514 221.367 143.515C221.19 143.511 221.019 143.456 220.873 143.358C220.726 143.259 220.611 143.121 220.54 142.959L219.358 140.865L218.175 142.959C218.09 143.124 217.958 143.261 217.796 143.352C217.634 143.443 217.449 143.485 217.263 143.472Z" fill="black"/>
<path d="M230.343 143.472C230.231 143.472 230.12 143.449 230.018 143.405C229.915 143.361 229.822 143.297 229.745 143.216C229.66 143.132 229.594 143.032 229.55 142.922C229.506 142.811 229.485 142.693 229.488 142.575C229.488 142.374 229.542 142.177 229.645 142.005L230.927 140.01H228.306C228.184 140.016 228.063 139.997 227.95 139.952C227.837 139.908 227.735 139.84 227.65 139.754C227.504 139.583 227.423 139.366 227.423 139.141C227.423 138.916 227.504 138.699 227.65 138.528C227.735 138.441 227.837 138.374 227.95 138.329C228.063 138.285 228.184 138.266 228.306 138.272L230.884 138.343L229.673 136.42C229.559 136.23 229.495 136.014 229.488 135.793C229.485 135.674 229.506 135.556 229.55 135.446C229.594 135.335 229.66 135.235 229.745 135.152C229.825 135.07 229.92 135.006 230.025 134.961C230.13 134.917 230.243 134.895 230.357 134.895C230.517 134.893 230.674 134.938 230.808 135.024C230.942 135.11 231.048 135.234 231.112 135.38L232.366 137.616L233.563 135.479C233.638 135.313 233.758 135.171 233.909 135.068C234.059 134.965 234.236 134.905 234.418 134.895C234.53 134.895 234.641 134.918 234.743 134.962C234.846 135.006 234.939 135.071 235.016 135.152C235.1 135.23 235.166 135.325 235.21 135.431C235.254 135.536 235.276 135.65 235.273 135.764C235.271 135.967 235.212 136.164 235.102 136.334L233.848 138.343L236.455 138.272C236.577 138.265 236.698 138.284 236.811 138.328C236.924 138.372 237.026 138.441 237.111 138.528C237.257 138.699 237.338 138.916 237.338 139.141C237.338 139.366 237.257 139.583 237.111 139.754C237.026 139.841 236.924 139.909 236.811 139.954C236.698 139.998 236.577 140.017 236.455 140.01H233.819L234.988 141.834C235.12 142.054 235.193 142.304 235.201 142.56C235.206 142.676 235.186 142.791 235.145 142.899C235.103 143.006 235.04 143.105 234.959 143.187C234.884 143.267 234.794 143.331 234.693 143.375C234.593 143.419 234.485 143.443 234.375 143.444C234.198 143.441 234.026 143.387 233.879 143.289C233.733 143.19 233.618 143.051 233.549 142.888L232.366 140.794L231.184 142.888C231.113 143.055 230.997 143.199 230.848 143.302C230.699 143.406 230.524 143.465 230.343 143.472Z" fill="black"/>
<path d="M243.422 143.472C243.31 143.472 243.2 143.449 243.097 143.405C242.994 143.361 242.901 143.297 242.824 143.216C242.74 143.132 242.673 143.032 242.629 142.922C242.585 142.811 242.564 142.693 242.567 142.575C242.567 142.374 242.621 142.177 242.724 142.005L244.006 140.01H241.385C241.264 140.016 241.142 139.997 241.029 139.952C240.916 139.908 240.814 139.84 240.729 139.754C240.583 139.583 240.502 139.366 240.502 139.141C240.502 138.916 240.583 138.699 240.729 138.528C240.814 138.441 240.916 138.374 241.029 138.329C241.142 138.285 241.264 138.266 241.385 138.272L243.964 138.343L242.753 136.42C242.638 136.23 242.575 136.014 242.567 135.793C242.564 135.674 242.585 135.556 242.629 135.446C242.673 135.335 242.74 135.235 242.824 135.152C242.904 135.07 242.999 135.006 243.104 134.961C243.209 134.917 243.322 134.895 243.436 134.895C243.596 134.893 243.753 134.938 243.887 135.024C244.021 135.11 244.127 135.234 244.192 135.38L245.445 137.616L246.642 135.479C246.717 135.313 246.837 135.171 246.988 135.068C247.139 134.965 247.315 134.905 247.497 134.895C247.609 134.895 247.72 134.918 247.822 134.962C247.925 135.006 248.018 135.071 248.095 135.152C248.179 135.23 248.245 135.325 248.289 135.431C248.333 135.536 248.355 135.65 248.352 135.764C248.35 135.967 248.291 136.164 248.181 136.334L246.927 138.343L249.534 138.272C249.656 138.265 249.777 138.284 249.89 138.328C250.003 138.372 250.106 138.441 250.19 138.528C250.336 138.699 250.417 138.916 250.417 139.141C250.417 139.366 250.336 139.583 250.19 139.754C250.106 139.841 250.003 139.909 249.89 139.954C249.777 139.998 249.656 140.017 249.534 140.01H246.899L248.067 141.834C248.199 142.054 248.272 142.304 248.281 142.56C248.285 142.676 248.265 142.791 248.224 142.899C248.182 143.006 248.119 143.105 248.038 143.187C247.963 143.267 247.873 143.331 247.773 143.375C247.672 143.419 247.564 143.443 247.454 143.444C247.277 143.441 247.105 143.387 246.958 143.289C246.812 143.19 246.697 143.051 246.628 142.888L245.445 140.794L244.263 142.888C244.193 143.055 244.076 143.199 243.927 143.302C243.779 143.406 243.603 143.465 243.422 143.472Z" fill="black"/>
<path d="M256.558 143.472C256.447 143.472 256.336 143.449 256.233 143.405C256.13 143.361 256.037 143.297 255.96 143.216C255.876 143.132 255.809 143.032 255.765 142.922C255.721 142.811 255.7 142.693 255.704 142.575C255.703 142.374 255.758 142.177 255.86 142.005L257.143 140.01H254.521C254.4 140.016 254.279 139.997 254.166 139.952C254.053 139.908 253.95 139.84 253.866 139.754C253.719 139.583 253.639 139.366 253.639 139.141C253.639 138.916 253.719 138.699 253.866 138.528C253.95 138.441 254.053 138.374 254.166 138.329C254.279 138.285 254.4 138.266 254.521 138.272L257.1 138.343L255.889 136.42C255.775 136.23 255.711 136.014 255.704 135.793C255.7 135.674 255.721 135.556 255.765 135.446C255.809 135.335 255.876 135.235 255.96 135.152C256.04 135.07 256.135 135.006 256.24 134.961C256.346 134.917 256.459 134.895 256.573 134.895C256.732 134.893 256.889 134.938 257.023 135.024C257.157 135.11 257.263 135.234 257.328 135.38L258.582 137.616L259.778 135.479C259.854 135.313 259.973 135.171 260.124 135.068C260.275 134.965 260.451 134.905 260.633 134.895C260.745 134.895 260.856 134.918 260.959 134.962C261.062 135.006 261.154 135.071 261.232 135.152C261.315 135.23 261.381 135.325 261.425 135.431C261.47 135.536 261.491 135.65 261.488 135.764C261.486 135.967 261.427 136.164 261.317 136.334L260.063 138.343L262.671 138.272C262.792 138.265 262.913 138.284 263.026 138.328C263.14 138.372 263.242 138.441 263.326 138.528C263.472 138.699 263.553 138.916 263.553 139.141C263.553 139.366 263.472 139.583 263.326 139.754C263.242 139.841 263.14 139.909 263.026 139.954C262.913 139.998 262.792 140.017 262.671 140.01H260.035L261.203 141.834C261.335 142.054 261.408 142.304 261.417 142.56C261.421 142.676 261.402 142.791 261.36 142.899C261.318 143.006 261.255 143.105 261.175 143.187C261.1 143.267 261.009 143.331 260.909 143.375C260.808 143.419 260.7 143.443 260.59 143.444C260.414 143.439 260.243 143.385 260.096 143.286C259.95 143.188 259.835 143.05 259.764 142.888L258.582 140.794L257.399 142.888C257.329 143.055 257.212 143.199 257.064 143.302C256.915 143.406 256.74 143.465 256.558 143.472Z" fill="black"/>
<path d="M269.58 143.472C269.468 143.472 269.358 143.449 269.255 143.405C269.152 143.361 269.059 143.297 268.982 143.216C268.898 143.132 268.831 143.032 268.787 142.922C268.743 142.811 268.722 142.693 268.726 142.575C268.732 142.375 268.786 142.18 268.882 142.005L270.165 140.01H267.543C267.422 140.016 267.301 139.997 267.188 139.952C267.075 139.908 266.972 139.84 266.888 139.754C266.741 139.583 266.661 139.366 266.661 139.141C266.661 138.916 266.741 138.699 266.888 138.528C266.972 138.441 267.075 138.374 267.188 138.329C267.301 138.285 267.422 138.266 267.543 138.272L270.122 138.343L268.911 136.42C268.796 136.23 268.733 136.014 268.726 135.793C268.722 135.674 268.743 135.556 268.787 135.446C268.831 135.335 268.898 135.235 268.982 135.152C269.062 135.07 269.157 135.006 269.262 134.961C269.368 134.917 269.481 134.895 269.595 134.895C269.754 134.893 269.911 134.938 270.045 135.024C270.179 135.11 270.285 135.234 270.35 135.38L271.604 137.616L272.8 135.479C272.876 135.313 272.995 135.171 273.146 135.068C273.297 134.965 273.473 134.905 273.655 134.895C273.767 134.893 273.879 134.915 273.982 134.96C274.085 135.004 274.177 135.069 274.254 135.152C274.337 135.23 274.403 135.325 274.447 135.431C274.491 135.536 274.513 135.65 274.51 135.764C274.508 135.967 274.449 136.164 274.339 136.334L273.085 138.343L275.693 138.272C275.814 138.265 275.935 138.284 276.048 138.328C276.162 138.372 276.264 138.441 276.348 138.528C276.494 138.699 276.575 138.916 276.575 139.141C276.575 139.366 276.494 139.583 276.348 139.754C276.264 139.841 276.162 139.909 276.048 139.954C275.935 139.998 275.814 140.017 275.693 140.01H273.057L274.225 141.834C274.357 142.054 274.43 142.304 274.439 142.56C274.443 142.676 274.423 142.791 274.382 142.899C274.34 143.006 274.277 143.105 274.197 143.187C274.122 143.267 274.031 143.331 273.931 143.375C273.83 143.419 273.722 143.443 273.612 143.444C273.436 143.439 273.265 143.385 273.118 143.286C272.972 143.188 272.857 143.05 272.786 142.888L271.604 140.794L270.421 142.888C270.351 143.055 270.234 143.199 270.086 143.302C269.937 143.406 269.762 143.465 269.58 143.472Z" fill="black"/>
<path d="M282.66 143.472C282.548 143.472 282.437 143.449 282.334 143.405C282.232 143.361 282.139 143.297 282.062 143.216C281.977 143.132 281.911 143.032 281.867 142.922C281.823 142.811 281.802 142.693 281.805 142.575C281.812 142.375 281.865 142.18 281.962 142.005L283.244 140.01H280.637C280.513 140.017 280.39 139.998 280.274 139.954C280.159 139.91 280.054 139.841 279.967 139.754C279.821 139.583 279.74 139.366 279.74 139.141C279.74 138.916 279.821 138.699 279.967 138.528C280.054 138.44 280.159 138.372 280.274 138.328C280.39 138.284 280.513 138.264 280.637 138.272L283.201 138.343L281.99 136.42C281.876 136.23 281.812 136.014 281.805 135.793C281.802 135.674 281.823 135.556 281.867 135.446C281.911 135.335 281.977 135.235 282.062 135.152C282.141 135.07 282.237 135.006 282.342 134.961C282.447 134.917 282.56 134.895 282.674 134.895C282.834 134.893 282.99 134.938 283.125 135.024C283.259 135.11 283.365 135.234 283.429 135.38L284.683 137.616L285.88 135.479C285.955 135.313 286.075 135.171 286.226 135.068C286.376 134.965 286.552 134.905 286.735 134.895C286.847 134.893 286.958 134.915 287.061 134.96C287.164 135.004 287.257 135.069 287.333 135.152C287.417 135.23 287.483 135.325 287.527 135.431C287.571 135.536 287.592 135.65 287.59 135.764C287.588 135.967 287.528 136.164 287.419 136.334L286.165 138.343L288.772 138.272C288.893 138.265 289.015 138.284 289.128 138.328C289.241 138.372 289.343 138.441 289.428 138.528C289.574 138.699 289.654 138.916 289.654 139.141C289.654 139.366 289.574 139.583 289.428 139.754C289.343 139.841 289.241 139.909 289.128 139.954C289.015 139.998 288.893 140.017 288.772 140.01H286.136L287.305 141.834C287.436 142.054 287.51 142.304 287.518 142.56C287.522 142.676 287.503 142.791 287.461 142.899C287.42 143.006 287.357 143.105 287.276 143.187C287.201 143.267 287.111 143.331 287.01 143.375C286.91 143.419 286.802 143.443 286.692 143.444C286.516 143.439 286.344 143.385 286.198 143.286C286.051 143.188 285.936 143.05 285.866 142.888L284.683 140.794L283.501 142.888C283.43 143.055 283.314 143.199 283.165 143.302C283.016 143.406 282.841 143.465 282.66 143.472Z" fill="black"/>
<path d="M295.739 143.472C295.627 143.472 295.516 143.449 295.414 143.405C295.311 143.361 295.218 143.297 295.141 143.216C295.056 143.132 294.99 143.032 294.946 142.922C294.902 142.811 294.881 142.693 294.884 142.575C294.884 142.374 294.938 142.177 295.041 142.005L296.323 140.01H293.702C293.58 140.016 293.459 139.997 293.346 139.952C293.233 139.908 293.131 139.84 293.046 139.754C292.9 139.583 292.819 139.366 292.819 139.141C292.819 138.916 292.9 138.699 293.046 138.528C293.131 138.441 293.233 138.374 293.346 138.329C293.459 138.285 293.58 138.266 293.702 138.272L296.28 138.343L295.027 136.491C294.912 136.301 294.849 136.085 294.841 135.864C294.838 135.745 294.859 135.627 294.903 135.517C294.947 135.407 295.014 135.307 295.098 135.223C295.178 135.141 295.273 135.077 295.378 135.033C295.484 134.989 295.597 134.966 295.711 134.966C295.87 134.964 296.027 135.009 296.161 135.095C296.295 135.181 296.401 135.305 296.466 135.451L297.719 137.688L298.916 135.551C298.992 135.384 299.111 135.242 299.262 135.139C299.413 135.036 299.589 134.976 299.771 134.966C299.883 134.965 299.995 134.987 300.098 135.031C300.201 135.075 300.293 135.14 300.369 135.223C300.453 135.301 300.519 135.396 300.563 135.502C300.607 135.607 300.629 135.721 300.626 135.836C300.624 136.038 300.565 136.235 300.455 136.405L299.201 138.414L301.808 138.343C301.93 138.336 302.051 138.355 302.164 138.399C302.277 138.444 302.38 138.512 302.464 138.6C302.61 138.77 302.691 138.987 302.691 139.212C302.691 139.437 302.61 139.654 302.464 139.825C302.38 139.912 302.277 139.981 302.164 140.025C302.051 140.069 301.93 140.088 301.808 140.081H299.173L300.341 141.905C300.473 142.125 300.546 142.375 300.555 142.632C300.559 142.747 300.539 142.862 300.498 142.97C300.456 143.078 300.393 143.176 300.312 143.258C300.237 143.338 300.147 143.402 300.047 143.446C299.946 143.491 299.838 143.514 299.728 143.515C299.552 143.511 299.381 143.456 299.234 143.358C299.088 143.259 298.973 143.121 298.902 142.959L297.719 140.865L296.537 142.959C296.46 143.107 296.346 143.232 296.206 143.322C296.066 143.412 295.905 143.464 295.739 143.472Z" fill="black"/>
<path d="M308.818 143.472C308.706 143.472 308.595 143.449 308.493 143.405C308.39 143.361 308.297 143.297 308.22 143.216C308.135 143.132 308.069 143.032 308.025 142.922C307.981 142.811 307.96 142.693 307.963 142.575C307.97 142.375 308.024 142.18 308.12 142.005L309.402 140.01H306.795C306.673 140.019 306.551 140.001 306.438 139.956C306.325 139.912 306.223 139.843 306.14 139.754C305.984 139.587 305.898 139.368 305.898 139.141C305.898 138.913 305.984 138.695 306.14 138.528C306.223 138.439 306.325 138.37 306.438 138.325C306.551 138.281 306.673 138.263 306.795 138.272L309.359 138.343L308.148 136.42C308.034 136.23 307.97 136.014 307.963 135.793C307.959 135.676 307.979 135.56 308.021 135.451C308.063 135.343 308.126 135.243 308.207 135.16C308.289 135.076 308.386 135.009 308.493 134.964C308.6 134.919 308.716 134.895 308.832 134.895C308.992 134.893 309.149 134.938 309.283 135.024C309.417 135.11 309.523 135.234 309.587 135.38L310.841 137.616L312.038 135.479C312.113 135.313 312.233 135.171 312.384 135.068C312.534 134.965 312.711 134.905 312.893 134.895C313.005 134.892 313.117 134.913 313.221 134.957C313.324 135.001 313.416 135.068 313.491 135.152C313.575 135.23 313.641 135.325 313.685 135.431C313.729 135.536 313.751 135.65 313.748 135.764C313.746 135.967 313.687 136.164 313.577 136.334L312.323 138.343L314.93 138.272C315.052 138.265 315.173 138.284 315.286 138.328C315.399 138.372 315.501 138.441 315.586 138.528C315.732 138.699 315.813 138.916 315.813 139.141C315.813 139.366 315.732 139.583 315.586 139.754C315.501 139.841 315.399 139.909 315.286 139.954C315.173 139.998 315.052 140.017 314.93 140.01H312.294L313.463 141.834C313.595 142.054 313.668 142.304 313.676 142.56C313.68 142.673 313.662 142.785 313.622 142.89C313.583 142.995 313.523 143.091 313.446 143.173C313.37 143.255 313.277 143.321 313.175 143.368C313.073 143.414 312.962 143.44 312.85 143.444C312.674 143.439 312.502 143.385 312.356 143.286C312.209 143.188 312.094 143.05 312.024 142.888L310.841 140.794L309.659 142.888C309.588 143.055 309.472 143.199 309.323 143.302C309.174 143.406 308.999 143.465 308.818 143.472Z" fill="black"/>
<path d="M321.897 143.472C321.785 143.472 321.675 143.449 321.572 143.405C321.469 143.361 321.376 143.297 321.299 143.216C321.215 143.132 321.148 143.032 321.104 142.922C321.06 142.811 321.039 142.693 321.042 142.575C321.049 142.375 321.103 142.18 321.199 142.005L322.481 140.01H319.86C319.741 140.017 319.621 139.998 319.511 139.953C319.4 139.909 319.3 139.841 319.219 139.754C319.063 139.587 318.977 139.368 318.977 139.141C318.977 138.913 319.063 138.695 319.219 138.528C319.3 138.441 319.4 138.373 319.511 138.329C319.621 138.284 319.741 138.265 319.86 138.272L322.439 138.343L321.228 136.42C321.113 136.23 321.05 136.014 321.042 135.793C321.039 135.676 321.058 135.56 321.1 135.451C321.142 135.343 321.205 135.243 321.287 135.16C321.368 135.076 321.465 135.009 321.572 134.964C321.679 134.919 321.795 134.895 321.911 134.895C322.071 134.893 322.228 134.938 322.362 135.024C322.496 135.11 322.602 135.234 322.667 135.38L323.92 137.616L325.117 135.479C325.192 135.313 325.312 135.171 325.463 135.068C325.614 134.965 325.79 134.905 325.972 134.895C326.084 134.892 326.196 134.913 326.3 134.957C326.403 135.001 326.495 135.068 326.57 135.152C326.654 135.23 326.72 135.325 326.764 135.431C326.808 135.536 326.83 135.65 326.827 135.764C326.825 135.967 326.766 136.164 326.656 136.334L325.402 138.343L328.009 138.272C328.131 138.265 328.252 138.284 328.365 138.328C328.478 138.372 328.58 138.441 328.665 138.528C328.811 138.699 328.892 138.916 328.892 139.141C328.892 139.366 328.811 139.583 328.665 139.754C328.58 139.841 328.478 139.909 328.365 139.954C328.252 139.998 328.131 140.017 328.009 140.01H325.374L326.542 141.834C326.674 142.054 326.747 142.304 326.756 142.56C326.759 142.673 326.741 142.785 326.702 142.89C326.662 142.995 326.602 143.091 326.526 143.173C326.449 143.255 326.357 143.321 326.254 143.368C326.152 143.414 326.042 143.44 325.929 143.444C325.753 143.439 325.581 143.385 325.435 143.286C325.289 143.188 325.173 143.05 325.103 142.888L323.92 140.794L322.738 142.888C322.668 143.055 322.551 143.199 322.402 143.302C322.254 143.406 322.078 143.465 321.897 143.472Z" fill="black"/>
<path d="M334.92 143.472C334.808 143.472 334.697 143.449 334.594 143.405C334.491 143.361 334.398 143.297 334.321 143.216C334.237 143.132 334.171 143.032 334.127 142.922C334.082 142.811 334.061 142.693 334.065 142.575C334.071 142.375 334.125 142.18 334.222 142.005L335.504 140.01H332.882C332.763 140.017 332.644 139.998 332.533 139.953C332.422 139.909 332.323 139.841 332.241 139.754C332.086 139.587 332 139.368 332 139.141C332 138.913 332.086 138.695 332.241 138.528C332.323 138.441 332.422 138.373 332.533 138.329C332.644 138.284 332.763 138.265 332.882 138.272L335.461 138.343L334.25 136.42C334.136 136.23 334.072 136.014 334.065 135.793C334.061 135.674 334.082 135.556 334.127 135.446C334.171 135.335 334.237 135.235 334.321 135.152C334.401 135.07 334.496 135.006 334.602 134.961C334.707 134.917 334.82 134.895 334.934 134.895C335.093 134.893 335.25 134.938 335.384 135.024C335.519 135.11 335.625 135.234 335.689 135.38L336.943 137.616L338.14 135.479C338.215 135.313 338.334 135.171 338.485 135.068C338.636 134.965 338.812 134.905 338.994 134.895C339.107 134.892 339.219 134.913 339.322 134.957C339.425 135.001 339.518 135.068 339.593 135.152C339.676 135.23 339.742 135.325 339.786 135.431C339.831 135.536 339.852 135.65 339.849 135.764C339.847 135.967 339.788 136.164 339.678 136.334L338.424 138.343L341.032 138.272C341.153 138.265 341.274 138.284 341.388 138.328C341.501 138.372 341.603 138.441 341.687 138.528C341.834 138.699 341.914 138.916 341.914 139.141C341.914 139.366 341.834 139.583 341.687 139.754C341.603 139.841 341.501 139.909 341.388 139.954C341.274 139.998 341.153 140.017 341.032 140.01H338.396L339.564 141.834C339.696 142.054 339.77 142.304 339.778 142.56C339.782 142.676 339.763 142.791 339.721 142.899C339.679 143.006 339.616 143.105 339.536 143.187C339.461 143.267 339.37 143.331 339.27 143.375C339.17 143.419 339.061 143.443 338.952 143.444C338.775 143.439 338.604 143.385 338.457 143.286C338.311 143.188 338.196 143.05 338.125 142.888L336.943 140.794L335.76 142.888C335.69 143.055 335.574 143.199 335.425 143.302C335.276 143.406 335.101 143.465 334.92 143.472Z" fill="black"/>
<path d="M379.742 174.988H397.167" stroke="white" stroke-width="3" stroke-linecap="round" stroke-linejoin="round"/>
<path d="M138.062 46.689V162.421C138.062 165.773 139.393 168.987 141.763 171.357C144.133 173.727 147.348 175.059 150.7 175.059H363.201" stroke="white" stroke-width="3" stroke-linecap="round" stroke-linejoin="round"/>
<path d="M138.062 15.9999V33.3533" stroke="white" stroke-width="3" stroke-linecap="round" stroke-linejoin="round"/>
</svg>
