<svg width="191" height="44" viewBox="0 0 191 44" fill="none" xmlns="http://www.w3.org/2000/svg">
<path d="M22.5937 43.8476C34.6598 43.8476 44.4414 34.0661 44.4414 22C44.4414 9.93386 34.6598 0.152344 22.5937 0.152344C10.5276 0.152344 0.746094 9.93386 0.746094 22C0.746094 34.0661 10.5276 43.8476 22.5937 43.8476Z" fill="#02AFD9"/>
<path fill-rule="evenodd" clip-rule="evenodd" d="M9.96621 26.9012C10.2154 30.4732 12.4583 33.2145 16.6119 33.4638C20.5993 33.6299 24.5036 33.6299 28.491 33.4638C32.1461 33.2145 34.8875 30.4732 35.1367 26.9012C35.3028 25.0736 35.3859 23.246 35.3028 21.4185C34.389 16.4342 30.2355 16.2681 29.9032 16.2681H29.8201H15.8642C15.3658 16.2681 14.9505 15.8527 14.9505 15.3543C14.9505 14.8559 15.3658 14.5236 15.8642 14.5236H29.9032C29.7371 11.2008 26.082 10.5362 24.3375 10.4531H23.4237C21.1808 10.3701 18.8548 10.4531 16.6119 10.6193C12.3753 10.9515 10.2154 13.5267 9.96621 17.1819C9.71699 20.4216 9.71699 23.6614 9.96621 26.9012ZM30.9831 24.9905V26.2366C30.9831 26.6519 30.6509 26.9842 30.1524 26.9842C29.7371 26.9842 29.4048 26.6519 29.4048 26.2366V24.9905C28.9894 24.7413 28.7402 24.409 28.7402 23.9106C28.7402 23.246 29.4048 22.6645 30.1524 22.6645C30.9001 22.6645 31.5646 23.246 31.5646 23.9106C31.5646 24.409 31.3154 24.7413 30.9831 24.9905Z" fill="#FEFEFE"/>
<path fill-rule="evenodd" clip-rule="evenodd" d="M154.698 20.0063V23.9937C154.698 23.9937 153.286 26.652 148.634 27.2334C143.982 27.898 143.982 24.9905 144.315 24.2429C144.647 23.4953 145.727 22.4984 149.631 21.8338C153.702 21.1693 154.698 20.0063 154.698 20.0063ZM160.181 16.185V31.6362H155.114V29.1441C153.452 30.6394 151.126 32.0516 147.887 32.2177C137.752 32.4669 133.848 21.2523 146.142 17.9295C149.05 17.0988 151.874 17.348 153.369 16.6004C154.366 16.0189 154.615 15.1051 153.951 14.2744C151.459 10.9516 145.478 12.2807 143.816 16.8496L138.749 15.6035C140.078 10.5362 144.148 8.29329 149.05 7.79486C154.283 7.29644 160.181 10.1208 160.181 16.185ZM64.2343 13.4437C60.5792 13.4437 57.5887 16.4342 57.5887 20.1724C57.5887 23.8275 60.5792 26.8181 64.2343 26.8181C67.8894 26.8181 70.88 23.8275 70.88 20.1724C70.88 16.4342 67.8894 13.4437 64.2343 13.4437ZM77.3595 8.5425H70.88V11.0346C68.8863 9.29014 66.228 8.21022 63.2375 8.21022C56.7579 8.21022 51.4414 13.6098 51.4414 20.2555C51.4414 26.9842 56.7579 32.3838 63.2375 32.3838C66.228 32.3838 68.8863 31.3039 70.88 29.5594V31.8023C70.88 35.3744 68.3048 38.1988 64.7327 38.1988C61.7422 38.1988 59.3331 37.6173 57.3394 35.2913L53.1859 39.0295C56.5918 42.6846 59.9977 43.8476 64.8158 43.8476C71.7938 43.8476 77.3595 39.1126 77.3595 31.1378V27.6488V8.5425ZM190.253 8.12715H183.441L176.629 22.9968L168.821 8.12715H161.926L173.223 29.3102L167.242 41.6047H174.137L190.253 8.12715ZM123.215 13.4437C126.953 13.4437 129.943 16.4342 129.943 20.1724C129.943 23.8275 126.953 26.8181 123.215 26.8181C119.56 26.8181 116.569 23.8275 116.569 20.1724C116.569 16.4342 119.56 13.4437 123.215 13.4437ZM110.173 8.5425H116.569V11.0346C118.646 9.29014 121.304 8.21022 124.211 8.21022C130.691 8.21022 136.008 13.6098 136.008 20.2555C136.008 26.9842 130.691 32.3838 124.211 32.3838C121.304 32.3838 118.646 31.3039 116.569 29.5594V41.6047H110.173V8.5425ZM93.0599 13.2775C97.1304 13.2775 100.37 16.4342 100.37 20.2555C100.37 24.1598 97.1304 27.3165 93.0599 27.3165C89.0725 27.3165 85.8327 24.1598 85.8327 20.2555C85.8327 16.4342 89.0725 13.2775 93.0599 13.2775ZM93.0599 7.71179C100.204 7.71179 106.019 13.3606 106.019 20.2555C106.019 27.2334 100.204 32.8823 93.0599 32.8823C85.9158 32.8823 80.1009 27.2334 80.1009 20.2555C80.1009 13.3606 85.9158 7.71179 93.0599 7.71179Z" fill="#1D1819"/>
</svg>
