<svg width="697" height="555" viewBox="0 0 697 555" fill="none" xmlns="http://www.w3.org/2000/svg">
<path d="M94.1584 452.503C94.1584 452.503 81.6187 438.876 89.0311 430.976C96.4435 423.076 102.128 434.78 102.128 434.78C102.128 434.78 92.5562 417.684 102.128 412.236C111.7 406.788 114.292 420.596 114.292 420.596C114.292 420.596 111.826 402.664 124.658 401.661C137.49 400.658 134.829 415.496 134.829 415.496C134.829 415.496 142.436 401.145 152.398 407.137C162.361 413.128 153.959 425.877 153.959 425.877C153.959 425.877 162.834 416.486 167.892 423.299C172.95 430.112 164.882 436.243 164.882 436.243C164.882 436.243 174.482 433.177 175.917 442.095C177.353 451.012 168.338 452.461 168.338 452.461L94.1584 452.503Z" fill="#E0E0E0"/>
<path d="M470.478 452.503C470.478 452.503 451.278 431.715 462.661 419.663C474.045 407.611 482.655 425.459 482.655 425.459C482.655 425.459 468.04 399.362 482.655 391.044C497.271 382.726 501.2 403.863 501.2 403.863C501.2 403.863 497.438 376.415 517.014 374.91C536.59 373.405 532.536 396.032 532.536 396.032C532.536 396.032 544.156 374.13 559.357 383.325C574.558 392.521 561.753 411.944 561.753 411.944C561.753 411.944 575.282 397.607 582.987 408.001C590.692 418.395 578.375 427.744 578.375 427.744C578.375 427.744 593.033 423.076 595.234 436.675C597.436 450.273 583.656 452.489 583.656 452.489L470.478 452.503Z" fill="#F0F0F0"/>
<path d="M325 368.542H335.951L358.356 304.032H347.404L325 368.542Z" fill="#E6E6E6"/>
<path d="M178.969 368.542H189.92L212.324 304.032H201.373L178.969 368.542Z" fill="#E6E6E6"/>
<path d="M627.057 452.503H64.832V469.543H627.057V452.503Z" fill="#F5F5F5"/>
<path d="M130.54 452.503H64.832V469.543H130.54V452.503Z" fill="#E0E0E0"/>
<path d="M261.97 452.503H196.262V469.543H261.97V452.503Z" fill="#E0E0E0"/>
<path d="M393.4 452.503H327.691V469.543H393.4V452.503Z" fill="#E0E0E0"/>
<path d="M524.829 452.503H459.121V469.543H524.829V452.503Z" fill="#E0E0E0"/>
<path d="M627.055 452.503H590.551V469.543H627.055V452.503Z" fill="#E0E0E0"/>
<path d="M569.584 194.087H524.246C524.045 192.412 524.448 190.72 525.383 189.315C526.318 187.911 527.722 186.886 529.345 186.424C535.378 184.208 538.192 187.538 538.192 187.538C537.458 186.659 537.056 185.549 537.056 184.403C537.056 183.257 537.458 182.148 538.192 181.268C540.7 177.646 547.681 179.875 547.681 179.875C547.681 179.875 545.633 175.807 550.161 172.087C554.689 168.366 561.391 172.087 561.391 172.087C561.391 172.087 561.92 164.855 570.768 166.012C579.615 167.168 578.64 173.118 578.64 173.118C578.64 173.118 581.037 170.986 586.164 173.396C587.55 173.92 588.725 174.886 589.506 176.146C590.287 177.406 590.631 178.888 590.483 180.363C590.483 180.363 593.103 177.13 598.634 179.234C604.165 181.338 602.647 185.755 602.647 185.755C602.647 185.755 608.944 182.968 612.163 186.438C616.022 190.617 613.027 194.101 613.027 194.101L569.584 194.087Z" fill="#E6E6E6"/>
<path d="M332.999 176.949H287.689C287.485 175.276 287.885 173.584 288.817 172.179C289.75 170.774 291.153 169.748 292.774 169.286C298.807 167.071 301.622 170.401 301.622 170.401C300.891 169.517 300.492 168.406 300.492 167.259C300.492 166.112 300.891 165.001 301.622 164.117C304.144 160.508 311.124 162.724 311.124 162.724C311.124 162.724 309.062 158.655 313.59 154.935C318.118 151.215 324.834 154.935 324.834 154.935C324.834 154.935 325.364 147.718 334.211 148.874C343.059 150.031 342.083 155.98 342.083 155.98C342.083 155.98 344.466 153.848 349.593 156.259C350.981 156.782 352.158 157.748 352.941 159.007C353.724 160.267 354.071 161.749 353.926 163.225C353.926 163.225 356.532 159.979 362.063 162.083C367.595 164.187 366.09 168.617 366.09 168.617C366.09 168.617 372.374 165.831 375.592 169.3C379.466 173.48 376.456 176.963 376.456 176.963L332.999 176.949Z" fill="#E6E6E6"/>
<path d="M426.658 88.6418H406.386C404.891 88.6747 403.47 89.2934 402.427 90.3646C401.385 91.4357 400.805 92.8736 400.813 94.3683V109.123C400.822 109.83 400.976 110.527 401.266 111.172C401.556 111.816 401.975 112.394 402.498 112.87C403.02 113.345 403.635 113.708 404.304 113.936C404.973 114.164 405.681 114.252 406.386 114.195H409.451L407.904 120.019L413.478 114.195H426.644C429.696 114.195 432.482 112.175 432.482 109.123V94.3683C432.419 92.8531 431.782 91.4185 430.701 90.3552C429.62 89.2919 428.174 88.6794 426.658 88.6418Z" fill="#E6E6E6"/>
<path d="M293.374 82.2744H214.277C213.901 79.3025 214.584 76.2931 216.208 73.7754C217.831 71.2577 220.29 69.3928 223.152 68.5086C233.685 64.6492 238.604 70.2642 238.604 70.2642C238.604 70.2642 234.215 65.5269 238.604 59.2153C242.992 52.9036 255.17 56.6795 255.17 56.6795C255.17 56.6795 251.589 49.5597 259.489 43.0669C267.389 36.5741 279.093 43.0669 279.093 43.0669C279.093 43.0669 280.013 30.4575 295.464 32.4639C310.916 34.4703 309.202 44.8782 309.202 44.8782C309.202 44.8782 313.382 41.1442 322.313 45.3659C331.244 49.5876 329.851 57.5433 329.851 57.5433C329.851 57.5433 334.393 51.8726 344.146 55.537C353.899 59.2014 351.113 66.8784 351.113 66.8784C351.113 66.8784 362.106 62.3363 367.707 68.4529C374.464 75.8234 369.212 82.2187 369.212 82.2187L293.374 82.2744Z" fill="#E6E6E6"/>
<path d="M150.337 151.647H81.7172C81.7172 151.647 80.3239 143.385 89.4222 140.041C98.5204 136.697 102.826 141.727 102.826 141.727C102.826 141.727 99.022 137.7 102.826 132.224C106.629 126.749 117.205 130.065 117.205 130.065C117.205 130.065 114.098 123.906 120.939 118.277C127.78 112.648 137.951 118.277 137.951 118.277C137.951 118.277 138.759 107.34 152.149 109.096C165.538 110.851 164.075 119.852 164.075 119.852C164.075 119.852 167.684 116.619 175.445 120.27C183.205 123.92 181.993 130.845 181.993 130.845C181.993 130.845 185.95 125.927 194.324 129.117C202.698 132.308 200.413 138.996 200.413 138.996C200.413 138.996 209.943 134.732 214.805 140.041C220.657 146.436 216.101 151.647 216.101 151.647H150.337Z" fill="#E6E6E6"/>
<path d="M456.458 258.457H411.134C410.93 256.784 411.33 255.092 412.263 253.687C413.195 252.282 414.598 251.256 416.22 250.794C422.253 248.579 425.067 251.909 425.067 251.909C424.335 251.028 423.934 249.919 423.934 248.774C423.934 247.629 424.335 246.52 425.067 245.639C427.575 242.016 434.555 244.246 434.555 244.246C434.555 244.246 432.507 240.177 437.036 236.457C441.564 232.737 448.266 236.457 448.266 236.457C448.266 236.457 448.795 229.226 457.656 230.382C466.518 231.539 465.529 237.488 465.529 237.488C465.529 237.488 467.911 235.356 473.038 237.767C474.425 238.29 475.6 239.257 476.381 240.517C477.162 241.776 477.505 243.259 477.358 244.733C477.358 244.733 479.977 241.501 485.509 243.605C491.04 245.709 489.535 250.125 489.535 250.125C489.535 250.125 495.819 247.339 499.038 250.808C502.911 254.988 499.901 258.471 499.901 258.471L456.458 258.457Z" fill="#E6E6E6"/>
<path d="M345.944 368.542H108.637V384.356H345.944V368.542Z" fill="#F0F0F0"/>
<path d="M362.971 346.625H151.23V362.439H362.971V346.625Z" fill="#F0F0F0"/>
<path d="M381.236 314.998H169.496V330.812H381.236V314.998Z" fill="#F0F0F0"/>
<path d="M393.414 288.218H181.66V304.032H393.414V288.218Z" fill="#F0F0F0"/>
<path d="M129.326 384.356H118.375V452.503H129.326V384.356Z" fill="#F0F0F0"/>
<path d="M129.326 384.356H118.375V397.746H129.326V384.356Z" fill="#E6E6E6"/>
<path d="M343.506 384.356H332.555V452.503H343.506V384.356Z" fill="#F0F0F0"/>
<path d="M343.506 384.356H332.555V397.746H343.506V384.356Z" fill="#E6E6E6"/>
<path d="M696.651 470.1H0V470.448H696.651V470.1Z" fill="#EBEBEB"/>
<path d="M626.845 492.518H580.699V492.867H626.845V492.518Z" fill="#EBEBEB"/>
<path d="M461.491 496.308H449.383V496.656H461.491V496.308Z" fill="#EBEBEB"/>
<path d="M579.308 479.588H552.57V479.937H579.308V479.588Z" fill="#EBEBEB"/>
<path d="M133.27 481.929H73.0938V482.278H133.27V481.929Z" fill="#EBEBEB"/>
<path d="M154.503 481.929H145.684V482.278H154.503V481.929Z" fill="#EBEBEB"/>
<path d="M313.704 487.809H183.18V488.157H313.704V487.809Z" fill="#EBEBEB"/>
<path d="M330.213 407.959H61.1801C59.0725 407.955 57.0525 407.115 55.5635 405.624C54.0746 404.132 53.2383 402.111 53.2383 400.003V21.8192C53.2566 19.7237 54.101 17.7201 55.588 16.2435C57.075 14.7669 59.0845 13.9367 61.1801 13.9331H330.213C332.323 13.9331 334.346 14.7713 335.838 16.2633C337.33 17.7553 338.169 19.7789 338.169 21.8889V400.003C338.169 402.113 337.33 404.137 335.838 405.629C334.346 407.121 332.323 407.959 330.213 407.959ZM61.1801 14.2118C59.1649 14.2155 57.2335 15.0186 55.8098 16.4448C54.3862 17.8711 53.5866 19.804 53.5866 21.8192V400.003C53.5866 402.018 54.3862 403.951 55.8098 405.377C57.2335 406.804 59.1649 407.607 61.1801 407.611H330.213C332.229 407.607 334.162 406.804 335.588 405.378C337.014 403.952 337.817 402.02 337.82 400.003V21.8192C337.817 19.8027 337.014 17.8699 335.588 16.444C334.162 15.0181 332.229 14.2154 330.213 14.2118H61.1801Z" fill="#EBEBEB"/>
<path d="M631.596 407.959H362.549C360.441 407.955 358.419 407.116 356.928 405.625C355.437 404.133 354.597 402.112 354.594 400.003V21.8192C354.616 19.7224 355.463 17.7188 356.952 16.2426C358.442 14.7665 360.453 13.9367 362.549 13.9331H631.596C633.689 13.9404 635.695 14.7722 637.179 16.2484C638.663 17.7246 639.506 19.7261 639.524 21.8192V400.003C639.524 402.108 638.69 404.128 637.204 405.619C635.718 407.11 633.701 407.951 631.596 407.959ZM362.549 14.2118C360.533 14.2154 358.6 15.0181 357.174 16.444C355.748 17.8699 354.946 19.8027 354.942 21.8192V400.003C354.946 402.02 355.748 403.952 357.174 405.378C358.6 406.804 360.533 407.607 362.549 407.611H631.596C633.613 407.607 635.545 406.804 636.971 405.378C638.397 403.952 639.2 402.02 639.203 400.003V21.8192C639.2 19.8027 638.397 17.8699 636.971 16.444C635.545 15.0181 633.613 14.2154 631.596 14.2118H362.549Z" fill="#EBEBEB"/>
<path d="M618.474 542.566C618.474 549.044 497.522 554.283 348.327 554.283C199.132 554.283 78.1797 549.044 78.1797 542.566C78.1797 536.087 199.132 530.848 348.327 530.848C497.522 530.848 618.474 536.101 618.474 542.566Z" fill="#F5F5F5"/>
<path d="M605.961 32.269H628.379C628.379 32.269 626.54 45.1431 609.277 48.7657L605.961 32.269Z" fill="#263238"/>
<path d="M605.961 66.4048H628.379C628.379 66.4048 626.54 79.2789 609.277 82.9433L605.961 66.4048Z" fill="#263238"/>
<path d="M605.961 100.541H628.379C628.379 100.541 626.54 113.415 609.277 117.079L605.961 100.541Z" fill="#263238"/>
<path opacity="0.1" d="M605.961 32.269H628.379C628.379 32.269 626.54 45.1431 609.277 48.7657L605.961 32.269Z" fill="white"/>
<path opacity="0.1" d="M605.961 66.4048H628.379C628.379 66.4048 626.54 79.2789 609.277 82.9433L605.961 66.4048Z" fill="white"/>
<path opacity="0.1" d="M605.961 100.541H628.379C628.379 100.541 626.54 113.415 609.277 117.079L605.961 100.541Z" fill="white"/>
<path d="M606.086 19.5061H564.287C560.439 19.5061 557.32 22.6251 557.32 26.4726V136.543C557.32 140.391 560.439 143.51 564.287 143.51H606.086C609.933 143.51 613.052 140.391 613.052 136.543V26.4726C613.052 22.6251 609.933 19.5061 606.086 19.5061Z" fill="#263238"/>
<path opacity="0.1" d="M582.4 19.5061H564.287C560.439 19.5061 557.32 22.6251 557.32 26.4726V136.543C557.32 140.391 560.439 143.51 564.287 143.51H582.4C586.247 143.51 589.366 140.391 589.366 136.543V26.4726C589.366 22.6251 586.247 19.5061 582.4 19.5061Z" fill="white"/>
<path d="M560.805 12.0938H566.127C567.855 12.0974 569.512 12.7856 570.734 14.0077C571.956 15.2297 572.644 16.8861 572.648 18.6144V151.995C572.644 153.723 571.956 155.38 570.734 156.602C569.512 157.824 567.855 158.512 566.127 158.516H560.805" stroke="#92E3A9" stroke-width="5" stroke-miterlimit="10"/>
<path d="M581.091 494.817C580.732 494.323 580.26 493.922 579.715 493.645C579.17 493.369 578.567 493.227 577.956 493.229H543.653C543.042 493.227 542.44 493.369 541.895 493.645C541.35 493.922 540.878 494.323 540.518 494.817L528.383 511.342H593.227L581.091 494.817Z" fill="#92E3A9"/>
<path d="M565.679 4.87656C565.679 3.58321 565.165 2.34284 564.251 1.42831C563.336 0.51378 562.096 0 560.802 0C559.509 0 558.269 0.51378 557.354 1.42831C556.44 2.34284 555.926 3.58321 555.926 4.87656C555.934 5.11 555.958 5.34268 555.995 5.57321H555.926V493.229H565.679V5.57321C565.693 5.34122 565.693 5.10855 565.679 4.87656Z" fill="#92E3A9"/>
<path d="M560.804 50.6465H553.517C552.306 50.6538 551.147 51.1401 550.294 51.9989C549.44 52.8578 548.961 54.0195 548.961 55.2304V161.414C548.961 162.015 549.08 162.611 549.31 163.166C549.541 163.721 549.879 164.226 550.304 164.65C550.73 165.075 551.236 165.411 551.792 165.64C552.348 165.869 552.944 165.986 553.545 165.984H560.832" stroke="#92E3A9" stroke-width="5" stroke-miterlimit="10"/>
<path d="M572.647 64.0918H529.455C525.607 64.0918 522.488 67.2108 522.488 71.0583V147.69C522.488 151.537 525.607 154.656 529.455 154.656H572.647C576.495 154.656 579.614 151.537 579.614 147.69V71.0583C579.614 67.2108 576.495 64.0918 572.647 64.0918Z" fill="#263238"/>
<path opacity="0.2" d="M572.647 64.0918H529.455C525.607 64.0918 522.488 67.2108 522.488 71.0583V147.69C522.488 151.537 525.607 154.656 529.455 154.656H572.647C576.495 154.656 579.614 151.537 579.614 147.69V71.0583C579.614 67.2108 576.495 64.0918 572.647 64.0918Z" fill="white"/>
<path opacity="0.1" d="M565.681 64.0918H529.455C525.607 64.0918 522.488 67.2108 522.488 71.0583V147.69C522.488 151.537 525.607 154.656 529.455 154.656H565.681C569.528 154.656 572.647 151.537 572.647 147.69V71.0583C572.647 67.2108 569.528 64.0918 565.681 64.0918Z" fill="white"/>
<path d="M548.516 109.263C557.342 109.263 564.498 102.108 564.498 93.2815C564.498 84.4553 557.342 77.3003 548.516 77.3003C539.69 77.3003 532.535 84.4553 532.535 93.2815C532.535 102.108 539.69 109.263 548.516 109.263Z" fill="#92E3A9"/>
<path d="M532.535 130.162C532.522 133.326 533.447 136.423 535.195 139.06C536.942 141.697 539.433 143.756 542.352 144.976C545.271 146.197 548.487 146.523 551.591 145.914C554.696 145.306 557.55 143.789 559.792 141.557C562.034 139.325 563.563 136.477 564.185 133.375C564.808 130.273 564.495 127.057 563.288 124.132C562.08 121.208 560.032 118.708 557.402 116.949C554.773 115.19 551.68 114.251 548.516 114.251C544.29 114.251 540.236 115.925 537.241 118.907C534.246 121.889 532.554 125.936 532.535 130.162Z" fill="#92E3A9"/>
<path opacity="0.6" d="M532.535 130.162C532.522 133.326 533.447 136.423 535.195 139.06C536.942 141.697 539.433 143.756 542.352 144.976C545.271 146.197 548.487 146.523 551.591 145.914C554.696 145.306 557.55 143.789 559.792 141.557C562.034 139.325 563.563 136.477 564.185 133.375C564.808 130.273 564.495 127.057 563.288 124.132C562.08 121.208 560.032 118.708 557.402 116.949C554.773 115.19 551.68 114.251 548.516 114.251C544.29 114.251 540.236 115.925 537.241 118.907C534.246 121.889 532.554 125.936 532.535 130.162Z" fill="white"/>
<path d="M546.871 121.217C546.868 121.629 546.988 122.032 547.215 122.376C547.442 122.72 547.766 122.988 548.146 123.147C548.526 123.305 548.945 123.348 549.349 123.268C549.753 123.188 550.124 122.99 550.415 122.699C550.706 122.408 550.904 122.037 550.984 121.633C551.064 121.229 551.021 120.81 550.862 120.43C550.704 120.051 550.435 119.726 550.092 119.499C549.748 119.272 549.345 119.153 548.933 119.155C548.387 119.159 547.865 119.377 547.479 119.763C547.093 120.149 546.875 120.672 546.871 121.217Z" fill="#92E3A9"/>
<path d="M549.782 124.505L550.813 125.899C551.441 126.923 552.364 127.734 553.46 128.225L555.871 129.312L555.481 130.19L552.443 129.452C551.493 129.2 550.618 128.722 549.894 128.058L549.336 133.13L548.403 134.816C547.38 136.67 546.062 138.345 544.501 139.776L543.652 140.556L543.916 142.493L541.715 140.013L542.203 139.553C544.224 137.677 545.817 135.386 546.87 132.837L548.152 123.753L549.782 124.505Z" fill="#92E3A9"/>
<path d="M549.991 133.701L548.793 135.721L554.492 141.601L555.871 139.121L554.296 139.665L549.991 133.701Z" fill="#92E3A9"/>
<path d="M547.568 124.227L546.913 127.264C545.278 127.682 543.761 128.474 542.483 129.577L541.758 130.204L541.215 129.605L543.458 127.236C544.075 126.58 544.773 126.004 545.534 125.523L547.568 124.227Z" fill="#92E3A9"/>
<g opacity="0.6">
<path d="M548.515 85.5766C549.654 85.5766 550.577 84.6533 550.577 83.5145C550.577 82.3756 549.654 81.4524 548.515 81.4524C547.376 81.4524 546.453 82.3756 546.453 83.5145C546.453 84.6533 547.376 85.5766 548.515 85.5766Z" fill="white"/>
<path d="M546.591 88.7811C545.395 89.7983 544.463 91.0888 543.874 92.5431L543.525 93.393H542.801L543.233 91.3448C543.481 90.2353 543.914 89.1755 544.515 88.2099L545.309 86.942C545.512 86.6201 545.794 86.3553 546.128 86.1725C546.462 85.9897 546.837 85.8949 547.218 85.897H549.809C550.19 85.8949 550.565 85.9897 550.899 86.1725C551.233 86.3553 551.515 86.6201 551.718 86.942L552.512 88.2099C553.124 89.1695 553.558 90.2314 553.794 91.3448L554.24 93.393H553.501L553.153 92.5431C552.563 91.0888 551.631 89.7983 550.436 88.7811V92.348L552.387 105.18L553.78 105.877H551.105L548.444 96.291L545.852 105.891H543.191L544.584 105.194L546.549 92.3619V88.7951L546.591 88.7811Z" fill="white"/>
</g>
<path d="M368.32 549.602L341.262 554.283H25.8047L30.3051 553.433H30.319L52.8905 549.602H368.32Z" fill="#92E3A9"/>
<path d="M422.339 540.225L395.323 544.906H80.0742L107.258 540.225H422.339Z" fill="#92E3A9"/>
<path d="M476.386 530.848L449.369 535.543H134.441L161.625 530.848H476.386Z" fill="#92E3A9"/>
<path opacity="0.6" d="M368.32 549.602L341.262 554.283H25.8047L30.3051 553.433H30.319L52.8905 549.602H368.32Z" fill="white"/>
<path opacity="0.6" d="M422.339 540.225L395.323 544.906H80.0742L107.258 540.225H422.339Z" fill="white"/>
<path opacity="0.6" d="M476.386 530.848L449.369 535.543H134.441L161.625 530.848H476.386Z" fill="white"/>
<path d="M367.833 523.533L356.199 524.773L354.012 499.68L365.646 498.454L367.833 523.533Z" fill="#B97964"/>
<path opacity="0.2" d="M365.646 498.454L354.012 499.68L355.14 512.624L366.788 511.384L365.646 498.454Z" fill="black"/>
<path d="M429.179 476.23L420.721 483.685L402.762 464.694L411.233 457.24L429.179 476.23Z" fill="#B97964"/>
<path opacity="0.2" d="M411.235 457.254L402.777 464.708L412.043 474.489L420.514 467.035L411.235 457.254Z" fill="black"/>
<path d="M376.971 388.606C383.158 409.282 419.509 456.641 419.509 456.641L403.5 472.65C394.248 461.503 368.5 428.259 368.5 428.259C363.874 463.287 371.189 506.396 371.189 506.396L348.478 507.928C336.175 478.808 340.94 425.361 343.644 403.235C344.41 396.98 345.037 393.218 345.037 393.218C339.909 382.071 339.464 362.161 340.787 341.777C342.538 319.116 345.632 296.58 350.053 274.285L408.571 275.066C408.181 289.305 407.805 313.549 399.334 333.947C390.862 354.345 376.971 388.606 376.971 388.606Z" fill="#92E3A9"/>
<path opacity="0.6" d="M376.971 388.606C383.158 409.282 419.509 456.641 419.509 456.641L403.5 472.65C394.248 461.503 368.5 428.259 368.5 428.259C363.874 463.287 371.189 506.396 371.189 506.396L348.478 507.928C336.175 478.808 340.94 425.361 343.644 403.235C344.41 396.98 345.037 393.218 345.037 393.218C339.909 382.071 339.464 362.161 340.787 341.777C342.538 319.116 345.632 296.58 350.053 274.285L408.571 275.066C408.181 289.305 407.805 313.549 399.334 333.947C390.862 354.345 376.971 388.606 376.971 388.606Z" fill="white"/>
<path d="M354.958 521.095H368.654C368.879 521.096 369.097 521.174 369.272 521.316C369.446 521.458 369.568 521.655 369.615 521.875L371.845 531.907C371.932 532.339 371.846 532.788 371.607 533.157C371.367 533.527 370.992 533.788 370.563 533.885C370.438 533.899 370.311 533.899 370.186 533.885C365.756 533.885 362.537 533.551 356.964 533.551C353.537 533.551 343.198 533.899 338.475 533.899C333.752 533.899 333.125 529.232 335.061 528.8C343.742 526.905 350.29 524.285 353.063 521.833C353.579 521.357 354.256 521.093 354.958 521.095Z" fill="#263238"/>
<path d="M351.24 523.004C350.471 523.068 349.704 522.867 349.066 522.432C348.867 522.263 348.712 522.048 348.615 521.805C348.517 521.562 348.481 521.299 348.509 521.039C348.504 520.884 348.545 520.731 348.627 520.6C348.708 520.468 348.828 520.364 348.969 520.301C350.223 519.646 353.859 521.889 354.263 522.14C354.309 522.165 354.346 522.204 354.369 522.252C354.391 522.299 354.398 522.353 354.389 522.404C354.382 522.457 354.36 522.506 354.325 522.546C354.291 522.585 354.245 522.614 354.194 522.627C353.226 522.862 352.236 522.989 351.24 523.004ZM349.554 520.663C349.433 520.664 349.314 520.692 349.206 520.746C349.206 520.746 349.053 520.844 349.039 521.053C349.015 521.231 349.036 521.411 349.099 521.579C349.162 521.747 349.266 521.896 349.401 522.014C350.664 522.59 352.098 522.665 353.414 522.223C352.241 521.456 350.93 520.926 349.554 520.663Z" fill="#92E3A9"/>
<path d="M354.108 522.6H353.983C352.827 521.973 350.569 519.492 350.806 518.308C350.845 518.11 350.95 517.931 351.105 517.802C351.26 517.672 351.454 517.6 351.656 517.598C351.861 517.567 352.069 517.583 352.267 517.643C352.464 517.703 352.646 517.807 352.799 517.946C354.095 519.005 354.373 522.251 354.387 522.404C354.389 522.453 354.378 522.502 354.356 522.546C354.335 522.59 354.302 522.627 354.262 522.655C354.206 522.655 354.151 522.636 354.108 522.6ZM351.851 518.029H351.726C351.378 518.029 351.35 518.225 351.336 518.308C351.196 519.033 352.618 520.914 353.788 521.791C353.691 520.498 353.205 519.265 352.395 518.252C352.242 518.122 352.052 518.043 351.851 518.029Z" fill="#92E3A9"/>
<path d="M418.686 483.74L428.968 474.684C429.141 474.541 429.358 474.463 429.582 474.463C429.805 474.463 430.022 474.541 430.195 474.684L438.554 480.745C438.907 481.008 439.142 481.401 439.207 481.836C439.272 482.272 439.163 482.716 438.903 483.072L438.652 483.336C435.28 486.22 432.675 488.143 428.495 491.821C425.931 494.093 418.407 501.198 414.854 504.361C411.301 507.524 407.748 504.361 408.919 502.787C414.186 495.625 417.362 489.327 417.794 485.621C417.837 484.903 418.157 484.229 418.686 483.74Z" fill="#263238"/>
<path d="M417.196 487.656C416.666 488.208 415.963 488.562 415.203 488.659C414.93 488.669 414.658 488.609 414.414 488.485C414.17 488.361 413.962 488.176 413.81 487.948C413.708 487.832 413.641 487.689 413.616 487.536C413.591 487.383 413.61 487.227 413.671 487.084C414.172 485.775 418.394 485.05 418.854 484.98C418.905 484.967 418.958 484.969 419.008 484.987C419.058 485.004 419.101 485.036 419.133 485.078C419.159 485.124 419.174 485.177 419.174 485.231C419.174 485.285 419.159 485.338 419.133 485.384C418.575 486.212 417.925 486.974 417.196 487.656ZM414.409 487.015C414.313 487.085 414.241 487.182 414.2 487.293C414.2 487.293 414.2 487.474 414.284 487.642C414.381 487.793 414.515 487.917 414.673 488.003C414.832 488.088 415.01 488.132 415.189 488.129C416.518 487.727 417.64 486.829 418.324 485.621C416.936 485.839 415.602 486.322 414.395 487.042L414.409 487.015Z" fill="#92E3A9"/>
<path d="M419.092 485.482L418.994 485.566C417.712 485.858 414.382 485.482 413.769 484.437C413.666 484.264 413.627 484.059 413.66 483.86C413.693 483.661 413.796 483.48 413.951 483.35C414.082 483.193 414.246 483.066 414.431 482.98C414.616 482.893 414.819 482.848 415.023 482.849C416.709 482.849 419.05 485.036 419.203 485.148C419.224 485.189 419.235 485.234 419.235 485.28C419.235 485.326 419.224 485.371 419.203 485.412C419.174 485.446 419.135 485.471 419.092 485.482ZM414.368 483.545L414.285 483.629C414.02 483.852 414.132 484.019 414.173 484.089C414.55 484.73 416.863 485.189 418.353 485.078C417.45 484.165 416.287 483.552 415.023 483.322C414.784 483.307 414.549 483.387 414.368 483.545Z" fill="#92E3A9"/>
<path opacity="0.2" d="M384.007 405.716C377.535 413.955 373.474 423.828 372.276 434.236C369.963 430.656 368.5 428.259 368.5 428.259C368.5 428.259 369.336 407.429 376.971 388.606C378.862 394.486 381.214 400.207 384.007 405.716Z" fill="black"/>
<path opacity="0.2" d="M343.727 402.581C344.451 396.715 345.008 393.218 345.008 393.218C344.576 397.523 344.145 399.376 343.727 402.581Z" fill="black"/>
<path opacity="0.2" d="M374.797 293.987C374.045 295.45 350.052 342.446 345.023 393.19C342.333 387.338 340.926 379.089 340.383 369.643C346.708 347.698 356.684 313.883 374.797 293.987Z" fill="black"/>
<path d="M405.603 476.37L424.203 460.681L419.508 455.122L399.918 471.033L405.603 476.37Z" fill="#92E3A9"/>
<path opacity="0.6" d="M405.603 476.37L424.203 460.681L419.508 455.122L399.918 471.033L405.603 476.37Z" fill="#92E3A9"/>
<g opacity="0.4">
<path d="M424.189 460.681L422.559 462.06L416.066 467.55L405.617 476.37L399.918 471.033L402.119 469.264L418.198 456.195L419.508 455.122L424.189 460.681Z" fill="white"/>
<path opacity="0.6" d="M424.189 460.681L422.559 462.06L416.066 467.55L405.617 476.37L399.918 471.033L402.119 469.264L418.198 456.195L419.508 455.122L424.189 460.681Z" fill="white"/>
</g>
<path d="M347.436 511.188L372.501 507.454L371.735 500.516L345.652 503.943L347.436 511.188Z" fill="#92E3A9"/>
<path opacity="0.6" d="M347.436 511.188L372.501 507.454L371.735 500.516L345.652 503.943L347.436 511.188Z" fill="#92E3A9"/>
<g opacity="0.4">
<path d="M347.432 511.188L372.497 507.454L371.731 500.516L345.648 503.943L347.432 511.188Z" fill="white"/>
<path opacity="0.6" d="M347.432 511.188L372.497 507.454L371.731 500.516L345.648 503.943L347.432 511.188Z" fill="white"/>
</g>
<path d="M493.229 83.5979H487.656V143.51H493.229V83.5979Z" fill="#92E3A9"/>
<path d="M444.267 188.347L464.094 197.041C465.194 196.706 475.853 149.446 475.853 149.446L485.439 150.156C485.439 150.156 479.49 202.349 472.537 209.218C466.824 214.861 440.031 200.064 440.031 200.064L444.267 188.347Z" fill="#EBB376"/>
<path d="M398.707 195.062C399.443 194.989 400.185 194.989 400.922 195.062C406.296 195.669 411.628 196.6 416.889 197.849C425.199 199.772 433.321 202.43 441.161 205.791L447.821 186.702C447.821 186.702 410.787 166.123 403.012 166.235C403.012 166.235 392.548 195.996 398.707 195.062Z" fill="#92E3A9"/>
<path opacity="0.2" d="M400.922 195.062C406.295 195.669 411.628 196.6 416.889 197.849C414.729 188.514 403.235 180.878 403.235 180.878L400.922 195.062Z" fill="black"/>
<path d="M478.531 142.479C478.531 142.479 480.51 137.672 482.711 136.906C484.913 136.139 498.846 135.234 500.113 136.752C501.381 138.271 500.754 149.431 498.065 150.685C495.376 151.939 483.171 150.866 482.042 150.295L478.531 142.479Z" fill="#B97964"/>
<path d="M338.488 171.446C338.488 171.446 340.258 180.335 342.417 193.251C343.393 199.089 344.438 205.791 345.455 212.757C345.455 212.757 345.455 212.827 345.455 212.855C346.695 221.507 347.865 230.717 348.743 239.676C349.692 248.934 350.157 258.235 350.136 267.542H408.752C408.752 267.542 409.602 252.982 409.477 233.838C409.477 225.074 409.17 215.363 408.544 205.637C407.638 191.565 405.952 177.479 402.97 166.263C403.012 166.235 368.528 158.488 338.488 171.446Z" fill="#92E3A9"/>
<path d="M358.078 166.151C363.414 171 376.484 169.203 376.484 169.203C376.484 169.203 384.648 166.973 382.935 164.424C378.114 163.629 375.801 161.386 374.84 158.516C374.313 156.737 374.147 154.871 374.352 153.026C374.432 151.998 374.567 150.975 374.756 149.961L358.635 137.937C360.739 145.893 363.345 160.425 358.078 166.151Z" fill="#EBB376"/>
<path opacity="0.2" d="M362.371 145.6C363.012 155.353 370.982 157.972 374.911 158.516C374.384 156.737 374.219 154.87 374.423 153.026L362.371 145.6Z" fill="black"/>
<path d="M385.833 112.439C385.833 112.439 390.445 126.999 383.437 133.98C376.429 140.96 372.012 113.206 372.012 113.206L385.833 112.439Z" fill="#263238"/>
<path d="M360.196 146.77C360.814 147.732 361.528 148.628 362.327 149.445C364.372 151.638 367.08 153.098 370.036 153.601C372.991 154.105 376.03 153.624 378.685 152.232C382.156 150.497 384.84 147.509 386.195 143.872C386.376 143.371 386.543 142.855 386.682 142.326C387.006 141.042 387.248 139.739 387.407 138.424C388.675 128.769 386.557 115.909 377.292 111.952C374.957 110.964 372.409 110.59 369.889 110.866C367.369 111.142 364.962 112.058 362.896 113.528C360.83 114.997 359.175 116.97 358.088 119.26C357.001 121.55 356.518 124.08 356.685 126.609C357.047 135.777 356.949 141.754 360.196 146.77Z" fill="#EBB376"/>
<path d="M373.057 129.856C372.987 130.72 373.503 131.458 374.088 131.458C374.673 131.458 375.133 130.747 375.147 129.87C375.161 128.992 374.701 128.267 374.13 128.253C373.559 128.239 373.071 128.95 373.057 129.856Z" fill="#263238"/>
<path d="M383.048 129.981C382.964 130.859 383.494 131.583 384.065 131.583C384.636 131.583 385.124 130.873 385.138 129.995C385.152 129.117 384.678 128.393 384.107 128.393C383.535 128.393 383.062 129.145 383.048 129.981Z" fill="#263238"/>
<path d="M379.87 130.371C380.886 133.088 382.269 135.652 383.981 137.992C383.377 138.406 382.691 138.685 381.97 138.81C381.248 138.935 380.509 138.903 379.801 138.717L379.87 130.371Z" fill="#D58745"/>
<path d="M370.005 126.581C370.098 126.591 370.192 126.579 370.279 126.545C370.367 126.511 370.444 126.456 370.506 126.386C370.893 125.862 371.396 125.435 371.977 125.14C372.558 124.845 373.199 124.69 373.85 124.686C373.987 124.697 374.123 124.654 374.227 124.565C374.332 124.476 374.397 124.349 374.408 124.213C374.419 124.076 374.375 123.94 374.286 123.836C374.197 123.731 374.071 123.666 373.934 123.655C373.121 123.646 372.318 123.831 371.591 124.195C370.864 124.558 370.234 125.09 369.754 125.745C369.667 125.851 369.626 125.986 369.639 126.122C369.652 126.258 369.719 126.383 369.824 126.47C369.878 126.516 369.939 126.553 370.005 126.581Z" fill="#263238"/>
<path d="M387.34 126.595C387.44 126.623 387.546 126.623 387.646 126.595C387.77 126.538 387.866 126.434 387.913 126.306C387.96 126.178 387.954 126.037 387.897 125.913C387.562 125.16 387.052 124.498 386.41 123.982C385.768 123.466 385.012 123.111 384.205 122.945C384.137 122.935 384.068 122.939 384.002 122.956C383.936 122.973 383.873 123.004 383.819 123.045C383.764 123.087 383.719 123.139 383.685 123.198C383.65 123.257 383.628 123.323 383.62 123.391C383.607 123.525 383.644 123.658 383.723 123.766C383.803 123.874 383.92 123.949 384.052 123.976C384.688 124.121 385.282 124.414 385.785 124.83C386.289 125.246 386.688 125.774 386.95 126.373C387.046 126.495 387.186 126.575 387.34 126.595Z" fill="#263238"/>
<path d="M364.765 113.178L365.518 117.929C364.723 118.344 364.113 119.043 363.808 119.887C363.504 120.73 363.527 121.658 363.874 122.485C365.56 126.442 363.497 132.768 360.502 135.359C360.502 135.359 360.349 133.617 358.886 134.077C357.423 134.537 358.147 143.594 361.171 147.829C361.171 147.829 356.698 144.067 353.925 134.621C351.348 125.899 350.818 118.57 352.532 115.114L364.765 113.178Z" fill="#263238"/>
<path d="M352.73 116.48C352.73 116.48 347.895 109.012 360.909 105.083C373.922 101.154 382.979 106.741 382.979 106.741C382.979 106.741 391.436 116.856 380.192 118.514C369.143 120.117 352.73 116.48 352.73 116.48Z" fill="#263238"/>
<path d="M379.52 141.991C378.921 143.558 378.432 145.164 378.057 146.798H377.179C373.18 146.506 371.411 145.043 370.686 143.524C370.339 142.77 370.181 141.942 370.226 141.114C370.229 140.642 370.3 140.172 370.435 139.72C372.47 141.114 376.176 141.699 378.168 141.922C378.976 141.977 379.52 141.991 379.52 141.991Z" fill="#263238"/>
<path d="M378.797 142.117L378.338 143.51C374.91 143.343 371.636 142.409 370.535 141.183C370.536 140.694 370.666 140.213 370.911 139.79C373.344 141.119 376.033 141.913 378.797 142.117Z" fill="white"/>
<path d="M377.18 146.743C373.182 146.45 371.412 144.987 370.688 143.468C372.204 143.61 373.685 144.016 375.062 144.667C375.968 145.12 376.709 145.846 377.18 146.743Z" fill="#DE5753"/>
<path d="M352.854 133.59C352.259 134.157 351.494 134.515 350.677 134.608C349.859 134.701 349.034 134.524 348.326 134.105C346.069 132.545 347.281 129.229 347.281 129.229C346.435 129.61 345.481 129.679 344.588 129.424C343.695 129.169 342.922 128.606 342.405 127.835C340.315 125.049 343.101 121.914 343.101 121.914C341.963 121.447 340.991 120.652 340.308 119.629C339.625 118.606 339.264 117.403 339.27 116.173C339.265 115.631 339.372 115.093 339.582 114.593C339.793 114.093 340.103 113.642 340.495 113.266C340.886 112.89 341.35 112.599 341.858 112.408C342.366 112.218 342.908 112.134 343.45 112.161C342.849 111.948 342.302 111.604 341.85 111.155C341.398 110.705 341.052 110.16 340.836 109.56C340.62 108.961 340.54 108.32 340.601 107.685C340.663 107.051 340.865 106.438 341.192 105.891C343.45 101.363 347.629 104.149 347.629 104.149C347.629 104.149 344.676 97.8793 349.204 95.9704C349.748 95.6734 350.348 95.4917 350.966 95.4367C351.583 95.3816 352.206 95.4544 352.794 95.6505C353.382 95.8466 353.924 96.1618 354.385 96.5764C354.846 96.991 355.217 97.4962 355.474 98.0604C355.474 98.0604 354.944 91.7905 360.866 91.0939C366.787 90.3972 367.484 94.7443 367.484 94.7443C367.484 94.7443 370.452 89.1711 374.799 90.5644C375.357 90.6855 375.884 90.9196 376.348 91.2523C376.812 91.585 377.203 92.0092 377.497 92.4987C377.79 92.9883 377.981 93.5328 378.056 94.0988C378.131 94.6647 378.09 95.24 377.934 95.7893C379.069 95.2569 380.336 95.0719 381.575 95.2579C382.815 95.4438 383.972 95.9923 384.9 96.8343C388.216 99.802 385.43 102.408 385.43 102.408C385.43 102.408 389.429 102.059 390.125 106.769C390.822 111.478 388.035 111.464 388.035 111.464C388.969 111.875 389.755 112.564 390.286 113.436C390.816 114.308 391.067 115.322 391.003 116.341C390.822 120.005 388.384 119.475 388.384 119.475C389.119 120.029 389.675 120.786 389.985 121.653C390.294 122.52 390.343 123.458 390.125 124.352C389.261 127.32 387.171 126.971 387.171 126.971C387.171 126.971 385.081 119.127 382.643 116.689C380.205 114.251 362.259 116.689 362.259 116.689L360.002 129.577L352.854 133.59Z" fill="#263238"/>
<path d="M350.79 135.596C351.963 138.066 354.068 139.97 356.642 140.891C360.056 142.075 362.007 139.079 361.254 135.721C360.558 132.754 357.966 128.462 354.441 128.755C350.916 129.048 349.397 132.545 350.79 135.596Z" fill="#EBB376"/>
<path d="M349.064 267.514H409.631V274.773L348.465 273.993L349.064 267.514Z" fill="#263238"/>
<path d="M392.021 264.56H389.875V277.281H392.021V264.56Z" fill="#92E3A9"/>
<path d="M359.458 264.379H357.312V277.1H359.458V264.379Z" fill="#92E3A9"/>
<path d="M380.705 266.357H369.559V274.383H380.705V266.357Z" fill="white"/>
<path opacity="0.6" d="M392.021 264.56H389.875V277.281H392.021V264.56Z" fill="white"/>
<path opacity="0.6" d="M359.458 264.379H357.312V277.1H359.458V264.379Z" fill="white"/>
<path d="M332.86 232.472C332.86 232.472 330.728 248.091 318.44 257.329C306.151 266.567 270.761 254.696 270.761 254.696L265.188 244.162C265.188 244.162 305.273 250.223 309.662 247.297C314.051 244.371 318.022 231.427 318.022 231.427L332.86 232.472Z" fill="#EBB376"/>
<path d="M346.472 210.389C346.472 210.389 341.818 218.748 331.717 243.507L313.492 235.886C313.492 235.886 334.74 175.528 338.488 171.446C338.488 171.446 345.023 173.996 346.472 210.389Z" fill="#92E3A9"/>
<path d="M474.183 149.613C474.183 149.613 472.609 152.594 475.785 153.444C478.962 154.294 483.128 155.158 483.128 155.158C483.128 155.158 486.625 155.952 486.96 153.444L487.294 150.95C487.294 150.95 498.023 152.162 498.998 149.557C499.973 146.952 502.397 138.411 500.071 136.627C497.744 134.844 491.14 134.077 488.353 134.063C488.142 133.524 487.822 133.035 487.412 132.626C487.003 132.217 486.512 131.897 485.973 131.688C485.433 131.478 484.856 131.383 484.277 131.408C483.699 131.433 483.132 131.578 482.613 131.834C478.572 133.757 474.183 149.613 474.183 149.613Z" fill="#92E3A9"/>
<path opacity="0.6" d="M474.183 149.613C474.183 149.613 472.609 152.594 475.785 153.444C478.962 154.294 483.128 155.158 483.128 155.158C483.128 155.158 486.625 155.952 486.96 153.444L487.294 150.95C487.294 150.95 498.023 152.162 498.998 149.557C499.973 146.952 502.397 138.411 500.071 136.627C497.744 134.844 491.14 134.077 488.353 134.063C488.142 133.524 487.822 133.035 487.412 132.626C487.003 132.217 486.512 131.897 485.973 131.688C485.433 131.478 484.856 131.383 484.277 131.408C483.699 131.433 483.132 131.578 482.613 131.834C478.572 133.757 474.183 149.613 474.183 149.613Z" fill="white"/>
<path d="M376.289 280.054H345.539C347.264 257.55 347.218 234.946 345.399 212.451C345.399 212.451 355.905 210.625 351.53 193.209C347.155 175.793 344.926 167.907 344.926 167.907L355.752 164.744C355.752 164.744 354.581 176.545 372.012 176.308C372.012 176.308 378.463 249.401 376.289 280.054Z" fill="#92E3A9"/>
<path opacity="0.2" d="M376.289 280.054H345.539C347.264 257.55 347.218 234.946 345.399 212.451C345.399 212.451 355.905 210.625 351.53 193.209C347.155 175.793 344.926 167.907 344.926 167.907L355.752 164.744C355.752 164.744 354.581 176.545 372.012 176.308C372.012 176.308 378.463 249.401 376.289 280.054Z" fill="black"/>
<path d="M373.879 176.434C373.879 176.434 387.269 174.344 385.109 163.016C385.109 163.016 391.156 163.629 396.743 163.936C396.743 163.936 402.874 187.371 403.459 197.751C403.459 197.751 404.169 204.328 409.506 203.965C409.506 203.965 411.651 247.841 410.899 280.054H378.282C378.282 280.054 379.522 236.861 373.879 176.434Z" fill="#92E3A9"/>
<path opacity="0.2" d="M373.879 176.434C373.879 176.434 387.269 174.344 385.109 163.016C385.109 163.016 391.156 163.629 396.743 163.936C396.743 163.936 402.874 187.371 403.459 197.751C403.459 197.751 404.169 204.328 409.506 203.965C409.506 203.965 411.651 247.841 410.899 280.054H378.282C378.282 280.054 379.522 236.861 373.879 176.434Z" fill="black"/>
<path d="M380.749 186.215C380.749 186.215 373.322 187.483 369.045 187.608C364.767 187.734 366.161 190.242 366.258 192.178C366.356 194.115 366.829 196.358 369.853 196.052C372.876 195.745 378.937 195.425 380.749 194.993C382.56 194.561 384.789 194.212 383.925 191.078C383.061 187.943 383.396 185.783 380.749 186.215Z" fill="#92E3A9"/>
<path d="M384.121 242.713C384.121 242.713 376.583 243.02 372.333 242.713C368.084 242.407 369.129 244.956 369.031 246.893C368.934 248.83 369.031 251.073 372.111 251.198C375.19 251.324 381.195 251.728 383.034 251.547C384.873 251.366 387.214 251.282 386.698 248.063C386.183 244.845 386.796 242.63 384.121 242.713Z" fill="#92E3A9"/>
<path opacity="0.6" d="M384.121 242.713C384.121 242.713 376.583 243.02 372.333 242.713C368.084 242.407 369.129 244.956 369.031 246.893C368.934 248.83 369.031 251.073 372.111 251.198C375.19 251.324 381.195 251.728 383.034 251.547C384.873 251.366 387.214 251.282 386.698 248.063C386.183 244.845 386.796 242.63 384.121 242.713Z" fill="white"/>
<path d="M382.754 215.739C382.754 215.739 375.244 216.463 370.98 216.31C366.717 216.157 367.901 218.72 367.901 220.657C367.901 222.594 368.166 224.837 371.217 224.837C374.268 224.837 380.315 224.837 382.155 224.6C383.994 224.363 386.251 224.113 385.61 220.922C384.969 217.731 385.429 215.516 382.754 215.739Z" fill="#92E3A9"/>
<path opacity="0.6" d="M382.754 215.739C382.754 215.739 375.244 216.463 370.98 216.31C366.717 216.157 367.901 218.72 367.901 220.657C367.901 222.594 368.166 224.837 371.217 224.837C374.268 224.837 380.315 224.837 382.155 224.6C383.994 224.363 386.251 224.113 385.61 220.922C384.969 217.731 385.429 215.516 382.754 215.739Z" fill="white"/>
<path opacity="0.6" d="M380.749 186.215C380.749 186.215 373.322 187.483 369.045 187.608C364.767 187.734 366.161 190.242 366.258 192.178C366.356 194.115 366.829 196.358 369.853 196.052C372.876 195.745 378.937 195.425 380.749 194.993C382.56 194.561 384.789 194.212 383.925 191.078C383.061 187.943 383.396 185.783 380.749 186.215Z" fill="white"/>
<path opacity="0.2" d="M493.229 83.5979V96.5277L487.656 98.5062V83.5979H492.143H493.229Z" fill="black"/>
<path d="M462.575 56.7213C462.669 62.3141 464.412 67.7546 467.588 72.3595C470.763 76.9644 475.229 80.5283 480.423 82.6035C485.617 84.6788 491.309 85.1728 496.784 84.0237C502.258 82.8745 507.27 80.1334 511.192 76.1446C515.113 72.1557 517.769 67.0971 518.824 61.604C519.88 56.111 519.289 50.4284 517.126 45.2701C514.962 40.1119 511.323 35.7079 506.664 32.6114C502.006 29.5149 496.536 27.864 490.943 27.866C483.355 27.9322 476.104 31.0091 470.785 36.4202C465.465 41.8313 462.512 49.1335 462.575 56.7213Z" fill="#92E3A9"/>
<path opacity="0.6" d="M462.575 56.7213C462.669 62.3141 464.412 67.7546 467.588 72.3595C470.763 76.9644 475.229 80.5283 480.423 82.6035C485.617 84.6788 491.309 85.1728 496.784 84.0237C502.258 82.8745 507.27 80.1334 511.192 76.1446C515.113 72.1557 517.769 67.0971 518.824 61.604C519.88 56.111 519.289 50.4284 517.126 45.2701C514.962 40.1119 511.323 35.7079 506.664 32.6114C502.006 29.5149 496.536 27.864 490.943 27.866C483.355 27.9322 476.104 31.0091 470.785 36.4202C465.465 41.8313 462.512 49.1335 462.575 56.7213Z" fill="white"/>
<path d="M511.343 51.552H470.938V62.6984H511.343V51.552Z" fill="white"/>
<path d="M209.664 522.53L198.364 523.714L196.246 499.345L207.546 498.147L209.664 522.53Z" fill="#B97964"/>
<path d="M266.068 521.708H255.117L254.211 496.336H265.176L266.068 521.708Z" fill="#B97964"/>
<path d="M253.584 520.44H266.89C267.109 520.439 267.321 520.513 267.491 520.65C267.661 520.787 267.779 520.979 267.824 521.193L269.983 530.946C270.028 531.182 270.02 531.426 269.961 531.659C269.901 531.892 269.791 532.11 269.638 532.296C269.486 532.482 269.294 532.632 269.076 532.736C268.859 532.84 268.622 532.894 268.381 532.896C264.076 532.827 260.941 532.562 255.535 532.562C252.205 532.562 242.159 532.91 237.561 532.91C232.963 532.91 232.364 528.368 234.245 527.95C242.688 526.111 249.042 523.561 251.745 521.137C252.245 520.676 252.904 520.426 253.584 520.44Z" fill="#263238"/>
<path d="M197.166 520.092H210.472C210.691 520.09 210.903 520.164 211.073 520.301C211.243 520.439 211.361 520.63 211.406 520.844L213.565 530.597C213.61 530.834 213.602 531.077 213.543 531.311C213.483 531.544 213.373 531.761 213.22 531.947C213.068 532.133 212.876 532.284 212.658 532.387C212.441 532.491 212.204 532.546 211.963 532.548C207.658 532.478 204.523 532.213 199.117 532.213C195.787 532.213 185.741 532.562 181.143 532.562C176.545 532.562 175.946 528.02 177.827 527.602C186.27 525.763 192.624 523.213 195.327 520.788C195.827 520.327 196.486 520.078 197.166 520.092Z" fill="#263238"/>
<path opacity="0.2" d="M207.546 498.147L196.246 499.345L197.347 511.913L208.646 510.729L207.546 498.147Z" fill="black"/>
<path opacity="0.2" d="M265.176 496.35H254.211L254.685 509.433H265.65L265.176 496.35Z" fill="black"/>
<path d="M269.688 507.162H249.652C249.652 507.162 238.826 441.175 233.768 411.024C231.706 398.763 229.338 375.718 227.331 354.052L227.206 354.344C223.026 364.237 219.947 378.184 217.717 393.608C210.751 441.621 211.796 503.985 211.796 503.985L192.122 506.228C179.736 423.745 196.985 331.606 202.516 305.133H260.645C260.729 312.099 261.62 382.252 263.696 414.451C265.591 444.143 269.688 507.162 269.688 507.162Z" fill="#263238"/>
<path opacity="0.2" d="M227.333 354.01L227.207 354.303C223.027 364.195 219.948 378.142 217.719 393.566C217.231 395.865 216.813 397.746 216.534 399.139C214.222 358.037 225.535 328.081 225.535 328.081L227.333 354.01Z" fill="black"/>
<path d="M189.853 510.534L214.208 506.911L213.469 500.167L188.125 503.483L189.853 510.534Z" fill="#92E3A9"/>
<path d="M189.853 510.534L214.208 506.911L213.469 500.167L188.125 503.483L189.853 510.534Z" fill="#92E3A9"/>
<path d="M247.243 507.329H270.874V500.265L246.352 499.805L247.243 507.329Z" fill="#92E3A9"/>
<path d="M247.243 507.329H270.874V500.265L246.352 499.805L247.243 507.329Z" fill="#92E3A9"/>
<path d="M202.031 303.74H260.55V311.514L201.293 310.024L202.031 303.74Z" fill="#263238"/>
<path d="M241.738 302.764H239.648V313.479H241.738V302.764Z" fill="#92E3A9"/>
<path d="M212.133 302.764H210.043V313.479H212.133V302.764Z" fill="#92E3A9"/>
<path d="M228.697 304.422H217.871V311.18H228.697V304.422Z" fill="white"/>
<path d="M149.447 331.829V331.912L145.17 350.82L114.461 486.262L102.033 541.172C101.866 541.604 101.615 542.83 99.0653 542.83H98.6891C98.2141 542.832 97.7441 542.734 97.3096 542.541C96.8751 542.349 96.4859 542.068 96.1673 541.716C95.8222 541.174 95.6929 540.523 95.805 539.891L108.596 484.674L139.903 350.485L144.905 328.959V328.819C144.905 328.415 145.281 326.367 147.232 326.367C147.737 326.374 148.238 326.449 148.723 326.59C148.923 326.637 149.111 326.727 149.272 326.855C149.434 326.982 149.565 327.144 149.656 327.328C150.066 328.813 149.992 330.389 149.447 331.829Z" fill="#263238"/>
<path d="M114.461 486.262L102.033 541.172C101.866 541.604 101.615 542.83 99.0653 542.83H98.6891C98.2141 542.832 97.7441 542.734 97.3096 542.542C96.8751 542.349 96.4859 542.068 96.1673 541.716C95.8222 541.174 95.6929 540.523 95.805 539.891L108.679 484.604C110.418 485.676 112.418 486.25 114.461 486.262Z" fill="#92E3A9"/>
<path d="M149.447 331.829V331.912L144.905 351.711C143.01 351.711 141.658 352.213 139.875 350.415L144.905 328.959V328.819C144.905 328.415 145.281 326.367 147.232 326.367C147.736 326.374 148.238 326.449 148.722 326.59C148.923 326.637 149.111 326.727 149.272 326.855C149.433 326.982 149.565 327.144 149.656 327.328C150.065 328.813 149.992 330.389 149.447 331.829Z" fill="#92E3A9"/>
<path opacity="0.6" d="M149.447 331.829V331.912L144.905 351.711C143.01 351.711 141.658 352.213 139.875 350.415L144.905 328.959V328.819C144.905 328.415 145.281 326.367 147.232 326.367C147.736 326.374 148.238 326.449 148.722 326.59C148.923 326.637 149.111 326.727 149.272 326.855C149.433 326.982 149.565 327.144 149.656 327.328C150.065 328.813 149.992 330.389 149.447 331.829Z" fill="white"/>
<path d="M290.533 343.992C287.907 341.586 284.435 340.317 280.876 340.463C277.318 340.609 273.962 342.159 271.542 344.773C268.379 347.671 264.422 352.84 261.705 361.729C256.536 378.63 257.344 414.34 288.178 410.063C310.596 406.97 309.106 357.131 290.533 343.992ZM289.558 349.175C291.412 351.44 292.373 354.304 292.261 357.229C292.414 369.211 274.747 371.162 271.222 362.927C268.672 356.922 270.232 352.798 272.796 350.053C273.061 349.775 273.326 349.524 273.59 349.273C276.809 346.417 286.269 345.413 289.558 349.175Z" fill="#92E3A9"/>
<path opacity="0.2" d="M296.941 371.482C296.829 371.203 295.032 358.608 292.301 364.878C289.57 371.148 282.673 370.618 275.345 370.451C268.016 370.284 274.481 389.079 269.688 373.238C264.895 357.396 272.739 350.178 272.739 350.178L272.837 350.081C270.273 352.868 268.657 356.95 271.262 362.955C274.787 371.231 292.454 369.239 292.301 357.256C292.414 354.332 291.452 351.467 289.598 349.203C297.749 356.518 297.665 373.126 296.941 371.482Z" fill="black"/>
<path d="M149.991 314.496C149.991 314.496 143.512 317.826 141.882 321.058C141.419 322.063 141.18 323.157 141.18 324.263C141.18 325.369 141.419 326.463 141.882 327.468C141.524 328.008 141.385 328.665 141.493 329.304C141.602 329.944 141.95 330.517 142.467 330.909C144.32 332.679 140.642 338.029 142.606 340.035C144.571 342.042 142.927 340.035 142.927 340.035C142.927 340.035 144.682 341.637 147.232 336.134C149.782 330.63 147.873 338.698 147.873 338.698C148.084 339.306 148.517 339.811 149.087 340.111C149.656 340.411 150.318 340.484 150.938 340.314C153.502 339.966 149.782 337.067 151.983 333.807C154.185 330.547 159.047 330.449 161.096 324.235L149.991 314.496Z" fill="#B97964"/>
<path d="M290.535 343.992C290.594 345.776 290.276 347.551 289.601 349.203C287.442 354.177 282.105 354.776 279.305 354.776C276.825 354.776 274.916 351.99 273.732 349.343V349.245C273.088 347.86 272.557 346.424 272.143 344.954C271.971 344.886 271.803 344.807 271.642 344.717C267.002 342.265 272.923 335.591 275.64 332.874C276.365 332.149 276.867 331.703 276.867 331.703L288.403 333.097C288.542 333.501 288.682 333.905 288.807 334.295C289.879 337.419 290.462 340.69 290.535 343.992Z" fill="#B97964"/>
<path d="M214.29 234.144L214.206 234.493C214.206 234.493 208.633 254.375 203.701 268.977C199.061 282.659 198.128 285.223 190.98 293.582C189.587 295.185 188.04 296.996 186.159 299.156C174.511 312.503 162.278 325.294 162.278 325.294L147.871 312.657C147.871 312.657 172.519 288.093 177.13 283.592C181.742 279.092 188.193 259.154 188.193 259.154C188.193 259.154 198.392 217.466 204.69 206.208C204.756 206.069 204.83 205.934 204.913 205.804C204.906 205.883 204.906 205.962 204.913 206.041C205.489 206.267 206.107 206.362 206.724 206.32C210.424 206.452 214.1 206.975 217.689 207.88C217.689 207.88 219.891 211.907 214.29 234.144Z" fill="#92E3A9"/>
<path d="M214.29 234.144L214.207 234.493C214.207 234.493 208.634 254.375 203.701 268.977C199.062 282.659 198.128 285.223 190.98 293.583C195.287 283.919 197.654 273.505 197.947 262.93C198.184 245.806 200.859 216.045 204.677 206.097C204.743 205.958 204.817 205.823 204.9 205.693C205.502 205.641 206.108 205.641 206.711 205.693C208.912 208.995 211.88 220.741 214.29 234.144Z" fill="#92E3A9"/>
<path opacity="0.2" d="M214.29 234.144L214.207 234.493C214.207 234.493 208.634 254.375 203.701 268.977C199.062 282.659 198.128 285.223 190.98 293.583C195.287 283.919 197.654 273.505 197.947 262.93C198.184 245.806 200.859 216.045 204.677 206.097C204.743 205.958 204.817 205.823 204.9 205.693C205.502 205.641 206.108 205.641 206.711 205.693C208.912 208.995 211.88 220.741 214.29 234.144Z" fill="black"/>
<path d="M270.302 206.473L269.871 208.995C269.745 209.762 269.592 210.695 269.425 211.782C269.118 213.677 268.742 216.031 268.324 218.748C267.948 221.242 267.53 224.057 267.084 227.108C267.084 227.526 266.959 227.944 266.903 228.362C266.847 228.78 266.736 229.602 266.638 230.243C266.346 232.361 266.053 234.562 265.746 236.861L265.384 239.648C265.092 241.905 264.799 244.232 264.506 246.614C264.506 247.06 264.409 247.506 264.353 248.008C264.353 248.008 264.353 248.077 264.353 248.105C264.074 250.376 263.81 252.689 263.559 255.072C263.308 257.454 263.029 259.962 262.793 262.428C262.793 262.763 262.723 263.097 262.695 263.432L262.444 266.218C262.235 268.545 262.04 270.872 261.859 273.185C261.859 273.798 261.762 274.397 261.72 274.996C261.594 276.835 261.553 279.064 261.58 281.545C261.608 284.025 261.706 286.978 261.831 289.904C261.831 290.824 261.929 291.757 261.984 292.691C262.11 295.018 262.263 297.372 262.402 299.657C262.598 302.625 262.793 305.468 262.96 308.017C263.141 310.804 263.294 313.186 263.364 314.984H197.684C197.684 314.984 198.046 312.295 198.52 308.017C198.784 305.663 199.077 302.806 199.369 299.657C199.578 297.456 199.774 295.115 199.955 292.691C200.024 291.771 200.08 290.838 200.15 289.904C200.331 287.118 200.484 284.331 200.596 281.545C200.707 278.758 200.763 275.902 200.763 273.185C200.763 272.307 200.763 271.443 200.763 270.593C200.763 269.2 200.763 267.695 200.763 266.218C200.763 265.299 200.763 264.365 200.763 263.432C200.763 260.645 200.763 257.858 200.763 255.072C200.763 252.285 200.846 249.499 200.944 246.712C200.944 245.319 201.028 243.842 201.083 242.407C201.083 241.501 201.153 240.623 201.195 239.746C201.236 238.868 201.278 237.878 201.32 236.959C201.473 233.573 201.654 230.327 201.891 227.206C202.114 224.336 202.379 221.563 202.713 218.846C203.006 216.491 203.354 214.178 203.758 211.879C203.94 210.946 204.107 210.012 204.302 209.093C204.497 208.173 204.789 206.864 205.054 205.749C204.957 205.651 242.52 200.19 270.302 206.473Z" fill="#92E3A9"/>
<path opacity="0.2" d="M266.567 230.243C265.829 235.635 265.035 241.64 264.282 247.966C264.282 247.966 264.282 248.036 264.282 248.063C263.725 252.717 263.195 257.51 262.722 262.331L262.471 264.435C254.195 250.042 258.862 223.904 258.862 223.904L266.567 230.243Z" fill="black"/>
<g opacity="0.2">
<path d="M262.876 307.92H198.52C198.784 305.565 199.077 302.709 199.369 299.56H262.319C262.514 302.528 262.709 305.37 262.876 307.92Z" fill="black"/>
<path d="M261.941 292.593H199.953C200.023 291.674 200.079 290.74 200.148 289.807H261.746C261.802 290.726 261.844 291.66 261.941 292.593Z" fill="black"/>
<path d="M261.635 274.898C261.51 276.737 261.468 278.967 261.496 281.447H200.637C200.748 278.66 200.804 275.804 200.804 273.087H261.817C261.719 273.7 261.677 274.299 261.635 274.898Z" fill="black"/>
<path d="M262.611 263.334L262.36 266.121H200.637C200.637 265.201 200.637 264.267 200.637 263.334H262.611Z" fill="black"/>
<path d="M264.436 246.614C264.436 247.06 264.338 247.506 264.283 248.008C264.283 248.008 264.283 248.077 264.283 248.105C264.004 250.376 263.739 252.689 263.489 255.072H200.637C200.637 252.285 200.697 249.498 200.818 246.712L264.436 246.614Z" fill="black"/>
<path d="M265.677 236.861L265.315 239.648H201.098C201.098 238.7 201.181 237.781 201.223 236.861H265.677Z" fill="black"/>
<path d="M268.253 218.748C267.877 221.242 267.459 224.057 267.013 227.108H201.793C202.016 224.238 202.281 221.465 202.615 218.748H268.253Z" fill="black"/>
<path d="M269.8 208.995C269.675 209.762 269.522 210.695 269.354 211.782H203.66C203.841 210.848 204.008 209.915 204.204 208.995H269.8Z" fill="black"/>
</g>
<path d="M293.989 264.895C290.673 253.428 278.802 222.051 273.354 208.396C272.741 206.877 270.289 206.459 270.289 206.459C256.036 209.539 257.373 234.186 257.373 234.186C262.319 236.973 275.026 270.412 275.026 270.412C275.026 270.412 281.881 285.738 280.6 292.064C279.318 298.39 273.271 332.679 273.271 332.679L292.317 334.755C292.317 334.755 295.006 317.269 296.901 299.657C298.796 282.046 298.824 281.447 293.989 264.895Z" fill="#92E3A9"/>
<path d="M247.73 203.659C243.828 213.621 232.236 213.133 232.236 213.133C232.236 213.133 221.271 213.426 222.817 204.007C227.374 202.934 229.547 200.691 230.397 197.918C230.436 197.804 230.469 197.688 230.495 197.57C230.91 195.739 230.948 193.843 230.606 191.997C230.467 190.994 230.244 189.977 230.007 188.973L232.793 186.563L234.493 185.17L245.277 175.988C244.499 180.005 244.034 184.076 243.884 188.165C243.884 188.583 243.884 188.987 243.884 189.391C243.828 191.723 243.982 194.054 244.344 196.358C244.64 199.097 245.83 201.663 247.73 203.659Z" fill="#B97964"/>
<path opacity="0.2" d="M245.319 175.988C244.541 180.005 244.075 184.076 243.925 188.165C243.925 188.583 243.925 188.987 243.925 189.391C241.334 195.355 234.897 197.124 230.48 197.918C230.519 197.804 230.551 197.688 230.578 197.57C230.993 195.739 231.031 193.843 230.689 191.997C230.55 190.994 230.327 189.977 230.09 188.973L232.876 186.563L234.576 185.17L245.319 175.988Z" fill="black"/>
<path d="M216.617 152.72C216.617 152.72 213.594 167.684 221.327 173.87C229.06 180.056 230.397 151.981 230.397 151.981L216.617 152.72Z" fill="#E0E0E0"/>
<path d="M245.808 184.083C245.299 185.104 244.687 186.07 243.982 186.967C242.185 189.368 239.65 191.113 236.765 191.933C233.881 192.754 230.807 192.605 228.015 191.509C224.376 190.167 221.386 187.486 219.655 184.013C219.419 183.54 219.196 183.038 219.001 182.536C218.536 181.295 218.154 180.025 217.858 178.733C215.559 169.272 216.27 156.259 225.061 151.382C227.271 150.141 229.761 149.486 232.295 149.479C234.829 149.471 237.323 150.113 239.539 151.342C241.755 152.571 243.62 154.346 244.956 156.499C246.293 158.653 247.056 161.112 247.173 163.643C247.758 172.769 248.497 178.747 245.808 184.083Z" fill="#B97964"/>
<path d="M231.207 168.589C231.374 169.453 230.942 170.233 230.357 170.303C229.772 170.373 229.228 169.704 229.117 168.84C229.005 167.976 229.395 167.196 229.967 167.126C230.538 167.057 231.081 167.753 231.207 168.589Z" fill="#263238"/>
<path d="M221.286 169.857C221.454 170.721 221.008 171.501 220.437 171.557C219.865 171.613 219.322 170.972 219.21 170.164C219.099 169.356 219.489 168.52 220.06 168.464C220.632 168.408 221.189 169.021 221.286 169.857Z" fill="#263238"/>
<path d="M224.489 169.899C223.767 172.706 222.665 175.401 221.215 177.911C221.869 178.267 222.593 178.477 223.337 178.525C224.08 178.573 224.825 178.458 225.52 178.189L224.489 169.899Z" fill="#A24E3F"/>
<path d="M232.794 162.738C232.713 162.783 232.622 162.807 232.529 162.807C232.437 162.807 232.346 162.783 232.265 162.738C231.701 162.411 231.068 162.22 230.417 162.182C229.766 162.143 229.116 162.257 228.517 162.515C228.396 162.576 228.256 162.588 228.127 162.549C227.997 162.51 227.888 162.423 227.82 162.306C227.786 162.247 227.765 162.181 227.757 162.114C227.749 162.046 227.755 161.978 227.775 161.913C227.795 161.847 227.827 161.787 227.871 161.735C227.915 161.683 227.968 161.64 228.029 161.609C228.777 161.266 229.596 161.107 230.418 161.145C231.24 161.184 232.04 161.42 232.752 161.832C232.872 161.897 232.962 162.006 233.004 162.136C233.045 162.265 233.035 162.406 232.975 162.529L232.794 162.738Z" fill="#263238"/>
<path d="M232.057 180.015C232.015 180.099 231.952 180.17 231.873 180.221C231.795 180.273 231.705 180.302 231.611 180.307C230.961 180.314 230.321 180.473 229.743 180.77C229.165 181.068 228.665 181.496 228.281 182.021C228.245 182.079 228.199 182.129 228.144 182.168C228.089 182.208 228.026 182.237 227.96 182.252C227.894 182.268 227.826 182.27 227.759 182.259C227.692 182.248 227.628 182.224 227.57 182.188C227.512 182.155 227.461 182.111 227.42 182.057C227.379 182.004 227.349 181.943 227.333 181.878C227.316 181.813 227.312 181.746 227.322 181.679C227.331 181.613 227.354 181.549 227.389 181.492C227.859 180.817 228.484 180.265 229.211 179.882C229.939 179.499 230.747 179.296 231.569 179.29C231.636 179.284 231.704 179.292 231.768 179.313C231.832 179.334 231.891 179.368 231.941 179.412C231.992 179.456 232.033 179.51 232.063 179.57C232.092 179.631 232.109 179.697 232.113 179.764C232.114 179.851 232.095 179.937 232.057 180.015Z" fill="#263238"/>
<path d="M216.759 163.114C216.653 163.099 216.555 163.05 216.48 162.974C216.406 162.86 216.381 162.721 216.41 162.588C216.439 162.454 216.519 162.338 216.633 162.264C217.321 161.81 218.107 161.526 218.926 161.437C219.745 161.347 220.573 161.454 221.343 161.748C221.466 161.806 221.563 161.909 221.612 162.037C221.661 162.164 221.66 162.305 221.607 162.431C221.55 162.555 221.446 162.651 221.319 162.7C221.192 162.75 221.051 162.748 220.925 162.696C220.31 162.475 219.651 162.402 219.003 162.482C218.354 162.562 217.734 162.792 217.191 163.156C217.12 163.18 217.045 163.19 216.97 163.182C216.895 163.175 216.823 163.152 216.759 163.114Z" fill="#263238"/>
<path d="M237.643 151.173L237.406 155.98C238.241 156.306 238.922 156.934 239.314 157.74C239.707 158.545 239.782 159.469 239.524 160.327C238.284 164.507 241.015 170.512 244.275 172.755C244.275 172.755 244.275 171.014 245.738 171.362C247.201 171.71 247.508 180.739 244.958 185.295C244.958 185.295 248.999 181.115 250.74 171.362C252.356 162.417 252.133 155.074 250.044 151.856L237.643 151.173Z" fill="#E0E0E0"/>
<path d="M235.203 168.38C235.207 169.69 234.697 170.95 233.783 171.888C232.868 172.825 231.622 173.367 230.313 173.396H230.173C230.02 173.41 229.867 173.41 229.714 173.396C229.294 173.366 228.882 173.277 228.488 173.132C228.045 172.983 227.631 172.762 227.261 172.477C226.618 171.987 226.096 171.355 225.738 170.63C225.381 169.904 225.196 169.106 225.199 168.297C225.191 166.95 225.71 165.652 226.644 164.682C227.578 163.711 228.855 163.143 230.201 163.1C230.681 163.154 231.15 163.276 231.595 163.462C232.004 163.599 232.394 163.791 232.751 164.033C232.92 164.138 233.079 164.26 233.225 164.396C233.835 164.866 234.33 165.47 234.673 166.16C235.016 166.851 235.197 167.61 235.203 168.38Z" fill="#263238"/>
<path d="M224.058 169.774C224.062 171.084 223.552 172.343 222.637 173.281C221.723 174.219 220.477 174.76 219.168 174.79H219.028C218.875 174.804 218.721 174.804 218.568 174.79C218.149 174.759 217.737 174.67 217.342 174.525C216.89 174.372 216.467 174.146 216.088 173.856C215.438 173.37 214.909 172.74 214.544 172.014C214.179 171.289 213.987 170.488 213.984 169.676C213.976 168.329 214.495 167.032 215.429 166.061C216.363 165.09 217.64 164.523 218.986 164.479H219.084C219.535 164.531 219.976 164.648 220.394 164.828C220.781 164.971 221.15 165.158 221.494 165.385C221.673 165.494 221.841 165.62 221.996 165.761C222.625 166.226 223.139 166.83 223.496 167.526C223.854 168.222 224.046 168.991 224.058 169.774Z" fill="#263238"/>
<path d="M223.445 169.105C223.709 169.105 247.34 166.722 247.34 166.722L246.782 167.698L223.375 169.899L223.445 169.105Z" fill="#263238"/>
<path d="M253.944 171.947C253.503 173.227 252.813 174.406 251.913 175.418C251.014 176.429 249.924 177.253 248.705 177.841C245.445 179.401 243.132 176.629 243.564 173.215C243.94 170.192 246.044 165.636 249.583 165.538C253.122 165.44 254.975 168.77 253.944 171.947Z" fill="#B97964"/>
<path opacity="0.2" d="M231.541 163.379L228.503 173.034V173.104C228.061 172.956 227.647 172.734 227.277 172.449V172.31L230.175 163.058C230.643 163.101 231.103 163.209 231.541 163.379Z" fill="white"/>
<path opacity="0.2" d="M233.212 164.409L230.314 173.466H230.175C230.022 173.48 229.868 173.48 229.715 173.466L232.724 164.047C232.894 164.152 233.052 164.273 233.198 164.409H233.212Z" fill="white"/>
<path opacity="0.2" d="M220.451 164.786L217.344 174.539C216.892 174.386 216.468 174.16 216.09 173.87L219.085 164.451C219.537 164.503 219.978 164.621 220.395 164.8L220.451 164.786Z" fill="white"/>
<path opacity="0.2" d="M222.054 165.803L219.169 174.831H219.03C218.877 174.845 218.723 174.845 218.57 174.831L221.552 165.482C221.729 165.573 221.897 165.68 222.054 165.803Z" fill="white"/>
<path d="M217.539 155.618L216.619 152.72C216.385 152.72 216.155 152.662 215.949 152.55C215.743 152.438 215.569 152.276 215.443 152.078C215.317 151.881 215.242 151.655 215.226 151.422C215.21 151.188 215.253 150.954 215.352 150.741C215.965 148.916 217.093 149.46 217.093 149.46C216.911 149.241 216.777 148.986 216.701 148.712C216.624 148.438 216.606 148.15 216.648 147.869C216.69 147.587 216.791 147.318 216.945 147.078C217.098 146.838 217.301 146.634 217.539 146.478C217.978 146.041 218.571 145.796 219.19 145.796C219.809 145.796 220.402 146.041 220.841 146.478C220.765 145.913 220.914 145.342 221.255 144.886C221.597 144.43 222.103 144.126 222.666 144.04C222.913 143.96 223.174 143.931 223.432 143.953C223.69 143.975 223.942 144.049 224.172 144.17C224.401 144.29 224.604 144.455 224.769 144.656C224.934 144.856 225.058 145.087 225.132 145.335C225.132 145.335 225.704 142.897 227.766 143.343C229.828 143.789 229.716 145.335 229.716 145.335C229.97 144.768 230.372 144.278 230.879 143.918C231.386 143.558 231.981 143.34 232.601 143.287C233.204 143.352 233.78 143.576 234.27 143.936C234.759 144.296 235.145 144.778 235.387 145.335C235.671 144.623 236.191 144.029 236.862 143.656C237.532 143.283 238.31 143.153 239.066 143.287C241.852 143.691 241.337 145.948 241.337 145.948C241.337 145.948 242.256 144.29 244.625 145.252C246.993 146.213 246.297 148.038 246.297 148.038C246.714 147.667 247.249 147.455 247.807 147.439C248.365 147.424 248.911 147.607 249.348 147.955C251.006 149.167 250.198 151.981 250.198 151.981L247.76 156.83L237.435 155.98C236.755 155.504 236.015 155.12 235.234 154.838C233.144 153.876 241.1 150.727 235.387 149.78C232.925 149.351 230.396 149.516 228.012 150.263C225.627 151.009 223.455 152.315 221.677 154.071C218.668 157.095 217.539 155.618 217.539 155.618Z" fill="#E0E0E0"/>
<path d="M275.71 237.516C275.71 237.516 274.442 232.528 272.924 232.542C270.597 232.542 260.064 235.092 259.297 236.917C258.531 238.742 262.418 249.22 265.344 249.624C268.27 250.028 278.037 247.186 277.494 245.137L275.71 237.516Z" fill="#92E3A9"/>
<path opacity="0.7" d="M275.71 237.516C275.71 237.516 274.442 232.528 272.924 232.542C270.597 232.542 260.064 235.092 259.297 236.917C258.531 238.742 262.418 249.22 265.344 249.624C268.27 250.028 278.037 247.186 277.494 245.137L275.71 237.516Z" fill="white"/>
<path d="M222.817 204.007C222.817 204.007 222.023 213.133 232.236 213.133C242.449 213.133 247.73 203.659 247.73 203.659L250.669 203.826C249.255 207.341 246.793 210.336 243.617 212.402C240.441 214.469 236.706 215.507 232.919 215.377C219.097 215.377 220.379 204.105 220.379 204.105L222.817 204.007Z" fill="#92E3A9"/>
<path opacity="0.6" d="M222.817 204.007C222.817 204.007 222.023 213.133 232.236 213.133C242.449 213.133 247.73 203.659 247.73 203.659L250.669 203.826C249.255 207.341 246.793 210.336 243.617 212.402C240.441 214.469 236.706 215.507 232.919 215.377C219.097 215.377 220.379 204.105 220.379 204.105L222.817 204.007Z" fill="white"/>
</svg>
