<svg width="60" height="42" viewBox="0 0 60 42" fill="none" xmlns="http://www.w3.org/2000/svg">
<path d="M13.185 15.25C15.7809 15.25 18.3185 16.0198 20.4769 17.462C22.6353 18.9042 24.3175 20.954 25.3109 23.3523C26.3043 25.7506 26.5642 28.3896 26.0578 30.9356C25.5514 33.4816 24.3013 35.8202 22.4658 37.6558C20.6302 39.4913 18.2916 40.7414 15.7456 41.2478C13.1996 41.7542 10.5606 41.4943 8.16228 40.5009C5.764 39.5075 3.71415 37.8253 2.27196 35.6669C0.829768 33.5085 0.06 30.9709 0.06 28.375L0 26.5C0 19.5381 2.76562 12.8613 7.68845 7.93845C12.6113 3.01562 19.2881 0.25 26.25 0.25V7.75C23.7866 7.74338 21.3464 8.22516 19.0704 9.16749C16.7944 10.1098 14.7277 11.494 12.99 13.24C12.3146 13.9141 11.6916 14.6387 11.1262 15.4075C11.7975 15.3025 12.4837 15.2462 13.1812 15.2462L13.185 15.25ZM46.935 15.25C49.5309 15.25 52.0685 16.0198 54.2269 17.462C56.3853 18.9042 58.0675 20.954 59.0609 23.3523C60.0543 25.7506 60.3142 28.3896 59.8078 30.9356C59.3014 33.4816 58.0513 35.8202 56.2158 37.6558C54.3802 39.4913 52.0416 40.7414 49.4956 41.2478C46.9496 41.7542 44.3106 41.4943 41.9123 40.5009C39.514 39.5075 37.4641 37.8253 36.022 35.6669C34.5798 33.5085 33.81 30.9709 33.81 28.375L33.75 26.5C33.75 19.5381 36.5156 12.8613 41.4384 7.93845C46.3613 3.01562 53.0381 0.25 60 0.25V7.75C57.5366 7.74338 55.0964 8.22516 52.8204 9.16749C50.5444 10.1098 48.4777 11.494 46.74 13.24C46.0646 13.9141 45.4416 14.6387 44.8762 15.4075C45.5475 15.3025 46.2337 15.25 46.935 15.25Z" fill="#C9C9C9"/>
</svg>
