<svg width="314" height="19" viewBox="0 0 314 19" fill="none" xmlns="http://www.w3.org/2000/svg">
<rect width="272.31" height="6.64885" rx="3.32442" transform="matrix(1 -0.000584272 0.00109618 0.999999 -0.00244141 5.91113)" fill="#F0F0F0"/>
<rect width="260.642" height="6.42033" rx="3.21016" transform="matrix(1 -0.000658602 0.000972467 1 -0.00708008 6.17517)" fill="#AEF161"/>
<path d="M281.071 15.0272L284.585 10.5332L284.935 11.0232C284.804 11.0792 284.678 11.1306 284.557 11.1772C284.445 11.2146 284.328 11.2426 284.207 11.2612C284.086 11.2799 283.96 11.2892 283.829 11.2892C283.185 11.2892 282.611 11.1446 282.107 10.8552C281.612 10.5659 281.22 10.1739 280.931 9.67922C280.651 9.17522 280.511 8.61055 280.511 7.98522C280.511 7.29455 280.67 6.68322 280.987 6.15122C281.304 5.61922 281.743 5.19922 282.303 4.89122C282.863 4.58322 283.502 4.42922 284.221 4.42922C284.949 4.42922 285.588 4.58322 286.139 4.89122C286.699 5.18989 287.138 5.60055 287.455 6.12322C287.772 6.63655 287.931 7.22455 287.931 7.88722C287.931 8.21389 287.898 8.54055 287.833 8.86722C287.768 9.19389 287.637 9.55322 287.441 9.94522C287.245 10.3279 286.951 10.7759 286.559 11.2892L283.661 15.0272L281.071 15.0272ZM284.221 9.51122C284.51 9.51122 284.767 9.44589 284.991 9.31522C285.224 9.18455 285.411 9.00255 285.551 8.76922C285.691 8.53589 285.761 8.26522 285.761 7.95722C285.761 7.63989 285.691 7.36455 285.551 7.13122C285.411 6.89789 285.224 6.71589 284.991 6.58522C284.767 6.45455 284.51 6.38922 284.221 6.38922C283.941 6.38922 283.684 6.45455 283.451 6.58522C283.218 6.71589 283.031 6.89789 282.891 7.13122C282.751 7.36455 282.681 7.63989 282.681 7.95722C282.681 8.26522 282.751 8.53589 282.891 8.76922C283.031 9.00255 283.218 9.18455 283.451 9.31522C283.684 9.44589 283.941 9.51122 284.221 9.51122ZM293.342 15.1952C292.511 15.1952 291.779 14.9712 291.144 14.5232C290.519 14.0752 290.029 13.4452 289.674 12.6332C289.319 11.8212 289.142 10.8786 289.142 9.80522C289.142 8.72255 289.315 7.77989 289.66 6.97722C290.015 6.17455 290.505 5.54922 291.13 5.10122C291.765 4.65322 292.497 4.42922 293.328 4.42922C294.177 4.42922 294.915 4.65322 295.54 5.10122C296.175 5.54922 296.665 6.17922 297.01 6.99122C297.365 7.79389 297.542 8.73189 297.542 9.80522C297.542 10.8786 297.365 11.8212 297.01 12.6332C296.665 13.4359 296.175 14.0659 295.54 14.5232C294.915 14.9712 294.182 15.1952 293.342 15.1952ZM293.356 13.2352C293.785 13.2352 294.149 13.0999 294.448 12.8292C294.747 12.5586 294.975 12.1666 295.134 11.6532C295.293 11.1399 295.372 10.5239 295.372 9.80522C295.372 9.08655 295.293 8.47522 295.134 7.97122C294.975 7.45789 294.742 7.06589 294.434 6.79522C294.135 6.52455 293.767 6.38922 293.328 6.38922C292.899 6.38922 292.535 6.52455 292.236 6.79522C291.937 7.06589 291.709 7.45789 291.55 7.97122C291.391 8.47522 291.312 9.08655 291.312 9.80522C291.312 10.5146 291.391 11.1259 291.55 11.6392C291.709 12.1526 291.937 12.5492 292.236 12.8292C292.544 13.0999 292.917 13.2352 293.356 13.2352ZM300.457 15.0272L308.885 4.59722L311.041 4.59722L302.613 15.0272L300.457 15.0272ZM302.123 9.88922C301.6 9.88922 301.129 9.76789 300.709 9.52522C300.298 9.27322 299.972 8.94189 299.729 8.53122C299.486 8.12055 299.365 7.66322 299.365 7.15922C299.365 6.65522 299.486 6.19789 299.729 5.78722C299.972 5.36722 300.298 5.03589 300.709 4.79322C301.129 4.55055 301.6 4.42922 302.123 4.42922C302.646 4.42922 303.112 4.55055 303.523 4.79322C303.934 5.03589 304.26 5.36722 304.503 5.78722C304.746 6.19789 304.867 6.65522 304.867 7.15922C304.867 7.66322 304.746 8.12055 304.503 8.53122C304.26 8.94189 303.934 9.27322 303.523 9.52522C303.112 9.76789 302.646 9.88922 302.123 9.88922ZM302.123 8.34922C302.375 8.34922 302.585 8.29322 302.753 8.18122C302.921 8.05989 303.047 7.91055 303.131 7.73322C303.215 7.54655 303.257 7.35522 303.257 7.15922C303.257 6.95389 303.215 6.76255 303.131 6.58522C303.047 6.40789 302.921 6.26322 302.753 6.15122C302.585 6.02989 302.375 5.96922 302.123 5.96922C301.871 5.96922 301.661 6.02989 301.493 6.15122C301.325 6.26322 301.194 6.40789 301.101 6.58522C301.017 6.76255 300.975 6.95389 300.975 7.15922C300.975 7.35522 301.017 7.54655 301.101 7.73322C301.194 7.91055 301.325 8.05989 301.493 8.18122C301.661 8.29322 301.871 8.34922 302.123 8.34922ZM309.361 15.1952C308.838 15.1952 308.367 15.0739 307.947 14.8312C307.536 14.5792 307.21 14.2479 306.967 13.8372C306.724 13.4266 306.603 12.9692 306.603 12.4652C306.603 11.9612 306.724 11.5039 306.967 11.0932C307.21 10.6732 307.536 10.3419 307.947 10.0992C308.367 9.85655 308.838 9.73522 309.361 9.73522C309.884 9.73522 310.35 9.85655 310.761 10.0992C311.172 10.3419 311.498 10.6732 311.741 11.0932C311.984 11.5039 312.105 11.9612 312.105 12.4652C312.105 12.9692 311.984 13.4266 311.741 13.8372C311.498 14.2479 311.172 14.5792 310.761 14.8312C310.35 15.0739 309.884 15.1952 309.361 15.1952ZM309.361 13.6552C309.613 13.6552 309.823 13.5992 309.991 13.4872C310.159 13.3659 310.285 13.2166 310.369 13.0392C310.453 12.8526 310.495 12.6612 310.495 12.4652C310.495 12.2599 310.453 12.0686 310.369 11.8912C310.285 11.7139 310.159 11.5692 309.991 11.4572C309.823 11.3359 309.613 11.2752 309.361 11.2752C309.118 11.2752 308.908 11.3359 308.731 11.4572C308.563 11.5692 308.432 11.7139 308.339 11.8912C308.255 12.0686 308.213 12.2599 308.213 12.4652C308.213 12.6612 308.255 12.8526 308.339 13.0392C308.432 13.2166 308.563 13.3659 308.731 13.4872C308.908 13.5992 309.118 13.6552 309.361 13.6552Z" fill="black"/>
</svg>
