<svg width="314" height="19" viewBox="0 0 314 19" fill="none" xmlns="http://www.w3.org/2000/svg">
<rect width="272.171" height="6.64885" rx="3.32442" transform="matrix(1 -0.000584272 0.00109618 0.999999 -0.00268555 5.91028)" fill="#F0F0F0"/>
<rect width="202.526" height="6.42033" rx="3.21016" transform="matrix(1 -0.000658602 0.000972467 1 -0.00720215 6.17517)" fill="#AEF161"/>
<path d="M282.973 15.0256L287.187 6.41563L282.371 6.41563L282.371 4.59563L289.469 4.59563L289.469 6.41563L285.381 15.0256L282.973 15.0256ZM293.983 15.1936C293.404 15.1936 292.854 15.0863 292.331 14.8716C291.808 14.6476 291.365 14.335 291.001 13.9336C290.637 13.5323 290.394 13.061 290.273 12.5196L292.191 11.8756C292.35 12.3236 292.583 12.6643 292.891 12.8976C293.199 13.1216 293.563 13.2336 293.983 13.2336C294.328 13.2336 294.622 13.1683 294.865 13.0376C295.117 12.907 295.313 12.725 295.453 12.4916C295.593 12.249 295.663 11.969 295.663 11.6516C295.663 11.3343 295.593 11.0636 295.453 10.8396C295.322 10.6063 295.131 10.429 294.879 10.3076C294.636 10.177 294.338 10.1116 293.983 10.1116C293.778 10.1116 293.572 10.135 293.367 10.1816C293.162 10.2283 292.975 10.2936 292.807 10.3776L292.303 9.32763L294.977 6.41563L290.903 6.41563L290.903 4.59563L297.413 4.59563L297.413 6.27563L294.669 9.39763L294.739 8.51563C295.364 8.51563 295.906 8.6463 296.363 8.90763C296.83 9.15963 297.189 9.5143 297.441 9.97163C297.702 10.429 297.833 10.961 297.833 11.5676C297.833 12.2583 297.665 12.879 297.329 13.4296C296.993 13.9803 296.536 14.4143 295.957 14.7316C295.378 15.0396 294.72 15.1936 293.983 15.1936ZM300.679 15.0256L309.107 4.59563L311.263 4.59563L302.835 15.0256L300.679 15.0256ZM302.345 9.88763C301.823 9.88763 301.351 9.7663 300.931 9.52363C300.521 9.27163 300.194 8.9403 299.951 8.52963C299.709 8.11897 299.587 7.66163 299.587 7.15763C299.587 6.65363 299.709 6.1963 299.951 5.78563C300.194 5.36563 300.521 5.0343 300.931 4.79163C301.351 4.54897 301.823 4.42763 302.345 4.42763C302.868 4.42763 303.335 4.54897 303.745 4.79163C304.156 5.0343 304.483 5.36563 304.725 5.78563C304.968 6.1963 305.089 6.65363 305.089 7.15763C305.089 7.66163 304.968 8.11897 304.725 8.52963C304.483 8.9403 304.156 9.27163 303.745 9.52363C303.335 9.7663 302.868 9.88763 302.345 9.88763ZM302.345 8.34763C302.597 8.34763 302.807 8.29163 302.975 8.17963C303.143 8.0583 303.269 7.90897 303.353 7.73163C303.437 7.54497 303.479 7.35363 303.479 7.15763C303.479 6.9523 303.437 6.76097 303.353 6.58363C303.269 6.4063 303.143 6.26163 302.975 6.14963C302.807 6.0283 302.597 5.96763 302.345 5.96763C302.093 5.96763 301.883 6.0283 301.715 6.14963C301.547 6.26163 301.417 6.4063 301.323 6.58363C301.239 6.76097 301.197 6.9523 301.197 7.15763C301.197 7.35363 301.239 7.54497 301.323 7.73163C301.417 7.90897 301.547 8.0583 301.715 8.17963C301.883 8.29163 302.093 8.34763 302.345 8.34763ZM309.583 15.1936C309.061 15.1936 308.589 15.0723 308.169 14.8296C307.759 14.5776 307.432 14.2463 307.189 13.8356C306.947 13.425 306.825 12.9676 306.825 12.4636C306.825 11.9596 306.947 11.5023 307.189 11.0916C307.432 10.6716 307.759 10.3403 308.169 10.0976C308.589 9.85497 309.061 9.73363 309.583 9.73363C310.106 9.73363 310.573 9.85497 310.983 10.0976C311.394 10.3403 311.721 10.6716 311.963 11.0916C312.206 11.5023 312.327 11.9596 312.327 12.4636C312.327 12.9676 312.206 13.425 311.963 13.8356C311.721 14.2463 311.394 14.5776 310.983 14.8296C310.573 15.0723 310.106 15.1936 309.583 15.1936ZM309.583 13.6536C309.835 13.6536 310.045 13.5976 310.213 13.4856C310.381 13.3643 310.507 13.215 310.591 13.0376C310.675 12.851 310.717 12.6596 310.717 12.4636C310.717 12.2583 310.675 12.067 310.591 11.8896C310.507 11.7123 310.381 11.5676 310.213 11.4556C310.045 11.3343 309.835 11.2736 309.583 11.2736C309.341 11.2736 309.131 11.3343 308.953 11.4556C308.785 11.5676 308.655 11.7123 308.561 11.8896C308.477 12.067 308.435 12.2583 308.435 12.4636C308.435 12.6596 308.477 12.851 308.561 13.0376C308.655 13.215 308.785 13.3643 308.953 13.4856C309.131 13.5976 309.341 13.6536 309.583 13.6536Z" fill="black"/>
</svg>
