<svg width="314" height="19" viewBox="0 0 314 19" fill="none" xmlns="http://www.w3.org/2000/svg">
<rect width="276.685" height="6.64885" rx="3.32442" transform="matrix(1 -0.000584272 0.00109618 0.999999 -0.00268555 5.91028)" fill="#F0F0F0"/>
<rect width="247.505" height="6.42033" rx="3.21016" transform="matrix(1 -0.000658602 0.000972467 1 -0.00720215 6.17517)" fill="#AEF161"/>
<path d="M282.071 15.0265L285.585 10.5325L285.935 11.0225C285.804 11.0785 285.678 11.1298 285.557 11.1765C285.445 11.2138 285.328 11.2418 285.207 11.2605C285.085 11.2792 284.959 11.2885 284.829 11.2885C284.185 11.2885 283.611 11.1438 283.107 10.8545C282.612 10.5652 282.22 10.1732 281.931 9.67849C281.651 9.17449 281.511 8.60982 281.511 7.98449C281.511 7.29382 281.669 6.68249 281.987 6.15049C282.304 5.61849 282.743 5.19849 283.303 4.89049C283.863 4.58249 284.502 4.42849 285.221 4.42849C285.949 4.42849 286.588 4.58249 287.139 4.89049C287.699 5.18916 288.137 5.59982 288.455 6.12249C288.772 6.63582 288.931 7.22382 288.931 7.88649C288.931 8.21316 288.898 8.53982 288.833 8.86649C288.767 9.19316 288.637 9.55249 288.441 9.94449C288.245 10.3272 287.951 10.7752 287.559 11.2885L284.661 15.0265L282.071 15.0265ZM285.221 9.51049C285.51 9.51049 285.767 9.44516 285.991 9.31449C286.224 9.18382 286.411 9.00182 286.551 8.76849C286.691 8.53516 286.761 8.26449 286.761 7.95649C286.761 7.63916 286.691 7.36382 286.551 7.13049C286.411 6.89716 286.224 6.71516 285.991 6.58449C285.767 6.45382 285.51 6.38849 285.221 6.38849C284.941 6.38849 284.684 6.45382 284.451 6.58449C284.217 6.71516 284.031 6.89716 283.891 7.13049C283.751 7.36382 283.681 7.63916 283.681 7.95649C283.681 8.26449 283.751 8.53516 283.891 8.76849C284.031 9.00182 284.217 9.18382 284.451 9.31449C284.684 9.44516 284.941 9.51049 285.221 9.51049ZM293.572 15.1945C293.021 15.1945 292.489 15.0918 291.976 14.8865C291.463 14.6718 291.024 14.3732 290.66 13.9905C290.296 13.5985 290.058 13.1318 289.946 12.5905L291.864 11.9465C292.004 12.3945 292.228 12.7212 292.536 12.9265C292.844 13.1318 293.189 13.2345 293.572 13.2345C293.899 13.2345 294.183 13.1692 294.426 13.0385C294.669 12.8985 294.855 12.7072 294.986 12.4645C295.126 12.2125 295.196 11.9232 295.196 11.5965C295.196 11.2698 295.126 10.9852 294.986 10.7425C294.855 10.4998 294.669 10.3132 294.426 10.1825C294.183 10.0425 293.899 9.97249 293.572 9.97249C293.236 9.97249 292.937 10.0472 292.676 10.1965C292.415 10.3365 292.223 10.5558 292.102 10.8545L290.324 10.4345L291.164 4.59649L296.988 4.59649L296.988 6.41649L292.046 6.41649L292.858 5.43649L292.284 9.77649L291.696 9.25849C291.929 8.87582 292.223 8.59582 292.578 8.41849C292.942 8.24116 293.409 8.15249 293.978 8.15249C294.678 8.15249 295.28 8.30182 295.784 8.60049C296.288 8.88982 296.675 9.29116 296.946 9.80449C297.226 10.3178 297.366 10.9152 297.366 11.5965C297.366 12.2778 297.198 12.8938 296.862 13.4445C296.535 13.9858 296.087 14.4152 295.518 14.7325C294.949 15.0405 294.3 15.1945 293.572 15.1945ZM300.254 15.0265L308.682 4.59649L310.838 4.59649L302.41 15.0265L300.254 15.0265ZM301.92 9.88849C301.397 9.88849 300.926 9.76716 300.506 9.52449C300.095 9.27249 299.768 8.94116 299.526 8.53049C299.283 8.11982 299.162 7.66249 299.162 7.15849C299.162 6.65449 299.283 6.19716 299.526 5.78649C299.768 5.36649 300.095 5.03516 300.506 4.79249C300.926 4.54982 301.397 4.42849 301.92 4.42849C302.442 4.42849 302.909 4.54982 303.32 4.79249C303.73 5.03516 304.057 5.36649 304.3 5.78649C304.542 6.19716 304.664 6.65449 304.664 7.15849C304.664 7.66249 304.542 8.11982 304.3 8.53049C304.057 8.94116 303.73 9.27249 303.32 9.52449C302.909 9.76716 302.442 9.88849 301.92 9.88849ZM301.92 8.34849C302.172 8.34849 302.382 8.29249 302.55 8.18049C302.718 8.05916 302.844 7.90982 302.928 7.73249C303.012 7.54582 303.054 7.35449 303.054 7.15849C303.054 6.95316 303.012 6.76182 302.928 6.58449C302.844 6.40716 302.718 6.26249 302.55 6.15049C302.382 6.02916 302.172 5.96849 301.92 5.96849C301.668 5.96849 301.458 6.02916 301.29 6.15049C301.122 6.26249 300.991 6.40716 300.898 6.58449C300.814 6.76182 300.772 6.95316 300.772 7.15849C300.772 7.35449 300.814 7.54582 300.898 7.73249C300.991 7.90982 301.122 8.05916 301.29 8.18049C301.458 8.29249 301.668 8.34849 301.92 8.34849ZM309.158 15.1945C308.635 15.1945 308.164 15.0732 307.744 14.8305C307.333 14.5785 307.006 14.2472 306.764 13.8365C306.521 13.4258 306.4 12.9685 306.4 12.4645C306.4 11.9605 306.521 11.5032 306.764 11.0925C307.006 10.6725 307.333 10.3412 307.744 10.0985C308.164 9.85582 308.635 9.73449 309.158 9.73449C309.68 9.73449 310.147 9.85582 310.558 10.0985C310.968 10.3412 311.295 10.6725 311.538 11.0925C311.78 11.5032 311.902 11.9605 311.902 12.4645C311.902 12.9685 311.78 13.4258 311.538 13.8365C311.295 14.2472 310.968 14.5785 310.558 14.8305C310.147 15.0732 309.68 15.1945 309.158 15.1945ZM309.158 13.6545C309.41 13.6545 309.62 13.5985 309.788 13.4865C309.956 13.3652 310.082 13.2158 310.166 13.0385C310.25 12.8518 310.292 12.6605 310.292 12.4645C310.292 12.2592 310.25 12.0678 310.166 11.8905C310.082 11.7132 309.956 11.5685 309.788 11.4565C309.62 11.3352 309.41 11.2745 309.158 11.2745C308.915 11.2745 308.705 11.3352 308.528 11.4565C308.36 11.5685 308.229 11.7132 308.136 11.8905C308.052 12.0678 308.01 12.2592 308.01 12.4645C308.01 12.6605 308.052 12.8518 308.136 13.0385C308.229 13.2158 308.36 13.3652 308.528 13.4865C308.705 13.5985 308.915 13.6545 309.158 13.6545Z" fill="black"/>
</svg>
