<svg width="569" height="424" viewBox="0 0 569 424" fill="none" xmlns="http://www.w3.org/2000/svg">
<path d="M568.771 372.431H0V372.716H568.771V372.431Z" fill="#EBEBEB"/>
<path d="M511.78 390.734H474.104V391.019H511.78V390.734Z" fill="#EBEBEB"/>
<path d="M376.777 393.828H366.892V394.113H376.777V393.828Z" fill="#EBEBEB"/>
<path d="M472.967 380.178H451.138V380.462H472.967V380.178Z" fill="#EBEBEB"/>
<path d="M108.806 382.089H59.6758V382.373H108.806V382.089Z" fill="#EBEBEB"/>
<path d="M126.142 382.089H118.941V382.373H126.142V382.089Z" fill="#EBEBEB"/>
<path d="M256.118 386.889H149.553V387.174H256.118V386.889Z" fill="#EBEBEB"/>
<path d="M269.598 321.697H49.9498C48.2291 321.694 46.5799 321.008 45.3642 319.79C44.1486 318.573 43.4658 316.922 43.4658 315.201V6.43849C43.4808 4.72765 44.1702 3.09181 45.3842 1.88629C46.5983 0.680771 48.2389 0.00293075 49.9498 0H269.598C271.32 0 272.973 0.684331 274.191 1.90245C275.409 3.12057 276.093 4.77269 276.093 6.49536V315.201C276.093 316.924 275.409 318.576 274.191 319.794C272.973 321.013 271.32 321.697 269.598 321.697ZM49.9498 0.227509C48.3045 0.230523 46.7277 0.886219 45.5653 2.05068C44.403 3.21513 43.7502 4.7932 43.7502 6.43849V315.201C43.7502 316.847 44.403 318.425 45.5653 319.589C46.7277 320.754 48.3045 321.409 49.9498 321.412H269.598C271.244 321.409 272.822 320.754 273.986 319.59C275.15 318.426 275.806 316.848 275.809 315.201V6.43849C275.806 4.79216 275.15 3.21412 273.986 2.04998C272.822 0.88585 271.244 0.230516 269.598 0.227509H49.9498Z" fill="#EBEBEB"/>
<path d="M515.659 321.697H295.999C294.278 321.694 292.627 321.009 291.41 319.791C290.192 318.574 289.507 316.923 289.504 315.201V6.43849C289.522 4.72661 290.214 3.09079 291.43 1.88558C292.645 0.680374 294.287 0.00289879 295.999 0H515.659C517.367 0.00592033 519.005 0.685084 520.217 1.89028C521.428 3.09549 522.116 4.72962 522.131 6.43849V315.201C522.131 316.92 521.45 318.569 520.237 319.786C519.024 321.004 517.377 321.691 515.659 321.697ZM295.999 0.227509C294.353 0.230516 292.775 0.88585 291.611 2.04998C290.447 3.21412 289.791 4.79216 289.788 6.43849V315.201C289.791 316.848 290.447 318.426 291.611 319.59C292.775 320.754 294.353 321.409 295.999 321.412H515.659C517.305 321.409 518.883 320.754 520.047 319.59C521.211 318.426 521.867 316.848 521.87 315.201V6.43849C521.867 4.79216 521.211 3.21412 520.047 2.04998C518.883 0.88585 517.305 0.230516 515.659 0.227509H295.999Z" fill="#EBEBEB"/>
<path d="M357.234 58.2195H252.637V293.85H357.234V58.2195Z" fill="#EBEBEB"/>
<path d="M353.286 289.436V62.6445L256.584 62.6445V289.436H353.286Z" fill="#FAFAFA"/>
<path d="M306.044 61.4956H303.826V291.632H306.044V61.4956Z" fill="#F5F5F5"/>
<path d="M359.645 55.1479H250.225V66.239H359.645V55.1479Z" fill="#E0E0E0"/>
<path d="M359.645 67.4675H250.225V68.7871H359.645V67.4675Z" fill="#F5F5F5"/>
<path d="M359.645 70.448H250.225V71.7675H359.645V70.448Z" fill="#F5F5F5"/>
<path d="M359.645 73.4282H250.225V74.7478H359.645V73.4282Z" fill="#F5F5F5"/>
<path d="M359.645 76.4202H250.225V77.7397H359.645V76.4202Z" fill="#F5F5F5"/>
<path d="M359.645 79.4004H250.225V80.7199H359.645V79.4004Z" fill="#F5F5F5"/>
<path d="M359.645 82.3809H250.225V83.7004H359.645V82.3809Z" fill="#F5F5F5"/>
<path d="M359.645 85.3611H250.225V86.6806H359.645V85.3611Z" fill="#F5F5F5"/>
<path d="M359.645 88.3528H250.225V89.6723H359.645V88.3528Z" fill="#F5F5F5"/>
<path d="M359.645 91.3333H250.225V92.6528H359.645V91.3333Z" fill="#F5F5F5"/>
<path d="M359.645 94.3135H250.225V95.633H359.645V94.3135Z" fill="#F5F5F5"/>
<path d="M359.645 97.2939H250.225V98.6135H359.645V97.2939Z" fill="#F5F5F5"/>
<path d="M359.645 100.286H250.225V101.605H359.645V100.286Z" fill="#F5F5F5"/>
<path d="M359.645 103.266H250.225V104.586H359.645V103.266Z" fill="#F5F5F5"/>
<path d="M359.645 106.246H250.225V107.566H359.645V106.246Z" fill="#F5F5F5"/>
<path d="M359.645 109.227H250.225V110.546H359.645V109.227Z" fill="#F5F5F5"/>
<path d="M359.645 112.219H250.225V113.538H359.645V112.219Z" fill="#F5F5F5"/>
<path d="M359.645 115.199H250.225V116.518H359.645V115.199Z" fill="#F5F5F5"/>
<path d="M359.645 118.179H250.225V119.499H359.645V118.179Z" fill="#F5F5F5"/>
<path d="M481.067 58.2195H376.47V293.85H481.067V58.2195Z" fill="#EBEBEB"/>
<path d="M477.119 289.436V62.6445L380.417 62.6445V289.436H477.119Z" fill="#FAFAFA"/>
<path d="M429.877 61.4956H427.659V291.632H429.877V61.4956Z" fill="#F5F5F5"/>
<path d="M483.478 55.1479H374.058V66.239H483.478V55.1479Z" fill="#E0E0E0"/>
<path d="M483.478 67.4675H374.058V68.7871H483.478V67.4675Z" fill="#F5F5F5"/>
<path d="M483.478 70.448H374.058V71.7675H483.478V70.448Z" fill="#F5F5F5"/>
<path d="M483.478 73.4282H374.058V74.7478H483.478V73.4282Z" fill="#F5F5F5"/>
<path d="M483.478 76.4202H374.058V77.7397H483.478V76.4202Z" fill="#F5F5F5"/>
<path d="M483.478 79.4004H374.058V80.7199H483.478V79.4004Z" fill="#F5F5F5"/>
<path d="M483.478 82.3809H374.058V83.7004H483.478V82.3809Z" fill="#F5F5F5"/>
<path d="M483.478 85.3611H374.058V86.6806H483.478V85.3611Z" fill="#F5F5F5"/>
<path d="M483.478 88.3528H374.058V89.6723H483.478V88.3528Z" fill="#F5F5F5"/>
<path d="M483.478 91.3333H374.058V92.6528H483.478V91.3333Z" fill="#F5F5F5"/>
<path d="M483.478 94.3135H374.058V95.633H483.478V94.3135Z" fill="#F5F5F5"/>
<path d="M483.478 97.2939H374.058V98.6135H483.478V97.2939Z" fill="#F5F5F5"/>
<path d="M483.478 100.286H374.058V101.605H483.478V100.286Z" fill="#F5F5F5"/>
<path d="M483.478 103.266H374.058V104.586H483.478V103.266Z" fill="#F5F5F5"/>
<path d="M483.478 106.246H374.058V107.566H483.478V106.246Z" fill="#F5F5F5"/>
<path d="M483.478 109.227H374.058V110.546H483.478V109.227Z" fill="#F5F5F5"/>
<path d="M483.478 112.219H374.058V113.538H483.478V112.219Z" fill="#F5F5F5"/>
<path d="M483.478 115.199H374.058V116.518H483.478V115.199Z" fill="#F5F5F5"/>
<path d="M483.478 118.179H374.058V119.499H483.478V118.179Z" fill="#F5F5F5"/>
<path d="M213.301 193.519V91.2422L81.6872 91.2422V193.519H213.301Z" fill="#E0E0E0"/>
<path d="M83.5067 191.698L211.469 191.698V93.0736L83.5067 93.0736L83.5067 191.698Z" fill="#EBEBEB"/>
<path d="M145.913 110.888H144.775V124.641H145.913V110.888Z" fill="#E0E0E0"/>
<path d="M114.641 168.914H113.504V124.072H172.69V150.042H171.553V125.209H114.641V168.914Z" fill="#E0E0E0"/>
<path d="M189.582 164.022H188.445V150.61H157.663V163.556H156.525V149.473H189.582V164.022Z" fill="#E0E0E0"/>
<path d="M160.029 105.837H130.669V115.938H160.029V105.837Z" fill="#F5F5F5"/>
<path d="M186.545 130.078H158.562V141.055H186.545V130.078Z" fill="#F5F5F5"/>
<path d="M166.719 157.891H147.494V169.221H166.719V157.891Z" fill="#F5F5F5"/>
<path d="M199.297 159.722H178.719V168.322H199.297V159.722Z" fill="#F5F5F5"/>
<path d="M132.353 132.41H100.559V147.073H132.353V132.41Z" fill="#F5F5F5"/>
<path d="M124.219 163.556H103.914V174.271H124.219V163.556Z" fill="#F5F5F5"/>
<path d="M149.727 125.007L145.343 120.623L140.959 125.007L145.343 129.39L149.727 125.007Z" fill="#F5F5F5"/>
<path d="M176.498 150.034L172.114 145.651L167.73 150.034L172.114 154.418L176.498 150.034Z" fill="#F5F5F5"/>
<path d="M147.494 76.8524C157.735 76.8524 166.036 68.5509 166.036 58.3105C166.036 48.0701 157.735 39.7686 147.494 39.7686C137.254 39.7686 128.952 48.0701 128.952 58.3105C128.952 68.5509 137.254 76.8524 147.494 76.8524Z" fill="#E0E0E0"/>
<path d="M147.494 74.0766C156.201 74.0766 163.26 67.0178 163.26 58.3103C163.26 49.6028 156.201 42.5439 147.494 42.5439C138.786 42.5439 131.728 49.6028 131.728 58.3103C131.728 67.0178 138.786 74.0766 147.494 74.0766Z" fill="#F0F0F0"/>
<path d="M148.233 47.4924V58.5152L155.536 54.3859" fill="#F0F0F0"/>
<path d="M148.233 59.6526C148.034 59.654 147.838 59.603 147.664 59.5047C147.491 59.4045 147.347 59.2602 147.247 59.0864C147.147 58.9126 147.095 58.7155 147.096 58.5151V47.4923C147.096 47.1906 147.216 46.9012 147.429 46.6879C147.642 46.4746 147.932 46.3547 148.233 46.3547C148.535 46.3547 148.824 46.4746 149.038 46.6879C149.251 46.9012 149.371 47.1906 149.371 47.4923V56.5926L154.979 53.4189C155.241 53.268 155.553 53.2276 155.845 53.3066C156.138 53.3855 156.386 53.5773 156.537 53.8398C156.688 54.1022 156.729 54.4139 156.65 54.7061C156.571 54.9984 156.379 55.2473 156.116 55.3982L148.802 59.5275C148.627 59.6178 148.43 59.661 148.233 59.6526Z" fill="#E0E0E0"/>
<path d="M284.385 423.803C406.196 423.803 504.943 418.037 504.943 410.926C504.943 403.814 406.196 398.049 284.385 398.049C162.574 398.049 63.8271 403.814 63.8271 410.926C63.8271 418.037 162.574 423.803 284.385 423.803Z" fill="#F5F5F5"/>
<path d="M112.014 378.017H110.944C110.944 376.424 112.264 338.828 118.805 332.515C125.528 325.963 133.434 332.413 133.513 332.515L132.819 333.345C132.535 333.095 125.584 327.453 119.556 333.345C113.322 339.272 112.025 377.664 112.014 378.017Z" fill="#92E3A9"/>
<path d="M111.479 385.559L110.41 385.456C110.41 385.001 114.63 339.818 98.2607 321.037L99.0798 320.332C115.745 339.465 111.479 385.104 111.479 385.559Z" fill="#92E3A9"/>
<path d="M112.002 380.735C111.854 378.597 108.703 328.408 121.284 316.817L122.012 317.602C109.807 328.829 113.037 380.167 113.071 380.667L112.002 380.735Z" fill="#92E3A9"/>
<path d="M110.409 380.701C110.409 380.36 110.011 346.575 101.07 341.49C100.308 340.99 99.437 340.681 98.5303 340.587C97.6236 340.494 96.7078 340.621 95.8601 340.956C90.6047 343.117 87.8177 353.139 87.7949 353.241L86.7598 352.957C86.8735 352.524 89.706 342.332 95.4506 339.954C96.45 339.556 97.5302 339.403 98.6009 339.508C99.6716 339.613 100.702 339.973 101.605 340.557C111.08 345.983 111.467 379.234 111.479 380.69L110.409 380.701Z" fill="#92E3A9"/>
<path d="M114.083 380.735C114.027 379.598 112.639 354.06 119.896 344.596C121.819 342.082 123.957 340.876 126.278 341.047C131.431 341.411 135.378 348.395 135.606 348.691L134.662 349.214C134.662 349.146 130.783 342.389 126.21 342.116C124.276 341.979 122.433 343.037 120.749 345.244C113.731 354.401 115.141 380.405 115.164 380.667L114.083 380.735Z" fill="#92E3A9"/>
<path d="M112.616 384.273L111.547 384.193C111.547 383.579 116.097 322.618 108.601 312.46L109.465 311.812C117.235 322.3 112.832 381.748 112.616 384.273Z" fill="#92E3A9"/>
<path d="M93.3577 346.029C93.3577 346.029 98.0103 347.735 96.6225 351.785C95.2347 355.835 80.5604 362.478 80.5604 362.478C80.5604 362.478 74.4063 356.79 80.0485 347.69C85.6907 338.589 93.2781 343.128 93.3577 346.029Z" fill="#92E3A9"/>
<path opacity="0.4" d="M93.3577 346.029C93.3577 346.029 98.0103 347.735 96.6225 351.785C95.2347 355.835 80.5604 362.478 80.5604 362.478C80.5604 362.478 74.4063 356.79 80.0485 347.69C85.6907 338.589 93.2781 343.128 93.3577 346.029Z" fill="white"/>
<path d="M113.549 338.328C113.549 338.328 108.6 338.123 108.327 342.389C108.054 346.655 119.043 358.44 119.043 358.44C119.043 358.44 126.881 355.607 125.197 344.971C123.513 334.335 114.777 335.711 113.549 338.328Z" fill="#92E3A9"/>
<path opacity="0.4" d="M113.549 338.328C113.549 338.328 108.6 338.123 108.327 342.389C108.054 346.655 119.043 358.44 119.043 358.44C119.043 358.44 126.881 355.607 125.197 344.971C123.513 334.335 114.777 335.711 113.549 338.328Z" fill="white"/>
<path d="M117.735 317.932C117.735 317.932 114.436 317.568 114.709 315.566C114.982 313.564 127.53 308.388 134.935 316.703C134.935 316.703 130.191 324.848 123.332 324.95C116.473 325.053 117.735 317.932 117.735 317.932Z" fill="#92E3A9"/>
<path opacity="0.4" d="M117.735 317.932C117.735 317.932 114.436 317.568 114.709 315.566C114.982 313.564 127.53 308.388 134.935 316.703C134.935 316.703 130.191 324.848 123.332 324.95C116.473 325.053 117.735 317.932 117.735 317.932Z" fill="white"/>
<path d="M111.592 313.052C111.592 313.052 114.584 314.496 115.415 312.653C116.245 310.811 108.339 299.776 97.6234 302.95C97.6234 302.95 97.339 312.38 103.106 316.089C108.874 319.797 111.592 313.052 111.592 313.052Z" fill="#92E3A9"/>
<path opacity="0.4" d="M111.592 313.052C111.592 313.052 114.584 314.496 115.415 312.653C116.245 310.811 108.339 299.776 97.6234 302.95C97.6234 302.95 97.339 312.38 103.106 316.089C108.874 319.797 111.592 313.052 111.592 313.052Z" fill="white"/>
<path d="M127.211 344.402C127.211 344.402 124.936 342.559 127.381 341.672C129.827 340.785 141.896 341.024 142.021 352.968C142.021 352.968 127.984 355.243 126.244 350.693C124.503 346.143 127.211 344.402 127.211 344.402Z" fill="#92E3A9"/>
<path opacity="0.4" d="M127.211 344.402C127.211 344.402 124.936 342.559 127.381 341.672C129.827 340.785 141.896 341.024 142.021 352.968C142.021 352.968 127.984 355.243 126.244 350.693C124.503 346.143 127.211 344.402 127.211 344.402Z" fill="white"/>
<path d="M98.5907 317.625C98.5907 317.625 100.866 315.793 98.4087 314.894C95.9516 313.996 83.8937 314.246 83.7686 326.19C83.7686 326.19 97.8058 328.522 99.5463 323.972C101.287 319.422 98.5907 317.625 98.5907 317.625Z" fill="#92E3A9"/>
<path opacity="0.4" d="M98.5907 317.625C98.5907 317.625 100.866 315.793 98.4087 314.894C95.9516 313.996 83.8937 314.246 83.7686 326.19C83.7686 326.19 97.8058 328.522 99.5463 323.972C101.287 319.422 98.5907 317.625 98.5907 317.625Z" fill="white"/>
<path d="M106.007 327.248C106.007 327.248 106.201 324.973 104.404 325.883C102.606 326.793 96.3156 333.539 102.834 339.966C102.834 339.966 111.593 333.482 110.012 330.092C108.43 326.702 106.007 327.248 106.007 327.248Z" fill="#92E3A9"/>
<path opacity="0.4" d="M106.007 327.248C106.007 327.248 106.201 324.973 104.404 325.883C102.606 326.793 96.3156 333.539 102.834 339.966C102.834 339.966 111.593 333.482 110.012 330.092C108.43 326.702 106.007 327.248 106.007 327.248Z" fill="white"/>
<path d="M129.236 330.422C129.236 330.422 127.882 328.647 129.873 328.42C131.864 328.192 140.793 330.581 138.712 339.499C138.712 339.499 127.837 338.68 127.336 334.949C126.836 331.218 129.236 330.422 129.236 330.422Z" fill="#92E3A9"/>
<path opacity="0.4" d="M129.236 330.422C129.236 330.422 127.882 328.647 129.873 328.42C131.864 328.192 140.793 330.581 138.712 339.499C138.712 339.499 127.837 338.68 127.336 334.949C126.836 331.218 129.236 330.422 129.236 330.422Z" fill="white"/>
<path d="M94.1649 413.792H129.338L134.013 379.586H89.501L94.1649 413.792Z" fill="#263238"/>
<path opacity="0.2" d="M94.1649 413.792H129.338L134.013 379.586H89.501L94.1649 413.792Z" fill="white"/>
<path d="M138.416 376.822V380.064C138.418 380.581 138.317 381.094 138.12 381.572C137.922 382.05 137.632 382.485 137.267 382.851C136.901 383.216 136.466 383.506 135.988 383.703C135.51 383.901 134.998 384.002 134.48 384H88.5804C88.0632 384.002 87.5507 383.901 87.0725 383.703C86.5943 383.506 86.1598 383.216 85.794 382.851C85.4282 382.485 85.1383 382.05 84.9411 381.572C84.7438 381.094 84.643 380.581 84.6445 380.064V376.822H138.416Z" fill="#263238"/>
<path d="M423.587 383.67C423.331 383.145 423.205 382.566 423.222 381.982C423.238 381.399 423.395 380.827 423.68 380.318C423.965 379.808 424.37 379.375 424.858 379.055C425.347 378.736 425.906 378.539 426.488 378.483C425.986 376.991 425.951 375.381 426.388 373.869C426.825 372.357 427.713 371.014 428.933 370.02C429.23 369.753 429.605 369.59 430.003 369.553C430.425 369.596 430.823 369.771 431.14 370.054L437.965 374.922C438.508 375.253 438.968 375.705 439.308 376.242C440.695 378.927 435.702 382.362 437.749 384.58C438.341 385.217 439.296 385.342 440.024 385.809C441.64 386.81 441.833 389.028 442.584 390.768C443.335 392.509 445.996 393.874 446.963 392.259C446.224 390.586 448.453 389.142 450.274 388.926C452.094 388.709 453.993 388.618 454.994 386.912C457.577 389.187 463.355 382.874 463.219 380.337C465.346 380.496 466.791 382.487 467.257 384.466C467.551 386.561 467.624 388.681 467.473 390.791C467.541 394.898 468.861 398.925 468.793 403.031C468.736 406.228 467.496 409.777 464.572 411.062C463.114 411.576 461.565 411.785 460.022 411.676L426.692 411.46C425.892 411.511 425.091 411.379 424.349 411.073C422.847 410.289 422.529 408.309 422.392 406.614C421.801 399.38 421.206 392.141 420.606 384.899L423.587 383.67Z" fill="#92E3A9"/>
<path opacity="0.3" d="M423.587 383.67C423.331 383.145 423.205 382.566 423.222 381.982C423.238 381.399 423.395 380.827 423.68 380.318C423.965 379.808 424.37 379.375 424.858 379.055C425.347 378.736 425.906 378.539 426.488 378.483C425.986 376.991 425.951 375.381 426.388 373.869C426.825 372.357 427.713 371.014 428.933 370.02C429.23 369.753 429.605 369.59 430.003 369.553C430.425 369.596 430.823 369.771 431.14 370.054L437.965 374.922C438.508 375.253 438.968 375.705 439.308 376.242C440.695 378.927 435.702 382.362 437.749 384.58C438.341 385.217 439.296 385.342 440.024 385.809C441.64 386.81 441.833 389.028 442.584 390.768C443.335 392.509 445.996 393.874 446.963 392.259C446.224 390.586 448.453 389.142 450.274 388.926C452.094 388.709 453.993 388.618 454.994 386.912C457.577 389.187 463.355 382.874 463.219 380.337C465.346 380.496 466.791 382.487 467.257 384.466C467.551 386.561 467.624 388.681 467.473 390.791C467.541 394.898 468.861 398.925 468.793 403.031C468.736 406.228 467.496 409.777 464.572 411.062C463.114 411.576 461.565 411.785 460.022 411.676L426.692 411.46C425.892 411.511 425.091 411.379 424.349 411.073C422.847 410.289 422.529 408.309 422.392 406.614C421.801 399.38 421.206 392.141 420.606 384.899L423.587 383.67Z" fill="white"/>
<path d="M415.817 348.452L416.25 353.673L416.545 357.404L417.33 367.119L417.774 372.681L418.388 380.11L418.616 383.352L418.684 384.296L418.991 388.027L419.401 393.169L419.662 396.342L419.924 399.562L420.231 403.304L420.459 406.159L420.72 409.333L420.891 410.653H468.349L468.463 409.265L468.668 406.102L468.895 403.27L469.202 399.527L469.475 396.297L469.725 393.123L470.135 387.993L470.442 384.25L470.533 383.306L470.783 380.121L471.375 372.693L471.83 367.119L472.615 357.416L472.922 353.684L473.343 348.463H415.817V348.452ZM418.445 350.875H419.526L418.525 351.876L418.445 350.875ZM422.995 350.875H424.133L428.888 355.63L423.575 360.931L418.946 356.312L418.855 355.038L422.995 350.875ZM419.89 368.04L423.553 364.377L428.854 369.701L423.541 375.013L420.129 371.601L419.89 368.04ZM469.077 371.589L465.664 375.002L460.352 369.701L465.653 364.411L469.327 368.074L469.077 371.589ZM430.583 357.336L435.884 362.648L430.583 367.961L425.27 362.648L430.583 357.336ZM430.583 353.923L427.545 350.886H433.62L430.583 353.923ZM437.601 364.389L442.914 369.678L437.601 374.991L432.266 369.701L437.601 364.389ZM444.62 382.009L439.33 376.708L444.62 371.407L449.932 376.708L444.62 382.009ZM451.65 378.426L456.951 383.738L451.604 389.039L446.292 383.727L451.65 378.426ZM442.914 383.727L437.556 389.039L432.266 383.727L437.567 378.415L442.914 383.727ZM439.33 362.66L444.62 357.347L449.932 362.66L444.62 367.972L439.33 362.66ZM451.604 364.377L456.905 369.667L451.604 374.979L446.303 369.701L451.604 364.377ZM453.322 362.648L458.634 357.336L463.935 362.648L458.634 367.961L453.322 362.648ZM463.935 376.697L458.634 381.998L453.322 376.697L458.634 371.396L463.935 376.697ZM458.634 385.445L463.935 390.746L458.634 396.047L453.322 390.746L458.634 385.445ZM456.905 397.776L451.604 403.077L446.303 397.776L451.604 392.452L456.905 397.776ZM444.574 396.047L439.285 390.746L444.574 385.445L449.887 390.746L444.574 396.047ZM442.868 397.776L437.556 403.077L432.266 397.776L437.567 392.463L442.868 397.776ZM435.838 404.794L432.425 408.207H428.683L425.27 404.794L430.583 399.482L435.838 404.794ZM430.537 396.047L425.225 390.746L430.537 385.445L435.838 390.746L430.537 396.047ZM430.537 381.998L425.225 376.697L430.537 371.396L435.838 376.697L430.537 381.998ZM436.998 350.875H438.136L442.891 355.63L437.579 360.931L432.266 355.63L436.998 350.875ZM441.549 350.875H447.612L444.574 353.912L441.549 350.875ZM451.036 350.875H452.173L456.917 355.63L451.604 360.931L446.303 355.63L451.036 350.875ZM461.66 350.875L458.634 353.912L455.597 350.875H461.66ZM466.21 350.875L470.374 355.038L470.272 356.312L465.653 360.931L460.352 355.63L465.096 350.875H466.21ZM470.761 350.875L470.67 351.864L469.691 350.875H470.761ZM469.623 364.855L467.416 362.648L470.01 360.055L469.623 364.855ZM468.565 377.846L467.428 376.708L468.793 375.343L468.577 377.857L468.565 377.846ZM467.837 386.889L465.653 389.039L460.352 383.738L465.653 378.426L468.269 381.054L467.837 386.889ZM467.53 390.859L467.416 390.746L467.541 390.632V390.859H467.53ZM466.597 402.167L465.699 403.065L460.398 397.776L465.699 392.463L467.268 394.033L466.597 402.167ZM463.981 408.23L465.699 406.512L466.21 407.012L466.119 408.23H463.981ZM460.568 408.23H456.826L453.413 404.817L458.725 399.505L464.026 404.817L460.568 408.23ZM449.944 408.23L451.673 406.512L453.39 408.23H449.944ZM442.777 408.23L439.364 404.817L444.654 399.505L449.966 404.817L446.554 408.23H442.777ZM435.895 408.23L437.624 406.512L439.353 408.23H435.895ZM423.064 407.012L423.575 406.512L425.304 408.23H423.166L423.064 407.012ZM422.017 394.033L423.507 392.452L428.819 397.764L423.507 403.054L422.597 402.155L422.017 394.033ZM421.733 390.62L421.869 390.746L421.755 390.859V390.62H421.733ZM420.891 381.076L423.507 378.449L428.819 383.761L423.507 389.039L421.357 386.901L420.891 381.076ZM420.424 375.389L421.801 376.754L420.663 377.891L420.424 375.389ZM419.184 360.032L421.801 362.648L419.526 364.923L419.139 360.077L419.184 360.032Z" fill="#92E3A9"/>
<g opacity="0.6">
<path d="M415.817 348.452L416.25 353.673L416.545 357.404L417.33 367.119L417.774 372.681L418.388 380.11L418.616 383.352L418.684 384.296L418.991 388.027L419.401 393.169L419.662 396.342L419.924 399.562L420.231 403.304L420.459 406.159L420.72 409.333L420.891 410.653H468.349L468.463 409.265L468.668 406.102L468.895 403.27L469.202 399.527L469.475 396.297L469.725 393.123L470.135 387.993L470.442 384.25L470.533 383.306L470.783 380.121L471.375 372.693L471.83 367.119L472.615 357.416L472.922 353.684L473.343 348.463H415.817V348.452ZM418.445 350.875H419.526L418.525 351.876L418.445 350.875ZM422.995 350.875H424.133L428.888 355.63L423.575 360.931L418.946 356.312L418.855 355.038L422.995 350.875ZM419.89 368.04L423.553 364.377L428.854 369.701L423.541 375.013L420.129 371.601L419.89 368.04ZM469.077 371.589L465.664 375.002L460.352 369.701L465.653 364.411L469.327 368.074L469.077 371.589ZM430.583 357.336L435.884 362.648L430.583 367.961L425.27 362.648L430.583 357.336ZM430.583 353.923L427.545 350.886H433.62L430.583 353.923ZM437.601 364.389L442.914 369.678L437.601 374.991L432.266 369.701L437.601 364.389ZM444.62 382.009L439.33 376.708L444.62 371.407L449.932 376.708L444.62 382.009ZM451.65 378.426L456.951 383.738L451.604 389.039L446.292 383.727L451.65 378.426ZM442.914 383.727L437.556 389.039L432.266 383.727L437.567 378.415L442.914 383.727ZM439.33 362.66L444.62 357.347L449.932 362.66L444.62 367.972L439.33 362.66ZM451.604 364.377L456.905 369.667L451.604 374.979L446.303 369.701L451.604 364.377ZM453.322 362.648L458.634 357.336L463.935 362.648L458.634 367.961L453.322 362.648ZM463.935 376.697L458.634 381.998L453.322 376.697L458.634 371.396L463.935 376.697ZM458.634 385.445L463.935 390.746L458.634 396.047L453.322 390.746L458.634 385.445ZM456.905 397.776L451.604 403.077L446.303 397.776L451.604 392.452L456.905 397.776ZM444.574 396.047L439.285 390.746L444.574 385.445L449.887 390.746L444.574 396.047ZM442.868 397.776L437.556 403.077L432.266 397.776L437.567 392.463L442.868 397.776ZM435.838 404.794L432.425 408.207H428.683L425.27 404.794L430.583 399.482L435.838 404.794ZM430.537 396.047L425.225 390.746L430.537 385.445L435.838 390.746L430.537 396.047ZM430.537 381.998L425.225 376.697L430.537 371.396L435.838 376.697L430.537 381.998ZM436.998 350.875H438.136L442.891 355.63L437.579 360.931L432.266 355.63L436.998 350.875ZM441.549 350.875H447.612L444.574 353.912L441.549 350.875ZM451.036 350.875H452.173L456.917 355.63L451.604 360.931L446.303 355.63L451.036 350.875ZM461.66 350.875L458.634 353.912L455.597 350.875H461.66ZM466.21 350.875L470.374 355.038L470.272 356.312L465.653 360.931L460.352 355.63L465.096 350.875H466.21ZM470.761 350.875L470.67 351.864L469.691 350.875H470.761ZM469.623 364.855L467.416 362.648L470.01 360.055L469.623 364.855ZM468.565 377.846L467.428 376.708L468.793 375.343L468.577 377.857L468.565 377.846ZM467.837 386.889L465.653 389.039L460.352 383.738L465.653 378.426L468.269 381.054L467.837 386.889ZM467.53 390.859L467.416 390.746L467.541 390.632V390.859H467.53ZM466.597 402.167L465.699 403.065L460.398 397.776L465.699 392.463L467.268 394.033L466.597 402.167ZM463.981 408.23L465.699 406.512L466.21 407.012L466.119 408.23H463.981ZM460.568 408.23H456.826L453.413 404.817L458.725 399.505L464.026 404.817L460.568 408.23ZM449.944 408.23L451.673 406.512L453.39 408.23H449.944ZM442.777 408.23L439.364 404.817L444.654 399.505L449.966 404.817L446.554 408.23H442.777ZM435.895 408.23L437.624 406.512L439.353 408.23H435.895ZM423.064 407.012L423.575 406.512L425.304 408.23H423.166L423.064 407.012ZM422.017 394.033L423.507 392.452L428.819 397.764L423.507 403.054L422.597 402.155L422.017 394.033ZM421.733 390.62L421.869 390.746L421.755 390.859V390.62H421.733ZM420.891 381.076L423.507 378.449L428.819 383.761L423.507 389.039L421.357 386.901L420.891 381.076ZM420.424 375.389L421.801 376.754L420.663 377.891L420.424 375.389ZM419.184 360.032L421.801 362.648L419.526 364.923L419.139 360.077L419.184 360.032Z" fill="white"/>
</g>
<path d="M474.787 346.279H414.372C413.342 346.279 412.507 347.114 412.507 348.145V351.182C412.507 352.212 413.342 353.047 414.372 353.047H474.787C475.818 353.047 476.653 352.212 476.653 351.182V348.145C476.653 347.114 475.818 346.279 474.787 346.279Z" fill="#92E3A9"/>
<path d="M418.99 413.792H470.157C471.187 413.792 472.022 412.957 472.022 411.927V408.889C472.022 407.859 471.187 407.024 470.157 407.024H418.99C417.96 407.024 417.125 407.859 417.125 408.889V411.927C417.125 412.957 417.96 413.792 418.99 413.792Z" fill="#92E3A9"/>
<path d="M257.721 69.0601H219.648C216.175 69.0601 212.845 70.4395 210.39 72.8949C207.934 75.3504 206.555 78.6807 206.555 82.1532V119.146C206.555 122.619 207.934 125.949 210.39 128.404C212.845 130.86 216.175 132.239 219.648 132.239H224.824V146.06L233.594 132.239H257.687C261.16 132.239 264.49 130.86 266.945 128.404C269.401 125.949 270.78 122.619 270.78 119.146V82.1532C270.78 78.6866 269.406 75.3614 266.957 72.907C264.509 70.4525 261.188 69.0691 257.721 69.0601Z" fill="#92E3A9"/>
<path opacity="0.4" d="M257.721 69.0601H219.648C216.175 69.0601 212.845 70.4395 210.39 72.8949C207.934 75.3504 206.555 78.6807 206.555 82.1532V119.146C206.555 122.619 207.934 125.949 210.39 128.404C212.845 130.86 216.175 132.239 219.648 132.239H224.824V146.06L233.594 132.239H257.687C261.16 132.239 264.49 130.86 266.945 128.404C269.401 125.949 270.78 122.619 270.78 119.146V82.1532C270.78 78.6866 269.406 75.3614 266.957 72.907C264.509 70.4525 261.188 69.0691 257.721 69.0601Z" fill="white"/>
<path d="M244.981 94.5979C244.981 91.8109 242.603 89.934 238.781 89.934C237.224 89.8451 235.669 90.1473 234.258 90.8129C232.848 91.4784 231.626 92.4863 230.704 93.7448L225.893 90.6279C228.668 86.8512 233.127 84.5762 239.327 84.5762C246.619 84.5762 251.487 87.8978 251.487 93.5969C251.487 101.685 243.001 102.424 243.001 108.283H236.699C236.699 100.945 244.981 99.5576 244.981 94.5979ZM235.88 116.268C235.864 115.485 236.082 114.714 236.506 114.055C236.929 113.396 237.539 112.877 238.258 112.566C238.977 112.255 239.773 112.165 240.543 112.307C241.314 112.449 242.025 112.817 242.585 113.365C243.146 113.913 243.53 114.615 243.691 115.382C243.851 116.149 243.779 116.946 243.484 117.672C243.19 118.398 242.686 119.02 242.037 119.459C241.388 119.898 240.622 120.133 239.839 120.136C239.323 120.154 238.809 120.068 238.328 119.881C237.848 119.694 237.41 119.41 237.043 119.048C236.675 118.686 236.385 118.253 236.191 117.775C235.997 117.297 235.903 116.784 235.914 116.268H235.88Z" fill="white"/>
<path d="M162.498 244.697C162.498 244.697 165.706 308.934 179.561 319.991H164.773C164.773 319.991 151.578 298.104 150.588 244.697H162.498Z" fill="#263238"/>
<path opacity="0.2" d="M162.498 244.697C162.498 244.697 165.706 308.934 179.561 319.991H164.773C164.773 319.991 151.578 298.104 150.588 244.697H162.498Z" fill="white"/>
<path d="M151.385 253.751H165.388C169.494 253.751 172.463 250.066 172.008 245.516L171.417 239.441C170.962 234.891 167.276 231.205 163.17 231.205H149.167C145.06 231.205 142.102 234.902 142.546 239.441L143.149 245.516C143.593 250.066 147.278 253.751 151.385 253.751Z" fill="#263238"/>
<path d="M149.212 258.757H172.907C179.846 258.757 184.862 252.511 184.1 244.822L183.088 234.584C182.337 226.883 176.092 220.649 169.153 220.649H145.458C138.508 220.649 133.502 226.883 134.253 234.584L135.266 244.822C136.028 252.534 142.273 258.757 149.212 258.757Z" fill="#263238"/>
<path opacity="0.5" d="M149.212 258.757H172.907C179.846 258.757 184.862 252.511 184.1 244.822L183.088 234.584C182.337 226.883 176.092 220.649 169.153 220.649H145.458C138.508 220.649 133.502 226.883 134.253 234.584L135.266 244.822C136.028 252.534 142.273 258.757 149.212 258.757Z" fill="white"/>
<path d="M160.837 313.427H227.349C228.02 313.427 228.684 313.559 229.304 313.816C229.923 314.072 230.486 314.449 230.961 314.923C231.435 315.397 231.811 315.96 232.068 316.58C232.325 317.2 232.457 317.864 232.457 318.535V324.074H155.729V318.512C155.736 317.161 156.276 315.868 157.233 314.915C158.191 313.962 159.486 313.427 160.837 313.427Z" fill="#263238"/>
<path opacity="0.5" d="M160.837 313.427H227.349C228.02 313.427 228.684 313.559 229.304 313.816C229.923 314.072 230.486 314.449 230.961 314.923C231.435 315.397 231.811 315.96 232.068 316.58C232.325 317.2 232.457 317.864 232.457 318.535V324.074H155.729V318.512C155.736 317.161 156.276 315.868 157.233 314.915C158.191 313.962 159.486 313.427 160.837 313.427Z" fill="white"/>
<path d="M158.403 393.078L187.979 390.495V351.648H198.376V390.484L228.066 393.078C229.318 393.215 230.475 393.81 231.314 394.749C232.154 395.687 232.618 396.903 232.616 398.162V402.098H153.784V398.14C153.792 396.874 154.269 395.657 155.121 394.722C155.974 393.787 157.143 393.201 158.403 393.078Z" fill="#263238"/>
<path d="M223.106 406.99C223.106 408.34 223.507 409.659 224.257 410.782C225.007 411.904 226.073 412.779 227.32 413.295C228.567 413.812 229.939 413.947 231.263 413.684C232.587 413.42 233.803 412.77 234.758 411.816C235.712 410.861 236.362 409.645 236.626 408.321C236.889 406.997 236.754 405.625 236.237 404.378C235.721 403.131 234.846 402.065 233.724 401.315C232.601 400.565 231.282 400.164 229.932 400.164C228.122 400.164 226.385 400.884 225.106 402.163C223.826 403.443 223.106 405.18 223.106 406.99Z" fill="#263238"/>
<path d="M163.362 406.99C163.362 408.34 162.962 409.659 162.212 410.782C161.462 411.904 160.396 412.779 159.149 413.295C157.902 413.812 156.53 413.947 155.206 413.684C153.882 413.42 152.666 412.77 151.711 411.816C150.756 410.861 150.106 409.645 149.843 408.321C149.58 406.997 149.715 405.625 150.231 404.378C150.748 403.131 151.623 402.065 152.745 401.315C153.868 400.565 155.187 400.164 156.537 400.164C158.347 400.164 160.083 400.884 161.363 402.163C162.643 403.443 163.362 405.18 163.362 406.99Z" fill="#263238"/>
<path d="M195.954 359.566H190.425C189.871 359.566 189.322 359.457 188.81 359.244C188.298 359.032 187.833 358.722 187.441 358.33C187.049 357.938 186.738 357.472 186.526 356.96C186.314 356.448 186.205 355.9 186.205 355.345V321.538H200.174V355.345C200.174 356.465 199.729 357.538 198.938 358.33C198.146 359.121 197.073 359.566 195.954 359.566Z" fill="#263238"/>
<path opacity="0.2" d="M195.954 359.566H190.425C189.871 359.566 189.322 359.457 188.81 359.244C188.298 359.032 187.833 358.722 187.441 358.33C187.049 357.938 186.738 357.472 186.526 356.96C186.314 356.448 186.205 355.9 186.205 355.345V321.538H200.174V355.345C200.174 356.465 199.729 357.538 198.938 358.33C198.146 359.121 197.073 359.566 195.954 359.566Z" fill="white"/>
<path d="M233.322 319.99H154.866C153.728 319.99 152.807 320.912 152.807 322.049V323.255C152.807 324.392 153.728 325.314 154.866 325.314H233.322C234.459 325.314 235.381 324.392 235.381 323.255V322.049C235.381 320.912 234.459 319.99 233.322 319.99Z" fill="#263238"/>
<path opacity="0.2" d="M223.106 406.99C223.106 408.34 223.507 409.659 224.257 410.782C225.007 411.904 226.073 412.779 227.32 413.295C228.567 413.812 229.939 413.947 231.263 413.684C232.587 413.42 233.803 412.77 234.758 411.816C235.712 410.861 236.362 409.645 236.626 408.321C236.889 406.997 236.754 405.625 236.237 404.378C235.721 403.131 234.846 402.065 233.724 401.315C232.601 400.565 231.282 400.164 229.932 400.164C228.122 400.164 226.385 400.884 225.106 402.163C223.826 403.443 223.106 405.18 223.106 406.99Z" fill="white"/>
<path opacity="0.2" d="M163.362 406.99C163.362 408.34 162.962 409.659 162.212 410.782C161.462 411.904 160.396 412.779 159.149 413.295C157.902 413.812 156.53 413.947 155.206 413.684C153.882 413.42 152.666 412.77 151.711 411.816C150.756 410.861 150.106 409.645 149.843 408.321C149.58 406.997 149.715 405.625 150.231 404.378C150.748 403.131 151.623 402.065 152.745 401.315C153.868 400.565 155.187 400.164 156.537 400.164C158.347 400.164 160.083 400.884 161.363 402.163C162.643 403.443 163.362 405.18 163.362 406.99Z" fill="white"/>
<path d="M166.082 159.836C166.082 159.836 168.072 153.443 176.422 152.283C184.771 151.122 194.941 153.932 197.011 157.413C199.082 160.894 197.489 164.318 200.276 165.467C203.063 166.616 207.033 169.448 206.26 172.292C205.486 175.136 202.676 180.903 205.771 182.03C208.865 183.156 210.81 187.717 209.456 189.992C208.102 192.267 207.613 195.088 209.16 195.885C210.707 196.681 212.573 198.239 211.288 200.606C210.002 202.972 208.774 203.302 210.707 205.315C212.641 207.328 209.297 211.856 209.297 211.856C209.297 211.856 164.637 217.168 159.245 212.493C153.853 207.818 157.209 203.688 158.369 202.46C159.529 201.231 156.651 201.709 156.253 197.068C155.855 192.427 158.665 191.744 159.245 189.025C159.825 186.307 156.97 183.702 158.858 181.063C160.747 178.424 161.349 176.945 159.996 174.169C158.642 171.393 158.415 160.029 166.082 159.836Z" fill="#263238"/>
<path d="M242.718 205.36L252.614 204.041L246.563 194.759C246.563 194.759 237.701 198.444 238.782 202.915L242.718 205.36Z" fill="#E4897B"/>
<path d="M260.315 197.819L252.398 191.608L246.562 194.759L252.614 204.041L260.315 197.819Z" fill="#E4897B"/>
<path d="M245.107 205.44C245.107 205.44 233.731 245.516 224.801 243.093C219.864 241.75 215.121 236.995 211.344 232.058C208.187 227.855 205.412 223.378 203.052 218.681V218.533L201.914 199.513C210.753 201.686 223.709 225.495 223.709 225.495L238.02 202.005L245.107 205.44Z" fill="#92E3A9"/>
<path opacity="0.7" d="M200.208 226.655C191.972 219.227 182.839 212.861 173.021 207.704C173.923 207.59 174.833 207.499 175.751 207.431C181.984 206.771 188.256 206.558 194.52 206.794C196.078 206.885 197.671 207.01 199.241 207.146C203.165 216.053 200.208 226.655 200.208 226.655Z" fill="white"/>
<path d="M173.065 266.572C172.212 256.959 168.766 239.328 162.828 220.808C160.894 214.791 164.17 208 164.17 208C164.17 208 172.235 207.783 173.054 207.704C173.873 207.624 174.863 207.499 175.784 207.431C182.017 206.771 188.29 206.558 194.554 206.794C196.112 206.885 197.705 207.01 199.274 207.146C199.775 207.146 205.451 207.249 205.94 207.294C205.94 207.294 213.801 216.281 214.279 223.561C214.859 229.157 215.075 234.784 214.927 240.408C214.927 247.017 214.404 255.731 213.971 265.013L173.065 266.572Z" fill="#92E3A9"/>
<path opacity="0.8" d="M173.065 266.572C172.212 256.959 168.766 239.328 162.828 220.808C160.894 214.791 164.17 208 164.17 208C164.17 208 172.235 207.783 173.054 207.704C173.873 207.624 174.863 207.499 175.784 207.431C182.017 206.771 188.29 206.558 194.554 206.794C196.112 206.885 197.705 207.01 199.274 207.146C199.775 207.146 205.451 207.249 205.94 207.294C205.94 207.294 213.801 216.281 214.279 223.561C214.859 229.157 215.075 234.784 214.927 240.408C214.927 247.017 214.404 255.731 213.971 265.013L173.065 266.572Z" fill="white"/>
<path d="M173.066 266.572L214.017 263.807C214.017 263.807 215.246 276.116 214.962 275.934C214.677 275.752 171.109 277.469 171.109 277.469L173.066 266.572Z" fill="#263238"/>
<path d="M173.441 267.254L213.983 265.013V268.858L173.065 271.031L173.441 267.254Z" fill="black"/>
<path d="M196.261 270.428C195.978 270.429 195.704 270.325 195.494 270.136C195.284 269.946 195.151 269.686 195.123 269.404L194.941 267.129C194.925 266.836 195.023 266.549 195.213 266.326C195.404 266.104 195.673 265.963 195.965 265.934L200.401 265.593C200.554 265.583 200.708 265.604 200.852 265.655C200.997 265.706 201.13 265.785 201.243 265.889C201.353 265.993 201.44 266.119 201.501 266.257C201.561 266.396 201.594 266.545 201.596 266.697V269.074C201.597 269.361 201.489 269.637 201.295 269.848C201.101 270.059 200.835 270.189 200.549 270.212L196.283 270.439L196.261 270.428ZM200.527 266.276L196.079 266.617C196.019 266.621 195.961 266.637 195.908 266.665C195.855 266.692 195.808 266.729 195.77 266.775C195.732 266.82 195.703 266.873 195.686 266.93C195.669 266.987 195.663 267.047 195.669 267.106L195.851 269.381C195.852 269.44 195.866 269.497 195.89 269.55C195.915 269.603 195.95 269.65 195.994 269.689C196.038 269.727 196.09 269.756 196.145 269.774C196.201 269.791 196.26 269.797 196.318 269.791L200.583 269.563C200.697 269.557 200.804 269.508 200.882 269.426C200.961 269.343 201.004 269.233 201.004 269.12V266.742C201.005 266.681 200.993 266.62 200.97 266.563C200.946 266.507 200.912 266.455 200.868 266.412C200.824 266.366 200.771 266.331 200.712 266.307C200.653 266.283 200.59 266.273 200.527 266.276Z" fill="white"/>
<path d="M216.52 273.397C205.634 272.316 191.494 271.44 173.066 271.031C173.066 271.031 159.336 303.371 175.614 313.029C180.54 315.952 188.662 317.113 197.603 317.295C200.065 317.352 202.513 316.917 204.805 316.016C207.096 315.114 209.184 313.763 210.946 312.044C212.708 310.324 214.109 308.269 215.066 306C216.024 303.732 216.518 301.295 216.52 298.832V273.397Z" fill="#263238"/>
<path d="M176.387 294.726L162.236 292.155L170.472 261.692C170.472 261.692 168.356 254.127 166.081 245.459C165.501 243.275 164.944 241.034 164.329 238.816C163.715 236.597 163.26 234.686 162.782 232.764C161.672 228.8 160.798 224.774 160.166 220.706C159.904 215.849 159.097 202.71 163.761 200.651C166.525 199.423 172.19 202.323 175.773 202.994C181.151 213.309 184.097 224.718 184.384 236.347C184.953 256.038 176.387 294.726 176.387 294.726Z" fill="#92E3A9"/>
<path d="M189.833 203.449C189.833 203.449 203.051 205.099 208.682 233.253C210.957 244.628 216.372 293.349 216.372 293.349L219.443 291.814L215.177 262.772C215.177 262.772 216.713 229.124 215.519 222.219C214.324 215.314 208.273 200.344 201.971 199.468C199.411 199.172 189.833 203.449 189.833 203.449Z" fill="#92E3A9"/>
<path d="M190.447 203.051L191.107 202.482C198.75 203.521 205.716 207.414 210.605 213.38L207.533 216.383L212.72 220.683L210.218 243.73C210.218 243.73 202.255 216.542 198.763 210.013C198.785 209.956 192.995 204.302 190.447 203.051Z" fill="#92E3A9"/>
<path opacity="0.2" d="M190.447 203.051L191.062 202.551C198.703 203.56 205.674 207.44 210.559 213.403L207.488 216.406L212.72 220.683L210.218 243.73C210.218 243.73 202.255 216.543 198.763 210.013C198.785 209.956 192.995 204.303 190.447 203.051Z" fill="black"/>
<path d="M176.069 204.223C176.069 204.223 186.307 217.259 184.089 245.937L173.089 225.313L176.593 219.682L168.402 212.004C168.402 212.004 173.692 201.766 176.729 202.551L176.069 204.223Z" fill="#92E3A9"/>
<path opacity="0.2" d="M176.069 204.223C176.069 204.223 186.307 217.259 184.089 245.937L173.089 225.313L176.593 219.682L168.402 212.004C168.402 212.004 173.692 201.766 176.729 202.551L176.069 204.223Z" fill="black"/>
<path d="M176.934 201.925C176.934 201.925 180.028 203.063 189.958 202.323C189.958 202.323 193.712 205.804 194.895 209.456C196.078 213.107 192.302 216.645 186.296 213.448C180.289 210.252 176.934 201.925 176.934 201.925Z" fill="#92E3A9"/>
<path opacity="0.5" d="M176.934 201.925C176.934 201.925 180.028 203.063 189.958 202.323C189.958 202.323 193.712 205.804 194.895 209.456C196.078 213.107 192.302 216.645 186.296 213.448C180.289 210.252 176.934 201.925 176.934 201.925Z" fill="white"/>
<path d="M196.988 209.444L194.713 223.038L176.831 207.397C180.619 203.222 178.23 192.233 176.398 186.238L181.46 190.038L188.991 195.668C188.849 197.221 188.972 198.787 189.355 200.298C189.924 202.699 190.948 204.951 192.074 205.429L196.988 209.444Z" fill="#E4897B"/>
<path opacity="0.2" d="M189.355 200.298C186.352 199.627 182.416 196.522 181.779 193.473C181.535 192.353 181.428 191.207 181.461 190.061L188.991 195.691C188.852 197.237 188.975 198.794 189.355 200.298Z" fill="black"/>
<path d="M176.934 201.925C183.314 208.215 189.14 215.043 194.349 222.333C194.349 222.333 196.124 208.682 189.958 202.323L191.38 202.153C196.356 205.414 200.796 209.428 204.542 214.051L198.615 212.174L194.52 223.14L182.348 213.062L174.147 214.484C174.147 214.484 173.771 204.359 176.934 201.925Z" fill="#92E3A9"/>
<path opacity="0.7" d="M176.934 201.925C183.314 208.215 189.14 215.043 194.349 222.333C194.349 222.333 196.124 208.682 189.958 202.323L191.38 202.153C196.356 205.414 200.796 209.428 204.542 214.051L198.615 212.174L194.52 223.14L182.348 213.062L174.147 214.484C174.147 214.484 173.771 204.359 176.934 201.925Z" fill="white"/>
<path d="M170.825 174.294C172.987 183.986 173.703 188.127 179.425 192.609C188.036 199.366 199.412 195.248 200.174 185.272C200.856 176.285 197.205 161.952 187.035 159.108C184.878 158.415 182.575 158.312 180.365 158.809C178.154 159.306 176.117 160.384 174.464 161.933C172.81 163.482 171.601 165.445 170.961 167.618C170.322 169.792 170.275 172.097 170.825 174.294Z" fill="#E4897B"/>
<path d="M183.338 175.5C183.486 176.319 184.032 176.933 184.555 176.876C185.078 176.82 185.397 176.114 185.249 175.295C185.101 174.476 184.555 173.851 184.02 173.907C183.486 173.964 183.144 174.681 183.338 175.5Z" fill="#263238"/>
<path d="M193.564 174.044C193.712 174.863 194.258 175.477 194.781 175.42C195.304 175.364 195.623 174.658 195.475 173.828C195.327 172.997 194.781 172.395 194.258 172.451C193.735 172.508 193.382 173.248 193.564 174.044Z" fill="#263238"/>
<path d="M194.031 172.554L195.863 171.78C195.863 171.78 195.146 173.418 194.031 172.554Z" fill="#263238"/>
<path d="M190.755 176.217C191.809 178.015 193.09 179.67 194.566 181.142C194.198 181.487 193.758 181.743 193.277 181.893C192.796 182.043 192.288 182.082 191.79 182.007L190.755 176.217Z" fill="#DE5753"/>
<path d="M184.044 167.696C183.919 167.73 183.812 167.812 183.748 167.924C183.488 168.453 183.1 168.909 182.619 169.251C182.138 169.592 181.58 169.809 180.995 169.881C180.933 169.883 180.873 169.899 180.818 169.926C180.763 169.953 180.714 169.991 180.674 170.038C180.635 170.085 180.605 170.14 180.588 170.199C180.571 170.258 180.566 170.32 180.574 170.381C180.588 170.511 180.652 170.63 180.751 170.715C180.85 170.799 180.978 170.843 181.109 170.836C181.854 170.76 182.568 170.497 183.184 170.072C183.801 169.646 184.3 169.072 184.635 168.402C184.687 168.285 184.692 168.153 184.65 168.032C184.608 167.912 184.521 167.812 184.408 167.753C184.297 167.691 184.168 167.671 184.044 167.696Z" fill="#263238"/>
<path d="M193.178 165.467C193.119 165.461 193.059 165.467 193.002 165.485C192.946 165.502 192.893 165.531 192.848 165.569C192.759 165.66 192.709 165.783 192.709 165.91C192.709 166.038 192.759 166.16 192.848 166.252C193.342 166.859 193.97 167.344 194.682 167.67C195.394 167.995 196.172 168.152 196.954 168.129C197.016 168.123 197.076 168.105 197.13 168.075C197.184 168.045 197.232 168.005 197.269 167.955C197.307 167.906 197.334 167.849 197.348 167.789C197.362 167.729 197.364 167.666 197.352 167.605C197.323 167.484 197.25 167.378 197.147 167.306C197.044 167.235 196.919 167.204 196.795 167.219C196.174 167.227 195.56 167.094 194.998 166.83C194.437 166.566 193.943 166.177 193.553 165.694C193.51 165.632 193.454 165.579 193.39 165.54C193.325 165.501 193.253 165.476 193.178 165.467Z" fill="#263238"/>
<path d="M183.805 173.976L185.636 173.202C185.636 173.202 184.919 174.852 183.805 173.976Z" fill="#263238"/>
<path d="M175.796 179.914C175.796 179.914 180.562 172.975 176.933 162.703C176.933 162.703 187.706 157.47 195.862 165.444C195.862 165.444 188.275 152.135 172.417 158.505C156.56 164.875 168.516 180.119 170.483 181.381C172.451 182.644 175.796 179.914 175.796 179.914Z" fill="#263238"/>
<path d="M168.891 182.678C170.162 184.359 172.048 185.467 174.135 185.761C176.82 186.079 177.548 183.372 176.41 180.892C175.273 178.617 172.588 175.784 170.131 176.626C167.674 177.468 167.219 180.551 168.891 182.678Z" fill="#E4897B"/>
<path d="M191.801 186.557C191.756 186.557 191.712 186.548 191.671 186.53C191.63 186.513 191.593 186.487 191.562 186.455C190.782 185.732 189.85 185.194 188.833 184.881C187.817 184.568 186.744 184.488 185.692 184.646C185.65 184.654 185.606 184.654 185.564 184.645C185.521 184.636 185.481 184.62 185.445 184.595C185.409 184.571 185.378 184.54 185.354 184.504C185.33 184.467 185.314 184.427 185.306 184.384C185.292 184.297 185.313 184.208 185.364 184.136C185.415 184.064 185.492 184.014 185.579 183.997C186.737 183.81 187.923 183.894 189.044 184.241C190.165 184.588 191.19 185.19 192.04 185.999C192.102 186.061 192.136 186.145 192.136 186.233C192.136 186.32 192.102 186.404 192.04 186.466C192.009 186.497 191.972 186.522 191.93 186.537C191.889 186.553 191.845 186.56 191.801 186.557Z" fill="#263238"/>
<path opacity="0.2" d="M164.284 238.816C163.738 236.734 163.215 234.686 162.737 232.764C165.354 229.613 166.741 216.11 166.741 216.11C166.741 216.11 168.562 232.571 164.284 238.816Z" fill="black"/>
<path d="M130.886 206.498L120.989 205.179L127.041 195.896C127.041 195.896 135.902 199.821 134.833 204.303L130.886 206.498Z" fill="#E4897B"/>
<path d="M113.288 198.956L121.205 192.745L127.041 195.896L120.989 205.178L113.288 198.956Z" fill="#E4897B"/>
<path d="M128.543 206.578C128.543 206.578 139.918 246.653 148.848 244.23C153.796 242.888 158.529 238.133 162.305 233.196C165.301 229.289 167.257 224.687 167.993 219.819L163.795 200.651C158.472 201.789 149.929 226.633 149.929 226.633L135.607 203.142L128.543 206.578Z" fill="#92E3A9"/>
<path d="M180.949 300.038V315.236C194.486 319.138 222.595 317.647 239.305 316.294C242.934 315.996 246.318 314.344 248.785 311.665C251.251 308.986 252.618 305.477 252.614 301.835V289.323C252.616 287.306 252.003 285.337 250.857 283.679C249.711 282.02 248.085 280.751 246.199 280.04C238.099 276.992 223.357 272.453 207.932 272.692C200.739 272.776 193.869 275.695 188.817 280.816C183.764 285.937 180.937 292.844 180.949 300.038Z" fill="#263238"/>
<path d="M251.192 343.981C246.267 357.291 240.579 373.956 234.505 394.989C234.391 395.375 234.277 395.762 234.175 396.126C234.072 396.49 233.936 396.934 233.822 397.343L227.509 395.865L225.143 395.284C225.143 395.284 225.245 394.352 225.438 392.702C225.438 392.361 225.518 391.997 225.552 391.565C227.247 376.89 233.754 323.039 240.215 311.857C240.215 311.857 232.901 313.211 227.349 312.278C223.357 311.607 218.511 283.942 218.511 283.942C225.256 282.108 232.202 281.111 239.191 280.973H239.339C239.339 280.973 262.75 284.647 266.64 290.403C271.486 297.49 263.978 309.411 251.192 343.981Z" fill="#E4897B"/>
<path d="M243.07 413.781L228.373 407.297L223.732 402.11L222.287 404.066L220.535 403.304C219.716 396.775 222.879 393.726 224.551 392.338C224.665 392.236 224.835 392.111 225.04 391.963C225.097 391.904 225.162 391.854 225.233 391.815L225.313 391.758L225.541 391.587L225.677 391.508L233.742 395.068C233.742 395.068 233.879 395.489 234.129 396.206C234.937 398.481 236.927 403.657 239.134 406.444C239.225 406.557 239.316 406.683 239.407 406.785C239.657 407.08 239.931 407.354 240.226 407.604C246.46 412.473 243.07 413.781 243.07 413.781Z" fill="#92E3A9"/>
<path d="M239.453 406.694C237.178 407.593 233.913 405.318 231.49 402.349C229.983 400.303 228.651 398.134 227.509 395.865C226.96 394.725 226.264 393.662 225.439 392.702C225.097 392.395 224.779 392.27 224.506 392.395C224.62 392.293 224.79 392.168 224.995 392.02C225.053 391.962 225.118 391.913 225.188 391.872L225.268 391.815L225.496 391.644L225.632 391.565C226.474 390.928 227.418 390.279 227.418 390.279L233.902 393.146C233.902 393.146 234.084 393.908 234.414 395.08C235.256 398.083 237.042 403.782 239.089 406.455C239.271 406.467 239.362 406.592 239.453 406.694Z" fill="#E4897B"/>
<path opacity="0.1" d="M251.192 343.981C246.266 357.291 240.579 373.956 234.504 394.989C235.346 397.992 237.132 403.691 239.18 406.364C239.271 406.478 239.362 406.603 239.453 406.705C239.702 407.001 239.976 407.275 240.272 407.524C246.46 412.484 243.07 413.792 243.07 413.792L228.373 407.308L223.732 402.121L222.287 404.078L220.535 403.316C219.716 396.786 222.879 393.737 224.551 392.35C224.664 392.247 224.835 392.122 225.04 391.974C225.096 391.915 225.162 391.865 225.233 391.826L225.313 391.769L225.54 391.599C227.235 376.925 233.742 323.073 240.203 311.891C240.203 311.891 232.889 313.245 227.338 312.312C223.345 311.641 218.499 283.976 218.499 283.976C225.247 282.13 232.197 281.121 239.191 280.973H239.339C239.339 280.973 236.87 281.212 233.515 285.421C233.515 285.421 247.165 287.969 250.908 295.204C252.398 298.161 252.091 319.547 251.192 343.981Z" fill="black"/>
<path d="M218.533 283.93C218.533 283.93 241.955 287.605 245.834 293.349C252.58 303.246 240.431 322.698 218.272 400.278L209.626 398.162C209.626 398.162 211.902 327.749 219.409 314.769C219.409 314.769 212.095 316.123 206.555 315.19C199.457 313.961 194.964 290.232 218.533 283.93Z" fill="#E4897B"/>
<path d="M208.25 413.292H210.172L210.695 410.926L217.043 413.792H233.105C233.105 413.792 235.664 411.221 228.009 409.174C227.634 409.073 227.272 408.932 226.928 408.753C222.844 406.842 217.043 400.381 217.043 400.381H208.227C207.958 400.79 207.715 401.215 207.499 401.655C206.532 403.588 204.871 407.661 208.25 413.292Z" fill="#92E3A9"/>
<path d="M207.499 401.655C208.637 400.358 213.96 406.057 217.839 408.002C221.309 409.731 225.199 410.493 226.94 408.73C222.856 406.819 216.44 398.492 216.44 398.492H209.308C209.308 398.492 207.92 400.824 207.499 401.655Z" fill="#E4897B"/>
<g opacity="0.3">
<path d="M360.498 257.631V410.061C360.498 410.543 360.593 411.02 360.778 411.466C360.963 411.911 361.234 412.315 361.575 412.655C361.916 412.996 362.321 413.265 362.767 413.448C363.213 413.632 363.69 413.726 364.172 413.724H435.28C435.462 413.724 435.643 413.688 435.811 413.618C435.98 413.549 436.133 413.446 436.261 413.318C436.39 413.189 436.492 413.036 436.562 412.867C436.632 412.699 436.668 412.519 436.668 412.336V407.786C436.668 407.417 436.522 407.063 436.262 406.801C436.002 406.539 435.649 406.39 435.28 406.387H367.835V261.293H434.131C434.466 261.292 434.797 261.225 435.105 261.095C435.414 260.966 435.694 260.777 435.93 260.539C436.165 260.301 436.352 260.02 436.478 259.71C436.605 259.4 436.669 259.069 436.668 258.734V253.956H364.172C363.689 253.955 363.211 254.049 362.764 254.233C362.318 254.417 361.912 254.688 361.571 255.029C361.229 255.371 360.959 255.776 360.775 256.223C360.591 256.669 360.497 257.148 360.498 257.631Z" fill="white"/>
</g>
<path opacity="0.2" d="M360.498 257.631V296.512C362.94 297.134 365.386 297.733 367.835 298.309V261.293H434.131C434.466 261.292 434.797 261.225 435.105 261.095C435.414 260.966 435.694 260.777 435.93 260.539C436.165 260.301 436.352 260.02 436.478 259.71C436.605 259.4 436.669 259.069 436.668 258.734V253.956H364.172C363.689 253.955 363.211 254.049 362.764 254.233C362.318 254.417 361.912 254.688 361.571 255.029C361.229 255.371 360.959 255.776 360.775 256.223C360.591 256.669 360.497 257.148 360.498 257.631Z" fill="black"/>
<path d="M352.205 243.491L351.295 240.09H314.246L297.183 241.785L296.534 243.491H352.205Z" fill="#263238"/>
<path opacity="0.5" d="M352.205 243.491L351.295 240.09H314.246L297.183 241.785L296.534 243.491H352.205Z" fill="white"/>
<path opacity="0.2" d="M314.246 240.09V243.491H352.206L351.296 240.09H314.246Z" fill="black"/>
<path d="M326.782 218.146C326.72 218.677 326.773 219.215 326.936 219.724C327.099 220.233 327.369 220.702 327.727 221.098C328.086 221.494 328.525 221.809 329.015 222.022C329.505 222.235 330.035 222.341 330.57 222.333H403.52C404.657 222.304 405.744 221.863 406.581 221.094C407.418 220.324 407.947 219.277 408.071 218.146L412.405 171.439C412.453 170.981 412.418 170.519 412.302 170.074C412.101 169.253 411.626 168.526 410.956 168.011C410.286 167.496 409.461 167.225 408.617 167.241H335.689C334.55 167.268 333.46 167.709 332.622 168.482C331.785 169.255 331.257 170.306 331.139 171.439L326.782 218.146Z" fill="#263238"/>
<path opacity="0.5" d="M326.782 218.146C326.72 218.677 326.773 219.215 326.936 219.724C327.099 220.233 327.369 220.702 327.727 221.098C328.086 221.494 328.525 221.809 329.015 222.022C329.505 222.235 330.035 222.341 330.57 222.333H403.52C404.657 222.304 405.744 221.863 406.581 221.094C407.418 220.324 407.947 219.277 408.071 218.146L412.405 171.439C412.453 170.981 412.418 170.519 412.302 170.074C412.101 169.253 411.626 168.526 410.956 168.011C410.286 167.496 409.461 167.225 408.617 167.241H335.689C334.55 167.268 333.46 167.709 332.622 168.482C331.785 169.255 331.257 170.306 331.139 171.439L326.782 218.146Z" fill="white"/>
<path opacity="0.1" d="M330.82 222.333H403.52C404.656 222.304 405.744 221.863 406.581 221.094C407.417 220.324 407.947 219.277 408.07 218.146L412.404 171.439C412.452 170.982 412.417 170.519 412.302 170.074H339.613C338.475 170.106 337.388 170.548 336.551 171.32C335.715 172.092 335.186 173.14 335.063 174.272L330.729 220.968C330.683 221.425 330.714 221.886 330.82 222.333Z" fill="black"/>
<path d="M380.94 193.689H365.856L369.871 236.904L346.006 240.488V243.491H396.274V240.488L385.979 236.904L380.94 193.689Z" fill="#263238"/>
<path opacity="0.5" d="M380.94 193.689H365.856L369.871 236.904L346.006 240.488V243.491H396.274V240.488L385.979 236.904L380.94 193.689Z" fill="white"/>
<path opacity="0.2" d="M365.856 193.689L377.038 242.808L385.98 242.535L380.94 193.689H365.856Z" fill="white"/>
<path d="M260.247 413.792H331.355C331.726 413.792 332.082 413.645 332.344 413.383C332.606 413.12 332.754 412.764 332.754 412.393V407.843C332.754 407.659 332.718 407.477 332.647 407.308C332.577 407.138 332.474 406.984 332.344 406.854C332.214 406.724 332.06 406.621 331.89 406.55C331.72 406.48 331.538 406.444 331.355 406.444H263.91V261.282H330.194C330.528 261.284 330.859 261.219 331.169 261.092C331.478 260.965 331.759 260.779 331.995 260.543C332.232 260.307 332.42 260.027 332.548 259.719C332.676 259.41 332.742 259.079 332.742 258.745V253.956H260.247C259.275 253.956 258.344 254.342 257.657 255.029C256.97 255.716 256.584 256.648 256.584 257.619V410.118C256.584 411.091 256.97 412.023 257.656 412.712C258.343 413.401 259.274 413.789 260.247 413.792Z" fill="#263238"/>
<g opacity="0.4">
<path d="M260.247 413.792H331.355C331.726 413.792 332.082 413.645 332.344 413.383C332.606 413.12 332.754 412.764 332.754 412.393V407.843C332.754 407.659 332.718 407.477 332.647 407.308C332.577 407.138 332.474 406.984 332.344 406.854C332.214 406.724 332.06 406.621 331.89 406.55C331.72 406.48 331.538 406.444 331.355 406.444H263.91V261.282H330.194C330.528 261.284 330.859 261.219 331.169 261.092C331.478 260.965 331.759 260.779 331.995 260.543C332.232 260.307 332.42 260.027 332.548 259.719C332.676 259.41 332.742 259.079 332.742 258.745V253.956H260.247C259.275 253.956 258.344 254.342 257.657 255.029C256.97 255.716 256.584 256.648 256.584 257.619V410.118C256.584 411.091 256.97 412.023 257.656 412.712C258.343 413.401 259.274 413.789 260.247 413.792Z" fill="white"/>
</g>
<path d="M440.968 247.029V252.955C440.953 253.539 440.715 254.095 440.302 254.508C439.889 254.921 439.333 255.159 438.749 255.173H250.975C250.685 255.173 250.397 255.116 250.128 255.004C249.86 254.893 249.616 254.729 249.411 254.523C249.206 254.317 249.044 254.072 248.933 253.803C248.823 253.534 248.767 253.246 248.769 252.955V247.029H440.968Z" fill="#92E3A9"/>
<path opacity="0.2" d="M248.769 251.101L440.968 251.101V247.029L248.769 247.029V251.101Z" fill="black"/>
<path d="M447.293 245.789C447.293 246.392 447.053 246.971 446.627 247.398C446.2 247.824 445.621 248.064 445.018 248.064H244.811C244.508 248.066 244.209 248.007 243.93 247.892C243.65 247.777 243.397 247.607 243.184 247.393C243.067 247.279 242.967 247.149 242.888 247.006C242.645 246.638 242.515 246.207 242.513 245.766C242.513 245.163 242.752 244.584 243.179 244.157C243.606 243.731 244.184 243.491 244.788 243.491H444.995C445.599 243.491 446.177 243.731 446.604 244.157C447.031 244.584 447.27 245.163 447.27 245.766L447.293 245.789Z" fill="#92E3A9"/>
<path opacity="0.2" d="M341.956 244.162C341.743 243.948 341.49 243.778 341.21 243.663C340.931 243.547 340.632 243.489 340.33 243.491H244.776C244.173 243.491 243.594 243.73 243.167 244.157C242.741 244.584 242.501 245.162 242.501 245.766C242.503 246.207 242.634 246.638 242.876 247.006C242.955 247.149 243.055 247.279 243.172 247.393C243.385 247.607 243.639 247.777 243.918 247.892C244.197 248.007 244.497 248.065 244.799 248.064H248.826V252.932C248.824 253.223 248.88 253.511 248.99 253.78C249.101 254.049 249.263 254.294 249.468 254.5C249.673 254.706 249.917 254.87 250.185 254.982C250.454 255.093 250.742 255.151 251.033 255.151H334.096C334.387 255.151 334.675 255.093 334.943 254.982C335.212 254.87 335.455 254.706 335.66 254.5C335.865 254.294 336.028 254.049 336.138 253.78C336.248 253.511 336.304 253.223 336.303 252.932V248.064H340.33C340.717 248.068 341.099 247.972 341.44 247.787C341.78 247.602 342.067 247.333 342.275 247.006C342.561 246.565 342.686 246.038 342.628 245.516C342.57 244.993 342.332 244.507 341.956 244.139V244.162Z" fill="white"/>
<path d="M360.498 257.631V410.061C360.498 410.543 360.593 411.02 360.778 411.466C360.963 411.911 361.234 412.315 361.575 412.655C361.916 412.996 362.321 413.265 362.767 413.448C363.213 413.632 363.69 413.726 364.172 413.724H435.28C435.462 413.724 435.643 413.688 435.811 413.618C435.98 413.549 436.133 413.446 436.261 413.318C436.39 413.189 436.492 413.036 436.562 412.867C436.632 412.699 436.668 412.519 436.668 412.336V407.786C436.668 407.417 436.522 407.063 436.262 406.801C436.002 406.539 435.649 406.39 435.28 406.387H367.835V261.293H434.131C434.466 261.292 434.797 261.225 435.105 261.095C435.414 260.966 435.694 260.777 435.93 260.539C436.165 260.301 436.352 260.02 436.478 259.71C436.605 259.4 436.669 259.069 436.668 258.734V253.956H364.172C363.689 253.955 363.211 254.049 362.764 254.233C362.318 254.417 361.912 254.688 361.571 255.029C361.229 255.371 360.959 255.776 360.775 256.223C360.591 256.669 360.497 257.148 360.498 257.631Z" fill="#263238"/>
</svg>
