<svg width="177" height="66" viewBox="0 0 177 66" fill="none" xmlns="http://www.w3.org/2000/svg">
<path d="M169.29 40.2864V34.7313V23.6328H152.529H141.353V18.0777H169.29V6.97339H141.353H124.592V18.0777V23.6328V34.7313H141.353H152.529V40.2864H124.592V51.3907H152.529H169.29V40.2864Z" fill="#010101"/>
<path d="M119.006 6.97339H107.83V51.3849H119.006V6.97339Z" fill="#010101"/>
<path d="M57.5469 6.97339V18.0777H91.069V23.6328H68.717H57.5469V34.7313V51.3907H68.717V34.9003L85.4839 51.3907H102.245L84.7565 34.7313H91.069H102.245V23.6328V18.0777V6.97339H91.069H57.5469Z" fill="#010101"/>
<path d="M24.0195 34.7313H35.1662V23.6561H24.0195V34.7313ZM26.8179 26.4074H32.403V31.9567H26.8179V26.4074Z" fill="#010101"/>
<path d="M18.4338 6.97339H8.65408C8.2845 6.97618 7.93071 7.12264 7.66848 7.38142C7.53802 7.5106 7.43457 7.66414 7.36409 7.83321C7.29361 8.00228 7.25749 8.18353 7.25781 8.36653V49.9976C7.25749 50.1805 7.29361 50.3618 7.36409 50.5309C7.43457 50.6999 7.53802 50.8535 7.66848 50.9827C7.9313 51.2398 8.28521 51.3843 8.65408 51.3849H35.1949V40.3097H18.4338V6.97339Z" fill="#010101"/>
<path d="M50.5603 6.97339H24.0195V18.0777H40.7865V34.7313H51.9331V8.36653C51.9366 7.99977 51.7955 7.64622 51.5401 7.38142C51.2782 7.12559 50.9275 6.97951 50.5603 6.97339Z" fill="#010101"/>
<path d="M51.9612 40.2864H40.7852V65.2697H51.9612V40.2864Z" fill="#010101"/>
<path d="M22.852 0.730469H1.89627C1.52643 0.732003 1.17218 0.878659 0.910663 1.1385C0.649146 1.39834 0.501544 1.75032 0.5 2.11778L0.5 22.9391H3.29253V4.86909C3.30018 4.50569 3.45048 4.15964 3.71134 3.90481C3.9722 3.64998 4.32297 3.50653 4.6888 3.50509H22.8755L22.852 0.730469Z" fill="#010101"/>
<path d="M173.708 36.8123V54.8823C173.706 55.2498 173.559 55.6017 173.297 55.8616C173.036 56.1214 172.682 56.2681 172.312 56.2696H154.125V59.0209H175.081C175.266 59.0232 175.45 58.9891 175.621 58.9205C175.793 58.8519 175.95 58.7501 176.082 58.6212C176.214 58.4922 176.318 58.3385 176.39 58.169C176.462 57.9995 176.5 57.8175 176.5 57.6336V36.8123H173.708Z" fill="#010101"/>
</svg>
