<svg width="569" height="536" viewBox="0 0 569 536" fill="none" xmlns="http://www.w3.org/2000/svg">
<path d="M568.771 527.267C568.771 531.941 441.429 535.746 284.393 535.746C127.357 535.746 0 531.941 0 527.267C0 522.593 127.342 518.787 284.393 518.787C441.444 518.787 568.771 522.593 568.771 527.267Z" fill="#92E3A9"/>
<path opacity="0.3" d="M568.771 527.267C568.771 531.941 441.429 535.746 284.393 535.746C127.357 535.746 0 531.941 0 527.267C0 522.593 127.342 518.787 284.393 518.787C441.444 518.787 568.771 522.593 568.771 527.267Z" fill="white"/>
<path d="M514.329 364.014C514.329 364.089 518.179 360.044 518.389 359.759C520.831 356.493 523.632 348.733 520.98 345.002C520.523 344.397 519.944 343.894 519.28 343.527C518.616 343.16 517.882 342.936 517.126 342.871C516.37 342.806 515.609 342.901 514.892 343.15C514.176 343.398 513.519 343.794 512.965 344.313C510.538 346.441 509.969 350.381 510.179 353.422C510.433 356.988 514.329 363.999 514.329 364.014Z" fill="#92E3A9"/>
<path d="M549.325 350.081C545.58 347.459 537.849 350.321 534.598 352.778C534.314 353.002 530.299 356.838 530.374 356.868H530.463C529.235 357.317 527.932 357.796 526.508 358.366C523.902 359.414 520.965 360.643 517.849 362.171C514.485 363.807 511.214 365.627 508.051 367.624C504.507 369.85 501.168 372.387 498.074 375.205C498.035 375.236 498 375.271 497.969 375.31C498.628 374.156 500.381 370.815 500.486 370.576C501.984 366.77 502.628 358.59 499.092 355.669C498.487 355.208 497.792 354.879 497.052 354.704C496.312 354.529 495.543 354.511 494.796 354.652C494.048 354.794 493.339 355.09 492.714 355.524C492.089 355.957 491.562 356.517 491.167 357.167C489.399 359.864 489.879 363.804 490.897 366.68C492.036 369.931 497.205 375.295 497.624 375.669C494.539 378.613 491.656 381.761 488.995 385.093C487.497 387.025 485.924 389.018 484.5 391.085C485.04 390.066 485.519 389.138 485.564 389.003C487.062 385.213 487.706 377.018 484.171 374.096C483.567 373.635 482.873 373.306 482.134 373.131C481.395 372.956 480.628 372.939 479.881 373.08C479.135 373.222 478.427 373.519 477.803 373.952C477.179 374.385 476.654 374.945 476.261 375.594C474.478 378.276 474.972 382.231 475.976 385.093C476.98 387.954 481.324 392.688 482.478 393.902L480.725 396.209C478.028 399.969 475.362 403.7 472.62 407.325C471.661 408.599 470.672 409.827 469.624 411.041C470.103 410.127 470.508 409.363 470.553 409.243C472.051 405.438 472.695 397.258 469.159 394.261C468.555 393.798 467.86 393.467 467.12 393.29C466.379 393.114 465.61 393.096 464.862 393.237C464.113 393.379 463.404 393.676 462.779 394.111C462.153 394.546 461.627 395.107 461.234 395.759C459.451 398.456 459.946 402.396 460.964 405.273C461.983 408.149 465.878 412.404 467.242 413.857C466.193 415.086 465.144 416.299 464.066 417.438C463.317 418.202 462.657 418.936 461.848 419.7L459.556 421.857C458.058 423.176 456.56 424.554 454.987 425.812C453.938 426.696 452.934 427.505 451.991 428.329C452.949 427.086 454.807 424.584 454.987 424.359C456.675 421.19 457.521 417.641 457.444 414.052C457.644 413.707 457.814 413.346 457.953 412.973C458.233 412.267 458.362 411.509 458.33 410.75C458.299 409.991 458.108 409.246 457.77 408.566C457.433 407.885 456.956 407.282 456.37 406.798C455.785 406.313 455.104 405.957 454.373 405.752C449.878 404.658 443.736 410.097 441.593 413.572C441.474 413.782 440.335 416.149 439.661 417.662C439.916 416.719 440.2 415.79 440.455 414.816C440.994 412.883 441.474 410.936 441.953 408.823C442.163 407.805 442.387 406.771 442.612 405.737C442.837 404.703 442.972 403.595 443.167 402.516C443.541 399.999 443.811 397.437 444.035 394.846C445.728 395.31 451.766 396.883 454.792 396.344C457.818 395.804 461.519 394.456 463.047 391.625C463.434 390.97 463.678 390.242 463.764 389.487C463.85 388.731 463.775 387.967 463.544 387.242C463.314 386.518 462.933 385.851 462.426 385.284C461.92 384.717 461.299 384.264 460.605 383.954C456.38 382.186 449.444 386.636 446.792 389.737C446.627 389.932 444.979 392.374 444.095 393.737C444.215 392.239 444.335 390.621 444.41 389.033C444.59 384.538 444.65 379.849 444.725 375.235C444.725 373.827 444.725 372.418 444.814 371.01C445.414 371.175 452.56 373.197 455.946 372.673C458.942 372.224 462.672 370.8 464.215 367.954C464.597 367.298 464.837 366.569 464.919 365.814C465.001 365.059 464.924 364.295 464.693 363.572C464.461 362.849 464.08 362.183 463.575 361.616C463.069 361.05 462.451 360.596 461.759 360.283C457.549 358.531 450.597 362.98 447.946 366.081C447.751 366.306 445.384 369.827 444.814 370.755C444.889 367.654 444.994 364.553 445.219 361.512C445.508 357.401 446.059 353.313 446.867 349.272C447.152 349.272 454.597 351.489 458.073 350.95C461.069 350.501 464.785 349.077 466.328 346.231C466.71 345.575 466.951 344.847 467.034 344.093C467.117 343.339 467.041 342.576 466.811 341.853C466.581 341.13 466.202 340.464 465.698 339.896C465.194 339.329 464.577 338.874 463.886 338.56C459.661 336.807 452.71 341.242 450.073 344.358C449.893 344.553 448.08 347.235 447.256 348.523L447.017 348.433C447.943 344.385 449.231 340.429 450.867 336.613C451.736 334.5 452.68 332.538 453.654 330.62C455.002 331.159 461.144 333.616 464.35 333.437C467.556 333.257 471.242 332.298 473.084 329.646C473.537 329.037 473.856 328.339 474.022 327.598C474.187 326.857 474.195 326.09 474.046 325.346C473.896 324.601 473.592 323.897 473.153 323.278C472.713 322.659 472.149 322.138 471.496 321.751C467.496 319.549 460.096 323.249 457.129 325.991C456.964 326.141 455.496 327.864 454.433 329.137C454.882 328.298 455.331 327.414 455.781 326.605C457.459 323.609 459.167 320.912 460.71 318.56C461.594 317.242 462.418 316.058 463.212 314.95C464.8 314.8 471.242 314.066 473.953 312.523C476.665 310.979 479.541 308.343 479.946 305.137C480.069 304.387 480.033 303.621 479.839 302.886C479.646 302.152 479.3 301.467 478.823 300.876C478.346 300.285 477.75 299.801 477.074 299.456C476.397 299.111 475.656 298.913 474.897 298.874C470.328 298.755 465.459 305.391 464.111 309.242C463.991 309.586 462.762 314.994 462.837 314.979H462.942C462.163 315.978 461.339 317.117 460.47 318.395C458.867 320.717 457.084 323.354 455.346 326.35C453.434 329.564 451.708 332.886 450.178 336.298C448.452 340.115 447.064 344.075 446.028 348.133C446.036 348.183 446.036 348.234 446.028 348.283C446.028 346.95 445.579 343.22 445.519 342.935C444.68 338.95 440.68 331.729 436.14 331.279C435.383 331.222 434.621 331.325 433.906 331.582C433.191 331.838 432.538 332.243 431.99 332.768C431.441 333.294 431.01 333.93 430.723 334.633C430.437 335.337 430.302 336.093 430.327 336.852C430.327 340.073 432.919 343.1 435.346 344.927C438.088 347.01 445.354 348.643 445.938 348.763C444.998 352.924 444.332 357.143 443.946 361.392C443.721 363.864 443.556 366.351 443.421 368.883C443.316 367.729 443.211 366.695 443.181 366.561C442.328 362.561 438.327 355.355 433.788 354.89C433.031 354.833 432.269 354.936 431.554 355.192C430.839 355.449 430.186 355.853 429.638 356.379C429.089 356.905 428.658 357.54 428.371 358.244C428.085 358.948 427.95 359.704 427.975 360.463C427.975 363.684 430.567 366.71 432.994 368.553C435.421 370.396 441.638 371.924 443.271 372.313C443.271 373.272 443.181 374.231 443.152 375.19C442.972 379.804 442.822 384.419 442.537 388.928C442.432 390.516 442.268 392.089 442.118 393.647C442.028 392.628 441.923 391.759 441.908 391.64C441.054 387.64 437.054 380.433 432.515 379.969C431.757 379.912 430.996 380.015 430.281 380.271C429.566 380.528 428.913 380.932 428.364 381.458C427.816 381.984 427.384 382.619 427.098 383.323C426.812 384.027 426.677 384.783 426.702 385.542C426.702 388.778 429.294 391.789 431.721 393.632C434.148 395.475 439.766 396.868 441.698 397.318C441.504 398.921 441.294 400.524 441.024 402.052C440.814 403.1 440.695 404.134 440.425 405.168L439.706 408.164C439.166 410.097 438.642 412.104 438.073 413.977C437.683 415.28 437.294 416.524 436.904 417.782C437.024 416.194 437.189 413.093 437.174 412.823C436.949 408.763 434.088 401.018 429.683 399.879C428.944 399.71 428.177 399.698 427.433 399.845C426.689 399.991 425.984 400.292 425.363 400.729C424.743 401.165 424.222 401.727 423.833 402.379C423.444 403.03 423.196 403.756 423.106 404.509C422.612 407.7 424.709 411.071 426.837 413.258C428.964 415.445 435.826 418.307 436.665 418.636C436.005 420.704 435.361 422.696 434.717 424.629C432.485 431.146 430.387 436.494 428.874 440.209C428.874 440.344 428.769 440.464 428.709 440.584L431.436 442.082C431.526 441.842 431.631 441.603 431.721 441.348C433.219 437.558 435.181 432.104 437.279 425.468C437.953 423.37 438.627 421.123 439.301 418.801C441.587 419.087 443.889 419.237 446.193 419.25C447.017 422.591 450.837 428.074 451.331 428.779C449.653 430.142 448.006 431.46 446.432 432.674C440.979 436.884 436.275 440.164 432.949 442.442L432.56 442.711L435.556 444.359C438.792 442.037 443.047 438.816 448.095 434.801C449.803 433.423 451.616 431.91 453.444 430.307C454.118 430.876 459.586 435.52 462.822 436.449C465.744 437.288 469.714 437.558 472.29 435.625C472.913 435.191 473.437 434.631 473.829 433.981C474.221 433.331 474.472 432.606 474.565 431.853C474.658 431.1 474.592 430.336 474.37 429.61C474.149 428.884 473.777 428.213 473.279 427.64C470.193 424.269 462.028 425.393 458.298 427.101C458.088 427.206 455.841 428.599 454.433 429.438C455.182 428.794 455.931 428.179 456.665 427.505C458.163 426.202 459.661 424.838 461.249 423.37L463.496 421.168C464.26 420.434 464.995 419.58 465.744 418.786C467.451 416.898 469.084 414.906 470.687 412.868C471.856 414.187 476.036 418.861 478.807 420.119C481.579 421.378 485.459 422.247 488.306 420.734C488.985 420.397 489.587 419.922 490.072 419.339C490.557 418.755 490.913 418.077 491.12 417.347C491.326 416.617 491.376 415.852 491.269 415.101C491.161 414.35 490.896 413.63 490.493 412.988C487.946 409.198 479.706 409.063 475.781 410.187C475.526 410.261 472.785 411.385 471.287 412.029C472.231 410.801 473.204 409.572 474.118 408.284C476.8 404.584 479.392 400.793 481.998 396.958L484.41 393.482C484.815 393.947 489.669 399.58 492.785 400.973C495.542 402.246 499.422 403.115 502.268 401.587C502.951 401.254 503.557 400.781 504.044 400.198C504.531 399.615 504.89 398.936 505.097 398.204C505.303 397.473 505.353 396.706 505.242 395.955C505.132 395.203 504.864 394.483 504.456 393.842C501.909 390.052 493.669 389.917 489.744 391.055C489.459 391.13 485.534 392.763 484.56 393.228C486.328 390.681 488.126 388.149 489.999 385.737C492.495 382.459 495.208 379.35 498.118 376.433C498.313 376.658 503.347 382.546 506.523 384.014C509.295 385.302 513.175 386.156 516.021 384.643C516.703 384.309 517.306 383.834 517.792 383.251C518.278 382.668 518.636 381.989 518.842 381.258C519.049 380.528 519.099 379.762 518.99 379.011C518.881 378.259 518.614 377.539 518.209 376.898C515.662 373.093 507.422 372.973 503.497 374.096C503.242 374.171 500.261 375.415 498.853 376.029L498.703 375.804C501.709 372.95 504.963 370.368 508.426 368.089C510.328 366.8 512.201 365.677 514.059 364.643C514.883 365.827 518.703 371.235 521.43 372.883C524.156 374.531 527.797 375.744 530.793 374.546C531.509 374.286 532.162 373.877 532.709 373.348C533.256 372.818 533.685 372.178 533.968 371.471C534.251 370.764 534.381 370.005 534.35 369.244C534.32 368.483 534.128 367.737 533.789 367.055C531.677 362.995 523.497 361.976 519.482 362.665C519.257 362.665 517.07 363.325 515.497 363.804L518.014 362.426C521.085 360.838 524.006 359.549 526.568 358.441C528.066 357.826 529.385 357.287 530.643 356.808C532.066 357.557 537.819 360.508 540.935 360.703C544.052 360.898 547.917 360.298 550.014 357.856C550.494 357.307 550.857 356.667 551.083 355.973C551.309 355.28 551.392 354.548 551.328 353.822C551.263 353.095 551.053 352.39 550.708 351.747C550.364 351.104 549.894 350.537 549.325 350.081Z" fill="#92E3A9"/>
<path d="M444.096 323.339C446.268 326.186 453.384 329.886 453.399 329.886C453.414 329.886 454.418 324.463 454.433 324.103C454.672 320.028 452.725 312.028 448.44 310.38C447.724 310.126 446.963 310.026 446.206 310.086C445.449 310.145 444.712 310.364 444.045 310.727C443.378 311.091 442.795 311.59 442.334 312.194C441.873 312.797 441.544 313.491 441.369 314.23C440.53 317.332 442.313 320.927 444.096 323.339Z" fill="#92E3A9"/>
<g opacity="0.5">
<path d="M514.329 364.014C514.329 364.089 518.179 360.044 518.389 359.759C520.831 356.493 523.632 348.733 520.98 345.002C520.523 344.397 519.944 343.894 519.28 343.527C518.616 343.16 517.882 342.936 517.126 342.871C516.37 342.806 515.609 342.901 514.892 343.149C514.176 343.398 513.519 343.794 512.965 344.313C510.538 346.44 509.969 350.381 510.179 353.422C510.433 356.987 514.329 363.999 514.329 364.014Z" fill="white"/>
<path d="M549.325 350.081C545.58 347.459 537.849 350.321 534.598 352.778C534.314 353.002 530.299 356.838 530.374 356.868H530.463C529.235 357.317 527.932 357.796 526.508 358.366C523.902 359.414 520.965 360.643 517.849 362.171C514.485 363.807 511.214 365.627 508.051 367.624C504.507 369.85 501.168 372.387 498.074 375.205C498.035 375.236 498 375.271 497.969 375.31C498.628 374.156 500.381 370.815 500.486 370.576C501.984 366.77 502.628 358.59 499.092 355.669C498.487 355.208 497.792 354.879 497.052 354.704C496.312 354.529 495.543 354.511 494.796 354.652C494.048 354.794 493.339 355.09 492.714 355.524C492.089 355.957 491.562 356.517 491.167 357.167C489.399 359.864 489.879 363.804 490.897 366.68C492.036 369.931 497.205 375.295 497.624 375.669C494.539 378.613 491.656 381.761 488.995 385.093C487.497 387.025 485.924 389.018 484.5 391.085C485.04 390.066 485.519 389.138 485.564 389.003C487.062 385.213 487.706 377.018 484.171 374.096C483.567 373.635 482.873 373.306 482.134 373.131C481.395 372.956 480.628 372.939 479.881 373.08C479.135 373.222 478.427 373.519 477.803 373.952C477.179 374.385 476.654 374.945 476.261 375.594C474.478 378.276 474.972 382.231 475.976 385.093C476.98 387.954 481.324 392.688 482.478 393.902L480.725 396.209C478.028 399.969 475.362 403.7 472.62 407.325C471.661 408.599 470.672 409.827 469.624 411.041C470.103 410.127 470.508 409.363 470.553 409.243C472.051 405.438 472.695 397.258 469.159 394.261C468.555 393.798 467.86 393.467 467.12 393.29C466.379 393.114 465.61 393.096 464.862 393.237C464.113 393.379 463.404 393.676 462.779 394.111C462.153 394.546 461.627 395.107 461.234 395.759C459.451 398.456 459.946 402.396 460.964 405.273C461.983 408.149 465.878 412.404 467.242 413.857C466.193 415.086 465.144 416.299 464.066 417.438C463.317 418.202 462.657 418.936 461.848 419.7L459.556 421.857C458.058 423.176 456.56 424.554 454.987 425.812C453.938 426.696 452.934 427.505 451.991 428.329C452.949 427.086 454.807 424.584 454.987 424.359C456.675 421.19 457.521 417.641 457.444 414.052C457.644 413.707 457.814 413.346 457.953 412.973C458.233 412.267 458.362 411.509 458.33 410.75C458.299 409.991 458.108 409.246 457.77 408.566C457.433 407.885 456.956 407.282 456.37 406.798C455.785 406.313 455.104 405.957 454.373 405.752C449.878 404.658 443.736 410.097 441.593 413.572C441.474 413.782 440.335 416.149 439.661 417.662C439.916 416.719 440.2 415.79 440.455 414.816C440.994 412.883 441.474 410.936 441.953 408.823C442.163 407.805 442.387 406.771 442.612 405.737C442.837 404.703 442.972 403.595 443.167 402.516C443.541 399.999 443.811 397.437 444.035 394.846C445.728 395.31 451.766 396.883 454.792 396.344C457.818 395.804 461.519 394.456 463.047 391.625C463.434 390.97 463.678 390.242 463.764 389.487C463.85 388.731 463.775 387.967 463.544 387.242C463.314 386.518 462.933 385.851 462.426 385.284C461.92 384.717 461.299 384.264 460.605 383.954C456.38 382.186 449.444 386.636 446.792 389.737C446.627 389.932 444.979 392.374 444.095 393.737C444.215 392.239 444.335 390.621 444.41 389.033C444.59 384.538 444.65 379.849 444.725 375.235C444.725 373.827 444.725 372.418 444.814 371.01C445.414 371.175 452.56 373.197 455.946 372.673C458.942 372.224 462.672 370.8 464.215 367.954C464.597 367.298 464.837 366.569 464.919 365.814C465.001 365.059 464.924 364.295 464.693 363.572C464.461 362.849 464.08 362.183 463.575 361.616C463.069 361.05 462.451 360.596 461.759 360.283C457.549 358.531 450.597 362.98 447.946 366.081C447.751 366.306 445.384 369.827 444.814 370.755C444.889 367.654 444.994 364.553 445.219 361.512C445.508 357.401 446.059 353.313 446.867 349.272C447.152 349.272 454.597 351.489 458.073 350.95C461.069 350.501 464.785 349.077 466.328 346.231C466.71 345.575 466.951 344.847 467.034 344.093C467.117 343.339 467.041 342.576 466.811 341.853C466.581 341.13 466.202 340.464 465.698 339.896C465.194 339.329 464.577 338.874 463.886 338.56C459.661 336.807 452.71 341.242 450.073 344.358C449.893 344.553 448.08 347.235 447.256 348.523L447.017 348.433C447.943 344.385 449.231 340.429 450.867 336.613C451.736 334.5 452.68 332.538 453.654 330.62C455.002 331.159 461.144 333.616 464.35 333.437C467.556 333.257 471.242 332.298 473.084 329.646C473.537 329.037 473.856 328.339 474.022 327.598C474.187 326.857 474.195 326.09 474.046 325.346C473.896 324.601 473.592 323.897 473.153 323.278C472.713 322.659 472.149 322.138 471.496 321.751C467.496 319.549 460.096 323.249 457.129 325.991C456.964 326.141 455.496 327.864 454.433 329.137C454.882 328.298 455.331 327.414 455.781 326.605C457.459 323.609 459.167 320.912 460.71 318.56C461.594 317.242 462.418 316.058 463.212 314.95C464.8 314.8 471.242 314.066 473.953 312.523C476.665 310.979 479.541 308.343 479.946 305.137C480.069 304.387 480.033 303.621 479.839 302.886C479.646 302.152 479.3 301.467 478.823 300.876C478.346 300.285 477.75 299.801 477.074 299.456C476.397 299.111 475.656 298.913 474.897 298.874C470.328 298.755 465.459 305.391 464.111 309.242C463.991 309.586 462.762 314.994 462.837 314.979H462.942C462.163 315.978 461.339 317.117 460.47 318.395C458.867 320.717 457.084 323.354 455.346 326.35C453.434 329.564 451.708 332.886 450.178 336.298C448.452 340.115 447.064 344.075 446.028 348.133C446.036 348.183 446.036 348.234 446.028 348.283C446.028 346.95 445.579 343.22 445.519 342.935C444.68 338.95 440.68 331.729 436.14 331.279C435.383 331.222 434.621 331.325 433.906 331.582C433.191 331.838 432.538 332.243 431.99 332.768C431.441 333.294 431.01 333.93 430.723 334.633C430.437 335.337 430.302 336.093 430.327 336.852C430.327 340.073 432.919 343.1 435.346 344.927C438.088 347.01 445.354 348.643 445.938 348.763C444.998 352.924 444.332 357.143 443.946 361.392C443.721 363.864 443.556 366.351 443.421 368.883C443.316 367.729 443.211 366.695 443.181 366.561C442.328 362.561 438.327 355.355 433.788 354.89C433.031 354.833 432.269 354.936 431.554 355.192C430.839 355.449 430.186 355.853 429.638 356.379C429.089 356.905 428.658 357.54 428.371 358.244C428.085 358.948 427.95 359.704 427.975 360.463C427.975 363.684 430.567 366.71 432.994 368.553C435.421 370.396 441.638 371.924 443.271 372.313C443.271 373.272 443.181 374.231 443.152 375.19C442.972 379.804 442.822 384.419 442.537 388.928C442.432 390.516 442.268 392.089 442.118 393.647C442.028 392.628 441.923 391.759 441.908 391.64C441.054 387.64 437.054 380.433 432.515 379.969C431.757 379.912 430.996 380.015 430.281 380.271C429.566 380.528 428.913 380.932 428.364 381.458C427.816 381.984 427.384 382.619 427.098 383.323C426.812 384.027 426.677 384.783 426.702 385.542C426.702 388.778 429.294 391.789 431.721 393.632C434.148 395.475 439.766 396.868 441.698 397.318C441.504 398.921 441.294 400.524 441.024 402.052C440.814 403.1 440.695 404.134 440.425 405.168L439.706 408.164C439.166 410.097 438.642 412.104 438.073 413.977C437.683 415.28 437.294 416.524 436.904 417.782C437.024 416.194 437.189 413.093 437.174 412.823C436.949 408.763 434.088 401.018 429.683 399.879C428.944 399.71 428.177 399.698 427.433 399.845C426.689 399.991 425.984 400.292 425.363 400.729C424.743 401.165 424.222 401.727 423.833 402.379C423.444 403.03 423.196 403.756 423.106 404.509C422.612 407.7 424.709 411.071 426.837 413.258C428.964 415.445 435.826 418.307 436.665 418.636C436.005 420.704 435.361 422.696 434.717 424.629C432.485 431.146 430.387 436.494 428.874 440.209C428.874 440.344 428.769 440.464 428.709 440.584L431.436 442.082C431.526 441.842 431.631 441.603 431.721 441.348C433.219 437.558 435.181 432.104 437.279 425.468C437.953 423.37 438.627 421.123 439.301 418.801C441.587 419.087 443.889 419.237 446.193 419.25C447.017 422.591 450.837 428.074 451.331 428.779C449.653 430.142 448.006 431.46 446.432 432.674C440.979 436.884 436.275 440.164 432.949 442.442L432.56 442.711L435.556 444.359C438.792 442.037 443.047 438.816 448.095 434.801C449.803 433.423 451.616 431.91 453.444 430.307C454.118 430.876 459.586 435.52 462.822 436.449C465.744 437.288 469.714 437.558 472.29 435.625C472.913 435.191 473.437 434.631 473.829 433.981C474.221 433.331 474.472 432.606 474.565 431.853C474.658 431.1 474.592 430.336 474.37 429.61C474.149 428.884 473.777 428.213 473.279 427.64C470.193 424.269 462.028 425.393 458.298 427.101C458.088 427.206 455.841 428.599 454.433 429.438C455.182 428.794 455.931 428.179 456.665 427.505C458.163 426.202 459.661 424.838 461.249 423.37L463.496 421.168C464.26 420.434 464.995 419.58 465.744 418.786C467.451 416.898 469.084 414.906 470.687 412.868C471.856 414.187 476.036 418.861 478.807 420.119C481.579 421.378 485.459 422.247 488.306 420.734C488.985 420.397 489.587 419.922 490.072 419.339C490.557 418.755 490.913 418.077 491.12 417.347C491.326 416.617 491.376 415.852 491.269 415.101C491.161 414.35 490.896 413.63 490.493 412.988C487.946 409.198 479.706 409.063 475.781 410.187C475.526 410.261 472.785 411.385 471.287 412.029C472.231 410.801 473.204 409.572 474.118 408.284C476.8 404.584 479.392 400.793 481.998 396.958L484.41 393.482C484.815 393.947 489.669 399.58 492.785 400.973C495.542 402.246 499.422 403.115 502.268 401.587C502.951 401.254 503.557 400.781 504.044 400.198C504.531 399.615 504.89 398.936 505.097 398.204C505.303 397.473 505.353 396.706 505.242 395.955C505.132 395.203 504.864 394.483 504.456 393.842C501.909 390.052 493.669 389.917 489.744 391.055C489.459 391.13 485.534 392.763 484.56 393.228C486.328 390.681 488.126 388.149 489.999 385.737C492.495 382.459 495.208 379.35 498.118 376.433C498.313 376.658 503.347 382.546 506.523 384.014C509.295 385.302 513.175 386.156 516.021 384.643C516.703 384.309 517.306 383.834 517.792 383.251C518.278 382.668 518.636 381.989 518.842 381.258C519.049 380.528 519.099 379.762 518.99 379.011C518.881 378.259 518.614 377.539 518.209 376.898C515.662 373.093 507.422 372.973 503.497 374.096C503.242 374.171 500.261 375.415 498.853 376.029L498.703 375.804C501.709 372.95 504.963 370.368 508.426 368.089C510.328 366.8 512.201 365.677 514.059 364.643C514.883 365.827 518.703 371.235 521.43 372.883C524.156 374.531 527.797 375.744 530.793 374.546C531.509 374.286 532.162 373.877 532.709 373.348C533.256 372.818 533.685 372.178 533.968 371.471C534.251 370.764 534.381 370.005 534.35 369.244C534.32 368.483 534.128 367.737 533.789 367.055C531.677 362.995 523.497 361.976 519.482 362.665C519.257 362.665 517.07 363.325 515.497 363.804L518.014 362.426C521.085 360.838 524.006 359.549 526.568 358.441C528.066 357.826 529.385 357.287 530.643 356.808C532.066 357.557 537.819 360.508 540.935 360.703C544.052 360.898 547.917 360.298 550.014 357.856C550.494 357.307 550.857 356.667 551.083 355.973C551.309 355.28 551.392 354.548 551.328 353.822C551.263 353.095 551.053 352.39 550.708 351.747C550.364 351.104 549.894 350.537 549.325 350.081Z" fill="white"/>
<path d="M444.096 323.339C446.268 326.186 453.384 329.886 453.399 329.886C453.414 329.886 454.418 324.463 454.433 324.103C454.672 320.028 452.725 312.028 448.44 310.38C447.724 310.126 446.963 310.026 446.206 310.086C445.449 310.145 444.712 310.364 444.045 310.727C443.378 311.091 442.795 311.59 442.334 312.194C441.873 312.797 441.544 313.491 441.369 314.23C440.53 317.332 442.313 320.927 444.096 323.339Z" fill="white"/>
</g>
<path d="M151.672 247.593C151.762 247.593 150.504 241.316 150.369 240.941C148.871 236.447 143.477 228.642 138.204 228.657C137.328 228.684 136.468 228.895 135.679 229.277C134.89 229.659 134.19 230.202 133.625 230.872C133.06 231.541 132.642 232.323 132.399 233.164C132.155 234.006 132.091 234.89 132.211 235.758C132.601 239.458 135.927 242.619 138.938 244.432C142.444 246.574 151.672 247.593 151.672 247.593Z" fill="#92E3A9"/>
<path d="M161.874 205.33C156.9 207.113 154.384 216.312 154.593 221.016C154.593 221.42 155.537 227.758 155.627 227.713H155.732C155.327 229.211 154.923 230.709 154.503 232.432C153.754 235.593 153.005 239.173 152.316 243.129C151.605 247.388 151.135 251.685 150.908 255.998C150.645 260.822 150.81 265.66 151.402 270.455C151.409 270.514 151.409 270.575 151.402 270.634C150.758 269.226 148.81 265.376 148.616 265.091C146.039 261.151 138.728 255.054 133.634 256.462C132.797 256.721 132.024 257.153 131.364 257.73C130.705 258.307 130.173 259.015 129.805 259.81C129.436 260.605 129.239 261.469 129.225 262.345C129.211 263.221 129.381 264.09 129.724 264.897C131.072 268.357 135.117 270.53 138.503 271.488C142.323 272.582 150.833 271.294 151.507 271.189C152.227 276.058 153.273 280.872 154.638 285.601C155.417 288.358 156.286 291.114 157.2 293.871C156.601 292.672 156.046 291.609 155.957 291.474C153.365 287.534 146.069 281.436 140.975 282.844C140.137 283.1 139.363 283.529 138.702 284.104C138.041 284.679 137.509 285.386 137.14 286.181C136.771 286.975 136.573 287.839 136.56 288.714C136.548 289.59 136.72 290.459 137.065 291.264C138.413 294.74 142.458 296.912 145.844 297.871C149.23 298.83 156.541 297.871 158.473 297.616C158.833 298.665 159.178 299.728 159.537 300.777C161.275 305.811 163.043 310.845 164.616 315.759C165.17 317.511 165.65 319.264 166.114 321.002C165.575 319.938 165.125 319.055 165.035 318.935C162.459 314.995 155.148 308.897 150.054 310.305C149.216 310.561 148.441 310.99 147.78 311.565C147.12 312.14 146.587 312.847 146.218 313.642C145.849 314.436 145.652 315.3 145.639 316.175C145.626 317.051 145.798 317.92 146.144 318.725C147.492 322.201 151.537 324.373 154.923 325.332C158.309 326.291 164.915 325.452 167.208 325.122C167.657 326.935 168.107 328.733 168.451 330.5C168.676 331.714 168.96 332.867 169.11 334.111C169.26 335.354 169.44 336.523 169.62 337.706C169.859 340.014 170.114 342.396 170.294 344.658C170.429 346.156 170.519 347.654 170.623 349.152C170.099 347.399 168.975 343.984 168.856 343.714C166.99 340.011 164.211 336.845 160.781 334.515C160.589 334.095 160.359 333.694 160.091 333.317C159.617 332.579 158.993 331.949 158.259 331.468C157.525 330.987 156.699 330.665 155.833 330.524C154.967 330.383 154.081 330.425 153.233 330.648C152.384 330.871 151.592 331.27 150.908 331.819C146.923 335.279 147.912 344.733 149.754 349.077C149.859 349.332 151.357 351.969 152.316 353.572C151.597 352.688 150.923 351.819 150.174 350.905C148.676 349.122 147.177 347.369 145.559 345.482L143.088 342.8C142.279 341.886 141.32 341.032 140.421 340.133C138.323 338.096 136.076 336.133 133.784 334.141C135.282 332.852 140.855 328.148 142.443 325.047C144.031 321.946 145.14 317.452 143.492 314.111C143.132 313.312 142.607 312.598 141.952 312.016C141.297 311.433 140.527 310.996 139.691 310.731C138.856 310.467 137.974 310.382 137.103 310.481C136.232 310.581 135.392 310.863 134.638 311.309C130.144 314.111 129.724 323.609 130.878 328.178C130.953 328.463 132.151 331.639 132.84 333.377C131.447 332.238 130.069 331.085 128.63 329.961C124.451 326.74 120.136 323.609 115.836 320.463C114.518 319.504 113.215 318.515 111.911 317.556C112.48 317.092 119.147 311.714 120.9 308.178C122.473 305.032 123.612 300.582 121.964 297.242C121.603 296.443 121.079 295.729 120.424 295.146C119.769 294.564 118.998 294.127 118.163 293.862C117.327 293.598 116.445 293.513 115.575 293.612C114.704 293.712 113.864 293.994 113.11 294.44C108.615 297.242 108.181 306.74 109.349 311.309C109.349 311.654 111.162 316.238 111.656 317.377C108.78 315.234 105.949 313.077 103.222 310.83C99.5226 307.821 96.0198 304.578 92.7349 301.122C93.0045 300.912 99.9859 295.324 101.724 291.698C103.297 288.552 104.435 284.103 102.787 280.762C102.427 279.963 101.902 279.249 101.247 278.667C100.592 278.085 99.822 277.647 98.9864 277.383C98.1509 277.118 97.269 277.033 96.3983 277.133C95.5276 277.232 94.6877 277.514 93.9334 277.96C89.4389 280.762 89.0045 290.26 90.173 294.829C90.173 295.129 91.5663 298.62 92.2255 300.268L91.9708 300.418C88.7746 296.847 85.9065 292.997 83.4014 288.912C81.9932 286.695 80.7797 284.417 79.6411 282.305C81.0343 281.391 87.4314 277.181 89.424 274.095C91.4165 271.009 92.9446 266.844 91.6712 263.354C91.4007 262.519 90.9577 261.752 90.371 261.1C89.7843 260.449 89.067 259.928 88.2658 259.572C87.4646 259.216 86.5973 259.032 85.7205 259.033C84.8438 259.034 83.977 259.22 83.1767 259.578C78.4276 261.885 76.9444 271.279 77.5886 275.938C77.5886 276.193 78.2628 278.739 78.7572 280.582C78.2628 279.593 77.7384 278.575 77.259 277.586C75.5212 273.99 74.1579 270.605 72.9593 267.578C72.3002 265.855 71.7458 264.297 71.2365 262.814C72.1503 261.211 75.7309 254.664 76.0905 251.084C76.45 247.503 75.8957 243.024 73.0942 240.507C72.4695 239.892 71.7226 239.416 70.9019 239.109C70.0812 238.802 69.2051 238.671 68.3306 238.725C67.456 238.779 66.6025 239.016 65.8255 239.421C65.0486 239.826 64.3655 240.39 63.8207 241.076C60.6745 245.301 63.6858 254.335 66.4124 258.17C66.6372 258.5 70.9069 263.279 70.9069 263.189V263.084C71.3713 264.582 71.8807 266.08 72.405 267.698C73.5286 270.694 74.832 274.185 76.495 277.826C78.2391 281.774 80.2151 285.616 82.4126 289.331C84.8597 293.503 87.6669 297.454 90.8023 301.137L90.9221 301.257C89.6037 300.448 85.8584 298.26 85.5438 298.17C81.2141 296.313 71.7608 295.264 68.2851 299.234C67.7289 299.912 67.3213 300.7 67.0888 301.545C66.8563 302.391 66.804 303.276 66.9353 304.143C67.0667 305.011 67.3787 305.84 67.8513 306.579C68.3238 307.318 68.9463 307.95 69.6784 308.433C72.6747 310.575 77.289 310.156 80.6298 309.092C84.4202 307.893 90.8022 302.125 91.3116 301.601C94.5758 305.26 98.0792 308.698 101.799 311.893C103.971 313.766 106.218 315.594 108.495 317.377L106.143 316.058C101.814 314.201 92.3603 313.152 88.8846 317.137C88.328 317.813 87.9196 318.598 87.6861 319.442C87.4525 320.286 87.399 321.17 87.529 322.036C87.6589 322.902 87.9695 323.73 88.4405 324.469C88.9115 325.207 89.5324 325.838 90.2629 326.321C93.2592 328.478 97.8735 328.043 101.229 326.98C104.585 325.916 110.218 321.107 111.626 319.804L114.263 321.856C118.503 325.092 122.743 328.313 126.803 331.594C128.226 332.748 129.589 333.946 130.968 335.13C129.934 334.545 129.065 334.051 128.915 333.991C124.6 332.133 115.132 331.085 111.671 335.055C111.114 335.732 110.706 336.519 110.472 337.364C110.239 338.209 110.185 339.093 110.315 339.961C110.445 340.828 110.755 341.658 111.226 342.397C111.698 343.137 112.319 343.769 113.05 344.253C116.046 346.396 120.66 345.976 124.016 344.913C127.372 343.849 132.421 339.489 134.144 337.961C135.522 339.22 136.885 340.478 138.159 341.766C139.013 342.65 139.881 343.459 140.69 344.403L143.103 347.13C144.601 348.928 146.099 350.77 147.492 352.553C148.466 353.782 149.38 354.98 150.294 356.179C148.885 355.01 146.069 352.778 145.799 352.628C141.799 350.126 132.615 347.654 128.585 351.13C127.932 351.714 127.41 352.43 127.052 353.23C126.694 354.031 126.509 354.897 126.509 355.774C126.509 356.651 126.694 357.517 127.052 358.318C127.41 359.118 127.932 359.834 128.585 360.418C131.267 363.01 135.851 363.28 139.327 362.74C143.147 362.141 150.084 357.617 150.938 357.047C152.436 359.04 153.934 360.988 155.237 362.86C159.912 369.302 163.552 374.845 166.039 378.756L166.294 379.16L169.515 377.587L169.005 376.823C166.399 372.928 162.608 367.4 157.754 361.003C156.256 358.965 154.563 356.838 152.825 354.665C154.609 352.694 156.28 350.623 157.829 348.463C161.53 349.961 169.26 349.961 170.249 349.961C170.414 352.463 170.549 354.89 170.638 357.182C170.968 365.123 170.953 371.759 170.863 376.404V376.943L174.399 375.22C174.399 370.606 174.234 364.388 173.755 357.018C173.605 354.486 173.395 351.774 173.14 349.002C174.129 348.763 182.129 346.695 185.125 344.283C187.867 342.081 190.758 338.515 190.669 334.8C190.675 333.923 190.497 333.054 190.145 332.25C189.794 331.446 189.277 330.725 188.628 330.134C187.979 329.544 187.213 329.096 186.38 328.821C185.547 328.546 184.665 328.449 183.792 328.538C178.564 329.212 174.174 337.647 173.305 342.291C173.305 342.56 173.035 345.587 172.916 347.489C172.811 346.366 172.721 345.257 172.601 344.089C172.361 341.796 172.062 339.489 171.747 337.032L171.163 333.422C170.998 332.223 170.668 330.98 170.414 329.736C169.784 326.86 169.005 323.998 168.151 321.107C170.159 320.912 177.32 320.058 180.391 318.305C183.463 316.553 186.833 313.466 187.298 309.766C187.438 308.901 187.394 308.015 187.169 307.168C186.943 306.321 186.542 305.531 185.991 304.849C185.439 304.168 184.75 303.61 183.969 303.213C183.187 302.816 182.331 302.589 181.455 302.545C176.182 302.41 170.564 310.036 169.02 314.53C168.916 314.8 168.166 318.126 167.777 319.953C167.253 318.231 166.743 316.508 166.159 314.77C164.451 309.781 162.578 304.792 160.721 299.788L159.058 295.204C159.777 295.129 168.316 294.32 171.747 292.343C174.743 290.59 178.189 287.504 178.653 283.818C178.794 282.952 178.75 282.066 178.524 281.218C178.299 280.37 177.898 279.579 177.347 278.896C176.796 278.214 176.107 277.655 175.325 277.256C174.544 276.857 173.687 276.628 172.811 276.582C167.537 276.462 161.919 284.073 160.376 288.567C160.256 288.912 159.178 293.676 158.953 294.904C157.739 291.534 156.556 288.163 155.537 284.792C154.115 280.251 152.994 275.622 152.181 270.934C152.511 270.934 161.425 270.095 164.945 268.073C167.942 266.32 171.387 263.234 171.852 259.533C171.99 258.668 171.944 257.784 171.718 256.938C171.492 256.091 171.09 255.302 170.539 254.621C169.988 253.94 169.3 253.383 168.52 252.985C167.739 252.587 166.884 252.358 166.009 252.312C160.736 252.177 155.118 259.803 153.575 264.297C153.47 264.597 152.646 268.222 152.286 269.96H151.987C151.299 265.219 151.033 260.426 151.192 255.638C151.192 253.001 151.447 250.484 151.687 248.042C153.365 248.042 161.02 248.042 164.376 246.544C167.732 245.046 171.328 242.454 172.196 238.829C172.431 237.984 172.485 237.099 172.354 236.231C172.223 235.364 171.91 234.534 171.436 233.796C170.963 233.058 170.338 232.428 169.605 231.948C168.871 231.467 168.044 231.147 167.178 231.009C161.949 230.289 155.522 237.316 153.5 241.496C153.38 241.735 152.526 244.207 151.912 245.99C152.046 244.881 152.166 243.743 152.301 242.694C152.84 238.739 153.575 235.203 154.249 231.982C154.653 230.185 155.043 228.567 155.432 227.053C157.08 226.214 163.702 222.754 165.919 219.937C168.136 217.121 170.189 213.106 169.29 209.45C168.799 207.956 167.763 206.702 166.389 205.939C165.014 205.175 163.402 204.958 161.874 205.33Z" fill="#92E3A9"/>
<path d="M66.503 286.65C70.6229 286.485 78.8627 282.26 78.8777 282.26C78.8927 282.26 74.3832 277.676 74.1136 277.421C70.4281 274.425 61.5891 270.979 57.1995 273.885C56.4812 274.389 55.8774 275.038 55.4274 275.791C54.9774 276.544 54.6915 277.384 54.5882 278.255C54.485 279.126 54.5668 280.009 54.8283 280.846C55.0899 281.684 55.5252 282.456 56.1059 283.114C58.4729 286.005 62.9823 286.844 66.503 286.65Z" fill="#92E3A9"/>
<g opacity="0.5">
<path d="M151.672 247.593C151.762 247.593 150.504 241.316 150.369 240.941C148.871 236.447 143.477 228.642 138.204 228.657C137.328 228.684 136.468 228.895 135.679 229.277C134.89 229.659 134.19 230.202 133.625 230.872C133.06 231.541 132.642 232.323 132.399 233.164C132.155 234.006 132.091 234.89 132.211 235.758C132.601 239.458 135.927 242.619 138.938 244.432C142.444 246.574 151.672 247.593 151.672 247.593Z" fill="white"/>
<path d="M161.875 205.33C156.901 207.113 154.385 216.312 154.594 221.016C154.594 221.42 155.538 227.758 155.628 227.713H155.733C155.328 229.211 154.924 230.709 154.504 232.432C153.755 235.593 153.006 239.173 152.317 243.129C151.606 247.388 151.135 251.685 150.909 255.998C150.646 260.822 150.811 265.66 151.403 270.455C151.41 270.514 151.41 270.575 151.403 270.634C150.759 269.226 148.811 265.376 148.617 265.091C146.04 261.151 138.729 255.054 133.635 256.462C132.798 256.721 132.025 257.153 131.365 257.73C130.706 258.307 130.174 259.015 129.806 259.81C129.437 260.605 129.24 261.469 129.226 262.345C129.212 263.221 129.382 264.09 129.725 264.897C131.073 268.357 135.118 270.53 138.504 271.488C142.324 272.582 150.834 271.294 151.508 271.189C152.228 276.058 153.274 280.872 154.639 285.601C155.418 288.358 156.287 291.114 157.201 293.871C156.602 292.672 156.047 291.609 155.958 291.474C153.366 287.534 146.07 281.436 140.976 282.844C140.138 283.1 139.364 283.529 138.703 284.104C138.042 284.679 137.51 285.386 137.141 286.181C136.772 286.975 136.574 287.839 136.561 288.714C136.549 289.59 136.72 290.459 137.066 291.264C138.414 294.74 142.459 296.912 145.845 297.871C149.231 298.83 156.542 297.871 158.474 297.616C158.834 298.665 159.179 299.728 159.538 300.777C161.276 305.811 163.044 310.845 164.617 315.759C165.171 317.511 165.651 319.264 166.115 321.002C165.576 319.938 165.126 319.055 165.036 318.935C162.46 314.995 155.149 308.897 150.055 310.305C149.217 310.561 148.442 310.99 147.781 311.565C147.121 312.14 146.588 312.847 146.219 313.642C145.85 314.436 145.653 315.3 145.64 316.175C145.627 317.051 145.799 317.92 146.145 318.725C147.493 322.201 151.538 324.373 154.924 325.332C158.31 326.291 164.916 325.452 167.209 325.122C167.658 326.935 168.108 328.733 168.452 330.5C168.677 331.714 168.961 332.867 169.111 334.111C169.261 335.354 169.441 336.523 169.621 337.706C169.86 340.014 170.115 342.396 170.295 344.658C170.43 346.156 170.52 347.654 170.624 349.152C170.1 347.399 168.976 343.984 168.857 343.714C166.991 340.011 164.212 336.845 160.782 334.515C160.59 334.095 160.359 333.694 160.092 333.317C159.618 332.579 158.994 331.949 158.26 331.468C157.526 330.987 156.7 330.665 155.834 330.524C154.968 330.383 154.082 330.425 153.234 330.648C152.385 330.871 151.593 331.27 150.909 331.819C146.924 335.279 147.913 344.733 149.755 349.077C149.86 349.332 151.358 351.969 152.317 353.572C151.598 352.688 150.924 351.819 150.175 350.905C148.677 349.122 147.178 347.369 145.56 345.482L143.089 342.8C142.28 341.886 141.321 341.032 140.422 340.133C138.324 338.096 136.077 336.133 133.785 334.141C135.283 332.852 140.856 328.148 142.444 325.047C144.032 321.946 145.141 317.452 143.493 314.111C143.133 313.312 142.608 312.598 141.953 312.016C141.298 311.433 140.528 310.996 139.692 310.731C138.856 310.467 137.975 310.382 137.104 310.481C136.233 310.581 135.393 310.863 134.639 311.309C130.145 314.111 129.725 323.609 130.879 328.178C130.954 328.463 132.152 331.639 132.841 333.377C131.448 332.238 130.07 331.085 128.631 329.961C124.452 326.74 120.137 323.609 115.837 320.463C114.519 319.504 113.215 318.515 111.912 317.556C112.481 317.092 119.148 311.714 120.901 308.178C122.474 305.032 123.613 300.582 121.965 297.242C121.604 296.443 121.08 295.729 120.425 295.146C119.77 294.564 118.999 294.127 118.164 293.862C117.328 293.598 116.446 293.513 115.576 293.612C114.705 293.712 113.865 293.994 113.111 294.44C108.616 297.242 108.182 306.74 109.35 311.309C109.35 311.654 111.163 316.238 111.657 317.377C108.781 315.234 105.949 313.077 103.223 310.83C99.5236 307.821 96.0207 304.578 92.7358 301.122C93.0055 300.912 99.9869 295.324 101.725 291.698C103.298 288.552 104.436 284.103 102.788 280.762C102.428 279.963 101.903 279.249 101.248 278.667C100.593 278.085 99.823 277.647 98.9874 277.383C98.1519 277.118 97.27 277.033 96.3993 277.133C95.5286 277.232 94.6886 277.514 93.9344 277.96C89.4399 280.762 89.0054 290.26 90.174 294.829C90.174 295.129 91.5673 298.62 92.2265 300.268L91.9718 300.418C88.7756 296.847 85.9075 292.997 83.4024 288.912C81.9941 286.695 80.7806 284.417 79.642 282.305C81.0353 281.391 87.4324 277.181 89.4249 274.095C91.4175 271.009 92.9456 266.844 91.6721 263.354C91.4017 262.519 90.9587 261.752 90.372 261.1C89.7853 260.449 89.068 259.928 88.2668 259.572C87.4655 259.216 86.5983 259.032 85.7215 259.033C84.8447 259.034 83.978 259.22 83.1777 259.578C78.4285 261.885 76.9454 271.279 77.5896 275.938C77.5896 276.193 78.2638 278.739 78.7581 280.582C78.2638 279.593 77.7394 278.575 77.26 277.586C75.5221 273.99 74.1588 270.605 72.9603 267.578C72.3011 265.855 71.7468 264.297 71.2374 262.814C72.1513 261.211 75.7319 254.664 76.0914 251.084C76.451 247.503 75.8967 243.024 73.0952 240.507C72.4705 239.892 71.7235 239.416 70.9029 239.109C70.0822 238.802 69.2061 238.671 68.3315 238.725C67.457 238.779 66.6035 239.016 65.8265 239.421C65.0495 239.826 64.3665 240.39 63.8216 241.076C60.6755 245.301 63.6868 254.335 66.4134 258.17C66.6381 258.5 70.9079 263.279 70.9079 263.189V263.084C71.3723 264.582 71.8816 266.08 72.406 267.698C73.5296 270.694 74.833 274.185 76.4959 277.826C78.2401 281.774 80.2161 285.616 82.4136 289.331C84.8607 293.503 87.6679 297.454 90.8032 301.137L90.9231 301.257C89.6047 300.448 85.8593 298.26 85.5447 298.17C81.2151 296.313 71.7618 295.264 68.2861 299.234C67.7299 299.912 67.3223 300.7 67.0898 301.545C66.8572 302.391 66.805 303.276 66.9363 304.143C67.0677 305.011 67.3797 305.84 67.8522 306.579C68.3248 307.318 68.9473 307.95 69.6794 308.433C72.6757 310.575 77.29 310.156 80.6308 309.092C84.4211 307.893 90.8032 302.125 91.3126 301.601C94.5768 305.26 98.0802 308.698 101.8 311.893C103.972 313.766 106.219 315.594 108.496 317.377L106.144 316.058C101.815 314.201 92.3613 313.152 88.8856 317.137C88.3289 317.813 87.9206 318.598 87.6871 319.442C87.4535 320.286 87.4 321.17 87.5299 322.036C87.6599 322.902 87.9704 323.73 88.4414 324.469C88.9124 325.207 89.5333 325.838 90.2639 326.321C93.2602 328.478 97.8745 328.043 101.23 326.98C104.586 325.916 110.219 321.107 111.627 319.804L114.264 321.856C118.504 325.092 122.744 328.313 126.804 331.594C128.227 332.748 129.59 333.946 130.968 335.13C129.935 334.545 129.066 334.051 128.916 333.991C124.601 332.133 115.133 331.085 111.672 335.055C111.115 335.732 110.707 336.519 110.473 337.364C110.24 338.209 110.186 339.093 110.316 339.961C110.446 340.828 110.756 341.658 111.227 342.397C111.699 343.137 112.32 343.769 113.051 344.253C116.047 346.396 120.661 345.976 124.017 344.913C127.373 343.849 132.422 339.489 134.145 337.961C135.523 339.22 136.886 340.478 138.16 341.766C139.014 342.65 139.882 343.459 140.691 344.403L143.103 347.13C144.602 348.928 146.1 350.77 147.493 352.553C148.467 353.782 149.381 354.98 150.295 356.179C148.886 355.01 146.07 352.778 145.8 352.628C141.8 350.126 132.616 347.654 128.586 351.13C127.933 351.714 127.411 352.43 127.053 353.23C126.695 354.031 126.51 354.897 126.51 355.774C126.51 356.651 126.695 357.517 127.053 358.318C127.411 359.118 127.933 359.834 128.586 360.418C131.268 363.01 135.852 363.28 139.328 362.74C143.148 362.141 150.085 357.617 150.939 357.047C152.437 359.04 153.935 360.988 155.238 362.86C159.913 369.302 163.553 374.845 166.04 378.756L166.295 379.16L169.516 377.587L169.006 376.823C166.4 372.928 162.609 367.4 157.755 361.003C156.257 358.965 154.564 356.838 152.826 354.665C154.61 352.694 156.281 350.623 157.83 348.463C161.531 349.961 169.261 349.961 170.25 349.961C170.415 352.463 170.55 354.89 170.639 357.182C170.969 365.123 170.954 371.759 170.864 376.404V376.943L174.4 375.22C174.4 370.606 174.235 364.388 173.756 357.018C173.606 354.486 173.396 351.774 173.141 349.002C174.13 348.763 182.13 346.695 185.126 344.283C187.868 342.081 190.759 338.515 190.67 334.8C190.676 333.923 190.498 333.054 190.146 332.25C189.795 331.446 189.278 330.725 188.629 330.134C187.98 329.544 187.214 329.096 186.381 328.821C185.548 328.546 184.666 328.449 183.793 328.538C178.565 329.212 174.175 337.647 173.306 342.291C173.306 342.56 173.036 345.587 172.917 347.489C172.812 346.366 172.722 345.257 172.602 344.089C172.362 341.796 172.063 339.489 171.748 337.032L171.164 333.422C170.999 332.223 170.669 330.98 170.415 329.736C169.785 326.86 169.006 323.998 168.152 321.107C170.16 320.912 177.321 320.058 180.392 318.305C183.464 316.553 186.834 313.466 187.299 309.766C187.439 308.901 187.395 308.015 187.17 307.168C186.944 306.321 186.543 305.531 185.992 304.849C185.44 304.168 184.751 303.61 183.97 303.213C183.188 302.816 182.332 302.589 181.456 302.545C176.183 302.41 170.564 310.036 169.021 314.53C168.917 314.8 168.167 318.126 167.778 319.953C167.254 318.231 166.744 316.508 166.16 314.77C164.452 309.781 162.579 304.792 160.722 299.788L159.059 295.204C159.778 295.129 168.317 294.32 171.748 292.343C174.744 290.59 178.19 287.504 178.654 283.818C178.795 282.952 178.751 282.066 178.525 281.218C178.3 280.37 177.899 279.579 177.348 278.896C176.797 278.214 176.108 277.655 175.326 277.256C174.545 276.857 173.688 276.628 172.812 276.582C167.538 276.462 161.92 284.073 160.377 288.567C160.257 288.912 159.179 293.676 158.954 294.904C157.74 291.534 156.557 288.163 155.538 284.792C154.116 280.251 152.995 275.622 152.182 270.934C152.512 270.934 161.426 270.095 164.946 268.073C167.943 266.32 171.388 263.234 171.853 259.533C171.991 258.668 171.945 257.784 171.719 256.938C171.493 256.091 171.091 255.302 170.54 254.621C169.989 253.94 169.301 253.383 168.521 252.985C167.74 252.587 166.885 252.358 166.01 252.312C160.737 252.177 155.119 259.803 153.576 264.297C153.471 264.597 152.647 268.222 152.287 269.96H151.987C151.3 265.219 151.034 260.426 151.193 255.638C151.193 253.001 151.448 250.484 151.688 248.042C153.366 248.042 161.021 248.042 164.377 246.544C167.733 245.046 171.329 242.454 172.197 238.829C172.432 237.984 172.486 237.099 172.355 236.231C172.224 235.364 171.911 234.534 171.437 233.796C170.964 233.058 170.339 232.428 169.605 231.948C168.872 231.467 168.045 231.147 167.179 231.009C161.95 230.289 155.523 237.316 153.501 241.496C153.381 241.735 152.527 244.207 151.913 245.99C152.047 244.881 152.167 243.743 152.302 242.694C152.841 238.739 153.576 235.203 154.25 231.982C154.654 230.185 155.044 228.567 155.433 227.053C157.081 226.214 163.703 222.754 165.92 219.937C168.137 217.121 170.19 213.106 169.291 209.45C168.8 207.956 167.764 206.702 166.39 205.939C165.015 205.175 163.403 204.958 161.875 205.33Z" fill="white"/>
<path d="M66.503 286.65C70.6229 286.485 78.8627 282.26 78.8777 282.26C78.8927 282.26 74.3832 277.676 74.1136 277.421C70.4281 274.425 61.5891 270.979 57.1995 273.885C56.4812 274.389 55.8774 275.038 55.4274 275.791C54.9774 276.544 54.6915 277.384 54.5882 278.255C54.485 279.126 54.5668 280.009 54.8283 280.846C55.0899 281.684 55.5252 282.456 56.1059 283.114C58.4729 286.005 62.9823 286.844 66.503 286.65Z" fill="white"/>
</g>
<path d="M116.855 399.79C116.855 399.79 141.874 339.489 155.882 342.111C169.89 344.733 131.912 438.247 131.912 438.247C131.912 438.247 175.927 355.22 205.95 355.22C235.973 355.22 194.939 446.981 156.931 477.573C156.931 477.573 216.947 412.898 251.958 426.891C286.97 440.884 181.935 506.413 181.935 506.413C181.935 506.413 242.954 487.191 235.958 502.053C228.962 516.915 209.95 519.521 209.95 519.521L278.97 523.027H38.832L92.8552 517.783C92.8552 517.783 36.8245 489.813 51.8359 478.457C66.8474 467.101 99.8515 491.566 99.8515 491.566C99.8515 491.566 42.8321 428.644 53.8285 405.033C64.8249 381.422 113.859 447.865 113.859 447.865C113.859 447.865 73.8437 363.085 81.8438 348.268C89.8439 333.452 116.855 399.79 116.855 399.79Z" fill="#92E3A9"/>
<path opacity="0.5" d="M116.855 399.79C116.855 399.79 141.874 339.489 155.882 342.111C169.89 344.733 131.912 438.247 131.912 438.247C131.912 438.247 175.927 355.22 205.95 355.22C235.973 355.22 194.939 446.981 156.931 477.573C156.931 477.573 216.947 412.898 251.958 426.891C286.97 440.884 181.935 506.413 181.935 506.413C181.935 506.413 242.954 487.191 235.958 502.053C228.962 516.915 209.95 519.521 209.95 519.521L278.97 523.027H38.832L92.8552 517.783C92.8552 517.783 36.8245 489.813 51.8359 478.457C66.8474 467.101 99.8515 491.566 99.8515 491.566C99.8515 491.566 42.8321 428.644 53.8285 405.033C64.8249 381.422 113.859 447.865 113.859 447.865C113.859 447.865 73.8437 363.085 81.8438 348.268C89.8439 333.452 116.855 399.79 116.855 399.79Z" fill="white"/>
<path d="M108.855 402.966C130.863 468 130.863 514.023 130.863 514.023C130.863 514.023 104.855 515.012 77.8438 495.012" stroke="#263238" stroke-linecap="round" stroke-linejoin="round"/>
<path d="M119.867 437.992C124.391 418.549 130.402 399.481 137.845 380.958" stroke="#263238" stroke-linecap="round" stroke-linejoin="round"/>
<path d="M184.886 399.969L128.871 483.012C128.871 483.012 90.8477 450.996 77.8438 432.988" stroke="#263238" stroke-linecap="round" stroke-linejoin="round"/>
<path d="M129.874 503.012C129.874 503.012 188.886 474.997 212.901 458.996" stroke="#263238" stroke-linecap="round" stroke-linejoin="round"/>
<path d="M439.601 399.79C439.601 399.79 414.597 339.489 400.649 342.111C386.701 344.733 424.619 438.247 424.619 438.247C424.619 438.247 380.604 355.22 350.596 355.22C320.588 355.22 361.593 446.981 399.615 477.573C399.615 477.573 339.585 412.898 304.573 426.891C269.561 440.884 374.611 506.413 374.611 506.413C374.611 506.413 313.577 487.191 320.588 502.053C327.6 516.915 346.596 519.521 346.596 519.521L277.517 523.027H517.639L463.616 517.783C463.616 517.783 519.632 489.813 504.635 478.457C489.639 467.101 456.605 491.566 456.605 491.566C456.605 491.566 513.639 428.644 502.628 405.033C491.617 381.422 442.597 447.865 442.597 447.865C442.597 447.865 482.628 363.085 474.613 348.223C466.598 333.362 439.601 399.79 439.601 399.79Z" fill="#92E3A9"/>
<path opacity="0.5" d="M439.601 399.79C439.601 399.79 414.597 339.489 400.649 342.111C386.701 344.733 424.619 438.247 424.619 438.247C424.619 438.247 380.604 355.22 350.596 355.22C320.588 355.22 361.593 446.981 399.615 477.573C399.615 477.573 339.585 412.898 304.573 426.891C269.561 440.884 374.611 506.413 374.611 506.413C374.611 506.413 313.577 487.191 320.588 502.053C327.6 516.915 346.596 519.521 346.596 519.521L277.517 523.027H517.639L463.616 517.783C463.616 517.783 519.632 489.813 504.635 478.457C489.639 467.101 456.605 491.566 456.605 491.566C456.605 491.566 513.639 428.644 502.628 405.033C491.617 381.422 442.597 447.865 442.597 447.865C442.597 447.865 482.628 363.085 474.613 348.223C466.598 333.362 439.601 399.79 439.601 399.79Z" fill="white"/>
<path d="M447.602 402.966C425.594 468 425.594 514.023 425.594 514.023C425.594 514.023 451.602 515.012 478.613 495.012" stroke="#263238" stroke-linecap="round" stroke-linejoin="round"/>
<path d="M436.605 437.992C432.08 418.549 426.07 399.481 418.627 380.958" stroke="#263238" stroke-linecap="round" stroke-linejoin="round"/>
<path d="M371.57 399.969L427.601 483.012C427.601 483.012 465.609 450.996 478.613 432.988" stroke="#263238" stroke-linecap="round" stroke-linejoin="round"/>
<path d="M426.597 503.012C426.597 503.012 367.57 474.997 343.555 458.996" stroke="#263238" stroke-linecap="round" stroke-linejoin="round"/>
<path d="M399.21 74.8569H167.897C162.312 74.8569 157.784 79.3844 157.784 84.9694V518.068C157.784 523.653 162.312 528.181 167.897 528.181H399.21C404.795 528.181 409.323 523.653 409.323 518.068V84.9694C409.323 79.3844 404.795 74.8569 399.21 74.8569Z" fill="#263238" stroke="#263238" stroke-miterlimit="10"/>
<path d="M300.947 101.943H269.636C269.213 101.943 268.794 101.86 268.403 101.698C268.013 101.536 267.658 101.299 267.358 101C267.059 100.701 266.822 100.346 266.66 99.9551C266.498 99.5643 266.415 99.1454 266.415 98.7224C266.415 98.3001 266.498 97.882 266.661 97.4921C266.823 97.1021 267.06 96.748 267.359 96.4501C267.659 96.1522 268.014 95.9164 268.405 95.7561C268.795 95.5959 269.214 95.5144 269.636 95.5164H300.947C301.798 95.5164 302.613 95.8542 303.214 96.4554C303.816 97.0567 304.153 97.8721 304.153 98.7224C304.155 99.1447 304.074 99.5632 303.914 99.9539C303.753 100.345 303.518 100.7 303.22 100.999C302.922 101.298 302.568 101.536 302.178 101.698C301.788 101.86 301.37 101.943 300.947 101.943Z" fill="#92E3A9"/>
<path d="M393.428 487.671H173.68V102.318H225.77L231.628 107.172C233.67 108.879 236.248 109.812 238.909 109.809H330.805C333.564 109.793 336.224 108.783 338.296 106.962L343.584 102.318H393.383L393.428 487.671Z" fill="white" stroke="#263238" stroke-width="0.938618" stroke-linecap="round" stroke-linejoin="round"/>
<path d="M261.441 130.723L258.445 120.655H183.657V130.723V467.206V477.289H384.124V130.723H261.441Z" fill="#92E3A9"/>
<path d="M377.068 148.865H190.698V466.202H377.068V148.865Z" fill="white"/>
<path d="M290.58 499.581C290.583 498.591 290.292 497.622 289.744 496.797C289.196 495.972 288.415 495.329 287.501 494.947C286.587 494.566 285.581 494.465 284.609 494.657C283.637 494.848 282.744 495.323 282.043 496.023C281.342 496.722 280.864 497.613 280.67 498.584C280.475 499.555 280.573 500.562 280.952 501.477C281.33 502.393 281.971 503.175 282.795 503.726C283.618 504.276 284.586 504.57 285.576 504.57C286.899 504.566 288.168 504.04 289.105 503.105C290.042 502.171 290.572 500.904 290.58 499.581Z" fill="#92E3A9"/>
<path d="M269.891 452.345C303.782 452.345 331.255 413.254 331.255 365.033C331.255 316.812 303.782 277.721 269.891 277.721C236.001 277.721 208.527 316.812 208.527 365.033C208.527 413.254 236.001 452.345 269.891 452.345Z" fill="#92E3A9"/>
<path opacity="0.5" d="M269.891 452.345C303.782 452.345 331.255 413.254 331.255 365.033C331.255 316.812 303.782 277.721 269.891 277.721C236.001 277.721 208.527 316.812 208.527 365.033C208.527 413.254 236.001 452.345 269.891 452.345Z" fill="white"/>
<path d="M278.596 267.578C278.596 267.578 274.76 261.166 271.24 260.852C267.719 260.537 225.801 286.845 219.389 300.538C212.977 314.231 206.909 341.707 223.883 368.149C240.438 393.872 266.386 393.018 279.839 391.73C293.292 390.441 302.311 386.067 315.944 375.13C329.577 364.194 342.087 348.089 343.9 337.152C345.712 326.216 339.046 320.133 334.791 318.62C330.536 317.107 305.922 317.407 287.989 299.144C270.056 280.882 278.596 267.578 278.596 267.578Z" fill="#263238" stroke="#263238" stroke-linecap="round" stroke-linejoin="round"/>
<path d="M284.034 259.249C284.034 259.249 273.157 263.414 266.43 270.77C259.704 278.125 255.554 289.661 255.239 306.62C254.925 323.579 260.363 342.77 281.472 351.1C302.581 359.43 321.472 353.018 327.555 347.25C333.637 341.482 341.038 325.182 341.038 325.182C341.038 325.182 307.45 334.171 291.449 315.249C275.449 296.328 284.034 259.249 284.034 259.249Z" fill="white" stroke="#263238" stroke-linecap="round" stroke-linejoin="round"/>
<path d="M472.021 271.069C463.811 258.754 444.216 255.114 428.725 250.095C413.234 245.076 404.11 235.114 408.215 210.454C412.32 185.795 433.684 145.734 433.279 138.438C432.875 131.142 359.451 131.607 352.604 133.944C345.758 136.281 344.409 135.757 338.027 143.966C334.49 148.4 331.29 153.092 328.454 158.004L336.364 141.375H336.949C337.808 139.189 339.028 137.163 340.559 135.382C347.52 127.307 351.465 117.067 351.72 106.408C352.02 90.7223 340.859 92.2355 338.746 97.0595C336.634 101.884 324.274 118.483 320.649 123.007C317.023 127.532 309.487 139.906 309.487 139.906L301.113 168.941C301.113 168.941 299.285 177.6 288.798 210.424C278.311 243.249 282.88 258.38 282.88 258.38C282.88 258.38 280.139 257.016 273.757 276.612C267.375 296.208 270.116 321.272 281.502 333.122C292.888 344.973 307.944 344.523 324.814 337.692C335.191 333.246 343.833 325.534 349.428 315.729C349.428 315.729 367.211 311.234 380.425 301.152C393.638 291.069 403.661 280.642 422.837 281.556C442.013 282.47 463.856 293.406 471.152 292.942C478.448 292.478 480.231 283.369 472.021 271.069Z" fill="white"/>
<mask id="mask0_502_357" style="mask-type:luminance" maskUnits="userSpaceOnUse" x="270" y="93" width="208" height="250">
<path d="M472.021 271.069C463.811 258.754 444.216 255.114 428.725 250.095C413.234 245.076 404.11 235.114 408.215 210.454C412.32 185.795 433.684 145.734 433.279 138.438C432.875 131.142 359.451 131.607 352.604 133.944C345.758 136.281 344.409 135.757 338.027 143.966C334.49 148.4 331.29 153.092 328.454 158.004L336.364 141.375H336.949C337.808 139.189 339.028 137.163 340.559 135.382C347.52 127.307 351.465 117.067 351.72 106.408C352.02 90.7223 340.859 92.2355 338.746 97.0595C336.634 101.884 324.274 118.483 320.649 123.007C317.023 127.532 309.487 139.906 309.487 139.906L301.113 168.941C301.113 168.941 299.285 177.6 288.798 210.424C278.311 243.249 282.88 258.38 282.88 258.38C282.88 258.38 280.139 257.016 273.757 276.612C267.375 296.208 270.116 321.272 281.502 333.122C292.888 344.973 307.944 344.523 324.814 337.692C335.191 333.246 343.833 325.534 349.428 315.729C349.428 315.729 367.211 311.234 380.425 301.152C393.638 291.069 403.661 280.642 422.837 281.556C442.013 282.47 463.856 293.406 471.152 292.942C478.448 292.478 480.231 283.369 472.021 271.069Z" fill="white"/>
</mask>
<g mask="url(#mask0_502_357)">
<path d="M354.462 228.417C303.75 235.983 287.81 248.088 292.873 264.747C293.924 268.05 295.631 271.108 297.892 273.736C297.892 274.05 297.892 274.395 297.982 274.755C297.982 274.755 298.881 275.294 300.229 276.253C302.005 277.968 303.924 279.526 305.967 280.912C309.293 284.073 312.274 288.028 311.66 291.699C310.357 299.519 292.184 313.182 283.001 313.841C273.817 314.5 270.626 305.377 269.323 315.145C268.019 324.912 288.214 349.003 307.75 346.396C327.286 343.789 343.571 316.433 343.571 316.433C343.571 316.433 340.964 311.938 354.058 298.2C362.657 289.212 374.957 285.242 384.38 281.556C393.277 278.939 401.949 275.613 410.313 271.608C433.489 260.252 461.025 267.833 461.025 267.833C461.025 267.833 405.174 220.761 354.462 228.417Z" fill="#92E3A9"/>
<path opacity="0.5" d="M354.462 228.417C303.75 235.983 287.81 248.088 292.873 264.747C293.924 268.05 295.631 271.108 297.892 273.736C297.892 274.05 297.892 274.395 297.982 274.755C297.982 274.755 298.881 275.294 300.229 276.253C302.005 277.968 303.924 279.526 305.967 280.912C309.293 284.073 312.274 288.028 311.66 291.699C310.357 299.519 292.184 313.182 283.001 313.841C273.817 314.5 270.626 305.377 269.323 315.145C268.019 324.912 288.214 349.003 307.75 346.396C327.286 343.789 343.571 316.433 343.571 316.433C343.571 316.433 340.964 311.938 354.058 298.2C362.657 289.212 374.957 285.242 384.38 281.556C393.277 278.939 401.949 275.613 410.313 271.608C433.489 260.252 461.025 267.833 461.025 267.833C461.025 267.833 405.174 220.761 354.462 228.417Z" fill="white"/>
</g>
<path d="M472.021 271.069C463.811 258.754 444.216 255.114 428.725 250.095C413.234 245.076 404.11 235.114 408.215 210.454C412.32 185.795 433.684 145.734 433.279 138.438C432.875 131.142 359.451 131.607 352.604 133.944C345.758 136.281 344.409 135.757 338.027 143.966C334.49 148.4 331.29 153.092 328.454 158.004L336.364 141.375H336.949C337.808 139.189 339.028 137.163 340.559 135.382C347.52 127.307 351.465 117.067 351.72 106.408C352.02 90.7223 340.859 92.2355 338.746 97.0595C336.634 101.884 324.274 118.483 320.649 123.007C317.023 127.532 309.487 139.906 309.487 139.906L301.113 168.941C301.113 168.941 299.285 177.6 288.798 210.424C278.311 243.249 282.88 258.38 282.88 258.38C282.88 258.38 280.139 257.016 273.757 276.612C267.375 296.208 270.116 321.272 281.502 333.122C292.888 344.973 307.944 344.523 324.814 337.692C335.191 333.246 343.833 325.534 349.428 315.729C349.428 315.729 367.211 311.234 380.425 301.152C393.638 291.069 403.661 280.642 422.837 281.556C442.013 282.47 463.856 293.406 471.152 292.942C478.448 292.478 480.231 283.369 472.021 271.069Z" stroke="#263238" stroke-linecap="round" stroke-linejoin="round"/>
<path d="M472.276 292.837C472.276 292.837 473.234 289.002 462.358 283.848C451.481 278.695 447.002 282.245 447.002 284.807C447.002 287.369 470.598 292.837 472.276 292.837Z" fill="white" stroke="#263238" stroke-linecap="round" stroke-linejoin="round"/>
<path d="M369.218 117.299L341.772 138.423H378.582C378.582 138.423 378.582 112.475 369.218 117.299Z" fill="white" stroke="#263238" stroke-linecap="round" stroke-linejoin="round"/>
<path d="M334.791 269.661C338.689 265.255 343.549 261.806 348.993 259.578" stroke="#263238" stroke-linecap="round" stroke-linejoin="round"/>
<path d="M329.802 277.856C330.222 276.638 330.77 275.468 331.435 274.365" stroke="#263238" stroke-linecap="round" stroke-linejoin="round"/>
<path d="M318.866 306.32C317.398 305.029 316.026 303.632 314.761 302.141" stroke="#263238" stroke-linecap="round" stroke-linejoin="round"/>
<path d="M349.428 315.729C340.963 316.692 332.411 314.94 325.008 310.725" stroke="#263238" stroke-linecap="round" stroke-linejoin="round"/>
<path d="M452.051 136.611H313.742C294.641 136.611 279.165 151.397 279.165 169.57V234.739C279.165 250.589 290.866 263.833 306.476 267.024L299.18 288.612L332.948 267.818H452.051C471.137 267.818 486.628 253.031 486.628 234.859V169.69C486.628 151.397 471.137 136.611 452.051 136.611Z" fill="#92E3A9" stroke="#263238" stroke-width="2" stroke-miterlimit="10"/>
<path d="M301.682 180.491H457.159" stroke="#263238" stroke-width="2.06409" stroke-miterlimit="10" stroke-linecap="round"/>
<path d="M301.682 196.506H457.159" stroke="#263238" stroke-width="2.06409" stroke-miterlimit="10" stroke-linecap="round"/>
<path d="M301.682 212.507H457.159" stroke="#263238" stroke-width="2.06409" stroke-miterlimit="10" stroke-linecap="round"/>
<path d="M301.682 228.507H457.159" stroke="#263238" stroke-width="2.06409" stroke-miterlimit="10" stroke-linecap="round"/>
<path d="M485.37 193.735C496.019 193.735 504.651 185.491 504.651 175.323C504.651 165.154 496.019 156.91 485.37 156.91C474.721 156.91 466.089 165.154 466.089 175.323C466.089 185.491 474.721 193.735 485.37 193.735Z" fill="#263238"/>
<path d="M483.871 188.327C483.238 187.061 482.953 185.649 483.047 184.237V169.255L479.661 171.143C479.297 171.354 478.884 171.467 478.463 171.472C478.147 171.476 477.835 171.412 477.545 171.285C477.256 171.159 476.997 170.972 476.785 170.738C476.344 170.28 476.102 169.666 476.111 169.03C476.101 168.598 476.227 168.174 476.47 167.817C476.82 167.399 477.235 167.04 477.699 166.753L484.261 163.397C484.994 162.872 485.851 162.547 486.748 162.454C488.98 162.454 490.089 164.132 490.089 167.487V184.761C490.089 188.042 488.92 189.675 486.568 189.675C486.038 189.722 485.505 189.62 485.029 189.382C484.553 189.144 484.152 188.779 483.871 188.327Z" fill="white"/>
<path d="M411.391 126.963C411.391 126.963 412.005 139.023 422.867 144.761C433.728 150.498 447.601 149.255 447.901 142.049C448.2 134.843 439.751 127.262 434.028 117.599C428.305 107.936 415.616 113.389 410.192 120.026" fill="white"/>
<path d="M411.391 126.963C411.391 126.963 412.005 139.023 422.867 144.761C433.728 150.498 447.601 149.255 447.901 142.049C448.2 134.843 439.751 127.262 434.028 117.599C428.305 107.936 415.616 113.389 410.192 120.026" stroke="#263238" stroke-linecap="round" stroke-linejoin="round"/>
<path d="M430.103 136.611C429.189 141.435 432.515 144.101 435.526 145.599C438.538 147.098 444.515 146.214 447.901 141.989C448.051 138.453 446.118 134.858 443.407 130.978C439.631 131.457 430.807 132.835 430.103 136.611Z" fill="white" stroke="#263238" stroke-linecap="round" stroke-linejoin="round"/>
<path d="M388.769 126.963C388.769 126.963 389.368 139.023 400.23 144.761C411.092 150.498 424.979 149.255 425.279 142.049C425.579 134.843 417.129 127.262 411.391 117.599C405.653 107.936 392.994 113.389 387.556 120.026" fill="white"/>
<path d="M388.769 126.963C388.769 126.963 389.368 139.023 400.23 144.761C411.092 150.498 424.979 149.255 425.279 142.049C425.579 134.843 417.129 127.262 411.391 117.599C405.653 107.936 392.994 113.389 387.556 120.026" stroke="#263238" stroke-linecap="round" stroke-linejoin="round"/>
<path d="M407.481 136.611C406.567 141.435 409.893 144.101 412.904 145.599C415.916 147.098 421.893 146.214 425.279 141.989C425.414 138.453 423.481 134.858 420.785 130.978C417.009 131.457 408.185 132.835 407.481 136.611Z" fill="white" stroke="#263238" stroke-linecap="round" stroke-linejoin="round"/>
<path d="M367.72 126.963C367.72 126.963 368.32 139.023 379.181 144.761C390.043 150.498 403.916 149.255 404.215 142.049C404.515 134.843 396.08 127.262 390.342 117.599C384.604 107.936 371.93 113.389 366.507 120.026" fill="white"/>
<path d="M367.72 126.963C367.72 126.963 368.32 139.023 379.181 144.761C390.043 150.498 403.916 149.255 404.215 142.049C404.515 134.843 396.08 127.262 390.342 117.599C384.604 107.936 371.93 113.389 366.507 120.026" stroke="#263238" stroke-linecap="round" stroke-linejoin="round"/>
<path d="M386.418 136.611C385.519 141.435 388.83 144.101 391.856 145.599C394.882 147.098 400.845 146.214 404.216 141.989C404.365 138.453 402.433 134.858 399.721 130.978C395.946 131.457 387.122 132.835 386.418 136.611Z" fill="white" stroke="#263238" stroke-linecap="round" stroke-linejoin="round"/>
<path d="M282.88 258.38C282.88 258.38 283.719 276.927 293.951 289.406" stroke="#263238" stroke-linecap="round" stroke-linejoin="round"/>
<path d="M253.097 335.789C253.097 339.564 250.581 342.621 247.479 342.621C244.378 342.621 241.861 339.624 241.861 335.789C241.861 331.954 244.378 328.957 247.479 328.957C250.581 328.957 253.097 332.014 253.097 335.789Z" fill="white"/>
<path d="M239.12 344.298C239.12 348.074 236.603 351.13 233.502 351.13C230.401 351.13 227.884 348.134 227.884 344.298C227.884 340.463 230.401 337.452 233.502 337.452C236.603 337.452 239.12 340.523 239.12 344.298Z" stroke="#263238" stroke-linecap="round" stroke-linejoin="round"/>
</svg>
